<svg width="846" height="880" viewBox="0 0 846 880" fill="none" xmlns="http://www.w3.org/2000/svg">
<g clip-path="url(#clip0_511_207)">
<path d="M767.901 427.318C788.842 427.231 838.917 430.02 844.465 455.928C847.689 470.974 832.934 488.401 822.565 498.074C758.896 557.501 582.357 609.638 497.979 591.804C449.85 581.638 455.543 551.256 486.39 523.488C547.589 468.418 686.544 427.638 767.901 427.318ZM658.921 473.849C613.61 477.248 547.851 498.364 510.614 524.505C487.406 540.8 464.112 568.713 507.884 577.513C558.83 587.766 653.838 558.43 696.593 528.92C708.851 520.468 738.681 496.737 718.436 481.75C705.191 471.932 674.954 472.659 658.95 473.849H658.921Z" fill="#062B2B"/>
<path d="M66.3817 441.933C147.477 435.601 264.037 461.975 334.88 502.232C364.071 518.817 421.058 561.776 363.926 585.506C286.548 617.66 88.7759 569.153 24.5269 514.838C-30.108 468.655 16.4812 445.825 66.3817 441.933ZM170.946 481.116C135.656 483.12 97.5186 497.904 140.884 530.639C184.249 563.373 297.15 591.025 348.125 574.004C391.577 559.481 351.872 529.884 330.552 518.178C289.394 495.581 217.681 478.473 170.975 481.116H170.946Z" fill="#062B2B"/>
<path d="M115.687 234.222C158.733 226.873 237.446 289.263 267.857 318.048C293.011 341.836 322.986 375.965 339.019 406.608C360.223 447.155 359.177 482.126 302.625 464.757C237.795 444.832 118.533 337.566 101.135 271.313C97.272 256.558 96.604 237.475 115.687 234.222ZM185.368 306.778C169.189 310.409 180.372 336.492 185.019 345.699C203.173 381.57 260.712 434.056 298.065 449.014C335.94 464.176 346.687 449.072 328.359 414.392C310.032 379.711 254.38 327.981 216.795 312.5C206.89 308.404 196.434 304.309 185.368 306.807V306.778Z" fill="#062B2B"/>
<path d="M726.988 228.565C736.079 237.715 732.681 254.648 729.631 265.802C711.564 331.91 603.776 443.648 539.033 465.781C493.17 481.466 483.091 458.403 498.369 417.856C521.983 355.088 608.191 266.267 667.909 236.001C681.909 228.914 714.091 215.582 726.988 228.536V228.565ZM640.025 299.582C598.025 304.752 511.585 393.341 506.909 435.109C503.365 466.798 531.365 456.428 549.286 446.989C585.738 427.818 646.851 365.69 657.075 325.345C660.909 310.213 659.021 297.229 640.025 299.582Z" fill="#062B2B"/>
<path d="M409.093 0.524915C465.354 -7.08504 491.902 69.8569 492.309 114.064C492.744 161.205 464.425 249.01 402.151 231.728C319.342 208.753 323.263 12.1432 409.093 0.524915ZM413.537 61.4917C356.578 66.4876 349.404 190.861 400.292 216.189C439.794 235.853 464.889 183.832 467.533 151.824C470.176 119.815 455.304 57.832 413.537 61.4917Z" fill="#062B2B"/>
<path d="M243.35 116.824C267.284 115.865 299.321 160.363 311.259 178.865C337.691 219.82 373.562 299.782 365.197 348.666C358.807 386.048 322.79 357.932 308.471 342.799C269.346 301.496 219.562 198.849 225.023 141.745C226.097 130.562 230.222 117.376 243.35 116.824ZM275.417 194.928C267.168 197.309 265.396 212.907 265.657 220.052C266.877 254.674 299.786 324.21 327.409 345.616C338.591 354.301 352.272 358.396 355.35 340.214C359.998 312.679 338.707 263.504 324.359 239.774C317.155 227.894 291.247 190.338 275.417 194.899V194.928Z" fill="#062B2B"/>
<path d="M578.987 113.744C592.116 112.96 597.141 125.507 599.29 136.283C610.85 194.171 558.394 321.682 512.56 359.47C496.701 372.57 479.651 377.13 472.593 352.935C459.958 309.628 491.995 223.885 513.228 184.499C523.858 164.806 554.908 115.167 578.958 113.744H578.987ZM551.045 193.939C534.634 193.416 513.344 228.532 506.489 241.632C493.767 265.885 474.277 319.765 482.468 345.993C487.29 361.416 499.053 356.362 508.871 348.549C536.116 326.881 574.543 234.777 560.746 202.391C558.8 197.86 556.564 194.113 551.045 193.939Z" fill="#062B2B"/>
</g>
<path d="M78.6607 662.071C98.9146 662.071 114.772 666.31 126.234 674.788C137.852 683.11 143.662 694.493 143.662 708.937C143.662 723.539 137.852 735.079 126.234 743.557C114.615 752.036 98.7576 756.275 78.6607 756.275H57.4647V806.439C57.4647 813.347 58.9563 818.057 61.9394 820.57C65.0796 823.082 70.6533 824.73 78.6607 825.515V828.812H8.4784V825.515C16.4858 824.73 21.981 823.082 24.9642 820.57C28.1043 817.9 29.6744 813.19 29.6744 806.439V684.209C29.6744 677.457 28.1043 672.826 24.9642 670.314C21.981 667.644 16.4858 665.996 8.4784 665.368V662.071H78.6607ZM72.5374 749.681C85.569 749.681 95.696 745.834 102.918 738.141C110.298 730.29 113.987 720.556 113.987 708.937C113.987 697.162 110.298 687.506 102.918 679.97C95.696 672.433 85.569 668.665 72.5374 668.665H57.4647V749.681H72.5374ZM250.897 792.308C249.012 804.084 243.831 813.661 235.353 821.041C226.874 828.42 216.747 832.11 204.972 832.11C192.882 832.11 182.441 829.441 173.649 824.102C165.014 818.607 158.498 811.306 154.102 802.2C149.705 793.093 147.507 783.045 147.507 772.054C147.507 759.337 149.941 748.032 154.808 738.141C159.832 728.092 166.741 720.32 175.533 714.825C184.325 709.33 194.374 706.582 205.678 706.582C221.065 706.582 232.605 711.371 240.299 720.948C248.149 730.369 251.603 742.537 250.661 757.453H174.355V758.63C174.355 775.116 178.124 788.619 185.66 799.138C193.196 809.501 203.873 814.682 217.689 814.682C224.598 814.682 230.8 812.562 236.295 808.323C241.79 804.084 245.637 798.51 247.835 791.602L250.897 792.308ZM201.675 713.177C193.51 713.177 187.152 716.709 182.598 723.775C178.045 730.683 175.376 740.025 174.591 751.8H224.99C225.461 745.52 224.755 739.397 222.871 733.431C220.987 727.464 218.161 722.597 214.392 718.829C210.781 715.061 206.542 713.177 201.675 713.177ZM382.678 812.562C379.538 820.099 375.77 825.28 371.373 828.106C367.134 830.932 362.895 832.345 358.656 832.345C353.16 832.345 348.136 830.304 343.583 826.222C339.03 822.14 336.753 816.409 336.753 809.03V805.261C333.456 813.897 328.667 820.57 322.387 825.28C316.264 829.99 309.198 832.345 301.191 832.345C291.928 832.345 284.156 829.519 277.875 823.867C271.752 818.057 268.691 810.678 268.691 801.729C268.691 789.639 272.773 780.219 280.937 773.467C289.101 766.559 301.898 762.241 319.325 760.514L336.753 758.866V747.09C336.753 736.571 334.634 728.249 330.394 722.126C326.155 716.003 320.267 712.941 312.731 712.941C305.823 712.941 300.563 714.904 296.952 718.829C293.341 722.597 291.535 727.072 291.535 732.253C291.535 734.451 291.692 736.021 292.006 736.963C292.477 738.847 292.713 740.574 292.713 742.144C292.713 748.111 289.808 751.957 283.999 753.684C282.429 753.998 281.251 754.155 280.466 754.155C277.169 754.155 274.343 753.056 271.988 750.858C269.79 748.66 268.691 745.52 268.691 741.438C268.691 735.943 270.496 730.526 274.107 725.188C277.875 719.692 283.528 715.218 291.064 711.764C298.6 708.152 307.628 706.347 318.148 706.347C332.121 706.347 343.033 710.193 350.884 717.887C358.891 725.58 362.895 736.021 362.895 749.21V809.265C362.895 812.405 363.523 814.917 364.779 816.801C366.035 818.529 367.762 819.392 369.96 819.392C373.414 819.392 376.712 816.723 379.852 811.385L382.678 812.562ZM315.086 816.095C319.639 816.095 323.8 814.525 327.568 811.385C331.336 808.245 334.398 803.848 336.753 798.196V765.225L321.445 767.344C304.017 769.856 295.303 778.884 295.303 794.428C295.303 800.708 297.187 805.889 300.956 809.972C304.724 814.054 309.434 816.095 315.086 816.095ZM485.37 747.326C481.602 736.178 476.342 727.7 469.591 721.89C462.996 715.924 455.617 712.941 447.453 712.941C441.172 712.941 435.442 715.061 430.26 719.3C425.236 723.382 421.232 729.034 418.249 736.257C415.423 743.479 414.01 751.486 414.01 760.279C414.01 770.013 415.816 779.041 419.427 787.363C423.038 795.684 428.141 802.357 434.735 807.381C441.486 812.248 449.18 814.682 457.815 814.682C465.194 814.682 471.632 812.562 477.127 808.323C482.622 804.084 486.626 798.118 489.138 790.424L492.2 791.131C490.316 803.534 485.213 813.504 476.891 821.041C468.57 828.42 458.129 832.11 445.569 832.11C434.735 832.11 424.844 829.519 415.894 824.338C407.102 819 400.115 811.699 394.934 802.435C389.909 793.015 387.397 782.574 387.397 771.112C387.397 759.023 389.909 748.032 394.934 738.141C399.958 728.249 406.788 720.477 415.423 714.825C424.058 709.173 433.557 706.347 443.92 706.347C449.572 706.347 454.282 706.818 458.051 707.76C461.976 708.702 466.058 710.036 470.297 711.764C473.123 713.02 475.086 713.648 476.185 713.648C477.284 713.648 478.148 713.098 478.776 711.999C479.404 710.9 479.953 709.016 480.424 706.347H483.486L488.667 747.326H485.37ZM558.597 832.345C547.293 832.345 537.244 829.833 528.452 824.809C519.816 819.628 513.065 812.484 508.198 803.377C503.488 794.271 501.133 783.751 501.133 771.819C501.133 758.944 503.645 747.561 508.669 737.67C513.693 727.778 520.68 720.085 529.629 714.59C538.579 709.094 548.863 706.347 560.481 706.347C571.786 706.347 581.756 708.937 590.391 714.119C599.184 719.143 605.935 726.287 610.645 735.55C615.512 744.657 617.946 755.098 617.946 766.873C617.946 779.748 615.434 791.131 610.41 801.022C605.542 810.914 598.556 818.607 589.449 824.102C580.5 829.598 570.216 832.345 558.597 832.345ZM564.721 825.515C572.728 825.515 579.165 821.747 584.032 814.211C588.9 806.517 591.333 796.469 591.333 784.065C591.333 772.918 589.763 761.849 586.623 750.858C583.483 739.711 579.087 730.604 573.434 723.539C567.939 716.474 561.58 712.941 554.358 712.941C546.351 712.941 539.913 716.866 535.046 724.717C530.336 732.41 527.981 742.537 527.981 755.098C527.981 766.088 529.472 777.079 532.456 788.069C535.596 798.903 539.913 807.852 545.409 814.917C551.061 821.983 557.498 825.515 564.721 825.515ZM700.969 706.347C706.935 706.347 711.646 707.603 715.1 710.115C718.711 712.627 720.517 716.16 720.517 720.713C720.517 724.481 719.496 727.621 717.455 730.133C715.414 732.488 712.823 733.666 709.683 733.666C707.642 733.666 705.915 733.352 704.502 732.724C703.089 731.939 701.597 730.918 700.027 729.662C698.457 728.406 697.044 727.464 695.788 726.836C694.532 726.208 692.962 725.894 691.078 725.894C687.153 725.894 683.463 727.386 680.009 730.369C676.555 733.352 673.728 737.434 671.53 742.615C669.489 747.64 668.469 753.37 668.469 759.808V810.914C668.469 815.781 669.96 819.157 672.943 821.041C676.083 822.925 681.893 824.416 690.371 825.515V828.812H626.312V825.515C632.121 824.259 636.204 822.689 638.559 820.805C641.071 818.921 642.327 815.624 642.327 810.914V735.55C642.327 730.526 641.463 726.993 639.736 724.952C638.009 722.911 635.183 721.89 631.258 721.89C629.531 721.89 628.196 721.969 627.254 722.126V718.829L665.171 706.347H668.469V740.496C670.667 729.662 674.827 721.262 680.951 715.296C687.074 709.33 693.747 706.347 700.969 706.347ZM840.609 812.562C837.469 820.099 833.701 825.28 829.304 828.106C825.065 830.932 820.826 832.345 816.587 832.345C811.091 832.345 806.067 830.304 801.514 826.222C796.961 822.14 794.684 816.409 794.684 809.03V805.261C791.387 813.897 786.598 820.57 780.318 825.28C774.195 829.99 767.129 832.345 759.122 832.345C749.859 832.345 742.087 829.519 735.806 823.867C729.683 818.057 726.621 810.678 726.621 801.729C726.621 789.639 730.704 780.219 738.868 773.467C747.032 766.559 759.829 762.241 777.256 760.514L794.684 758.866V747.09C794.684 736.571 792.565 728.249 788.325 722.126C784.086 716.003 778.198 712.941 770.662 712.941C763.754 712.941 758.494 714.904 754.883 718.829C751.272 722.597 749.466 727.072 749.466 732.253C749.466 734.451 749.623 736.021 749.937 736.963C750.408 738.847 750.644 740.574 750.644 742.144C750.644 748.111 747.739 751.957 741.93 753.684C740.36 753.998 739.182 754.155 738.397 754.155C735.1 754.155 732.274 753.056 729.919 750.858C727.721 748.66 726.621 745.52 726.621 741.438C726.621 735.943 728.427 730.526 732.038 725.188C735.806 719.692 741.459 715.218 748.995 711.764C756.531 708.152 765.559 706.347 776.079 706.347C790.052 706.347 800.964 710.193 808.815 717.887C816.822 725.58 820.826 736.021 820.826 749.21V809.265C820.826 812.405 821.454 814.917 822.71 816.801C823.966 818.529 825.693 819.392 827.891 819.392C831.345 819.392 834.643 816.723 837.783 811.385L840.609 812.562ZM773.017 816.095C777.57 816.095 781.731 814.525 785.499 811.385C789.267 808.245 792.329 803.848 794.684 798.196V765.225L779.376 767.344C761.948 769.856 753.234 778.884 753.234 794.428C753.234 800.708 755.118 805.889 758.886 809.972C762.655 814.054 767.365 816.095 773.017 816.095Z" fill="#062B2B"/>
<defs>
<clipPath id="clip0_511_207">
<rect width="844.939" height="595.784" fill="white"/>
</clipPath>
</defs>
</svg>
