<svg width="559" height="474" viewBox="0 0 559 474" fill="none" xmlns="http://www.w3.org/2000/svg">
<path d="M557.459 237.332L498.465 135.154C495.674 130.32 489.492 128.664 484.658 131.455L368.512 198.514L362.504 188.112L478.649 121.053C483.483 118.262 485.138 112.08 482.348 107.246L423.354 5.05459C420.563 0.220772 414.38 -1.43501 409.547 1.35578L289.289 70.7919C283.173 74.3305 275.628 74.3305 269.513 70.7919L149.268 1.35578C144.434 -1.43501 138.252 0.220772 135.461 5.05459L76.4669 107.232C73.6761 112.066 75.3319 118.249 80.1658 121.04L196.311 188.099L190.302 198.501L74.1569 131.455C69.323 128.664 63.1406 130.32 60.3498 135.154L1.35578 237.332C-1.43501 242.166 0.220772 248.348 5.05459 251.139L125.313 320.575C131.428 324.113 135.194 330.63 135.194 337.707V463.587C135.194 469.168 139.721 473.695 145.302 473.695H263.29C268.872 473.695 273.398 469.168 273.398 463.587V329.481H285.416V463.587C285.416 469.168 289.943 473.695 295.524 473.695H413.512C419.094 473.695 423.621 469.168 423.621 463.587V337.707C423.621 330.643 427.386 324.113 433.502 320.575L553.76 251.139C558.594 248.348 560.25 242.166 557.459 237.332Z" fill="#F03C0B"/>
</svg>
