<svg width="296" height="278" viewBox="0 0 296 278" fill="none" xmlns="http://www.w3.org/2000/svg">
<path d="M146.736 75.742C157.332 75.742 165.921 58.7866 165.921 37.871C165.921 16.9554 157.332 0 146.736 0C136.14 0 127.55 16.9554 127.55 37.871C127.55 58.7866 136.14 75.742 146.736 75.742Z" fill="white"/>
<path d="M110.872 85.8871C120.048 80.5892 119.009 61.6106 108.552 43.4972C98.0938 25.3837 82.1773 14.9947 73.0011 20.2926C63.8249 25.5905 64.8638 44.5691 75.3216 62.6825C85.7794 80.796 101.696 91.185 110.872 85.8871Z" fill="white"/>
<path d="M84.8853 112.6C90.1832 103.424 79.7942 87.5077 61.6808 77.0499C43.5673 66.5921 24.5887 65.5532 19.2908 74.7294C13.9929 83.9057 24.382 99.8222 42.4954 110.28C60.6088 120.738 79.5874 121.777 84.8853 112.6Z" fill="white"/>
<path d="M37.871 167.93C58.7866 167.93 75.742 159.341 75.742 148.745C75.742 138.149 58.7866 129.56 37.871 129.56C16.9554 129.56 0 138.149 0 148.745C0 159.341 16.9554 167.93 37.871 167.93Z" fill="white"/>
<path d="M62.6783 220.156C80.7917 209.699 91.1808 193.782 85.8829 184.606C80.585 175.43 61.6063 176.469 43.4929 186.926C25.3795 197.384 14.9905 213.301 20.2884 222.477C25.5863 231.653 44.5649 230.614 62.6783 220.156Z" fill="white"/>
<path d="M110.29 252.996C120.748 234.883 121.787 215.904 112.611 210.606C103.434 205.309 87.5178 215.698 77.06 233.811C66.6022 251.924 65.5633 270.903 74.7395 276.201C83.9157 281.499 99.8322 271.11 110.29 252.996Z" fill="white"/>
<path d="M222.475 275.189C231.651 269.891 230.612 250.912 220.154 232.799C209.697 214.686 193.78 204.296 184.604 209.594C175.428 214.892 176.467 233.871 186.924 251.984C197.382 270.098 213.299 280.487 222.475 275.189Z" fill="white"/>
<path d="M276.204 220.755C281.502 211.579 271.113 195.662 252.999 185.204C234.886 174.747 215.907 173.708 210.609 182.884C205.311 192.06 215.7 207.977 233.814 218.435C251.927 228.892 270.906 229.931 276.204 220.755Z" fill="white"/>
<path d="M257.614 165.921C278.53 165.921 295.485 157.331 295.485 146.735C295.485 136.14 278.53 127.55 257.614 127.55C236.698 127.55 219.743 136.14 219.743 146.735C219.743 157.331 236.698 165.921 257.614 165.921Z" fill="white"/>
<path d="M251.994 108.56C270.108 98.1025 280.497 82.186 275.199 73.0098C269.901 63.8335 250.923 64.8724 232.809 75.3302C214.696 85.788 204.307 101.705 209.605 110.881C214.902 120.057 233.881 119.018 251.994 108.56Z" fill="white"/>
<path d="M218.43 61.6709C228.888 43.5575 229.927 24.5789 220.751 19.281C211.574 13.9831 195.658 24.3721 185.2 42.4855C174.742 60.5989 173.703 79.5776 182.88 84.8755C192.056 90.1734 207.972 79.7843 218.43 61.6709Z" fill="white"/>
</svg>
