<svg width="591" height="556" viewBox="0 0 591 556" fill="none" xmlns="http://www.w3.org/2000/svg">
<path d="M293.472 151.484C314.664 151.484 331.843 117.573 331.843 75.742C331.843 33.9108 314.664 0 293.472 0C272.281 0 255.102 33.9108 255.102 75.742C255.102 117.573 272.281 151.484 293.472 151.484Z" fill="white"/>
<path d="M221.745 171.773C240.098 161.177 238.02 123.22 217.105 86.9933C196.189 50.7664 164.356 29.9884 146.003 40.5842C127.651 51.1799 129.729 89.1372 150.644 125.364C171.56 161.591 203.393 182.369 221.745 171.773Z" fill="white"/>
<path d="M169.773 225.199C180.369 206.847 159.591 175.014 123.364 154.098C87.1368 133.183 49.1796 131.105 38.5838 149.457C27.988 167.81 48.7661 199.643 84.9929 220.559C121.22 241.474 159.177 243.552 169.773 225.199Z" fill="white"/>
<path d="M75.742 335.863C117.573 335.863 151.484 318.683 151.484 297.492C151.484 276.3 117.573 259.121 75.742 259.121C33.9108 259.121 0 276.3 0 297.492C0 318.683 33.9108 335.863 75.742 335.863Z" fill="white"/>
<path d="M125.356 440.312C161.583 419.396 182.361 387.563 171.765 369.211C161.169 350.858 123.212 352.936 86.9851 373.852C50.7583 394.767 29.9802 426.6 40.576 444.953C51.1718 463.305 89.129 461.227 125.356 440.312Z" fill="white"/>
<path d="M220.581 505.991C241.497 469.764 243.574 431.807 225.222 421.211C206.87 410.615 175.037 431.394 154.121 467.62C133.205 503.847 131.128 541.804 149.48 552.4C167.833 562.996 199.666 542.218 220.581 505.991Z" fill="white"/>
<path d="M444.949 550.379C463.301 539.783 461.223 501.826 440.308 465.599C419.392 429.372 387.559 408.594 369.207 419.19C350.854 429.785 352.932 467.743 373.848 503.969C394.763 540.196 426.596 560.974 444.949 550.379Z" fill="white"/>
<path d="M552.406 441.508C563.001 423.156 542.223 391.323 505.996 370.407C469.77 349.491 431.812 347.414 421.217 365.766C410.621 384.118 431.399 415.952 467.626 436.867C503.853 457.783 541.81 459.86 552.406 441.508Z" fill="white"/>
<path d="M515.226 331.843C557.058 331.843 590.968 314.664 590.968 293.472C590.968 272.281 557.058 255.102 515.226 255.102C473.395 255.102 439.484 272.281 439.484 293.472C439.484 314.664 473.395 331.843 515.226 331.843Z" fill="white"/>
<path d="M503.989 217.12C540.216 196.205 560.994 164.372 550.398 146.019C539.802 127.667 501.845 129.745 465.618 150.66C429.391 171.576 408.613 203.409 419.209 221.761C429.805 240.114 467.762 238.036 503.989 217.12Z" fill="white"/>
<path d="M436.862 123.343C457.778 87.1158 459.856 49.1586 441.503 38.5628C423.151 27.967 391.318 48.7451 370.402 84.9719C349.487 121.199 347.409 159.156 365.761 169.752C384.114 180.348 415.947 159.569 436.862 123.343Z" fill="white"/>
</svg>
