<svg width="845" height="596" viewBox="0 0 845 596" fill="none" xmlns="http://www.w3.org/2000/svg">
<g clip-path="url(#clip0_511_187)">
<path d="M767.901 427.318C788.842 427.231 838.917 430.02 844.465 455.928C847.689 470.974 832.934 488.401 822.565 498.074C758.896 557.501 582.357 609.638 497.979 591.804C449.85 581.638 455.543 551.256 486.39 523.488C547.589 468.418 686.544 427.638 767.901 427.318ZM658.921 473.849C613.61 477.248 547.851 498.364 510.614 524.505C487.406 540.8 464.112 568.713 507.884 577.513C558.83 587.766 653.838 558.43 696.593 528.92C708.851 520.468 738.681 496.737 718.436 481.75C705.191 471.932 674.954 472.659 658.95 473.849H658.921Z" fill="#E1DDD5"/>
<path d="M66.3817 441.933C147.477 435.601 264.037 461.975 334.88 502.232C364.071 518.817 421.058 561.776 363.926 585.506C286.548 617.66 88.7759 569.153 24.5269 514.838C-30.108 468.655 16.4812 445.825 66.3817 441.933ZM170.946 481.116C135.656 483.12 97.5186 497.904 140.884 530.639C184.249 563.373 297.15 591.025 348.125 574.004C391.577 559.481 351.872 529.884 330.552 518.178C289.394 495.581 217.681 478.473 170.975 481.116H170.946Z" fill="#E1DDD5"/>
<path d="M115.687 234.222C158.733 226.873 237.446 289.263 267.857 318.048C293.011 341.836 322.986 375.965 339.019 406.608C360.223 447.155 359.177 482.126 302.625 464.757C237.795 444.832 118.533 337.566 101.135 271.313C97.272 256.558 96.604 237.475 115.687 234.222ZM185.368 306.778C169.189 310.409 180.372 336.492 185.019 345.699C203.173 381.57 260.712 434.056 298.065 449.014C335.94 464.176 346.687 449.072 328.359 414.392C310.032 379.711 254.38 327.981 216.795 312.5C206.89 308.404 196.434 304.309 185.368 306.807V306.778Z" fill="#E1DDD5"/>
<path d="M726.988 228.565C736.079 237.715 732.681 254.648 729.631 265.802C711.564 331.91 603.776 443.648 539.033 465.781C493.17 481.466 483.091 458.403 498.369 417.856C521.983 355.088 608.191 266.267 667.909 236.001C681.909 228.914 714.091 215.582 726.988 228.536V228.565ZM640.025 299.582C598.025 304.752 511.585 393.341 506.909 435.109C503.365 466.798 531.365 456.428 549.286 446.989C585.738 427.818 646.851 365.69 657.075 325.345C660.909 310.213 659.021 297.229 640.025 299.582Z" fill="#E1DDD5"/>
<path d="M409.093 0.524915C465.354 -7.08504 491.902 69.8569 492.309 114.064C492.744 161.205 464.425 249.01 402.151 231.728C319.342 208.753 323.263 12.1432 409.093 0.524915ZM413.537 61.4917C356.578 66.4876 349.404 190.861 400.292 216.189C439.794 235.853 464.889 183.832 467.533 151.824C470.176 119.815 455.304 57.832 413.537 61.4917Z" fill="#E1DDD5"/>
<path d="M243.35 116.824C267.284 115.865 299.321 160.363 311.259 178.865C337.691 219.82 373.562 299.782 365.197 348.666C358.807 386.048 322.79 357.932 308.471 342.799C269.346 301.496 219.562 198.849 225.023 141.745C226.097 130.562 230.222 117.376 243.35 116.824ZM275.417 194.928C267.168 197.309 265.396 212.907 265.657 220.052C266.877 254.674 299.786 324.21 327.409 345.616C338.591 354.301 352.272 358.396 355.35 340.214C359.998 312.679 338.707 263.504 324.359 239.774C317.155 227.894 291.247 190.338 275.417 194.899V194.928Z" fill="#E1DDD5"/>
<path d="M578.987 113.744C592.116 112.96 597.141 125.507 599.29 136.283C610.85 194.171 558.394 321.682 512.56 359.47C496.701 372.57 479.651 377.13 472.593 352.935C459.958 309.628 491.995 223.885 513.228 184.499C523.858 164.806 554.908 115.167 578.958 113.744H578.987ZM551.045 193.939C534.634 193.416 513.344 228.532 506.489 241.632C493.767 265.885 474.277 319.765 482.468 345.993C487.29 361.416 499.053 356.362 508.871 348.549C536.116 326.881 574.543 234.777 560.746 202.391C558.8 197.86 556.564 194.113 551.045 193.939Z" fill="#E1DDD5"/>
</g>
<defs>
<clipPath id="clip0_511_187">
<rect width="844.939" height="595.784" fill="white"/>
</clipPath>
</defs>
</svg>
