<svg width="536" height="535" viewBox="0 0 536 535" fill="none" xmlns="http://www.w3.org/2000/svg">
<path d="M267.603 534.681C267.028 534.681 266.471 534.681 265.896 534.663C194.941 534.176 128.304 506.194 78.2437 455.855C-11.4472 365.625 0.532432 250.877 0.532432 250.877L126.162 250.877C130.515 110.325 190.048 2.21184 265.635 0.174597C265.635 0.174597 371.398 -7.50422 457.38 78.9828C547.036 169.196 535.108 283.961 535.108 283.961L409.461 283.961C406.466 380.199 377.631 461.253 335.441 503.443C316.044 522.84 293.808 534.002 269.971 534.629L269.971 534.663C269.327 534.681 268.682 534.681 267.864 534.698C267.846 534.698 267.829 534.698 267.812 534.698C267.812 534.698 267.777 534.698 267.759 534.698L267.603 534.698L267.603 534.681ZM341.657 97.5096C321.233 56.6428 294.313 33.2058 267.812 33.2058C252.715 33.2058 237.479 40.8151 223.393 54.9016C212.754 65.5406 202.759 79.9057 193.966 97.5096C184.128 117.151 176.24 139.717 170.425 164.234C196.874 139.23 231.281 125.491 267.812 125.509C304.343 125.509 338.749 139.23 365.199 164.234C359.383 139.717 351.495 117.168 341.657 97.5096ZM341.657 437.311C351.478 417.653 359.401 395.104 365.181 370.587C338.749 395.574 304.343 409.312 267.829 409.312C231.315 409.312 196.874 395.574 170.425 370.587C176.24 395.104 184.128 417.653 193.966 437.311C214.391 478.178 241.31 501.615 267.812 501.597C294.313 501.597 321.233 478.178 341.657 437.311Z" fill="white"/>
</svg>
