<svg width="268" height="268" viewBox="0 0 268 268" fill="none" xmlns="http://www.w3.org/2000/svg">
<path d="M133.801 267.34C133.514 267.34 133.235 267.34 132.948 267.332C97.4705 267.088 64.152 253.097 39.1218 227.928C-5.72363 182.812 0.26621 125.439 0.26621 125.439H63.0812C65.2577 55.1625 95.0241 1.10593 132.818 0.0873043C132.818 0.0873043 185.699 -3.7521 228.69 39.4914C273.518 84.598 267.554 141.98 267.554 141.98H204.73C203.233 190.099 188.816 230.627 167.721 251.722C158.022 261.42 146.904 267.001 134.985 267.314V267.332C134.663 267.34 134.341 267.34 133.932 267.349C133.923 267.349 133.915 267.349 133.906 267.349C133.906 267.349 133.888 267.349 133.88 267.349H133.801V267.34ZM170.829 48.7548C160.616 28.3214 147.157 16.6029 133.906 16.6029C126.358 16.6029 118.74 20.4075 111.696 27.4508C106.377 32.7703 101.38 39.9529 96.983 48.7548C92.064 58.5753 88.1201 69.8585 85.2122 82.1168C98.4369 69.6148 115.64 62.7456 133.906 62.7543C152.171 62.7543 169.375 69.6148 182.599 82.1168C179.692 69.8585 175.748 58.584 170.829 48.7548ZM170.829 218.656C175.739 208.826 179.7 197.552 182.591 185.294C169.375 197.787 152.171 204.656 133.915 204.656C115.658 204.656 98.4369 197.787 85.2122 185.294C88.1201 197.552 92.064 208.826 96.983 218.656C107.195 239.089 120.655 250.807 133.906 250.799C147.157 250.799 160.616 239.089 170.829 218.656Z" fill="white"/>
</svg>
