<svg width="1155" height="260" viewBox="0 0 1155 260" fill="none" xmlns="http://www.w3.org/2000/svg">
<path d="M57.3384 0L0 57.3384V257.835H73.6629V73.6629H294.667V92.0862H92.0861V197.874L152.048 257.835H368.33V184.172H165.749V165.749H308.368L368.33 105.787V59.9617L308.368 0H57.3384Z" fill="#007956"/>
<path d="M687.674 1.49805H452.969C429.554 24.9131 416.423 38.0447 393.008 61.4597V259.333H466.671V167.247H687.674V259.333H761.337V61.4597C737.922 38.0447 724.791 24.9131 701.376 1.49805H687.674ZM466.671 93.5842V75.161H687.674V93.5842H466.671Z" fill="#007956"/>
<path d="M1154.35 73.6629V0H852.993C826.835 26.1583 812.174 40.8189 786.016 66.9772V197.874C809.431 221.289 822.562 234.42 845.977 257.835H859.679H1080.68H1094.38C1117.8 234.42 1130.93 221.289 1154.35 197.874V152.048C1130.93 128.633 1117.8 115.501 1094.38 92.0862H1080.68H878.102V165.749H1080.68V184.172H859.679V73.6629H1154.35Z" fill="#007956"/>
</svg>
