<svg width="266" height="257" viewBox="0 0 266 257" fill="none" xmlns="http://www.w3.org/2000/svg">
<path d="M171.943 53.1808C171.943 53.1808 233.651 53.3279 233.651 43.0423C233.651 32.7567 189.381 29.1257 149.637 28.5248C109.886 27.9175 38.5175 26.4089 38.5175 37.6022C38.5175 48.7955 97.1574 54.958 141.42 61.0117C185.69 67.059 202.301 77.5044 211.637 98.3697C211.637 98.3697 255.938 99.6099 255.938 80.5537C255.938 61.4975 198.896 57.0355 107.2 46.7499C107.2 46.7499 118.974 42.8441 134.324 43.1445C155.097 43.5537 171.95 53.1808 171.95 53.1808H171.943Z" fill="white"/>
<path d="M214.336 150.847C214.336 150.847 265.574 149.587 265.664 128.716C265.74 110.746 225.754 100.863 111.14 94.0232C71.7014 91.6708 56.2427 89.0562 56.2427 89.0562C56.2427 89.0562 64.1153 71.611 84.0798 57.7967C84.0798 57.7967 17.3574 57.9565 12.6097 74.2831C7.86199 90.6096 47.2374 95.3337 52.9334 96.1903C58.6802 97.0597 96.9546 101.381 108.754 102.653C122.762 104.168 220.599 107.844 214.336 150.847Z" fill="white"/>
<path d="M181.385 198.63C181.385 198.63 255.585 204.562 255.407 179.497C255.26 159.079 187.768 153.71 127.83 151.249C82.9367 149.401 48.0608 145.476 48.0608 145.476C48.0608 145.476 43.1476 124.726 50.3073 103.56C50.3073 103.56 -0.555459 107.025 0.00459132 129.648C0.558278 152.086 37.2034 153.627 89.2754 158.216C145.713 163.19 194.667 167.179 193.292 184.746C192.808 190.972 181.378 198.63 181.378 198.63H181.385Z" fill="white"/>
<path d="M51.7911 158.6C51.7911 158.6 5.35138 160.281 10.5318 180.053C15.7123 199.825 79.2399 198.559 98.9181 200.343C157.972 205.681 159.181 210.079 159.181 210.079C159.181 210.079 123.637 224.328 88.4808 204.389C88.4808 204.389 33.653 201.538 37.9616 217.986C41.4174 231.168 157.329 231.583 182.194 229.851C207.059 228.118 223.625 224.034 219.38 217.29C206.951 197.517 72.793 190.735 72.793 190.735C72.793 190.735 58.7153 177.95 51.7974 158.6H51.7911Z" fill="white"/>
<path d="M173.557 249.024C173.557 260.614 92.801 258.504 92.801 249.606C92.801 233.267 173.557 238.227 173.557 249.024Z" fill="white"/>
<path d="M173.621 8.20879C173.621 -1.69965 92.7443 -3.72608 92.7443 8.20879C92.7443 26.0823 173.621 16.4807 173.621 8.20879Z" fill="white"/>
</svg>
