<svg width="302" height="289" viewBox="0 0 302 289" fill="none" xmlns="http://www.w3.org/2000/svg">
<path d="M105.814 0.354823C127.148 -1.79916 135.282 6.09855 150.219 17.4049C153.726 16.2717 157.546 10.9759 160.652 8.87598C162.857 7.38546 166.68 5.80087 169.182 4.78074C183.525 -1.14552 199.644 -1.08655 213.942 4.94573C237.682 15.062 241.298 29.1093 249.898 50.5838C251.702 51.4102 256.636 52.7462 258.609 53.1745C296.846 61.4555 315.179 107.616 290.256 138.364C283.829 146.294 295.835 156.018 298.645 165.187C306.915 192.178 296.339 220.809 270.17 232.933C262.371 236.547 257.033 237.241 248.744 238.664C247.846 246.827 247.032 252.83 242.519 259.906C230.942 278.056 213.964 286.745 193.015 288.516C174.351 288.235 164.293 283.584 150.917 270.641C144.628 276.196 139.248 281.575 131.396 284.632C116.778 290.161 100.568 289.701 86.2861 283.354C74.8516 278.279 63.9479 269.165 59.0111 257.465C56.97 252.627 55.5348 247.129 53.5793 242.093L52.0542 242.79L52.9811 242.861L52.2712 243.059L51.7944 241.593C53.0555 237.696 52.9818 237.792 48.7232 237.316C9.25407 232.901 -10.9959 189.161 6.86395 154.889C8.79485 151.184 13.1742 146.35 15.7237 142.559C-2.42759 122.331 -5.95026 97.692 10.895 74.8091C21.7516 60.0612 34.9597 53.9004 52.9396 51.4123C58.2275 23.2335 76.4911 3.1821 105.814 0.354823ZM51.7649 147.188C41.5557 159.243 24.6037 164.185 26.5353 185.348C27.3154 193.541 31.3163 201.089 37.6581 206.336C41.5431 209.501 45.355 211.062 50.2146 212.019C56.7762 212.318 72.0191 212.058 75.8634 217.065C78.2479 220.171 78.8019 234.854 79.8593 239.227C82.9066 252.193 93.8974 261.765 107.161 263.003C114.712 263.64 123.11 262.153 128.711 256.941C135.679 250.456 136.86 246.997 137.312 237.888C137.873 226.565 137.726 215.278 137.75 204.007L137.838 84.9149C137.839 74.1428 139.371 47.9896 134.886 38.5628C129.891 28.0639 114.797 25.4423 103.561 26.157C94.3116 28.7891 77.5429 42.2733 79.5932 52.2625C82.8694 58.0919 110.004 66.2774 104.519 78.528C96.1442 97.2329 86.4146 86.1997 75.6359 80.1182C50.8423 66.13 14.9267 90.2177 29.2625 119.087C34.6185 129.871 45.5622 134.124 51.7649 147.188ZM206.295 200.668C217.341 201.234 219.496 206.463 229.077 210.666C259.401 223.969 290.79 191.363 268.861 164.001C264.454 158.501 251.728 151.571 251.402 144.279C252.541 141.804 257.572 135.874 259.769 134.211C284.788 115.274 280.956 79.1346 246.118 76.9954C239.351 76.5805 228.528 78.3476 225.869 69.0359C219.447 43.794 220.179 24.1877 186.198 26.3023C179.711 27.8616 169.003 34.8867 167.47 40.7434C163.964 54.1405 165.14 80.0796 165.104 93.3953L164.988 215.857C164.991 232.183 161.219 250.062 177.641 259.124C184.958 263.103 193.534 264.08 201.558 261.848C209.239 259.667 215.697 254.448 219.441 247.397C221.327 243.872 221.796 240.982 222.526 237.101L222.312 236.91C214.105 229.65 199.137 226.751 198.543 213.957C198.236 207.313 199.849 202.973 206.295 200.668Z" fill="white"/>
</svg>
