<svg width="1544" height="1544" viewBox="0 0 1544 1544" fill="none" xmlns="http://www.w3.org/2000/svg">
<g clip-path="url(#clip0_2_38)">
<path d="M160.848 0H1382.51L1383.2 0.134187C1387.68 0.975042 1392.32 1.08619 1396.89 1.70691C1444.89 8.22889 1486.87 35.0177 1514.48 74.9568C1527.76 94.2662 1536.82 116.155 1541.07 139.199C1542.18 145.344 1542.94 155.28 1544 160.152V1383.98C1541.94 1395.44 1541.96 1402.82 1538.84 1415.31C1528.51 1455.33 1504.1 1490.28 1470.08 1513.75C1445 1531.24 1417.14 1540.69 1386.84 1543.63C1385.65 1543.74 1386.15 1543.68 1384.8 1544H158.657C153.23 1542.76 143.622 1541.88 137.09 1540.58C114.087 1536.01 92.303 1526.65 73.1492 1513.12C39.3366 1489.51 15.1593 1454.51 5.04447 1414.53C1.99475 1402.06 1.96012 1394.45 0 1383.09V160.992C1.05599 155.942 1.66713 146.474 2.75134 140.3C6.91792 116.918 16.0087 94.6899 29.4204 75.0899C52.9527 40.3662 88.3925 15.4683 129.038 5.10404C141.596 2.02641 149.459 2.08799 160.848 0Z" fill="#007EBB"/>
<path d="M1046.07 563.488L1052.63 563.438C1187.57 562.741 1287.88 626.784 1319.28 762.727C1330.67 812.078 1329.57 850.821 1329.54 900.963L1329.53 1003.06L1329.49 1329.52L1100.48 1329.51L1100.49 1050.23L1100.5 970.805C1100.5 908.11 1101.44 829.538 1042.69 790.297C1007.05 766.504 948.504 768.155 910.508 785.638C887.853 796.057 872.707 811.557 859.544 832.26C833.707 873.694 834.582 926.144 834.604 973.097L834.642 1053.99L834.604 1329.52L614.036 1329.51L613.99 585.936C686.959 585.113 761.528 585.908 834.627 585.906L834.612 686.478C841.163 675.584 848.604 665.257 856.875 655.604C907.794 596.209 969.365 569.376 1046.07 563.488Z" fill="#000000"/>
<path d="M236.749 585.948C312.788 584.99 390.847 585.903 467.053 585.9L467.01 1328.44L466.682 1328.9C463.131 1330.48 257.952 1329.52 236.704 1329.51L236.749 585.948Z" fill="#000000"/>
<path d="M353.939 214.97C429.264 216.823 488.885 279.284 487.23 354.613C485.575 429.943 423.271 489.726 347.937 488.269C272.323 486.806 212.27 424.22 213.931 348.611C215.591 273.002 278.335 213.112 353.939 214.97Z" fill="#000000"/>
</g>
<defs>
<clipPath id="clip0_2_38">
<rect width="1544" height="1544" fill="white"/>
</clipPath>
</defs>
</svg>
