<svg width="941" height="235" viewBox="0 0 941 235" fill="none" xmlns="http://www.w3.org/2000/svg">
<path d="M864.091 133H940.708V153.67H887.655V171.17H937.814V191.978H887.655V212.097H940.708V232.905H864.091V133Z" fill="white"/>
<path d="M804.327 195.285H788.342V232.905H764.779V133H803.225C808.737 133 813.652 133.276 817.969 133.827C822.287 134.378 826.375 135.343 830.233 136.721C834.184 138.099 837.445 139.936 840.017 142.233C842.681 144.529 844.748 147.515 846.218 151.19C847.78 154.772 848.561 158.998 848.561 163.867C848.561 177.188 842.038 186.374 828.993 191.427L853.659 232.905H825.962L804.327 195.285ZM788.342 152.843V175.442H803.914C810.252 175.442 815.121 174.661 818.521 173.1C821.92 171.446 823.619 168.46 823.619 164.143C823.619 159.825 821.874 156.885 818.383 155.324C814.984 153.67 810.161 152.843 803.914 152.843H788.342Z" fill="white"/>
<path d="M685.358 133V192.667C685.358 200.568 686.736 206.355 689.492 210.03C692.248 213.613 697.484 215.404 705.201 215.404C712.918 215.404 718.062 213.429 720.635 209.479C723.299 205.528 724.631 199.465 724.631 191.289V133H748.194V189.36C748.194 204.977 744.841 216.461 738.135 223.81C731.521 231.067 720.543 234.696 705.201 234.696C689.951 234.696 678.881 231.343 671.991 224.637C665.193 217.839 661.794 206.355 661.794 190.187V133H685.358Z" fill="white"/>
<path d="M597.792 153.67H565.822V133H653.6V153.67H621.493V232.905H597.792V153.67Z" fill="white"/>
<path d="M533.064 212.097H581.018V232.905H509.5V133H533.064V212.097Z" fill="white"/>
<path d="M430.079 133V192.667C430.079 200.568 431.457 206.355 434.213 210.03C436.969 213.613 442.205 215.404 449.922 215.404C457.639 215.404 462.783 213.429 465.356 209.479C468.02 205.528 469.352 199.465 469.352 191.289V133H492.916V189.36C492.916 204.977 489.562 216.461 482.856 223.81C476.242 231.067 465.264 234.696 449.922 234.696C434.672 234.696 423.602 231.343 416.712 224.637C409.914 217.839 406.515 206.355 406.515 190.187V133H430.079Z" fill="white"/>
<path d="M396.318 195.699C394.481 207.366 389.244 216.782 380.609 223.948C371.974 231.113 361.363 234.696 348.777 234.696C333.252 234.696 321.034 230.057 312.123 220.778C303.212 211.5 298.756 198.868 298.756 182.883C298.756 167.082 303.304 154.543 312.398 145.264C321.585 135.986 333.941 131.346 349.466 131.346C361.776 131.346 372.111 134.975 380.471 142.233C388.831 149.398 393.884 158.768 395.629 170.344H372.479C371.193 163.821 368.391 158.952 364.073 155.737C359.755 152.43 354.611 150.776 348.64 150.776C341.382 150.776 335.411 153.67 330.726 159.457C326.04 165.153 323.698 172.962 323.698 182.883C323.698 193.081 326.04 201.027 330.726 206.723C335.411 212.418 341.474 215.266 348.915 215.266C354.795 215.266 359.985 213.75 364.487 210.719C368.988 207.687 371.882 202.681 373.168 195.699H396.318Z" fill="white"/>
<path d="M744.041 99.9046L721.58 19.9809V99.9046H698.705V0H735.911L755.065 71.6557L774.632 0H811.425V99.9046H788.55V19.8431L766.227 99.9046H744.041Z" fill="white"/>
<path d="M626.69 0H652.596L690.353 99.9046H664.722L658.659 82.1284H620.075L614.15 99.9046H589.07L626.69 0ZM626.552 62.9743H652.32L639.505 24.9417L626.552 62.9743Z" fill="white"/>
<path d="M507.481 0H584.098V20.6699H531.045V38.1704H581.204V58.9781H531.045V79.0969H584.098V99.9046H507.481V0Z" fill="white"/>
<path d="M447.717 62.2853H431.733V99.9046H408.169V0H446.615C452.127 0 457.042 0.275598 461.359 0.826794C465.677 1.37799 469.765 2.34259 473.624 3.72059C477.574 5.09858 480.835 6.9359 483.407 9.23256C486.072 11.5292 488.139 14.5149 489.608 18.1895C491.17 21.7723 491.951 25.9982 491.951 30.8671C491.951 44.1877 485.428 53.3743 472.383 58.4269L497.05 99.9046H469.352L447.717 62.2853ZM431.733 19.8431V42.4422H447.304C453.643 42.4422 458.512 41.6614 461.911 40.0996C465.31 38.446 467.009 35.4604 467.009 31.1427C467.009 26.825 465.264 23.8852 461.773 22.3235C458.374 20.6699 453.551 19.8431 447.304 19.8431H431.733Z" fill="white"/>
<path d="M337.753 0C376.705 0 396.18 16.6278 396.18 49.8834C396.18 83.2308 376.705 99.9046 337.753 99.9046H304.819V0H337.753ZM338.167 19.8431H328.383V80.0615H338.167C342.025 80.0615 345.424 79.8777 348.364 79.5103C351.304 79.1428 354.243 78.316 357.183 77.0299C360.215 75.7437 362.695 74.0442 364.624 71.9313C366.554 69.8184 368.115 66.9246 369.31 63.2499C370.596 59.4834 371.239 55.0279 371.239 49.8834C371.239 44.8307 370.596 40.4671 369.31 36.7924C368.115 33.0259 366.554 30.0862 364.624 27.9733C362.695 25.7685 360.215 24.069 357.183 22.8747C354.243 21.5886 351.304 20.7618 348.364 20.3943C345.424 20.0268 342.025 19.8431 338.167 19.8431Z" fill="white"/>
<path d="M77.6667 0.181918H0V77.8486H77.6667V0.181918Z" fill="white"/>
<path d="M77.6667 155.515H0V233.182H77.6667V155.515Z" fill="white"/>
<path d="M155.333 77.8486H77.6667V155.515H155.333V77.8486Z" fill="white"/>
<path d="M155.333 0.181918C198.201 0.181918 233 34.9809 233 77.8486H155.333V0.181918Z" fill="white"/>
<path d="M155.333 155.515H233C233 198.383 198.201 233.182 155.333 233.182V155.515Z" fill="white"/>
</svg>
