<svg width="705" height="415" viewBox="0 0 705 415" fill="none" xmlns="http://www.w3.org/2000/svg">
<path d="M339.071 75.742C349.667 75.742 358.256 58.7866 358.256 37.871C358.256 16.9554 349.667 0 339.071 0C328.475 0 319.886 16.9554 319.886 37.871C319.886 58.7866 328.475 75.742 339.071 75.742Z" fill="white"/>
<path d="M303.207 85.8871C312.383 80.5892 311.345 61.6106 300.887 43.4972C290.429 25.3837 274.512 14.9947 265.336 20.2926C256.16 25.5905 257.199 44.5691 267.657 62.6825C278.114 80.796 294.031 91.185 303.207 85.8871Z" fill="white"/>
<path d="M277.22 112.6C282.518 103.424 272.129 87.5077 254.016 77.0499C235.902 66.5921 216.924 65.5532 211.626 74.7294C206.328 83.9057 216.717 99.8222 234.831 110.28C252.944 120.738 271.923 121.777 277.22 112.6Z" fill="white"/>
<path d="M230.206 167.93C251.122 167.93 268.077 159.341 268.077 148.745C268.077 138.149 251.122 129.56 230.206 129.56C209.291 129.56 192.335 138.149 192.335 148.745C192.335 159.341 209.291 167.93 230.206 167.93Z" fill="white"/>
<path d="M255.013 220.156C273.127 209.699 283.516 193.782 278.218 184.606C272.92 175.43 253.941 176.469 235.828 186.926C217.715 197.384 207.326 213.301 212.624 222.477C217.921 231.653 236.9 230.614 255.013 220.156Z" fill="white"/>
<path d="M302.625 252.996C313.083 234.883 314.122 215.904 304.946 210.606C295.769 205.309 279.853 215.698 269.395 233.811C258.937 251.924 257.898 270.903 267.075 276.201C276.251 281.499 292.167 271.11 302.625 252.996Z" fill="white"/>
<path d="M414.81 275.189C423.986 269.891 422.947 250.912 412.49 232.799C402.032 214.686 386.115 204.296 376.939 209.594C367.763 214.892 368.802 233.871 379.259 251.984C389.717 270.098 405.634 280.487 414.81 275.189Z" fill="white"/>
<path d="M468.539 220.755C473.837 211.579 463.448 195.662 445.334 185.204C427.221 174.747 408.242 173.708 402.944 182.884C397.646 192.06 408.036 207.977 426.149 218.435C444.262 228.892 463.241 229.931 468.539 220.755Z" fill="white"/>
<path d="M449.949 165.921C470.865 165.921 487.82 157.331 487.82 146.735C487.82 136.14 470.865 127.55 449.949 127.55C429.034 127.55 412.078 136.14 412.078 146.735C412.078 157.331 429.034 165.921 449.949 165.921Z" fill="white"/>
<path d="M444.33 108.56C462.443 98.1025 472.832 82.186 467.534 73.0098C462.236 63.8335 443.258 64.8724 425.144 75.3302C407.031 85.788 396.642 101.705 401.94 110.881C407.238 120.057 426.216 119.018 444.33 108.56Z" fill="white"/>
<path d="M410.765 61.6709C421.223 43.5575 422.262 24.5789 413.086 19.281C403.909 13.9831 387.993 24.3721 377.535 42.4855C367.077 60.5989 366.038 79.5776 375.215 84.8755C384.391 90.1734 400.307 79.7843 410.765 61.6709Z" fill="white"/>
<path d="M671.932 403.062C675.792 403.062 679.107 402.139 681.876 400.293C684.729 398.447 686.952 395.93 688.547 392.741C690.141 389.468 690.938 385.776 690.938 381.665C690.938 377.469 690.141 373.777 688.547 370.588C686.952 367.4 684.729 364.882 681.876 363.036C679.107 361.19 675.792 360.267 671.932 360.267C668.072 360.267 664.716 361.19 661.863 363.036C659.094 364.882 656.912 367.4 655.318 370.588C653.807 373.777 653.052 377.469 653.052 381.665C653.052 385.776 653.807 389.468 655.318 392.741C656.912 395.93 659.094 398.447 661.863 400.293C664.716 402.139 668.072 403.062 671.932 403.062ZM671.932 414.642C665.471 414.642 659.723 413.257 654.688 410.488C649.738 407.719 645.878 403.859 643.109 398.909C640.424 393.958 639.081 388.21 639.081 381.665C639.081 375.12 640.424 369.372 643.109 364.421C645.878 359.47 649.738 355.61 654.688 352.841C659.723 350.072 665.471 348.688 671.932 348.688C678.477 348.688 684.225 350.072 689.176 352.841C694.127 355.61 697.945 359.47 700.63 364.421C703.399 369.372 704.784 375.12 704.784 381.665C704.784 388.21 703.399 393.958 700.63 398.909C697.945 403.859 694.127 407.719 689.176 410.488C684.225 413.257 678.477 414.642 671.932 414.642Z" fill="white"/>
<path d="M603.122 349.443H615.205L617.723 365.428L614.954 362.407C616.128 360.141 617.471 358.044 618.981 356.114C620.576 354.1 622.716 352.505 625.401 351.331C628.086 350.072 631.526 349.443 635.722 349.443H638.743V362.155H632.701C628.673 362.155 625.485 363.078 623.135 364.924C620.786 366.77 619.107 369.162 618.1 372.099C617.177 375.036 616.716 378.182 616.716 381.539V413.887H603.122V349.443Z" fill="white"/>
<path d="M528.175 325.78H562.915C569.04 325.78 574.368 326.954 578.9 329.304C583.515 331.57 587.081 334.8 589.598 338.996C592.116 343.107 593.374 348.058 593.374 353.848C593.374 359.47 592.116 364.421 589.598 368.7C587.081 372.896 583.515 376.169 578.9 378.518C574.368 380.784 569.04 381.916 562.915 381.916H542.65V413.887H528.175V325.78ZM542.65 338.366V369.33H561.656C565.096 369.33 568.075 368.7 570.592 367.442C573.194 366.183 575.166 364.379 576.508 362.029C577.935 359.68 578.648 356.953 578.648 353.848C578.648 350.659 577.935 347.932 576.508 345.667C575.166 343.317 573.236 341.513 570.718 340.254C568.201 338.996 565.222 338.366 561.782 338.366H542.65Z" fill="white"/>
<path d="M485.593 414.642C478.88 414.642 473.048 413.299 468.097 410.614C463.146 407.845 459.328 403.985 456.643 399.034C453.958 394.084 452.616 388.336 452.616 381.791C452.616 375.162 453.916 369.372 456.517 364.421C459.203 359.47 462.937 355.61 467.72 352.841C472.503 350.072 478.041 348.688 484.334 348.688C490.544 348.688 495.956 349.946 500.571 352.464C505.27 354.897 508.92 358.421 511.521 363.036C514.207 367.652 515.633 373.106 515.801 379.399C515.801 380.238 515.759 381.119 515.675 382.042C515.591 382.881 515.507 383.721 515.423 384.56H466.839C466.839 384.644 466.839 384.769 466.839 384.937C466.839 385.105 466.839 385.273 466.839 385.441C467.006 389.049 467.804 392.238 469.23 395.007C470.74 397.692 472.838 399.79 475.523 401.3C478.209 402.81 481.313 403.566 484.838 403.566C488.949 403.566 492.432 402.559 495.285 400.545C498.221 398.531 500.151 395.762 501.074 392.238H514.668C513.913 396.433 512.235 400.251 509.633 403.691C507.116 407.048 503.802 409.733 499.69 411.747C495.662 413.677 490.963 414.642 485.593 414.642ZM467.342 374.616H501.704C501.116 369.833 499.27 366.141 496.166 363.54C493.145 360.939 489.243 359.638 484.46 359.638C481.607 359.638 478.922 360.267 476.404 361.526C473.971 362.701 471.915 364.421 470.237 366.687C468.643 368.868 467.678 371.511 467.342 374.616Z" fill="white"/>
<path d="M414.646 414.642C408.185 414.642 402.521 413.299 397.654 410.614C392.871 407.929 389.179 404.111 386.578 399.16C383.976 394.209 382.676 388.42 382.676 381.791C382.676 375.162 384.018 369.372 386.703 364.421C389.389 359.47 393.165 355.61 398.031 352.841C402.898 350.072 408.562 348.688 415.024 348.688C423.331 348.688 430.002 350.827 435.036 355.107C440.071 359.386 443.26 365.176 444.602 372.476H430.379C429.54 368.7 427.778 365.722 425.093 363.54C422.408 361.358 418.967 360.267 414.772 360.267C411.164 360.267 407.975 361.19 405.206 363.036C402.521 364.799 400.423 367.316 398.913 370.588C397.402 373.777 396.647 377.511 396.647 381.791C396.647 385.986 397.402 389.72 398.913 392.993C400.423 396.181 402.521 398.657 405.206 400.419C407.975 402.181 411.164 403.062 414.772 403.062C418.967 403.062 422.366 401.971 424.967 399.79C427.652 397.608 429.414 394.629 430.253 390.853H444.602C443.344 398.069 440.071 403.859 434.785 408.223C429.582 412.502 422.869 414.642 414.646 414.642Z" fill="white"/>
<path d="M314.021 349.443H325.853L328.496 364.169L325.223 360.897C327.237 357.792 329.964 354.981 333.405 352.464C336.929 349.946 341.796 348.688 348.005 348.688C352.788 348.688 357.11 349.652 360.969 351.582C364.913 353.428 368.06 356.491 370.41 360.771C372.759 365.05 373.934 370.798 373.934 378.015V413.887H360.214V379.147C360.214 373.022 358.914 368.365 356.312 365.176C353.795 361.987 349.977 360.393 344.858 360.393C341.25 360.393 338.146 361.232 335.544 362.91C333.027 364.589 331.055 367.022 329.629 370.211C328.286 373.316 327.615 377.05 327.615 381.413V413.887H314.021V349.443Z" fill="white"/>
<path d="M272.823 414.642C266.11 414.642 260.278 413.299 255.328 410.614C250.377 407.845 246.559 403.985 243.874 399.034C241.188 394.084 239.846 388.336 239.846 381.791C239.846 375.162 241.147 369.372 243.748 364.421C246.433 359.47 250.167 355.61 254.95 352.841C259.733 350.072 265.271 348.688 271.564 348.688C277.774 348.688 283.186 349.946 287.801 352.464C292.5 354.897 296.15 358.421 298.752 363.036C301.437 367.652 302.863 373.106 303.031 379.399C303.031 380.238 302.989 381.119 302.905 382.042C302.821 382.881 302.738 383.721 302.654 384.56H254.069C254.069 384.644 254.069 384.769 254.069 384.937C254.069 385.105 254.069 385.273 254.069 385.441C254.237 389.049 255.034 392.238 256.46 395.007C257.971 397.692 260.069 399.79 262.754 401.3C265.439 402.81 268.544 403.566 272.068 403.566C276.18 403.566 279.662 402.559 282.515 400.545C285.452 398.531 287.382 395.762 288.305 392.238H301.898C301.143 396.433 299.465 400.251 296.864 403.691C294.346 407.048 291.032 409.733 286.92 411.747C282.892 413.677 278.193 414.642 272.823 414.642ZM254.572 374.616H288.934C288.347 369.833 286.501 366.141 283.396 363.54C280.375 360.939 276.473 359.638 271.69 359.638C268.837 359.638 266.152 360.267 263.635 361.526C261.201 362.701 259.146 364.421 257.467 366.687C255.873 368.868 254.908 371.511 254.572 374.616Z" fill="white"/>
<path d="M170.061 385.315V349.443H183.655V383.804C183.655 390.098 184.914 394.839 187.431 398.027C189.948 401.216 193.682 402.81 198.633 402.81C202.074 402.81 205.01 401.971 207.444 400.293C209.961 398.615 211.891 396.223 213.234 393.119C214.576 389.93 215.248 386.112 215.248 381.665V349.443H228.841V413.887H216.884L214.241 399.412L217.639 402.685C215.625 405.789 212.898 408.558 209.458 410.992C206.101 413.425 201.444 414.642 195.487 414.642C192.046 414.642 188.774 414.138 185.669 413.132C182.648 412.125 179.963 410.488 177.613 408.223C175.264 405.957 173.418 402.936 172.075 399.16C170.733 395.384 170.061 390.769 170.061 385.315Z" fill="white"/>
<path d="M144.149 325.78H157.743V413.887H144.149V325.78Z" fill="white"/>
<path d="M94.9521 349.443H106.154V343.401C106.154 337.527 107.581 333.122 110.434 330.185C113.371 327.248 117.944 325.78 124.153 325.78H137.118V337.737H125.915C123.734 337.737 122.139 338.241 121.132 339.247C120.126 340.254 119.622 341.849 119.622 344.03V349.443H137.118V361.4H119.874V413.887H106.154V361.4H94.9521V349.443Z" fill="white"/>
<path d="M29.2218 349.443H41.0534L43.6966 364.169L40.424 360.897C42.4379 357.792 45.165 354.981 48.6054 352.464C52.1297 349.946 56.9965 348.688 63.206 348.688C67.9889 348.688 72.3104 349.652 76.1703 351.582C80.1141 353.428 83.2608 356.491 85.6104 360.771C87.9599 365.05 89.1346 370.798 89.1346 378.015V413.887H75.4151V379.147C75.4151 373.022 74.1145 368.365 71.5132 365.176C68.9959 361.987 65.1779 360.393 60.0593 360.393C56.4511 360.393 53.3464 361.232 50.7451 362.91C48.2278 364.589 46.2559 367.022 44.8294 370.211C43.4868 373.316 42.8155 377.05 42.8155 381.413V413.887H29.2218V349.443Z" fill="white"/>
<path d="M0 325.78H14.4747V413.887H0V325.78Z" fill="white"/>
</svg>
