<svg width="934" height="423" viewBox="0 0 934 423" fill="none" xmlns="http://www.w3.org/2000/svg">
<path d="M931.601 179.802C926.505 193.185 913.439 202.192 899.125 202.192H861.342C852.863 232.343 847.091 255.896 843.243 274.27C848.423 274.46 853.603 275.792 858.234 278.181C862.674 280.443 866.395 283.551 869.376 287.167C869.693 287.526 869.989 287.907 870.285 288.266C870.603 288.626 870.899 289.006 871.216 289.387C871.533 289.746 871.829 290.106 872.125 290.486C872.442 290.846 872.738 291.226 873.055 291.586C873.372 291.945 873.668 292.326 873.964 292.685C874.282 293.045 874.578 293.425 874.895 293.806C875.212 294.144 875.508 294.525 875.804 294.905C876.121 295.265 876.417 295.624 876.713 296.005C877.051 296.364 877.347 296.745 877.643 297.104C877.96 297.464 878.256 297.844 878.552 298.204C878.891 298.563 879.166 298.944 879.483 299.324C879.8 299.684 880.096 300.043 880.392 300.424C880.709 300.783 881.005 301.164 881.322 301.523C881.639 301.883 881.935 302.263 882.231 302.623C882.548 302.982 882.844 303.363 883.162 303.743C883.479 304.103 883.775 304.462 884.071 304.843C884.388 305.202 884.684 305.583 885.001 305.942C885.318 306.302 885.614 306.682 885.91 307.042C886.227 307.401 886.523 307.782 886.841 308.141C887.158 308.5 887.454 308.881 887.75 309.262C888.067 309.621 888.363 309.98 888.659 310.361C888.997 310.72 889.272 311.101 889.589 311.46C889.906 311.82 890.202 312.201 890.498 312.56C890.816 312.919 891.112 313.3 891.429 313.681C891.746 314.04 892.042 314.399 892.338 314.78C892.655 315.139 892.951 315.52 893.268 315.879C893.585 316.239 893.881 316.619 894.177 316.979C894.494 317.338 894.79 317.719 895.108 318.099C895.425 318.438 895.721 318.818 896.017 319.199C896.334 319.558 896.63 319.918 896.926 320.298C905.637 330.003 908.512 344.042 903.48 356.897C887.454 397.767 861.152 419.354 827.386 419.354C805.355 419.354 788.081 412.377 776.05 398.592C775.775 398.296 775.543 397.978 775.289 397.682C775.247 397.619 775.183 397.556 775.12 397.492C774.866 397.196 774.634 396.879 774.38 396.562C774.316 396.498 774.253 396.435 774.211 396.372C773.936 396.076 773.703 395.758 773.45 395.462C773.407 395.399 773.344 395.336 773.28 395.272C773.027 394.976 772.794 394.659 772.54 394.363C772.477 394.3 772.414 394.236 772.371 394.173C772.118 393.877 771.885 393.56 771.631 393.264C771.568 393.2 771.504 393.137 771.441 393.073C771.187 392.777 770.955 392.46 770.701 392.143C770.637 392.08 770.595 392.037 770.532 391.953C770.278 391.678 770.046 391.339 769.792 391.043C769.728 390.98 769.665 390.917 769.602 390.853C769.348 390.557 769.115 390.24 768.862 389.944C768.798 389.881 768.756 389.817 768.692 389.754C768.439 389.458 768.206 389.141 767.952 388.845L767.762 388.654C767.508 388.358 767.276 388.041 767.022 387.745C766.98 387.661 766.916 387.618 766.853 387.555C766.599 387.259 766.367 386.921 766.113 386.625C766.049 386.561 765.986 386.498 765.944 386.434C765.669 386.138 765.436 385.821 765.183 385.525C765.14 385.462 765.077 385.398 765.013 385.335C764.76 385.039 764.527 384.722 764.273 384.426C764.21 384.362 764.147 384.299 764.104 384.235C763.829 383.939 763.597 383.622 763.343 383.326C763.301 383.263 763.237 383.199 763.174 383.136C762.92 382.84 762.688 382.523 762.434 382.206C762.371 382.142 762.307 382.079 762.265 382.015C762.011 381.719 761.757 381.402 761.525 381.106L761.335 380.916C761.081 380.62 760.848 380.303 760.594 380.007C760.531 379.943 760.489 379.88 760.425 379.816C760.172 379.52 759.939 379.203 759.685 378.907L759.495 378.717C759.241 378.421 759.009 378.104 758.755 377.787C758.692 377.723 758.649 377.681 758.586 377.618C758.332 377.322 758.1 376.983 757.846 376.687L757.656 376.497C757.402 376.201 757.169 375.884 756.916 375.588C756.873 375.524 756.81 375.461 756.746 375.398C756.493 375.102 756.26 374.784 756.006 374.488C755.943 374.425 755.88 374.361 755.837 374.298C755.562 374.002 755.33 373.685 755.076 373.389C755.034 373.304 754.97 373.262 754.907 373.199C754.822 373.093 754.759 373.008 754.696 372.924C726.258 402.609 692.492 419.354 658.642 419.354C633.841 419.354 609.717 408.571 594.176 390.473C593.859 390.134 593.563 389.754 593.267 389.394C592.971 389.056 592.675 388.675 592.379 388.316C592.358 388.316 592.358 388.316 592.358 388.316C592.062 387.978 591.745 387.597 591.449 387.238C591.449 387.238 591.449 387.238 591.428 387.238C591.132 386.878 590.836 386.519 590.54 386.159H590.519C590.223 385.779 589.927 385.419 589.609 385.039H589.588C589.292 384.679 588.996 384.299 588.7 383.939C588.404 383.601 588.108 383.221 587.791 382.861V382.84C587.495 382.481 587.199 382.121 586.903 381.762H586.882C586.586 381.402 586.29 381.043 585.994 380.683C585.994 380.683 585.98 380.669 585.952 380.641C585.656 380.303 585.36 379.922 585.064 379.563C585.064 379.563 585.043 379.563 585.043 379.542C584.747 379.203 584.451 378.823 584.155 378.463V378.442C583.859 378.104 583.541 377.723 583.245 377.364C582.949 376.983 582.653 376.624 582.357 376.264C582.357 376.264 582.357 376.25 582.357 376.222C582.061 375.884 581.744 375.503 581.448 375.144C581.152 374.784 580.856 374.404 580.56 374.044C580.539 374.044 580.539 374.044 580.539 374.044C580.243 373.706 579.926 373.325 579.63 372.966V372.945C579.334 372.585 579.038 372.226 578.742 371.867H578.721C578.425 371.507 578.129 371.148 577.812 370.767H577.79C577.494 370.408 577.198 370.027 576.902 369.668C576.606 369.329 576.31 368.949 576.014 368.589C576.014 368.589 576.014 368.589 575.972 368.589C575.676 368.251 575.38 367.871 575.084 367.511C574.788 367.152 574.492 366.792 574.196 366.433C574.196 366.433 574.189 366.419 574.175 366.391C573.858 366.052 573.562 365.672 573.266 365.312C573.266 365.312 573.266 365.312 573.266 365.291C572.97 364.953 572.674 364.572 572.378 364.213C572.357 364.213 572.357 364.192 572.357 364.192C572.061 363.853 571.743 363.473 571.447 363.113C571.447 363.113 571.44 363.106 571.426 363.092C571.13 362.733 570.834 362.373 570.538 362.014C570.242 361.633 569.946 361.274 569.629 360.914C569.629 360.914 569.622 360.9 569.608 360.872C569.312 360.534 569.016 360.153 568.72 359.794C568.424 359.434 568.128 359.054 567.811 358.694V358.673C567.515 358.314 567.219 357.954 566.923 357.595H566.902C566.606 357.236 566.31 356.876 566.014 356.517C566.014 356.517 566 356.503 565.971 356.474C565.443 355.861 564.893 355.206 564.364 354.529C543.771 390.071 520.683 411.468 496.051 417.684L480.828 419.608C465.858 419.608 447.675 415.083 433.213 397.788C432.896 397.429 432.6 397.048 432.283 396.689C431.987 396.329 431.691 395.949 431.374 395.589C431.057 395.23 430.761 394.849 430.465 394.469C430.147 394.13 429.851 393.729 429.534 393.369C429.217 393.01 428.921 392.629 428.625 392.27C428.308 391.91 428.012 391.53 427.695 391.17C427.695 391.17 427.688 391.17 427.674 391.17C420.443 400.431 412.514 407.535 404.12 412.335C395.726 417.134 386.867 419.608 377.712 419.608C359.318 419.608 342.023 410.728 328.872 395.103C310.329 413.434 288.319 422.716 263.201 422.716C238.083 422.716 215.671 412.25 198.841 392.27C198.524 391.91 198.228 391.53 197.932 391.17C197.615 390.811 197.319 390.43 197.001 390.071C196.705 389.711 196.388 389.331 196.092 388.971C195.775 388.612 195.479 388.231 195.162 387.851C194.866 387.513 194.549 387.132 194.253 386.751C193.936 386.392 193.64 386.011 193.322 385.652C193.026 385.293 192.73 384.912 192.413 384.553C192.096 384.193 191.8 383.813 191.504 383.453C191.187 383.094 190.891 382.713 190.574 382.332C190.257 381.973 189.961 381.592 189.665 381.233C189.348 380.874 189.052 380.493 188.734 380.134C188.417 379.774 188.121 379.394 187.825 379.034C187.508 378.675 187.212 378.294 186.895 377.914C186.599 377.554 186.282 377.174 185.986 376.814C185.669 376.455 185.373 376.074 185.055 375.715C184.759 375.355 184.442 374.975 184.146 374.615C183.829 374.256 183.533 373.875 183.216 373.495C182.92 373.135 182.624 372.776 182.307 372.395C181.99 372.036 181.694 371.655 181.398 371.296C181.081 370.936 180.785 370.556 180.467 370.196C180.15 369.837 179.854 369.456 179.558 369.097C179.241 368.737 178.945 368.357 178.628 367.976C178.311 367.617 178.015 367.236 177.719 366.877C177.402 366.517 177.106 366.137 176.788 365.777C176.492 365.418 176.175 365.037 175.879 364.678C175.562 364.318 175.266 363.938 174.949 363.557C174.653 363.198 174.336 362.838 174.04 362.458C173.723 362.098 173.427 361.718 173.11 361.358C172.814 360.999 172.518 360.618 172.2 360.259C171.883 359.9 171.587 359.519 171.291 359.16C170.319 358.039 169.388 356.876 168.458 355.692C145.349 393.306 112.555 418.382 81.6864 418.382C79.2549 418.382 76.8234 418.213 74.4554 417.917C61.4735 416.119 50.923 410.39 43.1846 401.129C42.8252 400.727 42.4657 400.304 42.1274 399.881C41.8103 399.522 41.5143 399.141 41.1971 398.782C40.88 398.422 40.584 398.042 40.288 397.661C39.9708 397.323 39.6748 396.942 39.3577 396.562C39.0617 396.202 38.7445 395.843 38.4485 395.462C38.1314 395.103 37.8354 394.722 37.5182 394.363C37.2222 394.004 36.9051 393.623 36.6091 393.264C36.2919 392.904 35.9959 392.524 35.6999 392.143C35.3828 391.784 35.0868 391.424 34.7696 391.043C34.4525 390.684 34.1565 390.303 33.8605 389.944C33.5433 389.585 33.2473 389.204 32.9302 388.845C32.613 388.485 32.317 388.105 32.021 387.724C31.7038 387.386 31.4078 387.005 31.0907 386.625C30.7735 386.265 30.4775 385.885 30.1815 385.525C29.8644 385.166 29.5684 384.785 29.2512 384.426C28.9341 384.066 28.6381 383.686 28.3421 383.326C28.0249 382.967 27.7289 382.586 27.4118 382.206C27.1158 381.846 26.7986 381.487 26.5026 381.106C26.1855 380.747 25.8895 380.366 25.5935 380.007C25.2763 379.647 24.9803 379.267 24.6632 378.907C24.346 378.548 24.05 378.167 23.754 377.787C23.4369 377.427 23.1409 377.068 22.8237 376.687C22.5066 376.328 22.2105 375.947 21.9145 375.588C21.5974 375.228 21.3014 374.848 20.9842 374.488C20.6671 374.129 20.3711 373.748 20.0751 373.389C19.7579 373.03 19.4619 372.649 19.1448 372.268C18.8488 371.909 18.5316 371.528 18.2356 371.169C17.9185 370.809 17.6225 370.429 17.3053 370.069C17.0093 369.71 16.6922 369.329 16.3962 368.97C16.0367 368.547 15.6773 368.103 15.3179 367.659C11.8292 363.642 8.89033 358.948 6.54344 353.578C-16.0798 301.756 23.1408 194.116 75.4068 115.801C73.6731 114.3 72.1085 112.693 70.7342 110.96C70.417 110.6 70.121 110.241 69.8039 109.86C69.5079 109.501 69.1907 109.12 68.8947 108.761C68.5776 108.401 68.2816 108.021 67.9856 107.661C67.6684 107.281 67.3513 106.921 67.0553 106.541C66.7381 106.181 66.4421 105.822 66.1461 105.441C65.829 105.082 65.5118 104.722 65.2158 104.342C64.8987 103.982 64.6027 103.602 64.3067 103.242C63.9895 102.883 63.6724 102.502 63.3764 102.122C63.0592 101.762 62.7632 101.403 62.4672 101.022C62.1501 100.663 61.854 100.303 61.5369 99.9228C61.2198 99.5633 60.9237 99.1828 60.6277 98.8233C60.3106 98.4639 60.0146 98.0833 59.6974 97.7239C59.4014 97.3433 59.0843 96.9839 58.7883 96.6033C58.4711 96.2438 58.1751 95.8844 57.8791 95.5038C57.562 95.1444 57.2448 94.7638 56.9488 94.4044C56.6317 94.045 56.3357 93.6644 56.0397 93.3049C55.7225 92.9244 55.4054 92.5649 55.1094 92.1843C54.7922 91.8249 54.4962 91.4655 54.2002 91.0849C53.8831 90.7255 53.5659 90.366 53.2699 89.9855C52.9528 89.626 52.6568 89.2455 52.3608 88.886C52.0436 88.5266 51.7476 88.146 51.4305 87.7654C51.1133 87.406 50.8173 87.0466 50.5213 86.666C50.2041 86.3066 49.9081 85.9471 49.591 85.5665C49.295 85.2071 48.9778 84.8265 48.6818 84.4671C48.3647 84.1077 48.0687 83.7271 47.7727 83.3676C47.4555 82.9871 47.1384 82.6276 46.8424 82.2471C46.5252 81.8876 46.2292 81.5282 45.9332 81.1476C45.6161 80.7882 45.2989 80.4076 45.0029 80.0482C44.6858 79.6887 44.3898 79.3081 44.0938 78.9487C43.7766 78.5893 43.4595 78.2087 43.1635 77.8281C32.3804 65.4594 31.0484 47.3608 40.6263 33.3851C47.4344 23.4901 58.6826 17.57 70.6919 17.57C78.7052 17.57 86.3167 20.1283 92.702 24.9913C103.168 32.9622 112.661 42.0538 121.118 52.1603C121.436 52.5197 121.732 52.9003 122.049 53.2597C122.366 53.6192 122.662 53.9997 122.958 54.3592C123.275 54.7186 123.571 55.0992 123.867 55.4586C159.282 19.0077 195.289 0 228.462 0C252.777 0 273.624 9.21844 288.784 26.6616C289.059 26.9787 289.291 27.2959 289.566 27.613L289.714 27.761C289.989 28.0782 290.222 28.3953 290.475 28.7125C290.539 28.7548 290.581 28.8182 290.623 28.8605C290.898 29.1776 291.131 29.4948 291.406 29.8119C291.448 29.8753 291.49 29.9176 291.554 29.9811C291.807 30.2771 292.061 30.6154 292.315 30.9114C292.378 30.9748 292.421 31.0171 292.463 31.0805C292.738 31.3765 292.97 31.7148 293.245 32.0319L293.393 32.18C293.647 32.4971 293.901 32.8142 294.154 33.1314C294.197 33.1737 294.26 33.2371 294.302 33.2794C294.577 33.5965 294.81 33.9137 295.085 34.2308C295.127 34.2943 295.169 34.3366 295.233 34.4C295.486 34.696 295.74 35.0131 295.994 35.3303C296.036 35.3937 296.1 35.436 296.142 35.4994C296.417 35.7954 296.649 36.1337 296.924 36.4297C296.966 36.4932 297.009 36.5354 297.051 36.5989C297.326 36.916 297.58 37.2332 297.833 37.5503L297.981 37.6983C298.256 38.0155 298.489 38.3326 298.742 38.6498C298.806 38.7132 298.848 38.7555 298.89 38.7978C299.165 39.1149 299.398 39.4321 299.673 39.7492C299.715 39.8126 299.778 39.8549 299.821 39.9184C300.096 40.2144 300.328 40.5527 300.582 40.8487C300.645 40.9121 300.688 40.9544 300.73 41.0178C301.005 41.335 301.237 41.6521 301.512 41.9693L301.66 42.1173C301.914 42.4344 302.168 42.7516 302.421 43.0687C302.485 43.111 302.527 43.1744 302.569 43.2167C302.844 43.5338 303.077 43.851 303.352 44.1681C303.394 44.2316 303.436 44.2739 303.5 44.3373C303.753 44.6333 304.007 44.9716 304.261 45.2676C304.303 45.331 304.367 45.3733 304.409 45.4367C304.684 45.7327 304.916 46.071 305.191 46.367C305.233 46.4305 305.276 46.4728 305.339 46.5362C305.593 46.8533 305.847 47.1705 306.1 47.4876C306.143 47.5299 306.206 47.5933 306.248 47.6356C306.523 47.9528 306.756 48.2699 307.031 48.5871C307.073 48.6505 307.115 48.6928 307.157 48.7562C307.432 49.0522 307.686 49.3694 307.94 49.6865C307.982 49.7499 308.045 49.7922 308.088 49.8557C308.363 50.1517 308.595 50.49 308.849 50.786C308.912 50.8494 308.955 50.8917 308.997 50.9551C309.272 51.2723 309.504 51.5894 309.779 51.9066L309.927 52.0546C310.202 52.3717 310.435 52.6889 310.688 53.006L310.836 53.154C311.111 53.4712 311.344 53.7883 311.619 54.1054C311.661 54.1689 311.703 54.2112 311.767 54.2746C312.02 54.5706 312.274 54.9089 312.528 55.2049C312.591 55.2683 312.634 55.3106 312.676 55.374C312.951 55.67 313.183 56.0083 313.458 56.3255C313.5 56.3678 313.543 56.4312 313.606 56.4735C313.86 56.7906 314.114 57.1078 314.367 57.4249C314.431 57.4672 314.473 57.5306 314.515 57.5729C314.79 57.8901 315.023 58.2072 315.298 58.5244C315.34 58.5878 315.382 58.6301 315.446 58.6935C315.699 58.9895 315.953 59.3278 316.207 59.6238C316.249 59.6873 316.312 59.7295 316.355 59.793C316.63 60.089 316.862 60.4273 317.137 60.7233C317.179 60.7867 317.222 60.829 317.264 60.8924C325.256 70.0686 330.965 80.5767 334.855 91.5289C338.64 90.958 342.657 90.6198 346.97 90.6198C357.182 90.6198 365.914 94.6793 371.961 102.016C372.279 102.375 372.575 102.756 372.892 103.115C373.209 103.475 373.505 103.855 373.801 104.236C374.118 104.574 374.414 104.955 374.731 105.335C375.048 105.674 375.344 106.054 375.64 106.435C375.957 106.794 376.253 107.175 376.549 107.534C376.888 107.894 377.184 108.274 377.48 108.655C377.797 108.993 378.093 109.374 378.389 109.754C378.706 110.093 379.002 110.473 379.319 110.854C379.636 111.213 379.932 111.594 380.228 111.953C380.546 112.313 380.842 112.693 381.159 113.053C381.476 113.412 381.772 113.793 382.068 114.173C382.385 114.512 382.681 114.892 382.998 115.273C383.315 115.632 383.611 116.013 383.907 116.372C384.224 116.732 384.52 117.112 384.838 117.472C385.155 117.831 385.451 118.212 385.747 118.592C386.064 118.931 386.36 119.311 386.656 119.692C386.994 120.03 387.29 120.411 387.586 120.791C387.903 121.151 388.199 121.531 388.495 121.891C388.813 122.25 389.109 122.631 389.426 122.99C389.743 123.349 390.039 123.73 390.335 124.111C390.652 124.449 390.948 124.829 391.265 125.21C391.582 125.569 391.878 125.95 392.174 126.309C392.491 126.669 392.787 127.049 393.105 127.409C393.422 127.768 393.718 128.149 394.014 128.53C394.331 128.868 394.627 129.248 394.944 129.629C395.261 129.988 395.557 130.369 395.853 130.728C396.17 131.088 396.466 131.468 396.784 131.828C397.101 132.187 397.397 132.568 397.693 132.927C398.01 133.287 398.306 133.667 398.602 134.048C398.919 134.386 399.215 134.767 399.532 135.147C400.484 136.204 401.414 137.346 402.238 138.551C405.389 143.182 407.397 148.742 408.201 154.641C411.584 153.669 415.136 153.14 418.815 153.14C429.429 153.14 439.662 157.58 446.893 165.34C447.823 166.334 448.69 167.37 449.493 168.427C449.789 168.807 450.107 169.146 450.403 169.547C450.699 169.907 451.037 170.266 451.333 170.647C451.629 171.006 451.946 171.366 452.242 171.746C452.538 172.127 452.876 172.465 453.151 172.846C453.468 173.226 453.786 173.565 454.082 173.945C454.378 174.326 454.716 174.685 454.991 175.066C455.308 175.425 455.625 175.785 455.921 176.165C456.217 176.525 456.555 176.884 456.83 177.265C457.126 177.645 457.464 177.983 457.76 178.364C458.057 178.745 458.395 179.104 458.67 179.485C458.966 179.844 459.304 180.203 459.6 180.584C459.896 180.944 460.213 181.303 460.509 181.684C460.805 182.064 461.143 182.402 461.418 182.783C461.735 183.164 462.053 183.502 462.349 183.904C462.645 184.263 462.983 184.622 463.258 185.003C463.575 185.362 463.892 185.722 464.188 186.102C464.484 186.483 464.822 186.821 465.097 187.202C465.414 187.582 465.731 187.921 466.027 188.301C466.324 188.682 466.662 189.041 466.937 189.422C467.233 189.781 467.571 190.141 467.867 190.521C468.163 190.881 468.501 191.24 468.776 191.621C469.072 192.001 469.41 192.34 469.706 192.72C470.002 193.101 470.32 193.46 470.616 193.841C470.912 194.2 471.25 194.56 471.525 194.94C471.842 195.3 472.159 195.659 472.455 196.04C472.751 196.42 473.089 196.759 473.364 197.139C473.681 197.52 473.998 197.858 474.294 198.26C474.59 198.619 474.929 198.979 475.204 199.359C475.521 199.719 475.838 200.078 476.134 200.459C476.43 200.818 476.768 201.178 477.043 201.558C483.175 209.085 486.304 218.748 485.606 228.473C484.633 242.661 484.168 256.15 484.105 268.667C494.254 243.464 504.487 211.728 510.872 181.937C514.445 165.234 529.436 153.14 546.52 153.14C557.81 153.14 568.255 158.215 575.232 167.074C575.338 167.2 575.422 167.348 575.507 167.475C575.718 167.708 575.951 167.94 576.141 168.173C576.247 168.3 576.331 168.448 576.437 168.575C576.649 168.807 576.86 169.04 577.072 169.294C577.156 169.42 577.262 169.547 577.346 169.674C577.558 169.928 577.79 170.139 577.981 170.393C578.086 170.52 578.171 170.647 578.277 170.774C578.467 171.027 578.7 171.239 578.911 171.492C578.996 171.619 579.101 171.746 579.186 171.873C579.397 172.127 579.63 172.338 579.82 172.592C579.926 172.719 580.01 172.867 580.116 172.994C580.306 173.226 580.539 173.459 580.75 173.713C580.835 173.839 580.941 173.966 581.025 174.093C581.237 174.347 581.469 174.558 581.66 174.812C581.765 174.939 581.85 175.066 581.956 175.193C582.146 175.446 582.378 175.658 582.569 175.911C582.675 176.038 582.759 176.165 582.865 176.292C583.076 176.546 583.309 176.757 583.499 177.011C583.605 177.138 583.689 177.286 583.795 177.413C583.985 177.645 584.218 177.878 584.408 178.131C584.514 178.258 584.599 178.385 584.704 178.512C584.916 178.766 585.127 178.977 585.339 179.231C585.444 179.358 585.529 179.485 585.613 179.611C585.825 179.865 586.057 180.077 586.248 180.33C586.353 180.457 586.438 180.584 586.544 180.711C586.755 180.965 586.967 181.176 587.178 181.43C587.263 181.557 587.368 181.705 587.453 181.832C587.664 182.064 587.897 182.297 588.087 182.529C588.193 182.656 588.277 182.804 588.383 182.931C588.573 183.164 588.806 183.396 589.017 183.65C589.102 183.777 589.208 183.904 589.292 184.03C589.504 184.284 589.736 184.496 589.927 184.749C590.032 184.876 590.117 185.003 590.223 185.13C590.413 185.384 590.645 185.595 590.857 185.849C590.941 185.976 591.047 186.102 591.132 186.229C591.343 186.483 591.576 186.694 591.766 186.948C591.872 187.075 591.956 187.223 592.062 187.35C592.252 187.582 592.485 187.815 592.675 188.069C592.781 188.174 592.865 188.322 592.971 188.428C601.513 178.766 610.858 170.52 621.049 163.86C646.442 147.241 671.434 143.753 687.925 143.753C711.225 143.753 724.926 152.823 732.326 160.435C733.277 161.407 734.166 162.422 735.011 163.458C735.328 163.818 735.624 164.198 735.942 164.558C736.238 164.917 736.555 165.298 736.851 165.657C737.168 166.038 737.464 166.397 737.76 166.778C738.077 167.137 738.373 167.496 738.69 167.877C739.007 168.236 739.303 168.617 739.599 168.976C739.916 169.336 740.212 169.716 740.53 170.076C740.847 170.435 741.143 170.816 741.439 171.197C741.756 171.556 742.052 171.915 742.369 172.296C742.686 172.655 742.982 173.036 743.278 173.395C743.595 173.755 743.891 174.135 744.208 174.495C744.526 174.854 744.822 175.235 745.118 175.594C745.435 175.975 745.731 176.334 746.048 176.715C746.365 177.074 746.661 177.455 746.957 177.814C747.274 178.174 747.57 178.554 747.866 178.914C748.183 179.273 748.501 179.654 748.797 180.013C749.114 180.373 749.41 180.753 749.706 181.134C750.023 181.493 750.319 181.853 750.636 182.233C750.953 182.593 751.249 182.973 751.545 183.333C751.693 183.481 751.799 183.65 751.947 183.798C753.406 177.835 754.865 172.085 756.387 166.439C756.091 166.122 755.858 165.784 755.584 165.446C755.266 165.107 754.97 164.727 754.674 164.346C754.336 163.987 754.061 163.606 753.744 163.247C753.427 162.887 753.131 162.507 752.835 162.147C752.497 161.788 752.222 161.407 751.905 161.027C751.588 160.688 751.291 160.308 750.995 159.927C750.678 159.589 750.382 159.187 750.065 158.828C749.748 158.468 749.452 158.088 749.156 157.728C748.839 157.369 748.543 156.988 748.226 156.629C747.317 155.614 746.429 154.557 745.625 153.415C739.113 144.323 737.379 132.589 740.995 121.996C745.794 107.915 759.009 98.4427 773.894 98.4427H777.467C779.666 91.9095 782.013 85.0168 784.55 77.6167C789.54 62.9644 803.283 53.1329 818.738 53.1329C829.881 53.1329 840.072 58.0592 846.964 66.6857C847.26 67.0662 847.578 67.4257 847.874 67.8062C848.191 68.1657 848.487 68.5251 848.783 68.9057C849.1 69.2651 849.417 69.6246 849.713 70.0051C850.03 70.3646 850.326 70.7451 850.622 71.1046C850.939 71.464 851.257 71.8446 851.553 72.2252C851.87 72.5846 852.166 72.944 852.462 73.3246C852.779 73.6841 853.096 74.0435 853.392 74.4241C853.688 74.7835 854.005 75.1641 854.301 75.5235C854.618 75.8829 854.914 76.2635 855.232 76.6441C855.528 77.0035 855.845 77.363 856.141 77.7435C856.458 78.103 856.754 78.4624 857.071 78.843C857.367 79.2024 857.684 79.5619 857.98 79.9424C858.297 80.3019 858.593 80.6825 858.91 81.0419C859.206 81.4225 859.524 81.7819 859.82 82.1625C860.137 82.5219 860.433 82.8813 860.729 83.2619C861.046 83.6214 861.363 83.9808 861.659 84.3614C861.976 84.7208 862.272 85.1014 862.568 85.4608C862.885 85.8202 863.202 86.2008 863.498 86.5814C863.794 86.9408 864.112 87.3003 864.408 87.6809C864.725 88.0403 865.021 88.3997 865.338 88.7803C865.634 89.1397 865.951 89.4992 866.247 89.8797C866.564 90.2392 866.86 90.6198 867.177 90.9792C867.473 91.3598 867.791 91.7192 868.087 92.0998C868.404 92.4592 868.7 92.8187 868.996 93.1992C869.313 93.5587 869.63 93.9181 869.926 94.2987C870.243 94.6581 870.539 95.0387 870.835 95.3981C871.152 95.7787 871.469 96.1381 871.766 96.5187C872.083 96.8781 872.379 97.2376 872.675 97.6181C872.949 97.9353 873.224 98.2524 873.478 98.5696C883.141 99.373 892.021 104.13 898.004 111.784C898.321 112.144 898.638 112.503 898.934 112.884C899.23 113.243 899.548 113.602 899.844 113.983C900.161 114.342 900.457 114.723 900.753 115.082C901.07 115.463 901.387 115.822 901.683 116.203C902 116.562 902.296 116.922 902.592 117.302C902.909 117.662 903.227 118.021 903.523 118.402C903.84 118.761 904.136 119.121 904.432 119.501C904.749 119.882 905.066 120.241 905.362 120.622C905.658 120.981 905.975 121.341 906.271 121.721C906.588 122.081 906.905 122.44 907.201 122.821C907.497 123.18 907.815 123.54 908.111 123.92C908.428 124.28 908.745 124.66 909.041 125.02C909.337 125.4 909.654 125.76 909.95 126.14C910.267 126.5 910.563 126.859 910.859 127.24C911.176 127.599 911.494 127.959 911.79 128.339C912.107 128.699 912.403 129.079 912.699 129.439C913.016 129.819 913.333 130.179 913.629 130.559C913.925 130.919 914.242 131.278 914.538 131.659C914.855 132.018 915.172 132.378 915.468 132.758C915.764 133.118 916.082 133.477 916.378 133.858C916.695 134.238 917.012 134.598 917.308 134.957C917.604 135.338 917.921 135.697 918.217 136.078C918.534 136.437 918.851 136.797 919.147 137.177C919.443 137.537 919.761 137.896 920.057 138.277C920.374 138.636 920.67 139.017 920.966 139.376C921.283 139.757 921.6 140.116 921.896 140.497C922.213 140.856 922.509 141.215 922.805 141.596C923.122 141.955 923.439 142.315 923.735 142.695C924.031 143.055 924.349 143.414 924.645 143.795C924.962 144.175 925.279 144.535 925.575 144.915C926.336 145.804 927.055 146.734 927.732 147.706C934.223 157.115 935.66 169.103 931.601 179.802Z" fill="white"/>
<path d="M327.902 152.719C343.083 155.848 357.587 152.719 362.915 137.094C367.799 124.598 364.184 105.844 346.994 105.844C329.805 105.844 318.218 110.517 313.102 124.598C308.218 137.094 314.286 149.611 327.902 152.719Z" fill="black"/>
<path d="M870.644 113.664H833.031C835.06 107.089 836.963 101 838.697 95.5657C842.968 82.0764 832.904 68.3333 818.759 68.3333C809.815 68.3333 801.844 74.042 798.969 82.4992C795.079 93.9166 791.611 104.129 788.44 113.643H773.914C765.563 113.643 758.12 118.971 755.435 126.879C751.122 139.544 760.531 152.716 773.914 152.716H776.071C767.783 180.836 761.249 208.682 752.602 253.759C723.488 301.099 681.138 330.826 652.87 330.826C632.551 330.826 614.008 318.331 610.16 301.141C730.465 301.141 772.329 158.974 687.946 158.974C655.999 158.974 602.676 173.817 571.257 255.429C564.343 251.751 558.148 247.184 553.243 242.363C559.226 224.835 563.899 208.238 567.218 194.622C570.474 181.238 560.326 168.362 546.561 168.362C536.561 168.362 527.871 175.339 525.778 185.128C514.424 238.177 481.673 330.868 460.678 330.868C439.683 330.868 438.203 247.036 441.966 193.205C442.896 179.779 432.282 168.362 418.835 168.362C406.593 168.362 396.445 177.876 395.684 190.097C394.605 207.075 393.696 230.354 393.316 254.288C393.527 267.904 394.161 282.662 396.001 296.934C389.087 314.546 378.98 330.826 363.821 330.826C326.82 330.826 338.322 238.748 346.103 193.163C348.323 180.181 338.322 168.32 325.15 168.32C314.726 168.32 305.846 175.868 304.155 186.164C300.941 205.87 296.141 235.259 293.287 260.694C282.483 296.046 269.776 327.697 240.81 327.697C200.194 327.697 190.235 265.198 187.465 229.275C232.965 216.78 287.346 174.578 297.241 115.208C303.161 73.0271 284.745 15.2216 228.483 15.2216C192.984 15.2216 155.497 41.27 122.027 79.2009C112.132 63.6818 99.4462 49.2199 83.2082 36.8511C73.588 29.5144 59.7604 31.7767 52.91 41.7563C46.6305 50.8902 48.5122 63.2589 57.0963 70.2573C73.3343 83.493 84.9842 99.1178 93.3147 115.884C22.6541 217.055 -17.1586 359.327 47.603 368.334C85.8511 373.197 132.599 324.081 149.238 260.081C156.448 311.67 177.105 373.007 234.424 373.007C264.701 373.007 286.162 356.811 301.681 335.309C312.358 356.811 329.717 369.899 348.936 369.899C371.453 369.899 389.721 347.783 401.308 323.595C408.898 349.918 423.593 369.899 452.051 369.899C492.942 369.899 524.594 316.787 545.272 264.098C549.944 273.169 555.907 280.653 562.419 286.447C554.194 341.017 593.161 369.878 630.162 369.878C669.678 369.878 714.417 342.455 746.766 285.051C740.297 332.94 752.39 369.878 798.906 369.878C833.306 369.878 851.51 340.869 860.834 317.083C864.619 307.399 860.538 296.447 851.298 291.69C840.304 286.024 826.815 291.479 822.903 303.213C818.336 316.914 812.627 330.805 805.967 330.805C795.036 330.805 792.309 305.793 792.499 293.297C791.844 263.126 806.877 203.121 821.402 152.674H870.666C878.763 152.674 886.037 147.663 888.912 140.093C893.775 127.302 884.345 113.622 870.666 113.622L870.644 113.664ZM688.031 202.719C705.897 208.978 666.972 263.654 619.442 268.348C626.292 241.792 663.018 191.788 688.031 202.719ZM59.5701 327.697C33.8388 324.081 61.7479 233.462 107.692 157.811C111.477 175.149 113.084 192.592 113.76 208.936C116.593 277.672 77.8801 330.805 59.5701 327.676V327.697ZM154.905 193.987C153.636 169.081 149.429 140.495 138.836 112.903C165.624 79.5181 195.225 55.8377 222.753 55.8377C250.282 55.8377 260.769 85.5227 256.604 115.208C249.373 166.691 189.939 198.512 154.905 193.966V193.987Z" fill="black"/>
<path d="M327.902 152.719C343.083 155.848 357.587 152.719 362.915 137.094C367.799 124.598 364.184 105.844 346.994 105.844C329.805 105.844 318.218 110.517 313.102 124.598C308.218 137.094 314.286 149.611 327.902 152.719Z" fill="black"/>
<path d="M870.644 113.664H833.031C835.06 107.089 836.963 101 838.697 95.5657C842.968 82.0764 832.904 68.3333 818.759 68.3333C809.815 68.3333 801.844 74.042 798.969 82.4992C795.079 93.9166 791.611 104.129 788.44 113.643H773.914C765.563 113.643 758.12 118.971 755.435 126.879C751.122 139.544 760.531 152.716 773.914 152.716H776.071C767.783 180.836 761.249 208.682 752.602 253.759C723.488 301.099 681.138 330.826 652.87 330.826C632.551 330.826 614.008 318.331 610.16 301.141C730.465 301.141 772.329 158.974 687.946 158.974C655.999 158.974 602.676 173.817 571.257 255.429C564.343 251.751 558.148 247.184 553.243 242.363C559.226 224.835 563.899 208.238 567.218 194.622C570.474 181.238 560.326 168.362 546.561 168.362C536.561 168.362 527.871 175.339 525.778 185.128C514.424 238.177 481.673 330.868 460.678 330.868C439.683 330.868 438.203 247.036 441.966 193.205C442.896 179.779 432.282 168.362 418.835 168.362C406.593 168.362 396.445 177.876 395.684 190.097C394.605 207.075 393.696 230.354 393.316 254.288C393.527 267.904 394.161 282.662 396.001 296.934C389.087 314.546 378.98 330.826 363.821 330.826C326.82 330.826 338.322 238.748 346.103 193.163C348.323 180.181 338.322 168.32 325.15 168.32C314.726 168.32 305.846 175.868 304.155 186.164C300.941 205.87 296.141 235.259 293.287 260.694C282.483 296.046 269.776 327.697 240.81 327.697C200.194 327.697 190.235 265.198 187.465 229.275C232.965 216.78 287.346 174.578 297.241 115.208C303.161 73.0271 284.745 15.2216 228.483 15.2216C192.984 15.2216 155.497 41.27 122.027 79.2009C112.132 63.6818 99.4462 49.2199 83.2082 36.8511C73.588 29.5144 59.7604 31.7767 52.91 41.7563C46.6305 50.8902 48.5122 63.2589 57.0963 70.2573C73.3343 83.493 84.9842 99.1178 93.3147 115.884C22.6541 217.055 -17.1586 359.327 47.603 368.334C85.8511 373.197 132.599 324.081 149.238 260.081C156.448 311.67 177.105 373.007 234.424 373.007C264.701 373.007 286.162 356.811 301.681 335.309C312.358 356.811 329.717 369.899 348.936 369.899C371.453 369.899 389.721 347.783 401.308 323.595C408.898 349.918 423.593 369.899 452.051 369.899C492.942 369.899 524.594 316.787 545.272 264.098C549.944 273.169 555.907 280.653 562.419 286.447C554.194 341.017 593.161 369.878 630.162 369.878C669.678 369.878 714.417 342.455 746.766 285.051C740.297 332.94 752.39 369.878 798.906 369.878C833.306 369.878 851.51 340.869 860.834 317.083C864.619 307.399 860.538 296.447 851.298 291.69C840.304 286.024 826.815 291.479 822.903 303.213C818.336 316.914 812.627 330.805 805.967 330.805C795.036 330.805 792.309 305.793 792.499 293.297C791.844 263.126 806.877 203.121 821.402 152.674H870.666C878.763 152.674 886.037 147.663 888.912 140.093C893.775 127.302 884.345 113.622 870.666 113.622L870.644 113.664ZM688.031 202.719C705.897 208.978 666.972 263.654 619.442 268.348C626.292 241.792 663.018 191.788 688.031 202.719ZM59.5701 327.697C33.8388 324.081 61.7479 233.462 107.692 157.811C111.477 175.149 113.084 192.592 113.76 208.936C116.593 277.672 77.8801 330.805 59.5701 327.676V327.697ZM154.905 193.987C153.636 169.081 149.429 140.495 138.836 112.903C165.624 79.5181 195.225 55.8377 222.753 55.8377C250.282 55.8377 260.769 85.5227 256.604 115.208C249.373 166.691 189.939 198.512 154.905 193.966V193.987Z" fill="black"/>
</svg>
