<svg width="1030" height="257" viewBox="0 0 1030 257" fill="none" xmlns="http://www.w3.org/2000/svg">
<path d="M975.18 99.1244H994.247V116.944H994.604C995.198 114.449 996.326 112.014 997.99 109.638C999.772 107.262 1001.85 105.124 1004.23 103.223C1006.72 101.203 1009.45 99.5996 1012.42 98.4116C1015.39 97.2236 1018.42 96.6296 1021.51 96.6296C1023.89 96.6296 1025.49 96.689 1026.32 96.8078C1027.27 96.9266 1028.22 97.0454 1029.17 97.1642V116.766C1027.75 116.528 1026.26 116.35 1024.72 116.231C1023.29 115.994 1021.87 115.875 1020.44 115.875C1017 115.875 1013.73 116.588 1010.64 118.013C1007.67 119.32 1005.06 121.34 1002.8 124.072C1000.54 126.686 998.762 129.952 997.455 133.873C996.148 137.793 995.495 142.307 995.495 147.416V191.252H975.18V99.1244Z" fill="white"/>
<path d="M939.423 137.08C939.185 133.873 938.472 130.784 937.284 127.814C936.215 124.844 934.671 122.29 932.651 120.152C930.75 117.894 928.374 116.112 925.523 114.806C922.791 113.38 919.702 112.667 916.257 112.667C912.693 112.667 909.426 113.321 906.456 114.628C903.605 115.815 901.11 117.538 898.972 119.795C896.952 121.934 895.289 124.488 893.982 127.458C892.794 130.428 892.141 133.635 892.022 137.08H939.423ZM892.022 150.445C892.022 154.009 892.497 157.454 893.448 160.781C894.517 164.107 896.061 167.017 898.081 169.512C900.1 172.007 902.655 174.027 905.743 175.571C908.832 176.996 912.515 177.709 916.792 177.709C922.731 177.709 927.483 176.462 931.047 173.967C934.73 171.354 937.462 167.493 939.244 162.384H958.49C957.421 167.374 955.579 171.829 952.966 175.749C950.352 179.669 947.204 182.996 943.521 185.728C939.838 188.342 935.68 190.302 931.047 191.609C926.533 193.034 921.781 193.747 916.792 193.747C909.545 193.747 903.13 192.559 897.546 190.183C891.963 187.807 887.211 184.481 883.291 180.204C879.489 175.927 876.578 170.819 874.559 164.879C872.658 158.939 871.708 152.405 871.708 145.277C871.708 138.744 872.717 132.566 874.737 126.745C876.875 120.805 879.845 115.637 883.647 111.242C887.567 106.727 892.26 103.164 897.724 100.55C903.189 97.9364 909.367 96.6296 916.257 96.6296C923.504 96.6296 929.978 98.174 935.68 101.263C941.502 104.233 946.313 108.212 950.114 113.202C953.916 118.191 956.648 123.953 958.311 130.487C960.093 136.902 960.569 143.555 959.737 150.445H892.022Z" fill="white"/>
<path d="M816.648 99.1244H835.715V116.944H836.071C836.665 114.449 837.794 112.014 839.457 109.638C841.239 107.262 843.318 105.124 845.694 103.223C848.189 101.203 850.921 99.5996 853.891 98.4116C856.861 97.2236 859.89 96.6296 862.979 96.6296C865.355 96.6296 866.959 96.689 867.79 96.8078C868.741 96.9266 869.691 97.0454 870.641 97.1642V116.766C869.216 116.528 867.731 116.35 866.186 116.231C864.761 115.994 863.335 115.875 861.91 115.875C858.465 115.875 855.198 116.588 852.109 118.013C849.139 119.32 846.525 121.34 844.268 124.072C842.011 126.686 840.229 129.952 838.922 133.873C837.616 137.793 836.962 142.307 836.962 147.416V191.252H816.648V99.1244Z" fill="white"/>
<path d="M780.89 137.08C780.652 133.873 779.94 130.784 778.752 127.814C777.682 124.844 776.138 122.29 774.118 120.152C772.218 117.894 769.842 116.112 766.991 114.806C764.258 113.38 761.169 112.667 757.724 112.667C754.16 112.667 750.893 113.321 747.923 114.628C745.072 115.815 742.578 117.538 740.439 119.795C738.42 121.934 736.756 124.488 735.45 127.458C734.262 130.428 733.608 133.635 733.49 137.08H780.89ZM733.49 150.445C733.49 154.009 733.965 157.454 734.915 160.781C735.984 164.107 737.529 167.017 739.548 169.512C741.568 172.007 744.122 174.027 747.211 175.571C750.299 176.996 753.982 177.709 758.259 177.709C764.199 177.709 768.951 176.462 772.515 173.967C776.197 171.354 778.93 167.493 780.712 162.384H799.957C798.888 167.374 797.046 171.829 794.433 175.749C791.819 179.669 788.671 182.996 784.988 185.728C781.306 188.342 777.148 190.302 772.515 191.609C768 193.034 763.248 193.747 758.259 193.747C751.012 193.747 744.597 192.559 739.014 190.183C733.43 187.807 728.678 184.481 724.758 180.204C720.956 175.927 718.046 170.819 716.026 164.879C714.125 158.939 713.175 152.405 713.175 145.277C713.175 138.744 714.185 132.566 716.204 126.745C718.343 120.805 721.313 115.637 725.114 111.242C729.035 106.727 733.727 103.164 739.192 100.55C744.656 97.9364 750.834 96.6296 757.724 96.6296C764.971 96.6296 771.445 98.174 777.148 101.263C782.969 104.233 787.78 108.212 791.582 113.202C795.383 118.191 798.116 123.953 799.779 130.487C801.561 136.902 802.036 143.555 801.204 150.445H733.49Z" fill="white"/>
<path d="M680.803 129.952C679.971 124.25 677.655 119.973 673.853 117.122C670.171 114.152 665.478 112.667 659.776 112.667C657.162 112.667 654.371 113.143 651.401 114.093C648.431 114.925 645.698 116.588 643.203 119.082C640.709 121.458 638.63 124.844 636.967 129.24C635.303 133.516 634.472 139.159 634.472 146.168C634.472 149.97 634.888 153.771 635.719 157.573C636.67 161.375 638.095 164.76 639.996 167.73C642.016 170.7 644.57 173.136 647.658 175.036C650.747 176.818 654.489 177.709 658.885 177.709C664.825 177.709 669.695 175.868 673.497 172.185C677.417 168.502 679.853 163.335 680.803 156.682H701.117C699.217 168.681 694.643 177.887 687.396 184.303C680.268 190.599 670.765 193.747 658.885 193.747C651.638 193.747 645.223 192.559 639.64 190.183C634.175 187.688 629.542 184.362 625.74 180.204C621.939 175.927 619.028 170.878 617.009 165.057C615.108 159.236 614.157 152.94 614.157 146.168C614.157 139.278 615.108 132.804 617.009 126.745C618.909 120.686 621.76 115.459 625.562 111.064C629.364 106.549 634.056 103.045 639.64 100.55C645.342 97.9364 651.995 96.6296 659.598 96.6296C664.944 96.6296 669.992 97.3424 674.744 98.768C679.615 100.075 683.892 102.094 687.575 104.827C691.376 107.559 694.465 111.004 696.841 115.162C699.217 119.32 700.642 124.25 701.117 129.952H680.803Z" fill="white"/>
<path d="M559.097 99.1244H578.164V116.944H578.521C579.115 114.449 580.243 112.014 581.906 109.638C583.688 107.262 585.767 105.124 588.143 103.223C590.638 101.203 593.371 99.5996 596.34 98.4116C599.31 97.2236 602.34 96.6296 605.429 96.6296C607.804 96.6296 609.408 96.689 610.24 96.8078C611.19 96.9266 612.141 97.0454 613.091 97.1642V116.766C611.665 116.528 610.18 116.35 608.636 116.231C607.21 115.994 605.785 115.875 604.359 115.875C600.914 115.875 597.647 116.588 594.558 118.013C591.589 119.32 588.975 121.34 586.718 124.072C584.461 126.686 582.679 129.952 581.372 133.873C580.065 137.793 579.412 142.307 579.412 147.416V191.252H559.097V99.1244Z" fill="white"/>
<path d="M495.7 193.747C488.334 193.747 481.741 192.559 475.92 190.183C470.217 187.688 465.347 184.303 461.308 180.026C457.387 175.749 454.358 170.641 452.219 164.701C450.2 158.761 449.19 152.227 449.19 145.099C449.19 138.09 450.2 131.616 452.219 125.676C454.358 119.736 457.387 114.628 461.308 110.351C465.347 106.074 470.217 102.748 475.92 100.372C481.741 97.877 488.334 96.6296 495.7 96.6296C503.065 96.6296 509.599 97.877 515.301 100.372C521.122 102.748 525.993 106.074 529.913 110.351C533.952 114.628 536.982 119.736 539.001 125.676C541.14 131.616 542.209 138.09 542.209 145.099C542.209 152.227 541.14 158.761 539.001 164.701C536.982 170.641 533.952 175.749 529.913 180.026C525.993 184.303 521.122 187.688 515.301 190.183C509.599 192.559 503.065 193.747 495.7 193.747ZM495.7 177.709C500.214 177.709 504.134 176.759 507.461 174.858C510.787 172.957 513.519 170.463 515.658 167.374C517.796 164.285 519.34 160.84 520.291 157.038C521.36 153.118 521.894 149.138 521.894 145.099C521.894 141.179 521.36 137.259 520.291 133.338C519.34 129.418 517.796 125.973 515.658 123.003C513.519 119.914 510.787 117.419 507.461 115.519C504.134 113.618 500.214 112.667 495.7 112.667C491.185 112.667 487.265 113.618 483.939 115.519C480.612 117.419 477.88 119.914 475.741 123.003C473.603 125.973 471.999 129.418 470.93 133.338C469.98 137.259 469.505 141.179 469.505 145.099C469.505 149.138 469.98 153.118 470.93 157.038C471.999 160.84 473.603 164.285 475.741 167.374C477.88 170.463 480.612 172.957 483.939 174.858C487.265 176.759 491.185 177.709 495.7 177.709Z" fill="white"/>
<path d="M355.381 148.841C355.381 153.712 356.212 157.87 357.875 161.315C359.538 164.76 361.855 167.611 364.825 169.869C367.795 172.007 371.181 173.611 374.982 174.68C378.903 175.63 383.12 176.105 387.634 176.105C392.505 176.105 396.663 175.571 400.108 174.502C403.553 173.314 406.345 171.829 408.483 170.047C410.622 168.265 412.166 166.245 413.116 163.988C414.067 161.612 414.542 159.236 414.542 156.86C414.542 151.989 413.413 148.426 411.156 146.168C409.018 143.792 406.642 142.129 404.028 141.179C399.514 139.516 394.227 137.971 388.169 136.546C382.229 135.001 374.863 133.041 366.072 130.665C360.608 129.24 356.034 127.398 352.351 125.141C348.787 122.765 345.936 120.152 343.798 117.3C341.659 114.449 340.115 111.42 339.165 108.212C338.333 105.005 337.917 101.738 337.917 98.4116C337.917 91.9965 339.224 86.4724 341.838 81.8393C344.57 77.0873 348.134 73.167 352.529 70.0783C356.925 66.9895 361.914 64.7324 367.498 63.3068C373.081 61.7624 378.724 60.9902 384.427 60.9902C391.079 60.9902 397.316 61.8812 403.137 63.6632C409.077 65.3263 414.245 67.8805 418.64 71.3256C423.155 74.7708 426.719 79.0475 429.332 84.1558C431.946 89.1453 433.253 94.9664 433.253 101.619H410.978C410.384 93.4221 407.592 87.6604 402.603 84.334C397.613 80.8889 391.258 79.1663 383.536 79.1663C380.922 79.1663 378.249 79.4633 375.517 80.0573C372.784 80.5325 370.29 81.4235 368.033 82.7302C365.775 83.9182 363.875 85.5814 362.33 87.7198C360.905 89.8581 360.192 92.5311 360.192 95.7386C360.192 100.253 361.558 103.817 364.29 106.43C367.142 108.925 370.824 110.826 375.339 112.133C375.814 112.252 377.655 112.786 380.863 113.737C384.189 114.568 387.872 115.519 391.911 116.588C395.95 117.657 399.87 118.726 403.672 119.795C407.592 120.746 410.384 121.458 412.047 121.934C416.205 123.24 419.828 125.022 422.917 127.28C426.006 129.537 428.56 132.15 430.58 135.12C432.718 137.971 434.262 141.06 435.213 144.386C436.282 147.713 436.817 151.039 436.817 154.365C436.817 161.493 435.332 167.611 432.362 172.72C429.51 177.709 425.709 181.808 420.957 185.015C416.205 188.223 410.8 190.539 404.741 191.965C398.682 193.509 392.505 194.282 386.209 194.282C378.962 194.282 372.131 193.391 365.716 191.609C359.301 189.827 353.717 187.094 348.965 183.412C344.214 179.729 340.412 175.036 337.561 169.334C334.71 163.513 333.225 156.682 333.106 148.841H355.381Z" fill="white"/>
<path d="M171.943 53.1808C171.943 53.1808 233.651 53.3279 233.651 43.0423C233.651 32.7567 189.381 29.1257 149.637 28.5248C109.886 27.9175 38.5175 26.4089 38.5175 37.6022C38.5175 48.7955 97.1574 54.958 141.42 61.0117C185.69 67.059 202.301 77.5044 211.637 98.3697C211.637 98.3697 255.938 99.6099 255.938 80.5537C255.938 61.4975 198.896 57.0355 107.2 46.7499C107.2 46.7499 118.974 42.8441 134.324 43.1445C155.097 43.5537 171.95 53.1808 171.95 53.1808H171.943Z" fill="white"/>
<path d="M214.336 150.847C214.336 150.847 265.574 149.587 265.664 128.716C265.74 110.746 225.754 100.863 111.14 94.0232C71.7014 91.6708 56.2427 89.0562 56.2427 89.0562C56.2427 89.0562 64.1153 71.611 84.0798 57.7967C84.0798 57.7967 17.3574 57.9565 12.6097 74.2831C7.86199 90.6096 47.2374 95.3337 52.9334 96.1903C58.6802 97.0597 96.9546 101.381 108.754 102.653C122.762 104.168 220.599 107.844 214.336 150.847Z" fill="white"/>
<path d="M181.385 198.63C181.385 198.63 255.585 204.562 255.407 179.497C255.26 159.079 187.768 153.71 127.83 151.249C82.9367 149.401 48.0608 145.476 48.0608 145.476C48.0608 145.476 43.1476 124.726 50.3073 103.56C50.3073 103.56 -0.555459 107.025 0.00459132 129.648C0.558278 152.086 37.2034 153.627 89.2754 158.216C145.713 163.19 194.667 167.179 193.292 184.746C192.808 190.972 181.378 198.63 181.378 198.63H181.385Z" fill="white"/>
<path d="M51.7911 158.6C51.7911 158.6 5.35138 160.281 10.5318 180.053C15.7123 199.825 79.2399 198.559 98.9181 200.343C157.972 205.681 159.181 210.079 159.181 210.079C159.181 210.079 123.637 224.328 88.4808 204.389C88.4808 204.389 33.653 201.538 37.9616 217.986C41.4174 231.168 157.329 231.583 182.194 229.851C207.059 228.118 223.625 224.034 219.38 217.29C206.951 197.517 72.793 190.735 72.793 190.735C72.793 190.735 58.7153 177.95 51.7974 158.6H51.7911Z" fill="white"/>
<path d="M173.557 249.024C173.557 260.614 92.801 258.504 92.801 249.606C92.801 233.267 173.557 238.227 173.557 249.024Z" fill="white"/>
<path d="M173.621 8.20879C173.621 -1.69965 92.7443 -3.72608 92.7443 8.20879C92.7443 26.0823 173.621 16.4807 173.621 8.20879Z" fill="white"/>
</svg>
