<svg width="1017" height="289" viewBox="0 0 1017 289" fill="none" xmlns="http://www.w3.org/2000/svg">
<path d="M105.814 0.354823C127.148 -1.79916 135.282 6.09855 150.219 17.4049C153.726 16.2717 157.546 10.9759 160.652 8.87598C162.857 7.38546 166.68 5.80087 169.182 4.78074C183.525 -1.14552 199.644 -1.08655 213.942 4.94573C237.682 15.062 241.298 29.1093 249.898 50.5838C251.702 51.4102 256.636 52.7462 258.609 53.1745C296.846 61.4555 315.179 107.616 290.256 138.364C283.829 146.294 295.835 156.018 298.645 165.187C306.915 192.178 296.339 220.809 270.17 232.933C262.371 236.547 257.033 237.241 248.744 238.664C247.846 246.827 247.032 252.83 242.519 259.906C230.942 278.056 213.964 286.745 193.015 288.516C174.351 288.235 164.293 283.584 150.917 270.641C144.628 276.196 139.248 281.575 131.396 284.632C116.778 290.161 100.568 289.701 86.2861 283.354C74.8516 278.279 63.9479 269.165 59.0111 257.465C56.97 252.627 55.5348 247.129 53.5793 242.093L52.0542 242.79L52.9811 242.861L52.2712 243.059L51.7944 241.593C53.0555 237.696 52.9818 237.792 48.7232 237.316C9.25407 232.901 -10.9959 189.161 6.86395 154.889C8.79485 151.184 13.1742 146.35 15.7237 142.559C-2.42759 122.331 -5.95026 97.692 10.895 74.8091C21.7516 60.0612 34.9597 53.9004 52.9396 51.4123C58.2275 23.2335 76.4911 3.1821 105.814 0.354823ZM51.7649 147.188C41.5557 159.243 24.6037 164.185 26.5353 185.348C27.3154 193.541 31.3163 201.089 37.6581 206.336C41.5431 209.501 45.355 211.062 50.2146 212.019C56.7762 212.318 72.0191 212.058 75.8634 217.065C78.2479 220.171 78.8019 234.854 79.8593 239.227C82.9066 252.193 93.8974 261.765 107.161 263.003C114.712 263.64 123.11 262.153 128.711 256.941C135.679 250.456 136.86 246.997 137.312 237.888C137.873 226.565 137.726 215.278 137.75 204.007L137.838 84.9149C137.839 74.1428 139.371 47.9896 134.886 38.5628C129.891 28.0639 114.797 25.4423 103.561 26.157C94.3116 28.7891 77.5429 42.2733 79.5932 52.2625C82.8694 58.0919 110.004 66.2774 104.519 78.528C96.1442 97.2329 86.4146 86.1997 75.6359 80.1182C50.8423 66.13 14.9267 90.2177 29.2625 119.087C34.6185 129.871 45.5622 134.124 51.7649 147.188ZM206.295 200.668C217.341 201.234 219.496 206.463 229.077 210.666C259.401 223.969 290.79 191.363 268.861 164.001C264.454 158.501 251.728 151.571 251.402 144.279C252.541 141.804 257.572 135.874 259.769 134.211C284.788 115.274 280.956 79.1346 246.118 76.9954C239.351 76.5805 228.528 78.3476 225.869 69.0359C219.447 43.794 220.179 24.1877 186.198 26.3023C179.711 27.8616 169.003 34.8867 167.47 40.7434C163.964 54.1405 165.14 80.0796 165.104 93.3953L164.988 215.857C164.991 232.183 161.219 250.062 177.641 259.124C184.958 263.103 193.534 264.08 201.558 261.848C209.239 259.667 215.697 254.448 219.441 247.397C221.327 243.872 221.796 240.982 222.526 237.101L222.312 236.91C214.105 229.65 199.137 226.751 198.543 213.957C198.236 207.313 199.849 202.973 206.295 200.668Z" fill="white"/>
<path d="M955.176 102.182C967.484 101.123 983.339 107.026 993.036 114.366C1005.64 124.121 1013.48 140.885 1015.47 156.295C1019.32 185.784 1005.29 222.265 972.905 228C969.991 228.516 964.072 227.925 959.943 228.45C956.594 228.524 952.908 228.199 949.664 228.384C891.533 231.688 879.884 143.563 919.008 113.598C929.849 105.294 941.737 103.027 955.176 102.182ZM959.283 209.195C981.19 205.903 990.389 189.847 990.978 168.637C991.666 143.81 980.439 122.514 952.178 124.611C907.97 127.805 909.185 212.838 958.497 209.265C958.757 209.246 959.017 209.223 959.283 209.195Z" fill="white"/>
<path d="M346.297 102.157C359.357 99.1223 365.108 123.567 368.279 132.81L380.059 167.122C383.052 175.747 389.434 189.892 390.743 197.921C392.716 191.801 395.934 185.777 397.988 179.609C404.561 160.063 411.628 140.602 419.267 121.446C421.821 115.041 424.893 103.967 432.22 102.178C435.04 101.496 438.016 101.951 440.503 103.446C448.69 108.435 463.724 161.499 468.478 173.12C470.27 177.501 477.181 193.516 478.176 197.328C487.849 168.855 499.715 139.348 510.219 111.032C514.793 98.7004 526.992 97.8439 531.703 111.897C530.739 118.622 529.584 122.357 527.315 128.721C526.456 131.529 525.2 134.616 524.098 137.388C513.054 165.175 503.667 193.753 491.202 220.938C490.253 223.007 487.894 225.274 486.02 226.53C482.681 228.764 478.575 229.539 474.652 228.673C472.05 228.082 467.739 225.691 466.497 223.34C458.542 208.297 452.871 190.552 446.685 174.729C442.277 163.452 441.105 154.696 434.619 144.336C423.771 160.289 419.056 186.418 410.773 204.312C407.483 211.417 406.791 217.219 401.358 223.843C394.125 232.662 382.108 230.859 376.825 221.084C368.193 202.371 361.714 183.227 354.77 163.804C349.124 148.01 340.75 132.05 337.754 115.526C337.049 111.638 339.877 103.727 344.922 104.083L346.297 102.157Z" fill="white"/>
<path d="M597.466 102.718C623.769 100.535 644.735 109.349 656.096 134.549C658.518 139.925 668.334 167.379 657.556 172.077C655.66 172.904 641.337 171.657 637.72 171.55C624.113 171.118 610.498 171.814 596.883 171.389C594.356 171.502 573.081 170.097 573.123 173.874C573.488 206.044 609.922 215.259 635.052 204.358C637.51 203.293 640.024 201.718 642.383 200.283C646.202 198.339 653.21 196.206 655.857 198.702C670.23 212.218 645.676 225.757 633.985 227.446C626.332 228.552 624.794 230.354 617.878 229.606C615.097 229.43 615.724 229.606 606.827 229.011C578.327 224.511 557.079 213.021 549.849 185.242C545.38 168.076 547.971 146.414 557.921 130.257C568.538 113.012 577.82 107.634 597.466 102.718ZM573.032 156.311C585.944 155.965 598.857 156.321 611.755 156.157C616.136 156.155 633.409 156.769 636.091 155.797C648.814 151.174 631.527 132.38 627.055 126.92C617.295 123.943 612.78 122.319 602.339 123.121C583.774 125.843 575.601 138.888 573.032 156.311Z" fill="white"/>
<path d="M701.806 50.0193C708.139 50.4721 711.011 50.9825 714.479 56.5985C713.342 66.3076 714.205 83.1161 714.535 93.0744L715.729 141.42C716.017 157.629 714.886 174.614 715.877 190.998C717.498 217.911 743.204 197.849 748.049 215.328C748.814 218.062 748.414 220.989 746.947 223.419C744.405 227.643 742.074 228.919 737.559 230.119C727.785 228.236 714.571 228.715 706.524 224.388C686.407 213.575 689.672 180.554 689.595 161.518L689.427 114.137C689.377 98.2066 689.041 82.1381 689.616 66.2331C689.925 57.8138 693.611 52.1761 701.806 50.0193Z" fill="white"/>
<path d="M774.288 50.7797C784.392 49.5939 786.281 51.1244 792.116 59.2559C791.554 62.774 791.049 66.7254 791.07 70.2912C791.28 102.99 790.002 136.103 792.249 168.709C792.93 178.583 790.957 193.232 795.725 201.871C803.603 213.779 828.368 198.122 823.916 220.481C823.045 224.857 819.479 227.208 815.975 229.313C811.186 230.706 797.909 228.453 792.172 227.531C784.996 226.357 778.592 222.368 774.373 216.449C764.283 202.483 766.045 181.206 766.108 164.765L766.263 114.31C766.2 97.6176 765.294 78.4185 766.15 61.8094C766.368 57.4726 770.806 53.2728 774.288 50.7797Z" fill="white"/>
<path d="M851.588 104.017C860.175 103.274 862.738 105.928 867.716 112.359C869.163 129.27 867.463 155.994 867.934 173.687C868.166 182.451 868.643 215.091 867.583 221.298C864.732 225.637 862.878 226.892 858.602 229.465C850.724 229.75 847.045 226.692 842.348 220.82C843.015 195.462 841.442 169.445 841.891 143.99C842.053 134.52 841.231 122.661 843.106 113.404C844.033 108.847 847.733 106.168 851.588 104.017Z" fill="white"/>
<path d="M849.46 50.1368C859.318 49.1166 867.365 51.0438 870.56 62.2329C872.617 69.4475 867.835 75.8091 861.081 78.4713C838.577 82.1488 832.075 59.4485 849.46 50.1368Z" fill="white"/>
</svg>
