<svg width="637" height="314" viewBox="0 0 637 314" fill="none" xmlns="http://www.w3.org/2000/svg">
<path d="M5.15013 312.551V267.616H37.7247V274.375H13.1972V285.899H29.742V292.658H13.1972V305.791H37.9822V312.551H5.15013ZM95.4957 313.323C91.9335 313.323 88.8434 312.658 86.2254 311.328C83.6504 309.954 81.6547 308.023 80.2384 305.534C78.865 303.002 78.1784 299.976 78.1784 296.457H86.1611C86.1611 299.718 86.955 302.229 88.543 303.989C90.1739 305.705 92.47 306.564 95.4313 306.564C97.9205 306.564 99.8947 306.006 101.354 304.89C102.856 303.774 103.607 302.208 103.607 300.19C103.607 298.731 103.156 297.594 102.255 296.779C101.397 295.92 100.217 295.212 98.7145 294.654C97.2553 294.096 95.6459 293.603 93.8863 293.173C92.1266 292.701 90.367 292.186 88.6074 291.628C86.8477 291.028 85.2169 290.255 83.7148 289.311C82.2555 288.367 81.0753 287.143 80.174 285.641C79.2728 284.096 78.8221 282.144 78.8221 279.783C78.8221 277.294 79.4874 275.084 80.8178 273.152C82.1483 271.221 84.0152 269.697 86.4186 268.582C88.822 267.423 91.6331 266.843 94.8519 266.843C97.942 266.843 100.732 267.423 103.221 268.582C105.753 269.74 107.77 271.393 109.272 273.539C110.817 275.642 111.611 278.217 111.654 281.264H103.543C103.5 279.633 103.071 278.26 102.255 277.144C101.483 275.985 100.431 275.105 99.1008 274.504C97.8132 273.903 96.3969 273.603 94.8519 273.603C92.6631 273.603 90.8391 274.139 89.3799 275.212C87.9636 276.242 87.2555 277.702 87.2555 279.59C87.2555 280.92 87.7061 281.972 88.6074 282.744C89.5086 283.517 90.6889 284.161 92.1481 284.676C93.6502 285.148 95.2811 285.598 97.0407 286.028C98.8003 286.457 100.539 286.972 102.255 287.573C104.015 288.131 105.624 288.925 107.083 289.955C108.586 290.942 109.787 292.251 110.689 293.882C111.59 295.512 112.04 297.594 112.04 300.126C112.04 302.787 111.311 305.105 109.852 307.079C108.435 309.053 106.483 310.598 103.993 311.714C101.504 312.787 98.6716 313.323 95.4957 313.323ZM164.983 312.551V274.375H150.949V267.616H187.064V274.375H173.03V312.551H164.983ZM226.295 312.551V267.616H240.522C243.87 267.616 246.852 268.152 249.47 269.225C252.131 270.255 254.385 271.757 256.23 273.732C258.075 275.663 259.492 278.002 260.479 280.749C261.466 283.495 261.96 286.564 261.96 289.955C261.96 293.388 261.466 296.5 260.479 299.289C259.492 302.036 258.075 304.418 256.23 306.435C254.385 308.409 252.131 309.933 249.47 311.006C246.852 312.036 243.87 312.551 240.522 312.551H226.295ZM234.342 305.791H240.522C243.269 305.791 245.608 305.147 247.539 303.86C249.47 302.529 250.951 300.684 251.981 298.324C253.054 295.92 253.591 293.131 253.591 289.955C253.591 286.779 253.054 284.032 251.981 281.714C250.951 279.354 249.47 277.551 247.539 276.307C245.608 275.019 243.269 274.375 240.522 274.375H234.342V305.791ZM389.797 312.551V286.285L390.248 277.015L382.845 283.002L374.926 289.311V279.976L391.986 267.616H397.909V312.551H389.797ZM374.926 312.551V305.791H408.016V312.551H374.926ZM462.954 297.036C460.293 297.036 457.847 296.478 455.615 295.362C453.384 294.203 451.581 292.551 450.208 290.405C448.877 288.216 448.212 285.577 448.212 282.487C448.212 279.44 448.899 276.736 450.272 274.375C451.688 272.015 453.641 270.17 456.13 268.839C458.62 267.509 461.495 266.843 464.757 266.843C468.362 266.843 471.452 267.723 474.027 269.483C476.602 271.2 478.576 273.689 479.95 276.951C481.366 280.169 482.074 283.989 482.074 288.41C482.074 293.173 481.302 297.444 479.757 301.22C478.255 304.954 476.087 307.916 473.255 310.104C470.465 312.25 467.139 313.323 463.276 313.323C460.83 313.323 458.706 312.937 456.903 312.165C455.143 311.349 453.684 310.319 452.525 309.074C451.367 307.83 450.487 306.521 449.886 305.147C449.285 303.731 448.942 302.401 448.856 301.156H457.096C457.354 302.83 458.062 304.16 459.221 305.147C460.379 306.092 461.817 306.564 463.534 306.564C465.465 306.564 467.117 305.963 468.491 304.761C469.907 303.56 471.023 301.886 471.838 299.74C472.697 297.594 473.233 295.083 473.448 292.208C472.16 293.796 470.658 294.997 468.941 295.813C467.225 296.628 465.229 297.036 462.954 297.036ZM464.693 273.603C463.105 273.603 461.688 273.968 460.444 274.697C459.242 275.427 458.298 276.457 457.611 277.787C456.967 279.075 456.645 280.556 456.645 282.229C456.645 283.903 456.967 285.362 457.611 286.607C458.298 287.809 459.242 288.753 460.444 289.44C461.645 290.083 463.04 290.405 464.628 290.405C466.602 290.405 468.319 289.933 469.778 288.989C471.28 288.045 472.525 286.736 473.512 285.062C473.169 281.543 472.225 278.753 470.68 276.693C469.177 274.633 467.182 273.603 464.693 273.603ZM522.979 312.551V306.886C528.772 302.637 533.429 298.946 536.948 295.813C540.51 292.637 543.086 289.826 544.673 287.38C546.304 284.933 547.12 282.68 547.12 280.62C547.12 278.517 546.433 276.843 545.06 275.599C543.729 274.311 541.927 273.667 539.652 273.667C537.163 273.667 535.103 274.44 533.472 275.985C531.884 277.53 531.069 279.697 531.026 282.487H522.914C523.086 279.182 523.901 276.371 525.361 274.054C526.82 271.693 528.794 269.912 531.283 268.71C533.772 267.466 536.626 266.843 539.845 266.843C542.978 266.843 545.704 267.401 548.021 268.517C550.382 269.633 552.206 271.221 553.493 273.281C554.824 275.298 555.489 277.659 555.489 280.362C555.489 283.195 554.802 285.942 553.429 288.603C552.055 291.221 549.867 293.924 546.862 296.714C543.901 299.504 539.974 302.529 535.081 305.791H555.553V312.551H522.979ZM616.479 312.551V302.122H594.719V296.457L613.582 267.616H624.783V295.362H632.186V302.122H624.783V312.551H616.479ZM603.088 295.362H616.479V283.453L616.607 274.054L611.715 282.165L603.088 295.362Z" fill="#FCEED9"/>
<path d="M100.267 231.417C82.1435 231.417 66.8087 229.058 54.0475 224.233C41.2862 219.407 30.9915 212.865 22.9487 204.501C14.9059 196.136 9.11515 186.378 5.46909 175.333C1.82303 164.18 0 152.277 0 139.408C0 122.679 2.78816 106.057 8.25725 89.4357C13.7263 72.8139 21.9836 57.908 33.029 44.6106C44.0744 31.3132 57.8007 20.5895 74.4225 12.3323C91.0442 4.07501 110.561 0 132.974 0C144.448 0 155.494 0.965133 166.11 2.78816C176.727 4.61119 187.021 7.18488 196.887 10.2948C196.244 16.9434 195.815 23.4849 195.815 29.9191C195.815 34.5303 196.029 39.0343 196.351 43.6455C196.673 48.2566 197.102 52.7606 197.531 57.3718C195.922 58.5514 193.885 59.0876 191.311 59.0876C186.914 59.0876 184.662 57.3718 184.448 53.9402C182.41 38.8198 176.727 28.3106 167.611 22.3053C158.496 16.3 146.164 13.4046 130.829 13.4046C115.494 13.4046 102.197 16.6217 90.2936 23.1632C78.3903 29.7047 68.2027 38.6053 59.8382 49.758C51.4738 61.0179 45.1468 74.1008 40.7501 89.1139C36.3533 104.127 34.2086 119.998 34.2086 136.727C34.2086 149.059 35.8172 160.212 39.1415 170.185C42.4659 180.158 47.077 188.63 53.0823 195.6C59.0876 202.571 66.2725 208.04 74.8514 211.9C83.4304 215.761 93.0817 217.691 103.913 217.691C119.462 217.691 131.794 214.474 140.802 208.04C149.81 201.606 157.638 191.311 164.287 177.156C165.896 173.509 168.684 171.686 172.544 171.686C173.938 171.686 175.333 172.008 176.834 172.544C178.335 173.081 179.3 173.617 179.729 174.046C176.298 181.338 173.295 189.059 170.614 197.209C167.933 205.359 165.252 214.474 162.571 224.554C157.531 225.519 152.169 226.377 146.379 227.128C140.695 227.879 134.904 228.629 129.221 229.38C123.537 230.023 118.068 230.56 113.028 230.881C107.988 231.203 103.591 231.417 99.9449 231.417H100.267Z" fill="#FCEED9"/>
<path d="M293.303 152.061C296.842 148.094 300.917 145.091 305.421 143.054C310.032 141.016 314.643 139.729 319.254 139.3C323.865 138.871 328.369 138.979 332.659 139.729C336.948 140.48 340.594 141.767 343.704 143.59C348.208 146.163 352.069 148.952 355.071 151.954C358.074 154.957 360.969 157.959 363.543 161.069C366.224 164.179 368.905 167.182 371.8 170.077C374.696 172.973 378.235 175.654 382.417 178.013C386.599 180.372 389.816 181.015 392.068 179.729C394.213 178.549 396.036 176.726 397.323 174.474C398.288 172.651 398.931 170.935 399.253 169.327C399.575 167.718 400.004 166.217 400.754 164.93C401.719 163.321 403.006 162.463 404.722 162.356C406.438 162.356 408.261 162.785 410.084 163.75C414.266 166.109 417.054 170.613 418.341 177.048C410.084 185.198 401.827 190.023 393.784 191.31C385.634 192.597 377.698 191.096 369.87 186.699C364.615 183.804 360.433 180.801 357.109 177.906C357.109 181.123 356.573 184.447 355.608 188.2C354.75 191.846 353.141 195.707 350.996 199.567C348.315 204.286 344.24 208.897 338.771 213.508C333.302 218.119 326.332 221.444 318.075 223.481C309.71 225.519 299.844 225.733 288.37 223.91C276.896 222.194 263.92 217.154 249.228 208.897C242.365 205.037 235.717 200.318 229.282 194.635C222.848 188.951 217.594 182.624 213.519 175.439C209.444 168.361 207.192 160.64 206.655 152.276C206.119 143.911 208.371 135.225 213.519 126.11C219.738 115.065 228.746 107.665 240.649 103.912C252.446 100.159 266.172 101.231 281.829 107.022L282.15 106.486C275.609 98.7646 271.641 90.9363 270.354 83.108C269.067 75.2797 270.354 67.9876 274.215 61.2317C278.075 54.4758 283.115 49.2211 289.013 46.1113C294.911 43.0014 301.238 41.3928 308.102 41.0711C314.857 40.8567 321.721 41.7146 328.477 43.7521C335.233 45.7896 341.56 48.3632 347.243 51.5804C357.323 57.2639 365.473 63.8054 371.8 70.9903C378.127 78.2824 382.524 85.0383 385.312 91.2581C386.17 93.51 385.312 95.5475 382.524 97.585C379.843 99.6225 375.875 100.588 370.621 100.695C365.473 100.695 362.149 97.7995 360.969 91.687C359.361 84.6094 357.002 78.2824 353.677 72.8133C350.353 67.3442 345.635 62.8402 339.415 59.3014C336.627 57.6929 333.517 56.5133 330.192 55.5481C326.761 54.583 323.115 54.4758 319.147 55.1192C315.179 55.7626 311.319 57.5856 307.458 60.3738C303.598 63.2692 299.952 67.6659 296.627 73.6712C295.233 76.1376 294.054 79.033 292.981 82.3574C291.909 85.6817 291.694 89.435 292.123 93.51C292.659 97.585 294.161 101.875 296.842 106.486C299.523 111.097 303.919 115.923 310.139 120.855L303.812 127.504C301.882 126.003 300.38 124.93 299.201 124.287L295.984 122.464C289.013 118.496 282.579 116.137 276.681 115.279C270.783 114.421 265.636 114.743 261.025 116.03C256.413 117.424 252.338 119.676 248.907 123C245.475 126.325 242.58 129.971 240.221 134.046C236.146 141.231 233.894 148.094 233.25 154.85C232.714 161.606 233.465 167.933 235.717 173.938C237.969 179.943 241.4 185.412 246.333 190.56C251.159 195.6 257.057 200.104 263.813 203.964C271.641 208.361 279.469 211.471 287.19 213.187C295.019 214.902 302.311 215.331 309.174 214.366C316.037 213.401 322.257 211.149 327.726 207.61C333.302 204.071 337.806 199.246 341.238 193.026C342.954 189.916 344.455 186.592 345.527 183.053C346.707 179.514 346.921 175.975 346.492 172.329C345.956 168.683 344.455 165.144 341.881 161.498C339.308 157.852 335.125 154.528 329.442 151.311C325.903 149.273 322.793 148.63 320.219 149.166C317.646 149.702 315.286 151.954 313.142 155.6C312.284 157.102 311.855 158.281 311.64 159.461C311.426 160.533 311.104 161.498 310.675 162.249C309.603 164.179 308.102 165.144 306.279 165.252C304.455 165.252 302.418 164.715 300.381 163.536C298.45 162.463 296.734 160.855 295.34 158.817C293.946 156.78 293.196 154.421 293.196 151.847L293.303 152.061Z" fill="#FCEED9"/>
<path d="M538.97 231.417C520.847 231.417 505.512 229.058 492.751 224.233C479.989 219.407 469.695 212.865 461.652 204.501C453.609 196.136 447.818 186.378 444.172 175.333C440.526 164.18 438.703 152.277 438.703 139.408C438.703 122.679 441.491 106.057 446.96 89.4357C452.429 72.8139 460.687 57.908 471.732 44.6106C482.778 31.3132 496.504 20.5895 513.126 12.3323C529.747 4.07501 549.264 0 571.677 0C583.151 0 594.197 0.965133 604.813 2.78816C615.43 4.61119 625.724 7.18488 635.59 10.2948C634.947 16.9434 634.518 23.4849 634.518 29.9191C634.518 34.5303 634.732 39.0343 635.054 43.6455C635.376 48.2566 635.805 52.7606 636.234 57.3718C634.625 58.5514 632.588 59.0876 630.014 59.0876C625.617 59.0876 623.365 57.3718 623.151 53.9402C621.113 38.8198 615.43 28.3106 606.315 22.3053C597.199 16.3 584.867 13.4046 569.532 13.4046C554.197 13.4046 540.9 16.6217 528.997 23.1632C517.093 29.7047 506.906 38.6053 498.541 49.758C490.177 61.0179 483.85 74.1008 479.453 89.1139C475.056 104.127 472.912 119.998 472.912 136.727C472.912 149.059 474.52 160.212 477.845 170.185C481.169 180.158 485.78 188.63 491.785 195.6C497.791 202.571 504.976 208.04 513.555 211.9C522.134 215.761 531.785 217.691 542.616 217.691C558.165 217.691 570.497 214.474 579.505 208.04C588.513 201.606 596.342 191.311 602.99 177.156C604.599 173.509 607.387 171.686 611.247 171.686C612.642 171.686 614.036 172.008 615.537 172.544C617.038 173.081 618.003 173.617 618.432 174.046C615.001 181.338 611.998 189.059 609.317 197.209C606.636 205.359 603.955 214.474 601.274 224.554C596.234 225.519 590.872 226.377 585.082 227.128C579.398 227.879 573.607 228.629 567.924 229.38C562.24 230.023 556.771 230.56 551.731 230.881C546.691 231.203 542.294 231.417 538.648 231.417H538.97Z" fill="#FCEED9"/>
</svg>
