<svg width="1728" height="279" viewBox="0 0 1728 279" fill="none" xmlns="http://www.w3.org/2000/svg">
<path d="M200.279 269.006C196.605 269.006 193.411 268.087 190.695 266.251C188.02 264.374 185.944 261.818 184.466 258.584C183.029 255.31 182.31 251.556 182.31 247.324C182.31 242.931 183.069 239.118 184.586 235.883C186.103 232.649 188.22 230.153 190.935 228.396C193.69 226.64 196.885 225.761 200.518 225.761C203.433 225.761 206.069 226.34 208.424 227.498C210.82 228.616 212.757 230.253 214.234 232.41C215.752 234.526 216.63 237.061 216.87 240.016H209.922C209.602 237.341 208.604 235.205 206.927 233.607C205.25 231.97 203.094 231.152 200.458 231.152C198.182 231.152 196.166 231.811 194.409 233.128C192.692 234.406 191.354 236.263 190.396 238.699C189.438 241.134 188.958 244.029 188.958 247.383C188.958 250.738 189.438 253.633 190.396 256.068C191.394 258.504 192.752 260.381 194.469 261.699C196.186 262.976 198.122 263.615 200.279 263.615C202.155 263.615 203.793 263.236 205.19 262.477C206.588 261.679 207.706 260.581 208.544 259.183C209.423 257.785 209.942 256.148 210.102 254.271H217.109C216.83 257.226 215.971 259.822 214.534 262.058C213.096 264.254 211.16 265.971 208.724 267.209C206.328 268.407 203.513 269.006 200.279 269.006ZM238.575 269.006C235.022 269.006 231.927 268.127 229.292 266.37C226.656 264.574 224.6 262.058 223.122 258.824C221.685 255.589 220.966 251.776 220.966 247.383C220.966 242.951 221.685 239.118 223.122 235.883C224.6 232.649 226.656 230.153 229.292 228.396C231.927 226.64 235.022 225.761 238.575 225.761C242.129 225.761 245.224 226.64 247.859 228.396C250.495 230.153 252.531 232.649 253.969 235.883C255.446 239.118 256.185 242.951 256.185 247.383C256.185 251.776 255.446 255.589 253.969 258.824C252.531 262.058 250.495 264.574 247.859 266.37C245.224 268.127 242.129 269.006 238.575 269.006ZM238.575 263.615C240.772 263.615 242.688 262.956 244.325 261.639C245.963 260.321 247.24 258.444 248.159 256.008C249.077 253.573 249.536 250.698 249.536 247.383C249.536 244.029 249.077 241.154 248.159 238.758C247.24 236.323 245.963 234.446 244.325 233.128C242.688 231.811 240.772 231.152 238.575 231.152C236.419 231.152 234.503 231.811 232.825 233.128C231.188 234.446 229.911 236.323 228.992 238.758C228.074 241.194 227.615 244.069 227.615 247.383C227.615 250.698 228.074 253.573 228.992 256.008C229.911 258.444 231.188 260.321 232.825 261.639C234.503 262.956 236.419 263.615 238.575 263.615ZM266.211 257.745V252.355H289.391V257.745H266.211ZM272.919 226.48H282.023L294.961 268.287H288.432L279.987 240.615L277.471 231.451L274.956 240.675L266.391 268.287H259.982L272.919 226.48ZM317.026 269.006C313.792 269.006 310.976 268.387 308.581 267.149C306.185 265.911 304.328 264.134 303.01 261.818C301.693 259.502 301.034 256.687 301.034 253.373H307.323C307.323 256.647 308.181 259.183 309.898 260.98C311.615 262.737 313.971 263.615 316.966 263.615C319.522 263.615 321.578 263.036 323.135 261.878C324.693 260.68 325.471 259.023 325.471 256.907C325.471 255.469 325.032 254.311 324.154 253.433C323.315 252.554 322.177 251.836 320.739 251.277C319.342 250.718 317.805 250.219 316.127 249.779C314.45 249.34 312.753 248.861 311.036 248.342C309.359 247.783 307.802 247.084 306.364 246.245C304.967 245.407 303.829 244.289 302.95 242.891C302.112 241.494 301.693 239.717 301.693 237.561C301.693 235.285 302.292 233.268 303.489 231.511C304.727 229.714 306.424 228.317 308.581 227.318C310.777 226.28 313.352 225.761 316.307 225.761C319.182 225.761 321.758 226.3 324.034 227.378C326.31 228.416 328.127 229.914 329.484 231.87C330.882 233.787 331.601 236.103 331.641 238.818H325.292C325.252 237.221 324.812 235.863 323.974 234.745C323.175 233.587 322.097 232.709 320.739 232.11C319.422 231.471 317.944 231.152 316.307 231.152C313.951 231.152 312.035 231.711 310.557 232.829C309.08 233.947 308.341 235.464 308.341 237.381C308.341 238.738 308.76 239.817 309.599 240.615C310.477 241.414 311.615 242.073 313.013 242.592C314.45 243.071 316.008 243.53 317.685 243.969C319.402 244.369 321.099 244.848 322.776 245.407C324.453 245.926 325.99 246.645 327.388 247.563C328.825 248.442 329.963 249.64 330.802 251.157C331.68 252.634 332.12 254.531 332.12 256.847C332.12 259.323 331.461 261.479 330.143 263.316C328.825 265.113 327.029 266.51 324.752 267.508C322.476 268.507 319.901 269.006 317.026 269.006ZM352.208 268.287V231.87H338.732V226.48H372.034V231.87H358.557V268.287H352.208ZM383.078 257.745V252.355H406.258V257.745H383.078ZM389.786 226.48H398.89L411.828 268.287H405.299L396.854 240.615L394.338 231.451L391.823 240.675L383.258 268.287H376.849L389.786 226.48ZM420.416 268.287V226.48H426.765V262.896H448.687V268.287H420.416ZM511.924 269.006C508.251 269.006 505.056 268.087 502.341 266.251C499.665 264.374 497.589 261.818 496.112 258.584C494.674 255.31 493.955 251.556 493.955 247.324C493.955 242.931 494.714 239.118 496.231 235.883C497.749 232.649 499.865 230.153 502.58 228.396C505.336 226.64 508.53 225.761 512.164 225.761C515.079 225.761 517.714 226.34 520.07 227.498C522.466 228.616 524.402 230.253 525.88 232.41C527.397 234.526 528.276 237.061 528.515 240.016H521.567C521.248 237.341 520.25 235.205 518.573 233.607C516.896 231.97 514.739 231.152 512.104 231.152C509.828 231.152 507.811 231.811 506.054 233.128C504.337 234.406 503 236.263 502.041 238.699C501.083 241.134 500.604 244.029 500.604 247.383C500.604 250.738 501.083 253.633 502.041 256.068C503.04 258.504 504.397 260.381 506.114 261.699C507.831 262.976 509.768 263.615 511.924 263.615C513.801 263.615 515.438 263.236 516.836 262.477C518.233 261.679 519.351 260.581 520.19 259.183C521.068 257.785 521.587 256.148 521.747 254.271H528.755C528.475 257.226 527.617 259.822 526.179 262.058C524.742 264.254 522.805 265.971 520.369 267.209C517.974 268.407 515.159 269.006 511.924 269.006ZM537.283 268.287V226.48H543.632V262.896H565.554V268.287H537.283ZM577.856 257.745V252.355H601.036V257.745H577.856ZM584.565 226.48H593.669L606.606 268.287H600.078L591.632 240.615L589.117 231.451L586.601 240.675L578.036 268.287H571.627L584.565 226.48ZM628.671 269.006C625.437 269.006 622.622 268.387 620.226 267.149C617.83 265.911 615.974 264.134 614.656 261.818C613.338 259.502 612.679 256.687 612.679 253.373H618.968C618.968 256.647 619.827 259.183 621.544 260.98C623.261 262.737 625.617 263.615 628.612 263.615C631.167 263.615 633.224 263.036 634.781 261.878C636.338 260.68 637.117 259.023 637.117 256.907C637.117 255.469 636.678 254.311 635.799 253.433C634.96 252.554 633.822 251.836 632.385 251.277C630.987 250.718 629.45 250.219 627.773 249.779C626.096 249.34 624.399 248.861 622.682 248.342C621.005 247.783 619.447 247.084 618.01 246.245C616.612 245.407 615.474 244.289 614.596 242.891C613.757 241.494 613.338 239.717 613.338 237.561C613.338 235.285 613.937 233.268 615.135 231.511C616.373 229.714 618.07 228.317 620.226 227.318C622.422 226.28 624.998 225.761 627.953 225.761C630.828 225.761 633.403 226.3 635.679 227.378C637.955 228.416 639.772 229.914 641.13 231.87C642.527 233.787 643.246 236.103 643.286 238.818H636.937C636.897 237.221 636.458 235.863 635.619 234.745C634.821 233.587 633.743 232.709 632.385 232.11C631.067 231.471 629.59 231.152 627.953 231.152C625.597 231.152 623.68 231.711 622.203 232.829C620.725 233.947 619.987 235.464 619.987 237.381C619.987 238.738 620.406 239.817 621.244 240.615C622.123 241.414 623.261 242.073 624.658 242.592C626.096 243.071 627.653 243.53 629.33 243.969C631.047 244.369 632.744 244.848 634.421 245.407C636.099 245.926 637.636 246.645 639.033 247.563C640.471 248.442 641.609 249.64 642.447 251.157C643.326 252.634 643.765 254.531 643.765 256.847C643.765 259.323 643.106 261.479 641.789 263.316C640.471 265.113 638.674 266.51 636.398 267.508C634.122 268.507 631.546 269.006 628.671 269.006ZM667.627 269.006C664.393 269.006 661.578 268.387 659.182 267.149C656.786 265.911 654.929 264.134 653.611 261.818C652.294 259.502 651.635 256.687 651.635 253.373H657.924C657.924 256.647 658.782 259.183 660.5 260.98C662.217 262.737 664.572 263.615 667.567 263.615C670.123 263.615 672.179 263.036 673.736 261.878C675.294 260.68 676.072 259.023 676.072 256.907C676.072 255.469 675.633 254.311 674.755 253.433C673.916 252.554 672.778 251.836 671.341 251.277C669.943 250.718 668.406 250.219 666.729 249.779C665.052 249.34 663.355 248.861 661.638 248.342C659.96 247.783 658.403 247.084 656.966 246.245C655.568 245.407 654.43 244.289 653.552 242.891C652.713 241.494 652.294 239.717 652.294 237.561C652.294 235.285 652.893 233.268 654.091 231.511C655.329 229.714 657.026 228.317 659.182 227.318C661.378 226.28 663.954 225.761 666.908 225.761C669.783 225.761 672.359 226.3 674.635 227.378C676.911 228.416 678.728 229.914 680.085 231.87C681.483 233.787 682.202 236.103 682.242 238.818H675.893C675.853 237.221 675.414 235.863 674.575 234.745C673.776 233.587 672.698 232.709 671.341 232.11C670.023 231.471 668.546 231.152 666.908 231.152C664.552 231.152 662.636 231.711 661.158 232.829C659.681 233.947 658.942 235.464 658.942 237.381C658.942 238.738 659.361 239.817 660.2 240.615C661.079 241.414 662.217 242.073 663.614 242.592C665.052 243.071 666.609 243.53 668.286 243.969C670.003 244.369 671.7 244.848 673.377 245.407C675.054 245.926 676.592 246.645 677.989 247.563C679.427 248.442 680.565 249.64 681.403 251.157C682.282 252.634 682.721 254.531 682.721 256.847C682.721 259.323 682.062 261.479 680.744 263.316C679.427 265.113 677.63 266.51 675.354 267.508C673.078 268.507 670.502 269.006 667.627 269.006ZM702.809 268.287V226.48H709.158V268.287H702.809ZM692.328 226.48H719.58V231.87H692.328V226.48ZM692.328 262.896H719.58V268.287H692.328V262.896ZM745.658 269.006C741.985 269.006 738.79 268.087 736.075 266.251C733.4 264.374 731.323 261.818 729.846 258.584C728.408 255.31 727.69 251.556 727.69 247.324C727.69 242.931 728.448 239.118 729.966 235.883C731.483 232.649 733.599 230.153 736.315 228.396C739.07 226.64 742.264 225.761 745.898 225.761C748.813 225.761 751.448 226.34 753.804 227.498C756.2 228.616 758.137 230.253 759.614 232.41C761.131 234.526 762.01 237.061 762.249 240.016H755.302C754.982 237.341 753.984 235.205 752.307 233.607C750.63 231.97 748.473 231.152 745.838 231.152C743.562 231.152 741.545 231.811 739.788 233.128C738.071 234.406 736.734 236.263 735.775 238.699C734.817 241.134 734.338 244.029 734.338 247.383C734.338 250.738 734.817 253.633 735.775 256.068C736.774 258.504 738.131 260.381 739.848 261.699C741.565 262.976 743.502 263.615 745.658 263.615C747.535 263.615 749.172 263.236 750.57 262.477C751.967 261.679 753.085 260.581 753.924 259.183C754.802 257.785 755.321 256.148 755.481 254.271H762.489C762.21 257.226 761.351 259.822 759.913 262.058C758.476 264.254 756.539 265.971 754.104 267.209C751.708 268.407 748.893 269.006 745.658 269.006ZM784.494 269.006C781.26 269.006 778.445 268.387 776.049 267.149C773.653 265.911 771.796 264.134 770.479 261.818C769.161 259.502 768.502 256.687 768.502 253.373H774.791C774.791 256.647 775.65 259.183 777.367 260.98C779.084 262.737 781.439 263.615 784.434 263.615C786.99 263.615 789.046 263.036 790.604 261.878C792.161 260.68 792.939 259.023 792.939 256.907C792.939 255.469 792.5 254.311 791.622 253.433C790.783 252.554 789.645 251.836 788.208 251.277C786.81 250.718 785.273 250.219 783.596 249.779C781.919 249.34 780.222 248.861 778.505 248.342C776.828 247.783 775.27 247.084 773.833 246.245C772.435 245.407 771.297 244.289 770.419 242.891C769.58 241.494 769.161 239.717 769.161 237.561C769.161 235.285 769.76 233.268 770.958 231.511C772.196 229.714 773.893 228.317 776.049 227.318C778.245 226.28 780.821 225.761 783.775 225.761C786.65 225.761 789.226 226.3 791.502 227.378C793.778 228.416 795.595 229.914 796.953 231.87C798.35 233.787 799.069 236.103 799.109 238.818H792.76C792.72 237.221 792.281 235.863 791.442 234.745C790.643 233.587 789.565 232.709 788.208 232.11C786.89 231.471 785.413 231.152 783.775 231.152C781.42 231.152 779.503 231.711 778.025 232.829C776.548 233.947 775.809 235.464 775.809 237.381C775.809 238.738 776.229 239.817 777.067 240.615C777.946 241.414 779.084 242.073 780.481 242.592C781.919 243.071 783.476 243.53 785.153 243.969C786.87 244.369 788.567 244.848 790.244 245.407C791.921 245.926 793.459 246.645 794.856 247.563C796.294 248.442 797.432 249.64 798.27 251.157C799.149 252.634 799.588 254.531 799.588 256.847C799.588 259.323 798.929 261.479 797.611 263.316C796.294 265.113 794.497 266.51 792.221 267.508C789.945 268.507 787.369 269.006 784.494 269.006ZM819.077 268.287V260.92H826.505V268.287L822.372 278.889H816.981L818.958 275.355L823.27 268.227L819.077 268.287ZM901.481 269.006C897.807 269.006 894.613 268.087 891.898 266.251C889.222 264.374 887.146 261.818 885.669 258.584C884.231 255.31 883.512 251.556 883.512 247.324C883.512 242.931 884.271 239.118 885.788 235.883C887.306 232.649 889.422 230.153 892.137 228.396C894.892 226.64 898.087 225.761 901.721 225.761C904.636 225.761 907.271 226.34 909.627 227.498C912.023 228.616 913.959 230.253 915.437 232.41C916.954 234.526 917.833 237.061 918.072 240.016H911.124C910.805 237.341 909.807 235.205 908.129 233.607C906.452 231.97 904.296 231.152 901.661 231.152C899.385 231.152 897.368 231.811 895.611 233.128C893.894 234.406 892.557 236.263 891.598 238.699C890.64 241.134 890.161 244.029 890.161 247.383C890.161 250.738 890.64 253.633 891.598 256.068C892.596 258.504 893.954 260.381 895.671 261.699C897.388 262.976 899.325 263.615 901.481 263.615C903.358 263.615 904.995 263.236 906.392 262.477C907.79 261.679 908.908 260.581 909.747 259.183C910.625 257.785 911.144 256.148 911.304 254.271H918.312C918.032 257.226 917.174 259.822 915.736 262.058C914.299 264.254 912.362 265.971 909.926 267.209C907.531 268.407 904.715 269.006 901.481 269.006ZM929.895 250.798V245.407H940.497C942.254 245.407 943.791 245.127 945.109 244.568C946.466 243.969 947.524 243.131 948.283 242.053C949.082 240.975 949.481 239.737 949.481 238.339C949.481 236.982 949.142 235.824 948.463 234.865C947.784 233.907 946.866 233.168 945.708 232.649C944.55 232.13 943.252 231.87 941.814 231.87H929.895V226.48H941.814C944.57 226.48 947.025 226.959 949.182 227.917C951.338 228.836 953.035 230.173 954.273 231.93C955.511 233.687 956.129 235.824 956.129 238.339C956.129 239.936 955.75 241.474 954.991 242.951C954.273 244.429 953.215 245.766 951.817 246.964C950.459 248.122 948.802 249.061 946.846 249.779C944.889 250.458 942.673 250.798 940.197 250.798H929.895ZM925.343 268.287V226.48H931.692V268.287H925.343ZM949.361 268.287C949.122 266.41 948.603 264.554 947.804 262.717C947.045 260.88 946.007 259.123 944.689 257.446C943.372 255.769 941.734 254.212 939.778 252.774C937.861 251.337 935.625 250.039 933.07 248.881L940.137 247.324C942.773 248.641 945.029 250.119 946.905 251.756C948.822 253.353 950.399 255.05 951.637 256.847C952.915 258.644 953.873 260.501 954.512 262.417C955.191 264.334 955.63 266.291 955.83 268.287H949.361ZM967.413 257.745V252.355H990.593V257.745H967.413ZM974.122 226.48H983.226L996.163 268.287H989.635L981.189 240.615L978.674 231.451L976.158 240.675L967.593 268.287H961.184L974.122 226.48ZM1002.78 268.287V226.48H1033.08V231.87H1009.12V243.91H1025.72V249.3H1009.12V268.287H1002.78ZM1053.41 268.287V231.87H1039.93V226.48H1073.24V231.87H1059.76V268.287H1053.41ZM1081.05 268.287V226.48H1111.05V231.87H1087.39V243.91H1103.69V249.3H1087.39V262.896H1111.29V268.287H1081.05ZM1119.16 268.287V226.48H1132.04C1135.08 226.48 1137.81 226.979 1140.25 227.977C1142.68 228.936 1144.76 230.333 1146.48 232.17C1148.19 233.967 1149.51 236.143 1150.43 238.699C1151.35 241.254 1151.81 244.109 1151.81 247.264C1151.81 250.458 1151.35 253.353 1150.43 255.949C1149.51 258.504 1148.19 260.72 1146.48 262.597C1144.76 264.434 1142.68 265.851 1140.25 266.85C1137.81 267.808 1135.08 268.287 1132.04 268.287H1119.16ZM1125.51 262.896H1132.04C1134.76 262.896 1137.09 262.258 1139.05 260.98C1141.01 259.662 1142.5 257.825 1143.54 255.469C1144.62 253.113 1145.16 250.378 1145.16 247.264C1145.16 244.109 1144.62 241.394 1143.54 239.118C1142.5 236.802 1141.01 235.025 1139.05 233.787C1137.09 232.509 1134.76 231.87 1132.04 231.87H1125.51V262.896ZM1213.13 269.006C1209.45 269.006 1206.26 268.087 1203.54 266.251C1200.87 264.374 1198.79 261.818 1197.31 258.584C1195.88 255.31 1195.16 251.556 1195.16 247.324C1195.16 242.931 1195.92 239.118 1197.43 235.883C1198.95 232.649 1201.07 230.153 1203.78 228.396C1206.54 226.64 1209.73 225.761 1213.37 225.761C1216.28 225.761 1218.92 226.34 1221.27 227.498C1223.67 228.616 1225.6 230.253 1227.08 232.41C1228.6 234.526 1229.48 237.061 1229.72 240.016H1222.77C1222.45 237.341 1221.45 235.205 1219.77 233.607C1218.1 231.97 1215.94 231.152 1213.31 231.152C1211.03 231.152 1209.01 231.811 1207.26 233.128C1205.54 234.406 1204.2 236.263 1203.24 238.699C1202.29 241.134 1201.81 244.029 1201.81 247.383C1201.81 250.738 1202.29 253.633 1203.24 256.068C1204.24 258.504 1205.6 260.381 1207.32 261.699C1209.03 262.976 1210.97 263.615 1213.13 263.615C1215 263.615 1216.64 263.236 1218.04 262.477C1219.44 261.679 1220.55 260.581 1221.39 259.183C1222.27 257.785 1222.79 256.148 1222.95 254.271H1229.96C1229.68 257.226 1228.82 259.822 1227.38 262.058C1225.94 264.254 1224.01 265.971 1221.57 267.209C1219.18 268.407 1216.36 269.006 1213.13 269.006ZM1251.42 269.006C1247.87 269.006 1244.77 268.127 1242.14 266.37C1239.5 264.574 1237.45 262.058 1235.97 258.824C1234.53 255.589 1233.81 251.776 1233.81 247.383C1233.81 242.951 1234.53 239.118 1235.97 235.883C1237.45 232.649 1239.5 230.153 1242.14 228.396C1244.77 226.64 1247.87 225.761 1251.42 225.761C1254.98 225.761 1258.07 226.64 1260.71 228.396C1263.34 230.153 1265.38 232.649 1266.82 235.883C1268.29 239.118 1269.03 242.951 1269.03 247.383C1269.03 251.776 1268.29 255.589 1266.82 258.824C1265.38 262.058 1263.34 264.574 1260.71 266.37C1258.07 268.127 1254.98 269.006 1251.42 269.006ZM1251.42 263.615C1253.62 263.615 1255.54 262.956 1257.17 261.639C1258.81 260.321 1260.09 258.444 1261.01 256.008C1261.93 253.573 1262.38 250.698 1262.38 247.383C1262.38 244.029 1261.93 241.154 1261.01 238.758C1260.09 236.323 1258.81 234.446 1257.17 233.128C1255.54 231.811 1253.62 231.152 1251.42 231.152C1249.27 231.152 1247.35 231.811 1245.67 233.128C1244.04 234.446 1242.76 236.323 1241.84 238.758C1240.92 241.194 1240.46 244.069 1240.46 247.383C1240.46 250.698 1240.92 253.573 1241.84 256.008C1242.76 258.444 1244.04 260.321 1245.67 261.639C1247.35 262.956 1249.27 263.615 1251.42 263.615ZM1291.04 269.006C1287.36 269.006 1284.17 268.087 1281.45 266.251C1278.78 264.374 1276.7 261.818 1275.23 258.584C1273.79 255.31 1273.07 251.556 1273.07 247.324C1273.07 242.931 1273.83 239.118 1275.35 235.883C1276.86 232.649 1278.98 230.153 1281.69 228.396C1284.45 226.64 1287.64 225.761 1291.28 225.761C1294.19 225.761 1296.83 226.34 1299.18 227.498C1301.58 228.616 1303.52 230.253 1304.99 232.41C1306.51 234.526 1307.39 237.061 1307.63 240.016H1300.68C1300.36 237.341 1299.36 235.205 1297.69 233.607C1296.01 231.97 1293.85 231.152 1291.22 231.152C1288.94 231.152 1286.93 231.811 1285.17 233.128C1283.45 234.406 1282.11 236.263 1281.16 238.699C1280.2 241.134 1279.72 244.029 1279.72 247.383C1279.72 250.738 1280.2 253.633 1281.16 256.068C1282.15 258.504 1283.51 260.381 1285.23 261.699C1286.95 262.976 1288.88 263.615 1291.04 263.615C1292.91 263.615 1294.55 263.236 1295.95 262.477C1297.35 261.679 1298.47 260.581 1299.3 259.183C1300.18 257.785 1300.7 256.148 1300.86 254.271H1307.87C1307.59 257.226 1306.73 259.822 1305.29 262.058C1303.86 264.254 1301.92 265.971 1299.48 267.209C1297.09 268.407 1294.27 269.006 1291.04 269.006ZM1314.54 268.287V226.48H1320.89V237.261L1320.47 245.287L1326.46 238.459L1337.78 226.48H1345.69L1320.89 253.433V268.287H1314.54ZM1339.52 268.287L1324 244.868L1329.33 241.574L1347.12 268.287H1339.52ZM1365.06 268.287V231.87H1351.58V226.48H1384.88V231.87H1371.41V268.287H1365.06ZM1395.93 257.745V252.355H1419.11V257.745H1395.93ZM1402.63 226.48H1411.74L1424.68 268.287H1418.15L1409.7 240.615L1407.19 231.451L1404.67 240.675L1396.11 268.287H1389.7L1402.63 226.48ZM1442.97 268.287V226.48H1449.32V268.287H1442.97ZM1432.49 226.48H1459.74V231.87H1432.49V226.48ZM1432.49 262.896H1459.74V268.287H1432.49V262.896ZM1472.22 268.287V226.48H1478.57V262.896H1500.49V268.287H1472.22ZM1524.65 269.006C1521.42 269.006 1518.6 268.387 1516.21 267.149C1513.81 265.911 1511.95 264.134 1510.64 261.818C1509.32 259.502 1508.66 256.687 1508.66 253.373H1514.95C1514.95 256.647 1515.81 259.183 1517.52 260.98C1519.24 262.737 1521.6 263.615 1524.59 263.615C1527.15 263.615 1529.2 263.036 1530.76 261.878C1532.32 260.68 1533.1 259.023 1533.1 256.907C1533.1 255.469 1532.66 254.311 1531.78 253.433C1530.94 252.554 1529.8 251.836 1528.37 251.277C1526.97 250.718 1525.43 250.219 1523.75 249.779C1522.08 249.34 1520.38 248.861 1518.66 248.342C1516.99 247.783 1515.43 247.084 1513.99 246.245C1512.59 245.407 1511.46 244.289 1510.58 242.891C1509.74 241.494 1509.32 239.717 1509.32 237.561C1509.32 235.285 1509.92 233.268 1511.12 231.511C1512.35 229.714 1514.05 228.317 1516.21 227.318C1518.4 226.28 1520.98 225.761 1523.93 225.761C1526.81 225.761 1529.38 226.3 1531.66 227.378C1533.94 228.416 1535.75 229.914 1537.11 231.87C1538.51 233.787 1539.23 236.103 1539.27 238.818H1532.92C1532.88 237.221 1532.44 235.863 1531.6 234.745C1530.8 233.587 1529.72 232.709 1528.37 232.11C1527.05 231.471 1525.57 231.152 1523.93 231.152C1521.58 231.152 1519.66 231.711 1518.18 232.829C1516.71 233.947 1515.97 235.464 1515.97 237.381C1515.97 238.738 1516.39 239.817 1517.23 240.615C1518.1 241.414 1519.24 242.073 1520.64 242.592C1522.08 243.071 1523.63 243.53 1525.31 243.969C1527.03 244.369 1528.73 244.848 1530.4 245.407C1532.08 245.926 1533.62 246.645 1535.01 247.563C1536.45 248.442 1537.59 249.64 1538.43 251.157C1539.31 252.634 1539.75 254.531 1539.75 256.847C1539.75 259.323 1539.09 261.479 1537.77 263.316C1536.45 265.113 1534.65 266.51 1532.38 267.508C1530.1 268.507 1527.53 269.006 1524.65 269.006Z" fill="#FCEED9"/>
<path d="M77.1494 168.498C64.6856 168.498 54.0362 166.841 45.201 163.528C36.5237 160.215 29.4241 155.719 23.9021 150.039C18.3802 144.202 14.3571 137.496 11.8327 129.923C9.30842 122.193 8.04626 113.91 8.04626 105.075C8.04626 93.5574 9.9395 82.1191 13.726 70.7597C17.5124 59.2425 23.1922 48.9085 30.7651 39.7579C38.3381 30.6073 47.8042 23.1921 59.1637 17.5124C70.6809 11.8326 84.1702 8.99278 99.6316 8.99278C107.52 8.99278 115.093 9.62386 122.35 10.886C129.766 12.1482 136.865 13.8837 143.649 16.0924C143.176 20.6678 142.939 25.1642 142.939 29.5817C142.939 32.7371 143.018 35.8925 143.176 39.0479C143.492 42.2033 143.807 45.3587 144.123 48.5141C143.018 49.303 141.598 49.6974 139.863 49.6974C136.865 49.6974 135.288 48.5141 135.13 46.1476C133.71 35.7348 129.845 28.4774 123.534 24.3754C117.223 20.2733 108.782 18.2223 98.2117 18.2223C87.7989 18.2223 78.4905 20.51 70.2864 25.0853C62.0824 29.5029 55.0617 35.577 49.2242 43.3077C43.5445 51.0384 39.2058 60.1102 36.2082 70.523C33.2105 80.7781 31.7117 91.6642 31.7117 103.181C31.7117 111.701 32.8161 119.432 35.0249 126.374C37.3914 133.158 40.6257 138.995 44.7277 143.886C48.8298 148.619 53.7995 152.327 59.637 155.009C65.6322 157.691 72.3375 159.032 79.7526 159.032C90.481 159.032 98.9217 156.823 105.075 152.406C111.385 147.988 116.829 140.888 121.404 131.107C122.508 128.582 124.401 127.32 127.084 127.32C128.03 127.32 128.977 127.557 129.923 128.03C131.028 128.346 131.738 128.661 132.053 128.977C129.687 134.025 127.557 139.39 125.664 145.069C123.928 150.591 122.114 156.823 120.221 163.765C116.75 164.396 113.042 165.027 109.098 165.658C105.154 166.132 101.209 166.605 97.2651 167.078C93.3208 167.551 89.6132 167.867 86.1423 168.025C82.6714 168.34 79.6737 168.498 77.1494 168.498ZM213.529 126.374H212.582C208.638 134.104 204.615 140.652 200.513 146.016C196.411 151.38 192.309 155.719 188.207 159.032C184.263 162.345 180.319 164.712 176.374 166.132C172.588 167.709 168.959 168.498 165.488 168.498C163.122 168.498 160.834 168.104 158.625 167.315C156.574 166.684 154.681 165.5 152.945 163.765C151.368 162.029 150.106 159.663 149.159 156.665C148.212 153.668 147.739 149.881 147.739 145.306C147.739 131.895 149.869 119.984 154.129 109.571C158.546 99.1582 163.989 90.402 170.458 83.3024C176.926 76.045 183.868 70.523 191.284 66.7365C198.856 62.9501 205.877 61.0568 212.346 61.0568C217.394 61.0568 222.206 61.2935 226.782 61.7668C231.515 62.2401 236.8 63.1078 242.638 64.37L226.308 146.489C225.993 148.067 225.835 149.487 225.835 150.749C225.835 152.8 226.703 153.825 228.438 153.825C229.543 153.825 230.647 153.589 231.752 153.116C233.014 152.484 234.197 151.853 235.301 151.222C236.563 150.433 237.668 149.802 238.614 149.329C239.719 148.698 240.587 148.382 241.218 148.382C242.795 148.382 243.9 149.96 244.531 153.116C241.691 155.167 238.693 157.139 235.538 159.032C232.54 160.767 229.622 162.345 226.782 163.765C223.942 165.185 221.26 166.289 218.735 167.078C216.211 168.025 214.16 168.498 212.582 168.498C210.847 168.498 209.269 168.104 207.849 167.315C206.429 166.684 205.719 165.185 205.719 162.818C205.719 162.029 205.798 161.162 205.956 160.215C206.114 159.111 206.351 158.006 206.666 156.902L213.529 126.374ZM222.049 72.6529C220.155 72.0218 218.026 71.5485 215.659 71.233C213.45 70.7597 211.32 70.523 209.269 70.523C202.959 70.523 197.279 72.1796 192.23 75.4928C187.182 78.8059 182.843 83.4601 179.214 89.4554C175.585 95.4506 172.746 102.55 170.695 110.754C168.801 118.958 167.855 127.872 167.855 137.496C167.855 143.176 168.565 147.278 169.985 149.802C171.405 152.169 173.377 153.352 175.901 153.352C179.056 153.352 182.448 151.932 186.077 149.092C189.706 146.253 193.177 142.545 196.49 137.97C199.961 133.394 203.274 128.267 206.429 122.587C209.585 116.75 212.267 110.833 214.476 104.838C216.842 98.8427 218.657 93.0841 219.919 87.5622C221.339 81.8824 222.049 76.9127 222.049 72.6529ZM292.276 136.313C291.96 138.364 291.724 140.257 291.566 141.993C291.408 143.57 291.329 144.99 291.329 146.253C291.329 148.935 291.724 150.749 292.513 151.696C293.301 152.642 294.721 153.116 296.772 153.116C299.77 153.116 303.004 152.011 306.475 149.802C309.946 147.594 313.338 144.754 316.651 141.283C319.965 137.654 323.12 133.552 326.118 128.977C329.273 124.244 331.955 119.432 334.164 114.541C336.53 109.492 338.424 104.601 339.844 99.8682C341.263 95.1351 341.973 90.7964 341.973 86.8522C341.973 83.3813 341.421 80.0681 340.317 76.9127C339.37 73.5995 337.556 70.6019 334.874 67.9198L337.477 64.1333C341.895 63.8178 345.839 63.4234 349.31 62.9501C352.938 62.4768 356.804 61.7668 360.906 60.8202C361.537 62.5556 361.931 64.4489 362.089 66.4999C362.405 68.5509 362.562 70.4441 362.562 72.1796C362.562 76.5972 361.379 82.1191 359.013 88.7454C356.804 95.214 353.727 101.998 349.783 109.098C345.997 116.197 341.5 123.297 336.294 130.397C331.087 137.496 325.644 143.886 319.965 149.566C314.285 155.245 308.526 159.821 302.689 163.292C296.851 166.763 291.25 168.498 285.886 168.498C276.105 168.498 271.214 163.607 271.214 153.825C271.214 151.932 271.293 149.881 271.45 147.672C271.608 145.306 271.845 142.782 272.16 140.099L279.023 85.4323C279.181 84.8012 279.26 84.0123 279.26 83.0657C279.418 82.1191 279.497 81.488 279.497 81.1725C279.497 78.4904 278.55 77.1493 276.657 77.1493C275.71 77.1493 274.527 77.4649 273.107 78.096C271.845 78.5693 270.583 79.1215 269.32 79.7525C268.058 80.2259 266.875 80.7781 265.771 81.4091C264.666 81.8824 263.798 82.1191 263.167 82.1191C261.59 82.1191 260.485 80.6203 259.854 77.6227C263.01 75.2561 266.244 73.1262 269.557 71.233C273.028 69.182 276.262 67.4465 279.26 66.0266C282.415 64.4489 285.255 63.2656 287.78 62.4768C290.304 61.5301 292.276 61.0568 293.696 61.0568C295.274 61.0568 296.694 61.4512 297.956 62.2401C299.376 62.8712 300.086 64.37 300.086 66.7365C300.086 67.5254 300.086 68.472 300.086 69.5764C300.086 70.523 300.007 71.4696 299.849 72.4162L292.276 136.313ZM407.93 35.7348C404.932 35.7348 402.566 34.867 400.83 33.1316C399.095 31.2383 398.227 28.7929 398.227 25.7953C398.227 21.5355 399.647 17.749 402.487 14.4358C405.484 10.9649 409.034 9.22945 413.136 9.22945C416.292 9.22945 418.5 10.255 419.763 12.306C421.182 14.357 421.892 16.9602 421.892 20.1156C421.892 24.0598 420.551 27.6885 417.869 31.0017C415.187 34.1571 411.874 35.7348 407.93 35.7348ZM395.86 146.253C395.703 146.884 395.545 147.751 395.387 148.856C395.229 149.802 395.15 150.512 395.15 150.986C395.15 152.879 396.097 153.825 397.99 153.825C399.095 153.825 400.199 153.589 401.303 153.116C402.566 152.484 403.749 151.853 404.853 151.222C406.115 150.433 407.22 149.802 408.166 149.329C409.113 148.698 409.902 148.382 410.533 148.382C412.111 148.382 413.215 149.96 413.846 153.116C411.164 155.167 408.245 157.139 405.09 159.032C402.092 160.767 399.174 162.345 396.334 163.765C393.494 165.185 390.812 166.289 388.287 167.078C385.763 168.025 383.712 168.498 382.134 168.498C380.399 168.498 378.742 168.104 377.165 167.315C375.587 166.684 374.798 165.027 374.798 162.345C374.798 161.872 374.877 161.083 375.035 159.978C375.193 158.716 375.35 157.849 375.508 157.375C378.979 140.494 381.74 127.083 383.791 117.144C385.842 107.047 387.341 99.3949 388.287 94.1885C389.392 88.8243 390.102 85.2745 390.417 83.539C390.733 81.8036 390.891 80.7781 390.891 80.4625C390.891 78.5693 390.181 77.6227 388.761 77.6227C388.13 77.6227 387.183 77.9382 385.921 78.5693C384.659 79.0426 383.318 79.5948 381.898 80.2259C380.478 80.6992 379.137 81.2514 377.875 81.8824C376.77 82.3557 375.903 82.5924 375.271 82.5924C374.325 82.5924 373.615 82.1191 373.142 81.1725C372.668 80.2259 372.274 79.1215 371.958 77.8593C374.798 76.2816 378.111 74.5461 381.898 72.6529C385.684 70.6019 389.313 68.7087 392.784 66.9732C396.413 65.2377 399.568 63.8178 402.25 62.7134C405.09 61.609 406.983 61.0568 407.93 61.0568C410.612 61.0568 411.953 62.3979 411.953 65.08C411.953 66.1843 411.795 67.3676 411.48 68.6298L395.86 146.253ZM494.325 126.374H493.379C489.435 134.104 485.411 140.652 481.309 146.016C477.207 151.38 473.105 155.719 469.003 159.032C465.059 162.345 461.115 164.712 457.171 166.132C453.384 167.709 449.755 168.498 446.284 168.498C443.918 168.498 441.63 168.104 439.422 167.315C437.371 166.684 435.477 165.5 433.742 163.765C432.164 162.029 430.902 159.663 429.955 156.665C429.009 153.668 428.535 149.881 428.535 145.306C428.535 131.895 430.665 119.984 434.925 109.571C439.343 99.1582 444.786 90.402 451.254 83.3024C457.723 76.045 464.665 70.523 472.08 66.7365C479.653 62.9501 486.674 61.0568 493.142 61.0568C498.191 61.0568 503.003 61.2935 507.578 61.7668C512.311 62.2401 517.596 63.1078 523.434 64.37L507.105 146.489C506.789 148.067 506.631 149.487 506.631 150.749C506.631 152.8 507.499 153.825 509.235 153.825C510.339 153.825 511.443 153.589 512.548 153.116C513.81 152.484 514.993 151.853 516.098 151.222C517.36 150.433 518.464 149.802 519.411 149.329C520.515 148.698 521.383 148.382 522.014 148.382C523.592 148.382 524.696 149.96 525.327 153.116C522.487 155.167 519.49 157.139 516.334 159.032C513.337 160.767 510.418 162.345 507.578 163.765C504.738 165.185 502.056 166.289 499.532 167.078C497.007 168.025 494.956 168.498 493.379 168.498C491.643 168.498 490.066 168.104 488.646 167.315C487.226 166.684 486.516 165.185 486.516 162.818C486.516 162.029 486.595 161.162 486.752 160.215C486.91 159.111 487.147 158.006 487.462 156.902L494.325 126.374ZM502.845 72.6529C500.952 72.0218 498.822 71.5485 496.455 71.233C494.247 70.7597 492.117 70.523 490.066 70.523C483.755 70.523 478.075 72.1796 473.026 75.4928C467.978 78.8059 463.639 83.4601 460.01 89.4554C456.382 95.4506 453.542 102.55 451.491 110.754C449.598 118.958 448.651 127.872 448.651 137.496C448.651 143.176 449.361 147.278 450.781 149.802C452.201 152.169 454.173 153.352 456.697 153.352C459.853 153.352 463.245 151.932 466.873 149.092C470.502 146.253 473.973 142.545 477.286 137.97C480.757 133.394 484.07 128.267 487.226 122.587C490.381 116.75 493.063 110.833 495.272 104.838C497.639 98.8427 499.453 93.0841 500.715 87.5622C502.135 81.8824 502.845 76.9127 502.845 72.6529ZM607.387 83.539C604.863 83.539 601.944 84.6434 598.631 86.8522C595.476 89.061 592.241 92.0586 588.928 95.8451C585.773 99.6315 582.617 104.049 579.462 109.098C576.464 113.989 573.782 119.274 571.416 124.954C569.049 130.476 567.156 136.155 565.736 141.993C564.316 147.83 563.606 153.431 563.606 158.795C563.606 161.004 563.843 163.134 564.316 165.185C561.161 165.5 557.926 165.974 554.613 166.605C551.458 167.236 548.302 167.946 545.147 168.735C543.727 167.946 543.017 166.999 543.017 165.895C543.017 164.948 543.175 163.844 543.49 162.582C543.806 161.32 544.121 160.294 544.437 159.505C544.753 158.716 545.068 157.77 545.384 156.665C545.699 155.561 546.015 153.983 546.33 151.932L556.743 98.2116C557.847 92.0586 558.557 87.8777 558.873 85.6689C559.189 83.4601 559.425 81.8824 559.583 80.9358C559.583 78.8848 558.873 77.8593 557.453 77.8593C556.822 77.8593 555.875 78.096 554.613 78.5693C553.509 79.0426 552.247 79.5948 550.827 80.2259C549.565 80.8569 548.302 81.4091 547.04 81.8824C545.936 82.3557 545.068 82.5924 544.437 82.5924C543.648 82.5924 542.938 82.1191 542.307 81.1725C541.834 80.2259 541.439 79.1215 541.124 77.8593C543.964 76.1238 547.277 74.3095 551.063 72.4162C555.008 70.3652 558.715 68.5509 562.186 66.9732C565.815 65.2377 568.97 63.8178 571.652 62.7134C574.492 61.609 576.307 61.0568 577.095 61.0568C578.2 61.0568 579.146 61.3724 579.935 62.0034C580.724 62.4767 581.119 63.3445 581.119 64.6066C581.119 64.9222 581.04 65.4744 580.882 66.2632C580.882 67.0521 580.803 67.8409 580.645 68.6298L573.072 104.128H574.019C582.538 88.9821 590.269 78.0171 597.211 71.233C604.311 64.4489 611.253 61.0568 618.037 61.0568C619.457 61.0568 620.719 61.2935 621.823 61.7668C623.085 62.2401 623.953 62.7134 624.426 63.1867C623.006 66.8154 621.744 70.6019 620.64 74.5461C619.535 78.4904 618.668 82.9079 618.037 87.7988H614.25C612.672 84.959 610.385 83.539 607.387 83.539ZM750.401 108.388C751.347 103.97 753.083 100.105 755.607 96.7917C758.131 93.3207 760.971 90.4809 764.127 88.2721C767.44 85.9056 770.832 84.1701 774.303 83.0657C777.774 81.8036 781.008 81.1725 784.006 81.1725C788.423 81.1725 792.367 81.6458 795.838 82.5924C799.309 83.539 802.622 84.6434 805.778 85.9056C809.091 87.01 812.404 88.0355 815.717 88.9821C819.03 89.9287 822.738 90.402 826.84 90.402C830.942 90.402 833.545 89.5343 834.65 87.7988C835.754 85.9056 836.306 83.8546 836.306 81.6458C836.306 79.9103 836.07 78.4115 835.596 77.1493C835.123 75.7294 834.886 74.3884 834.886 73.1262C834.886 71.5485 835.517 70.3652 836.78 69.5764C838.042 68.7875 839.541 68.3931 841.276 68.3931C845.378 68.3931 849.243 70.523 852.872 74.7828C850.19 84.249 846.088 91.1909 840.566 95.6084C835.202 99.8682 828.733 101.998 821.16 101.998C816.112 101.998 811.773 101.604 808.144 100.815C809.407 103.181 810.432 105.942 811.221 109.098C812.167 112.095 812.641 115.487 812.641 119.274C812.641 123.849 811.536 128.977 809.328 134.656C807.277 140.336 803.569 145.7 798.205 150.749C792.998 155.64 785.82 159.821 776.669 163.292C767.519 166.763 755.844 168.498 741.644 168.498C735.018 168.498 728.155 167.709 721.055 166.132C713.956 164.712 707.408 162.266 701.413 158.795C695.576 155.167 690.685 150.433 686.74 144.596C682.954 138.601 681.061 131.186 681.061 122.35C681.061 111.622 684.611 102.471 691.71 94.8984C698.968 87.1677 709.538 82.198 723.422 79.9892V79.5159C715.376 76.5183 709.223 72.4163 704.963 67.2098C700.861 62.0034 698.81 56.0871 698.81 49.4607C698.81 42.6766 700.309 36.918 703.306 32.185C706.462 27.4519 710.485 23.5865 715.376 20.5889C720.267 17.5912 725.631 15.4613 731.468 14.1992C737.306 12.7793 742.985 12.0693 748.507 12.0693C758.289 12.0693 766.966 13.4892 774.539 16.3291C782.27 19.0112 788.423 22.0877 792.998 25.5586C794.576 26.8208 794.734 28.7929 793.472 31.475C792.367 33.9993 789.922 36.3659 786.135 38.5746C782.349 40.7834 778.72 39.9157 775.249 35.9714C771.147 31.3961 766.73 27.7674 761.997 25.0853C757.264 22.4032 751.899 21.0622 745.904 21.0622C743.222 21.0622 740.382 21.4566 737.385 22.2455C734.545 22.8765 731.784 24.2965 729.102 26.5052C726.577 28.5562 724.447 31.475 722.712 35.2615C721.134 38.8902 720.345 43.6233 720.345 49.4607C720.345 51.8273 720.661 54.5094 721.292 57.507C721.923 60.3469 723.264 63.1867 725.315 66.0266C727.366 68.7087 730.285 71.233 734.071 73.5995C738.016 75.8083 743.301 77.4649 749.927 78.5693L748.034 86.1422C745.983 85.8267 744.405 85.6689 743.301 85.6689C742.197 85.6689 741.171 85.6689 740.224 85.6689C733.44 85.6689 727.682 86.6155 722.949 88.5088C718.373 90.2442 714.666 92.6108 711.826 95.6084C708.986 98.4483 706.935 101.84 705.673 105.785C704.568 109.571 704.016 113.436 704.016 117.381C704.016 124.323 705.2 130.397 707.566 135.603C709.933 140.809 713.167 145.148 717.269 148.619C721.371 152.09 726.262 154.693 731.942 156.429C737.621 158.164 743.774 159.032 750.401 159.032C757.974 159.032 764.994 158.085 771.463 156.192C777.931 154.141 783.453 151.38 788.029 147.909C792.762 144.28 796.39 140.021 798.915 135.13C801.597 130.239 802.938 124.796 802.938 118.801C802.938 115.803 802.622 112.805 801.991 109.808C801.36 106.652 800.098 103.891 798.205 101.525C796.312 99.0005 793.63 96.9495 790.159 95.3718C786.845 93.7941 782.428 93.0052 776.906 93.0052C773.435 93.0052 770.832 93.7941 769.096 95.3718C767.519 96.7917 766.73 99.316 766.73 102.945C766.73 104.365 766.888 105.548 767.203 106.495C767.519 107.283 767.676 108.072 767.676 108.861C767.676 110.754 766.966 112.095 765.547 112.884C764.284 113.673 762.628 114.067 760.577 114.067C758.684 114.067 756.79 113.594 754.897 112.648C753.004 111.701 751.505 110.281 750.401 108.388ZM979.164 168.498C966.701 168.498 956.051 166.841 947.216 163.528C938.539 160.215 931.439 155.719 925.917 150.039C920.395 144.202 916.372 137.496 913.848 129.923C911.323 122.193 910.061 113.91 910.061 105.075C910.061 93.5574 911.954 82.1191 915.741 70.7597C919.527 59.2425 925.207 48.9085 932.78 39.7579C940.353 30.6073 949.819 23.1921 961.179 17.5124C972.696 11.8326 986.185 8.99278 1001.65 8.99278C1009.54 8.99278 1017.11 9.62386 1024.37 10.886C1031.78 12.1482 1038.88 13.8837 1045.66 16.0924C1045.19 20.6678 1044.95 25.1642 1044.95 29.5817C1044.95 32.7371 1045.03 35.8925 1045.19 39.0479C1045.51 42.2033 1045.82 45.3587 1046.14 48.5141C1045.03 49.303 1043.61 49.6974 1041.88 49.6974C1038.88 49.6974 1037.3 48.5141 1037.14 46.1476C1035.72 35.7348 1031.86 28.4774 1025.55 24.3754C1019.24 20.2733 1010.8 18.2223 1000.23 18.2223C989.814 18.2223 980.505 20.51 972.301 25.0853C964.097 29.5029 957.077 35.577 951.239 43.3077C945.559 51.0384 941.221 60.1102 938.223 70.523C935.225 80.7781 933.727 91.6642 933.727 103.181C933.727 111.701 934.831 119.432 937.04 126.374C939.406 133.158 942.641 138.995 946.743 143.886C950.845 148.619 955.814 152.327 961.652 155.009C967.647 157.691 974.352 159.032 981.768 159.032C992.496 159.032 1000.94 156.823 1007.09 152.406C1013.4 147.988 1018.84 140.888 1023.42 131.107C1024.52 128.582 1026.42 127.32 1029.1 127.32C1030.05 127.32 1030.99 127.557 1031.94 128.03C1033.04 128.346 1033.75 128.661 1034.07 128.977C1031.7 134.025 1029.57 139.39 1027.68 145.069C1025.94 150.591 1024.13 156.823 1022.24 163.765C1018.76 164.396 1015.06 165.027 1011.11 165.658C1007.17 166.132 1003.22 166.605 999.28 167.078C995.336 167.551 991.628 167.867 988.157 168.025C984.686 168.34 981.689 168.498 979.164 168.498ZM1105.13 61.0568C1110.97 61.0568 1116.02 62.0823 1120.28 64.1333C1124.69 66.0266 1128.24 68.7875 1130.93 72.4162C1133.61 75.8872 1135.58 80.0681 1136.84 84.9589C1138.26 89.8498 1138.97 95.1351 1138.97 100.815C1138.97 112.174 1137.16 122.114 1133.53 130.633C1129.9 139.153 1125.25 146.253 1119.57 151.932C1114.05 157.454 1107.81 161.635 1100.87 164.475C1093.93 167.157 1087.15 168.498 1080.52 168.498C1075 168.498 1070.26 167.63 1066.32 165.895C1062.53 164.159 1059.46 161.635 1057.09 158.322C1054.72 155.009 1052.99 150.986 1051.88 146.253C1050.94 141.362 1050.46 135.919 1050.46 129.923C1050.46 119.511 1052.2 110.044 1055.67 101.525C1059.3 93.0052 1063.8 85.7478 1069.16 79.7525C1074.68 73.7573 1080.6 69.182 1086.91 66.0266C1093.38 62.7134 1099.45 61.0568 1105.13 61.0568ZM1086.44 159.269C1091.17 159.269 1095.51 157.849 1099.45 155.009C1103.55 152.169 1107.02 148.225 1109.86 143.176C1112.86 138.127 1115.15 132.211 1116.73 125.427C1118.3 118.485 1119.09 110.912 1119.09 102.708C1119.09 92.7686 1117.91 84.8801 1115.54 79.0426C1113.18 73.2051 1109 70.2864 1103 70.2864C1097.79 70.2864 1093.14 72.0218 1089.04 75.4928C1084.94 78.9637 1081.47 83.4601 1078.63 88.9821C1075.94 94.504 1073.89 100.657 1072.47 107.441C1071.05 114.225 1070.34 120.93 1070.34 127.557C1070.34 137.97 1071.53 145.858 1073.89 151.222C1076.42 156.586 1080.6 159.269 1086.44 159.269ZM1206.35 70.0497C1200.83 70.0497 1195.94 71.6274 1191.68 74.7828C1187.58 77.9382 1184.11 82.198 1181.27 87.5622C1178.58 92.7686 1176.53 98.9216 1175.11 106.021C1173.69 113.121 1172.98 120.615 1172.98 128.503C1172.98 132.29 1173.3 135.919 1173.93 139.39C1174.72 142.703 1175.9 145.621 1177.48 148.146C1179.21 150.67 1181.5 152.721 1184.34 154.299C1187.34 155.719 1190.97 156.429 1195.23 156.429C1199.8 156.429 1204.22 155.561 1208.48 153.825C1212.74 151.932 1216.92 149.645 1221.02 146.962C1221.34 146.647 1221.73 146.41 1222.21 146.253C1222.68 145.937 1223.07 145.779 1223.39 145.779C1224.65 145.779 1225.44 146.41 1225.76 147.672C1226.23 148.777 1226.55 149.723 1226.7 150.512C1224.34 152.563 1221.65 154.693 1218.66 156.902C1215.66 158.953 1212.35 160.846 1208.72 162.582C1205.25 164.317 1201.54 165.737 1197.59 166.841C1193.65 167.946 1189.55 168.498 1185.29 168.498C1179.29 168.498 1174.24 167.394 1170.14 165.185C1166.04 162.976 1162.73 160.136 1160.2 156.665C1157.68 153.037 1155.86 149.013 1154.76 144.596C1153.81 140.021 1153.34 135.366 1153.34 130.633C1153.34 121.956 1154.6 113.436 1157.13 105.075C1159.81 96.7128 1163.52 89.2976 1168.25 82.8291C1172.98 76.2027 1178.66 70.9174 1185.29 66.9732C1192.07 63.0289 1199.49 61.0568 1207.53 61.0568C1217.16 61.0568 1226.62 63.2656 1235.93 67.6832C1235.14 70.0497 1234.43 73.3629 1233.8 77.6227C1233.17 81.8824 1232.7 85.6689 1232.38 88.9821L1228.83 88.7454C1226.47 88.5877 1225.05 87.4044 1224.57 85.1956C1223 79.5159 1220.55 75.5716 1217.24 73.3629C1214.08 71.1541 1210.45 70.0497 1206.35 70.0497ZM1267.66 43.0711C1268.44 38.4957 1269.08 33.9993 1269.55 29.5817C1270.18 25.0064 1270.5 21.4566 1270.5 18.9323C1270.5 16.8813 1269.79 15.8558 1268.37 15.8558C1266.79 15.8558 1264.58 16.0924 1261.74 16.5657C1259.06 17.039 1257.09 17.2757 1255.82 17.2757C1253.77 17.2757 1252.75 15.6191 1252.75 12.306C1259.85 10.4127 1266.39 8.51948 1272.39 6.62624C1278.38 4.57523 1284.38 2.36645 1290.37 -9.3682e-05C1291.64 0.788755 1292.43 1.49872 1292.74 2.1298C1293.06 2.76088 1293.21 3.39196 1293.21 4.02304C1293.21 4.65412 1293.14 5.36409 1292.98 6.15293C1292.82 6.94178 1292.66 7.65175 1292.5 8.28283L1272.86 107.914H1273.81C1276.33 104.601 1279.73 100.342 1283.98 95.1351C1288.24 89.7709 1292.98 84.6434 1298.18 79.7525C1303.55 74.7039 1309.07 70.3652 1314.75 66.7365C1320.59 63.1078 1326.27 61.2935 1331.79 61.2935C1334.31 61.2935 1336.68 61.5301 1338.89 62.0034C1338.1 64.2122 1337.31 66.8154 1336.52 69.813C1335.89 72.6529 1335.34 75.8083 1334.87 79.2792L1332.03 80.2259C1331.24 79.1215 1330.13 78.2537 1328.71 77.6227C1327.29 76.8338 1325.79 76.4394 1324.22 76.4394C1322.8 76.4394 1320.98 76.7549 1318.77 77.386C1316.56 77.8593 1313.96 78.9637 1310.96 80.6992C1308.12 82.4346 1304.81 84.8801 1301.02 88.0355C1297.4 91.1909 1293.29 95.4506 1288.72 100.815C1293.14 110.439 1297.24 119.195 1301.02 127.083C1304.81 134.814 1308.36 141.441 1311.67 146.962C1315.14 152.958 1318.06 155.955 1320.43 155.955C1321.53 155.955 1322.64 155.719 1323.74 155.245C1325 154.772 1326.19 154.299 1327.29 153.825C1328.4 153.194 1329.42 152.642 1330.37 152.169C1331.47 151.696 1332.34 151.459 1332.97 151.459C1333.92 151.459 1334.63 151.774 1335.1 152.406C1335.58 152.879 1335.97 153.983 1336.29 155.719C1331.24 159.347 1326.11 162.424 1320.9 164.948C1315.7 167.315 1311.67 168.498 1308.83 168.498C1307.26 168.498 1305.6 168.104 1303.86 167.315C1302.29 166.526 1300.71 164.633 1299.13 161.635C1298.03 159.584 1296.45 156.665 1294.4 152.879C1292.5 149.092 1290.45 144.99 1288.24 140.573C1286.04 135.997 1283.83 131.501 1281.62 127.083C1279.41 122.508 1277.52 118.406 1275.94 114.777C1272.94 118.248 1270.34 124.401 1268.13 133.237C1266.87 137.97 1265.84 142.703 1265.05 147.436C1264.26 152.169 1263.87 155.955 1263.87 158.795C1263.87 161.004 1264.11 163.134 1264.58 165.185C1258.58 165.816 1252.35 166.999 1245.88 168.735C1244.62 167.946 1243.99 166.999 1243.99 165.895C1243.99 165.579 1244.07 164.948 1244.23 164.002C1244.38 162.897 1244.54 162.029 1244.7 161.398L1267.66 43.0711ZM1370.2 59.8735C1371.46 53.8783 1372.09 49.0663 1372.09 45.4376C1372.09 43.3866 1371.86 41.2567 1371.38 39.0479C1374.38 38.5746 1377.54 38.1013 1380.85 37.628C1384.16 37.1547 1387.48 36.4447 1390.79 35.4981C1392.05 36.4447 1392.68 37.3914 1392.68 38.338C1392.68 38.6535 1392.6 39.2846 1392.45 40.2312C1392.45 41.1778 1392.37 41.9667 1392.21 42.5978L1388.19 63.8967H1412.56C1412.09 65.3166 1411.62 67.0521 1411.14 69.1031C1410.67 71.1541 1410.27 73.0473 1409.96 74.7828C1406.01 74.1517 1401.99 73.6784 1397.89 73.3629C1393.79 73.0473 1389.92 72.8107 1386.29 72.6529L1373.28 146.489C1372.8 148.856 1372.57 150.512 1372.57 151.459C1372.57 155.245 1374.86 157.139 1379.43 157.139C1381.8 157.139 1383.93 156.902 1385.82 156.429C1387.87 155.798 1389.69 155.088 1391.26 154.299C1392.68 153.668 1393.87 153.116 1394.81 152.642C1395.92 152.011 1396.79 151.696 1397.42 151.696C1399.15 151.696 1400.18 153.194 1400.49 156.192C1395.6 159.978 1390.24 162.976 1384.4 165.185C1378.72 167.394 1373.36 168.498 1368.31 168.498C1362.63 168.498 1358.6 167.551 1356.24 165.658C1353.87 163.923 1352.69 161.241 1352.69 157.612C1352.69 155.876 1352.85 154.22 1353.16 152.642L1368.07 71.9429H1350.8C1351.11 69.2609 1351.58 67.2887 1352.22 66.0266C1353 64.6066 1354.27 63.8967 1356 63.8967H1369.49L1370.2 59.8735ZM1481.39 126.374H1480.44C1476.5 134.104 1472.47 140.652 1468.37 146.016C1464.27 151.38 1460.17 155.719 1456.07 159.032C1452.12 162.345 1448.18 164.712 1444.23 166.132C1440.45 167.709 1436.82 168.498 1433.35 168.498C1430.98 168.498 1428.69 168.104 1426.48 167.315C1424.43 166.684 1422.54 165.5 1420.8 163.765C1419.23 162.029 1417.96 159.663 1417.02 156.665C1416.07 153.668 1415.6 149.881 1415.6 145.306C1415.6 131.895 1417.73 119.984 1421.99 109.571C1426.41 99.1582 1431.85 90.402 1438.32 83.3024C1444.79 76.045 1451.73 70.523 1459.14 66.7365C1466.72 62.9501 1473.74 61.0568 1480.2 61.0568C1485.25 61.0568 1490.07 61.2935 1494.64 61.7668C1499.37 62.2401 1504.66 63.1078 1510.5 64.37L1494.17 146.489C1493.85 148.067 1493.69 149.487 1493.69 150.749C1493.69 152.8 1494.56 153.825 1496.3 153.825C1497.4 153.825 1498.51 153.589 1499.61 153.116C1500.87 152.484 1502.06 151.853 1503.16 151.222C1504.42 150.433 1505.53 149.802 1506.47 149.329C1507.58 148.698 1508.45 148.382 1509.08 148.382C1510.65 148.382 1511.76 149.96 1512.39 153.116C1509.55 155.167 1506.55 157.139 1503.4 159.032C1500.4 160.767 1497.48 162.345 1494.64 163.765C1491.8 165.185 1489.12 166.289 1486.59 167.078C1484.07 168.025 1482.02 168.498 1480.44 168.498C1478.71 168.498 1477.13 168.104 1475.71 167.315C1474.29 166.684 1473.58 165.185 1473.58 162.818C1473.58 162.029 1473.66 161.162 1473.82 160.215C1473.97 159.111 1474.21 158.006 1474.53 156.902L1481.39 126.374ZM1489.91 72.6529C1488.01 72.0218 1485.88 71.5485 1483.52 71.233C1481.31 70.7597 1479.18 70.523 1477.13 70.523C1470.82 70.523 1465.14 72.1796 1460.09 75.4928C1455.04 78.8059 1450.7 83.4601 1447.07 89.4554C1443.44 95.4506 1440.6 102.55 1438.55 110.754C1436.66 118.958 1435.71 127.872 1435.71 137.496C1435.71 143.176 1436.42 147.278 1437.84 149.802C1439.26 152.169 1441.24 153.352 1443.76 153.352C1446.92 153.352 1450.31 151.932 1453.94 149.092C1457.56 146.253 1461.04 142.545 1464.35 137.97C1467.82 133.394 1471.13 128.267 1474.29 122.587C1477.44 116.75 1480.13 110.833 1482.33 104.838C1484.7 98.8427 1486.52 93.0841 1487.78 87.5622C1489.2 81.8824 1489.91 76.9127 1489.91 72.6529ZM1564.39 35.7348C1561.4 35.7348 1559.03 34.867 1557.3 33.1316C1555.56 31.2383 1554.69 28.7929 1554.69 25.7953C1554.69 21.5355 1556.11 17.749 1558.95 14.4358C1561.95 10.9649 1565.5 9.22945 1569.6 9.22945C1572.76 9.22945 1574.97 10.255 1576.23 12.306C1577.65 14.357 1578.36 16.9602 1578.36 20.1156C1578.36 24.0598 1577.02 27.6885 1574.33 31.0017C1571.65 34.1571 1568.34 35.7348 1564.39 35.7348ZM1552.33 146.253C1552.17 146.884 1552.01 147.751 1551.85 148.856C1551.69 149.802 1551.62 150.512 1551.62 150.986C1551.62 152.879 1552.56 153.825 1554.46 153.825C1555.56 153.825 1556.66 153.589 1557.77 153.116C1559.03 152.484 1560.21 151.853 1561.32 151.222C1562.58 150.433 1563.68 149.802 1564.63 149.329C1565.58 148.698 1566.37 148.382 1567 148.382C1568.58 148.382 1569.68 149.96 1570.31 153.116C1567.63 155.167 1564.71 157.139 1561.55 159.032C1558.56 160.767 1555.64 162.345 1552.8 163.765C1549.96 165.185 1547.28 166.289 1544.75 167.078C1542.23 168.025 1540.18 168.498 1538.6 168.498C1536.86 168.498 1535.21 168.104 1533.63 167.315C1532.05 166.684 1531.26 165.027 1531.26 162.345C1531.26 161.872 1531.34 161.083 1531.5 159.978C1531.66 158.716 1531.82 157.849 1531.97 157.375C1535.44 140.494 1538.2 127.083 1540.26 117.144C1542.31 107.047 1543.81 99.3949 1544.75 94.1885C1545.86 88.8243 1546.57 85.2745 1546.88 83.539C1547.2 81.8036 1547.36 80.7781 1547.36 80.4625C1547.36 78.5693 1546.65 77.6227 1545.23 77.6227C1544.59 77.6227 1543.65 77.9382 1542.39 78.5693C1541.12 79.0426 1539.78 79.5948 1538.36 80.2259C1536.94 80.6992 1535.6 81.2514 1534.34 81.8824C1533.24 82.3557 1532.37 82.5924 1531.74 82.5924C1530.79 82.5924 1530.08 82.1191 1529.61 81.1725C1529.13 80.2259 1528.74 79.1215 1528.42 77.8593C1531.26 76.2816 1534.58 74.5461 1538.36 72.6529C1542.15 70.6019 1545.78 68.7087 1549.25 66.9732C1552.88 65.2377 1556.03 63.8178 1558.71 62.7134C1561.55 61.609 1563.45 61.0568 1564.39 61.0568C1567.08 61.0568 1568.42 62.3979 1568.42 65.08C1568.42 66.1843 1568.26 67.3676 1567.94 68.6298L1552.33 146.253ZM1616 18.9323C1616 18.1434 1615.84 17.3546 1615.53 16.5657C1615.37 15.7769 1614.74 15.3825 1613.64 15.3825C1613.16 15.3825 1612.29 15.5402 1611.03 15.8558C1609.93 16.0135 1608.67 16.2502 1607.25 16.5657C1605.98 16.7235 1604.8 16.8813 1603.7 17.0391C1602.59 17.1968 1601.8 17.2757 1601.33 17.2757C1599.28 17.2757 1598.25 15.6191 1598.25 12.306C1605.35 10.4127 1611.9 8.51948 1617.9 6.62624C1623.89 4.57523 1629.89 2.36645 1635.88 -9.3682e-05C1637.14 0.788755 1637.93 1.5776 1638.25 2.36645C1638.56 2.99753 1638.72 3.7075 1638.72 4.49634C1638.72 5.7585 1638.56 7.02067 1638.25 8.28283L1611.27 146.253C1611.11 147.041 1610.95 147.988 1610.8 149.092C1610.64 150.039 1610.56 150.67 1610.56 150.986C1610.56 152.879 1611.51 153.825 1613.4 153.825C1614.5 153.825 1615.61 153.589 1616.71 153.116C1617.97 152.484 1619.16 151.853 1620.26 151.222C1621.52 150.433 1622.63 149.802 1623.58 149.329C1624.52 148.698 1625.31 148.382 1625.94 148.382C1627.52 148.382 1628.62 149.96 1629.25 153.116C1626.57 155.167 1623.65 157.139 1620.5 159.032C1617.5 160.767 1614.58 162.345 1611.74 163.765C1608.9 165.185 1606.22 166.289 1603.7 167.078C1601.17 168.025 1599.12 168.498 1597.54 168.498C1595.81 168.498 1594.15 168.104 1592.57 167.315C1591 166.684 1590.21 165.027 1590.21 162.345C1590.21 161.872 1590.29 161.083 1590.44 159.978C1590.6 158.716 1590.76 157.849 1590.92 157.375L1613.16 43.0711C1614.11 38.4957 1614.82 33.9993 1615.29 29.5817C1615.77 25.0064 1616 21.4566 1616 18.9323ZM1709.49 87.0888C1707.76 86.9311 1706.65 86.5366 1706.18 85.9056C1705.71 85.1167 1705.39 84.249 1705.23 83.3024C1704.44 78.5693 1702.63 74.9406 1699.79 72.4162C1696.95 69.7342 1693.08 68.3931 1688.19 68.3931C1683.14 68.3931 1678.81 69.6553 1675.18 72.1796C1671.55 74.5461 1669.73 78.0171 1669.73 82.5924C1669.73 85.7478 1671.07 88.9821 1673.76 92.2952C1676.6 95.4506 1679.91 98.6849 1683.7 101.998C1686.54 104.522 1689.53 107.126 1692.69 109.808C1695.84 112.49 1698.68 115.251 1701.21 118.091C1703.73 120.773 1705.78 123.613 1707.36 126.61C1709.1 129.608 1709.97 132.684 1709.97 135.84C1709.97 140.415 1708.94 144.675 1706.89 148.619C1704.84 152.563 1702 156.034 1698.37 159.032C1694.9 161.872 1690.72 164.159 1685.83 165.895C1681.09 167.63 1676.04 168.498 1670.68 168.498C1665.16 168.498 1659.79 168.025 1654.59 167.078C1649.38 166.132 1644.49 164.633 1639.92 162.582C1641.18 157.849 1642.12 153.51 1642.76 149.566C1643.54 145.464 1644.1 140.888 1644.41 135.84H1646.78C1650.56 135.84 1652.46 137.181 1652.46 139.863C1652.14 146.489 1653.64 151.617 1656.95 155.245C1660.43 158.874 1665.16 160.688 1671.15 160.688C1677.31 160.688 1682.36 159.111 1686.3 155.955C1690.24 152.642 1692.22 148.382 1692.22 143.176C1692.22 140.809 1691.58 138.522 1690.32 136.313C1689.22 134.104 1687.72 132.053 1685.83 130.16C1683.93 128.109 1681.8 126.137 1679.44 124.244C1677.07 122.193 1674.62 120.142 1672.1 118.091C1667.37 114.146 1663.03 110.044 1659.08 105.785C1655.3 101.367 1653.4 96.3184 1653.4 90.6387C1653.4 86.3789 1654.35 82.4346 1656.24 78.8059C1658.3 75.1772 1660.98 72.1007 1664.29 69.5764C1667.76 66.8943 1671.71 64.8433 1676.12 63.4234C1680.7 61.8457 1685.51 61.0568 1690.56 61.0568C1699.71 61.0568 1708.31 63.1867 1716.35 67.4465C1715.57 69.813 1714.86 72.8107 1714.22 76.4394C1713.75 80.0681 1713.36 83.6968 1713.04 87.3255L1709.49 87.0888Z" fill="#FCEED9"/>
</svg>
