<svg width="1882" height="469" viewBox="0 0 1882 469" fill="none" xmlns="http://www.w3.org/2000/svg">
<path d="M1728.18 265H1881.41V306.34H1775.31V341.341H1875.62V382.956H1775.31V423.194H1881.41V464.809H1728.18V265Z" fill="white"/>
<path d="M1608.65 389.571H1576.68V464.809H1529.55V265H1606.44C1617.47 265 1627.3 265.551 1635.93 266.654C1644.57 267.756 1652.75 269.685 1660.46 272.441C1668.36 275.197 1674.89 278.872 1680.03 283.465C1685.36 288.058 1689.49 294.03 1692.43 301.379C1695.56 308.545 1697.12 316.996 1697.12 326.734C1697.12 353.375 1684.07 371.749 1657.98 381.854L1707.31 464.809H1651.92L1608.65 389.571ZM1576.68 304.686V349.884H1607.82C1620.5 349.884 1630.24 348.323 1637.04 345.199C1643.83 341.892 1647.23 335.921 1647.23 327.285C1647.23 318.65 1643.74 312.77 1636.76 309.647C1629.96 306.34 1620.32 304.686 1607.82 304.686H1576.68Z" fill="white"/>
<path d="M1370.71 265V384.334C1370.71 400.135 1373.47 411.71 1378.98 419.06C1384.49 426.225 1394.96 429.808 1410.4 429.808C1425.83 429.808 1436.12 425.858 1441.26 417.957C1446.59 410.057 1449.26 397.931 1449.26 381.578V265H1496.38V377.72C1496.38 408.954 1489.68 431.921 1476.27 446.62C1463.04 461.134 1441.08 468.392 1410.4 468.392C1379.9 468.392 1357.76 461.686 1343.98 448.273C1330.38 434.677 1323.58 411.71 1323.58 379.374V265H1370.71Z" fill="white"/>
<path d="M1195.58 306.34H1131.64V265H1307.2V306.34H1242.98V464.809H1195.58V306.34Z" fill="white"/>
<path d="M1066.12 423.194H1162.03V464.809H1019V265H1066.12V423.194Z" fill="white"/>
<path d="M860.153 265V384.334C860.153 400.135 862.909 411.71 868.421 419.06C873.933 426.225 884.406 429.808 899.84 429.808C915.273 429.808 925.562 425.858 930.707 417.957C936.035 410.057 938.699 397.931 938.699 381.578V265H985.827V377.72C985.827 408.954 979.12 431.921 965.708 446.62C952.479 461.134 930.523 468.392 899.84 468.392C869.34 468.392 847.2 461.686 833.42 448.273C819.824 434.677 813.026 411.71 813.026 379.374V265H860.153Z" fill="white"/>
<path d="M792.632 390.397C788.957 413.731 778.484 432.564 761.214 446.895C743.943 461.226 722.722 468.392 697.55 468.392C666.499 468.392 642.063 459.113 624.241 440.556C606.419 421.999 597.508 396.736 597.508 364.767C597.508 333.165 606.603 308.085 624.792 289.528C643.165 270.971 667.877 261.693 698.928 261.693C723.548 261.693 744.218 268.95 760.938 283.465C777.658 297.796 787.763 316.537 791.254 339.687H744.953C742.381 326.642 736.777 316.904 728.142 310.474C719.506 303.859 709.217 300.552 697.275 300.552C682.76 300.552 670.817 306.34 661.447 317.915C652.076 329.306 647.391 344.924 647.391 364.767C647.391 385.161 652.076 401.054 661.447 412.445C670.817 423.837 682.943 429.533 697.826 429.533C709.585 429.533 719.966 426.501 728.968 420.438C737.971 414.375 743.759 404.361 746.331 390.397H792.632Z" fill="white"/>
<path d="M1488.08 199.809L1443.15 39.9618V199.809H1397.41V0H1471.82L1510.13 143.311L1549.26 0H1622.85V199.809H1577.1V39.6862L1532.45 199.809H1488.08Z" fill="white"/>
<path d="M1253.37 0H1305.19L1380.7 199.809H1329.44L1317.31 164.257H1240.15L1228.3 199.809H1178.14L1253.37 0ZM1253.1 125.949H1304.64L1279.01 49.8834L1253.1 125.949Z" fill="white"/>
<path d="M1014.96 0H1168.19V41.3398H1062.09V76.3409H1162.4V117.956H1062.09V158.194H1168.19V199.809H1014.96V0Z" fill="white"/>
<path d="M895.43 124.571H863.461V199.809H816.333V0H893.225C904.249 0 914.079 0.551196 922.714 1.65359C931.35 2.75598 939.526 4.68517 947.243 7.44117C955.143 10.1972 961.666 13.8718 966.81 18.4651C972.138 23.0584 976.272 29.0297 979.212 36.379C982.336 43.5446 983.897 51.9963 983.897 61.7341C983.897 88.3754 970.852 106.749 944.762 116.854L994.094 199.809H938.699L895.43 124.571ZM863.461 39.6862V84.8844H894.603C907.281 84.8844 917.019 83.3227 923.817 80.1993C930.615 76.8921 934.014 70.9208 934.014 62.2853C934.014 53.6499 930.523 47.7705 923.541 44.647C916.743 41.3398 907.097 39.6862 894.603 39.6862H863.461Z" fill="white"/>
<path d="M675.502 0C753.405 0 792.356 33.2556 792.356 99.7668C792.356 166.462 753.405 199.809 675.502 199.809H609.634V0H675.502ZM676.329 39.6862H656.762V160.123H676.329C684.046 160.123 690.844 159.755 696.723 159.021C702.603 158.286 708.482 156.632 714.362 154.06C720.425 151.487 725.386 148.088 729.244 143.863C733.102 139.637 736.226 133.849 738.614 126.5C741.187 118.967 742.473 110.056 742.473 99.7668C742.473 89.6615 741.187 80.9342 738.614 73.5849C736.226 66.0519 733.102 60.1724 729.244 55.9466C725.386 51.537 720.425 48.1379 714.362 45.7494C708.482 43.1771 702.603 41.5236 696.723 40.7886C690.844 40.0537 684.046 39.6862 676.329 39.6862Z" fill="white"/>
<path d="M155.333 0.363281H0V155.697H155.333V0.363281Z" fill="white"/>
<path d="M155.333 311.031H0V466.365H155.333V311.031Z" fill="white"/>
<path d="M310.669 155.695H155.336V311.029H310.669V155.695Z" fill="white"/>
<path d="M310.664 0.363281C396.399 0.363281 465.997 69.9612 465.997 155.697H310.664V0.363281Z" fill="white"/>
<path d="M310.664 311.031H465.997C465.997 396.767 396.399 466.365 310.664 466.365V311.031Z" fill="white"/>
</svg>
