<svg width="1410" height="830" viewBox="0 0 1410 830" fill="none" xmlns="http://www.w3.org/2000/svg">
<path d="M678.144 151.484C699.336 151.484 716.515 117.573 716.515 75.742C716.515 33.9108 699.336 0 678.144 0C656.953 0 639.773 33.9108 639.773 75.742C639.773 117.573 656.953 151.484 678.144 151.484Z" fill="white"/>
<path d="M606.417 171.773C624.77 161.177 622.692 123.22 601.776 86.9933C580.861 50.7664 549.028 29.9884 530.675 40.5842C512.323 51.1799 514.401 89.1372 535.316 125.364C556.232 161.591 588.065 182.369 606.417 171.773Z" fill="white"/>
<path d="M554.445 225.199C565.04 206.847 544.262 175.014 508.036 154.098C471.809 133.183 433.851 131.105 423.256 149.457C412.66 167.81 433.438 199.643 469.665 220.559C505.892 241.474 543.849 243.552 554.445 225.199Z" fill="white"/>
<path d="M460.414 335.863C502.245 335.863 536.156 318.683 536.156 297.492C536.156 276.3 502.245 259.121 460.414 259.121C418.583 259.121 384.672 276.3 384.672 297.492C384.672 318.683 418.583 335.863 460.414 335.863Z" fill="white"/>
<path d="M510.028 440.312C546.255 419.396 567.033 387.563 556.437 369.211C545.841 350.858 507.884 352.936 471.657 373.852C435.43 394.767 414.652 426.6 425.248 444.953C435.844 463.305 473.801 461.227 510.028 440.312Z" fill="white"/>
<path d="M605.253 505.991C626.169 469.764 628.246 431.807 609.894 421.211C591.541 410.615 559.708 431.394 538.793 467.62C517.877 503.847 515.799 541.804 534.152 552.4C552.504 562.996 584.337 542.218 605.253 505.991Z" fill="white"/>
<path d="M829.62 550.379C847.973 539.783 845.895 501.826 824.98 465.599C804.064 429.372 772.231 408.594 753.878 419.19C735.526 429.785 737.604 467.743 758.519 503.969C779.435 540.196 811.268 560.974 829.62 550.379Z" fill="white"/>
<path d="M937.077 441.508C947.673 423.156 926.895 391.323 890.668 370.407C854.442 349.491 816.484 347.414 805.889 365.766C795.293 384.118 816.071 415.952 852.298 436.867C888.524 457.783 926.482 459.86 937.077 441.508Z" fill="white"/>
<path d="M899.898 331.843C941.729 331.843 975.64 314.664 975.64 293.472C975.64 272.281 941.729 255.102 899.898 255.102C858.067 255.102 824.156 272.281 824.156 293.472C824.156 314.664 858.067 331.843 899.898 331.843Z" fill="white"/>
<path d="M888.661 217.12C924.887 196.205 945.665 164.372 935.07 146.019C924.474 127.667 886.517 129.745 850.29 150.66C814.063 171.576 793.285 203.409 803.881 221.761C814.476 240.114 852.434 238.036 888.661 217.12Z" fill="white"/>
<path d="M821.534 123.343C842.45 87.1158 844.528 49.1586 826.175 38.5628C807.823 27.967 775.99 48.7451 755.074 84.9719C734.159 121.199 732.081 159.156 750.433 169.752C768.786 180.348 800.619 159.569 821.534 123.343Z" fill="white"/>
<path d="M1343.86 806.124C1351.58 806.124 1358.21 804.277 1363.75 800.585C1369.46 796.893 1373.9 791.859 1377.09 785.481C1380.28 778.936 1381.88 771.552 1381.88 763.329C1381.88 754.938 1380.28 747.553 1377.09 741.176C1373.9 734.799 1369.46 729.764 1363.75 726.072C1358.21 722.38 1351.58 720.534 1343.86 720.534C1336.14 720.534 1329.43 722.38 1323.73 726.072C1318.19 729.764 1313.82 734.799 1310.64 741.176C1307.61 747.553 1306.1 754.938 1306.1 763.329C1306.1 771.552 1307.61 778.936 1310.64 785.481C1313.82 791.859 1318.19 796.893 1323.73 800.585C1329.43 804.277 1336.14 806.124 1343.86 806.124ZM1343.86 829.283C1330.94 829.283 1319.45 826.514 1309.38 820.976C1299.48 815.438 1291.76 807.718 1286.22 797.816C1280.85 787.915 1278.16 776.419 1278.16 763.329C1278.16 750.238 1280.85 738.743 1286.22 728.841C1291.76 718.94 1299.48 711.22 1309.38 705.681C1319.45 700.143 1330.94 697.374 1343.86 697.374C1356.95 697.374 1368.45 700.143 1378.35 705.681C1388.25 711.22 1395.89 718.94 1401.26 728.841C1406.8 738.743 1409.57 750.238 1409.57 763.329C1409.57 776.419 1406.8 787.915 1401.26 797.816C1395.89 807.718 1388.25 815.438 1378.35 820.976C1368.45 826.514 1356.95 829.283 1343.86 829.283Z" fill="white"/>
<path d="M1206.24 698.885H1230.41L1235.45 730.855L1229.91 724.813C1232.26 720.282 1234.94 716.086 1237.96 712.227C1241.15 708.199 1245.43 705.01 1250.8 702.661C1256.17 700.143 1263.05 698.885 1271.44 698.885H1277.49V724.31H1265.4C1257.35 724.31 1250.97 726.156 1246.27 729.848C1241.57 733.54 1238.21 738.323 1236.2 744.197C1234.35 750.071 1233.43 756.364 1233.43 763.077V827.773H1206.24V698.885Z" fill="white"/>
<path d="M1056.35 651.559H1125.83C1138.08 651.559 1148.74 653.908 1157.8 658.607C1167.03 663.138 1174.16 669.6 1179.2 677.991C1184.23 686.214 1186.75 696.116 1186.75 707.695C1186.75 718.94 1184.23 728.841 1179.2 737.4C1174.16 745.791 1167.03 752.336 1157.8 757.035C1148.74 761.567 1138.08 763.832 1125.83 763.832H1085.3V827.773H1056.35V651.559ZM1085.3 676.732V738.659H1123.31C1130.19 738.659 1136.15 737.4 1141.19 734.883C1146.39 732.365 1150.33 728.757 1153.02 724.058C1155.87 719.359 1157.3 713.905 1157.3 707.695C1157.3 701.318 1155.87 695.864 1153.02 691.333C1150.33 686.634 1146.47 683.025 1141.44 680.508C1136.4 677.991 1130.44 676.732 1123.56 676.732H1085.3Z" fill="white"/>
<path d="M971.185 829.283C957.76 829.283 946.096 826.598 936.194 821.228C926.293 815.689 918.657 807.97 913.287 798.068C907.916 788.166 905.231 776.671 905.231 763.58C905.231 750.322 907.832 738.743 913.035 728.841C918.405 718.94 925.873 711.22 935.439 705.681C945.005 700.143 956.081 697.374 968.668 697.374C981.087 697.374 991.912 699.892 1001.14 704.926C1010.54 709.793 1017.84 716.842 1023.04 726.072C1028.41 735.302 1031.27 746.211 1031.6 758.797C1031.6 760.476 1031.52 762.238 1031.35 764.084C1031.18 765.762 1031.01 767.44 1030.85 769.119H933.677C933.677 769.286 933.677 769.538 933.677 769.874C933.677 770.209 933.677 770.545 933.677 770.881C934.013 778.097 935.607 784.474 938.46 790.013C941.481 795.383 945.676 799.578 951.047 802.599C956.417 805.62 962.627 807.13 969.675 807.13C977.898 807.13 984.863 805.117 990.569 801.089C996.443 797.061 1000.3 791.523 1002.15 784.474H1029.34C1027.83 792.866 1024.47 800.501 1019.27 807.382C1014.23 814.095 1007.6 819.465 999.38 823.493C991.324 827.353 981.926 829.283 971.185 829.283ZM934.684 749.232H1003.41C1002.23 739.666 998.541 732.281 992.331 727.079C986.29 721.876 978.486 719.275 968.92 719.275C963.214 719.275 957.844 720.534 952.809 723.051C947.942 725.401 943.83 728.841 940.474 733.372C937.285 737.736 935.355 743.022 934.684 749.232Z" fill="white"/>
<path d="M829.292 829.283C816.37 829.283 805.041 826.598 795.308 821.228C785.742 815.857 778.358 808.221 773.155 798.32C767.953 788.418 765.351 776.838 765.351 763.58C765.351 750.322 768.037 738.743 773.407 728.841C778.777 718.94 786.329 711.22 796.063 705.681C805.797 700.143 817.125 697.374 830.047 697.374C846.662 697.374 860.003 701.654 870.073 710.213C880.142 718.772 886.519 730.351 889.205 744.952H860.759C859.08 737.4 855.556 731.442 850.186 727.079C844.816 722.716 837.935 720.534 829.544 720.534C822.327 720.534 815.95 722.38 810.412 726.072C805.041 729.596 800.846 734.631 797.825 741.176C794.804 747.553 793.294 755.021 793.294 763.58C793.294 771.972 794.804 779.44 797.825 785.985C800.846 792.362 805.041 797.313 810.412 800.837C815.95 804.361 822.327 806.124 829.544 806.124C837.935 806.124 844.732 803.942 849.934 799.578C855.304 795.215 858.829 789.257 860.507 781.705H889.205C886.687 796.138 880.142 807.718 869.569 816.445C859.164 825.004 845.739 829.283 829.292 829.283Z" fill="white"/>
<path d="M628.042 698.885H651.705L656.991 728.338L650.446 721.792C654.474 715.583 659.928 709.961 666.809 704.926C673.858 699.892 683.591 697.374 696.01 697.374C705.576 697.374 714.219 699.304 721.939 703.164C729.827 706.856 736.12 712.982 740.819 721.541C745.518 730.1 747.868 741.596 747.868 756.028V827.773H720.429V758.294C720.429 746.043 717.827 736.729 712.625 730.351C707.59 723.974 699.954 720.786 689.717 720.786C682.501 720.786 676.291 722.464 671.089 725.82C666.054 729.177 662.11 734.044 659.257 740.421C656.572 746.63 655.229 754.098 655.229 762.825V827.773H628.042V698.885Z" fill="white"/>
<path d="M545.646 829.283C532.22 829.283 520.557 826.598 510.655 821.228C500.754 815.689 493.118 807.97 487.747 798.068C482.377 788.166 479.692 776.671 479.692 763.58C479.692 750.322 482.293 738.743 487.496 728.841C492.866 718.94 500.334 711.22 509.9 705.681C519.466 700.143 530.542 697.374 543.129 697.374C555.548 697.374 566.372 699.892 575.603 704.926C585.001 709.793 592.301 716.842 597.503 726.072C602.874 735.302 605.727 746.211 606.062 758.797C606.062 760.476 605.978 762.238 605.811 764.084C605.643 765.762 605.475 767.44 605.307 769.119H508.138C508.138 769.286 508.138 769.538 508.138 769.874C508.138 770.209 508.138 770.545 508.138 770.881C508.473 778.097 510.068 784.474 512.921 790.013C515.941 795.383 520.137 799.578 525.507 802.599C530.878 805.62 537.087 807.13 544.136 807.13C552.359 807.13 559.324 805.117 565.03 801.089C570.904 797.061 574.763 791.523 576.609 784.474H603.797C602.286 792.866 598.93 800.501 593.727 807.382C588.693 814.095 582.064 819.465 573.84 823.493C565.785 827.353 556.387 829.283 545.646 829.283ZM509.145 749.232H577.868C576.693 739.666 573.001 732.281 566.792 727.079C560.75 721.876 552.946 719.275 543.381 719.275C537.675 719.275 532.304 720.534 527.27 723.051C522.403 725.401 518.291 728.841 514.935 733.372C511.746 737.736 509.816 743.022 509.145 749.232Z" fill="white"/>
<path d="M340.123 770.629V698.885H367.31V767.608C367.31 780.195 369.827 789.677 374.862 796.054C379.897 802.431 387.365 805.62 397.266 805.62C404.147 805.62 410.021 803.942 414.888 800.585C419.923 797.229 423.782 792.446 426.468 786.236C429.153 779.859 430.495 772.223 430.495 763.329V698.885H457.683V827.773H433.768L428.482 798.823L435.278 805.368C431.251 811.578 425.796 817.116 418.916 821.983C412.203 826.85 402.889 829.283 390.973 829.283C384.092 829.283 377.547 828.276 371.338 826.262C365.296 824.248 359.926 820.976 355.227 816.445C350.528 811.913 346.836 805.872 344.15 798.32C341.465 790.768 340.123 781.537 340.123 770.629Z" fill="white"/>
<path d="M288.299 651.559H315.486V827.773H288.299V651.559Z" fill="white"/>
<path d="M189.904 698.885H212.308V686.801C212.308 675.054 215.161 666.243 220.867 660.369C226.741 654.495 235.888 651.559 248.307 651.559H274.235V675.473H251.831C247.467 675.473 244.279 676.48 242.265 678.494C240.251 680.508 239.244 683.697 239.244 688.06V698.885H274.235V722.799H239.748V827.773H212.308V722.799H189.904V698.885Z" fill="white"/>
<path d="M58.4437 698.885H82.1067L87.3931 728.338L80.8481 721.792C84.8758 715.583 90.33 709.961 97.2108 704.926C104.259 699.892 113.993 697.374 126.412 697.374C135.978 697.374 144.621 699.304 152.341 703.164C160.228 706.856 166.522 712.982 171.221 721.541C175.92 730.1 178.269 741.596 178.269 756.028V827.773H150.83V758.294C150.83 746.043 148.229 736.729 143.026 730.351C137.992 723.974 130.356 720.786 120.119 720.786C112.902 720.786 106.693 722.464 101.49 725.82C96.4556 729.177 92.5117 734.044 89.6588 740.421C86.9736 746.63 85.631 754.098 85.631 762.825V827.773H58.4437V698.885Z" fill="white"/>
<path d="M0 651.559H28.9495V827.773H0V651.559Z" fill="white"/>
</svg>
