<svg width="355" height="227" viewBox="0 0 355 227" fill="none" xmlns="http://www.w3.org/2000/svg">
<path d="M250.415 190.723L337.151 227L345.624 206.621L258.888 170.344L352.029 182.863L354.956 160.982L261.815 148.463L355 136.363L352.183 114.46L258.976 126.56L345.888 90.6808L337.503 70.2572L250.613 106.136L325.288 48.9283L311.929 31.3751L237.232 88.6053L294.608 13.9322L277.199 0.463671L212.076 85.205C194.645 107.881 160.531 107.815 143.188 85.0505L78.4829 0L60.986 13.4023L118.033 88.3403L43.5992 30.7568L30.1739 48.2439L104.607 105.805L17.849 69.5286L9.3757 89.908L96.1119 126.185L2.97117 113.688L0.066026 135.569L93.2068 148.088L0 160.165L2.81711 182.068L96.0019 169.969L9.11159 205.848L17.4969 226.271L104.387 190.392L136.828 179.132C162.402 170.256 190.199 170.167 215.817 178.911L250.437 190.723H250.415Z" fill="#0E4946"/>
</svg>
