<svg width="356" height="428" viewBox="0 0 356 428" fill="none" xmlns="http://www.w3.org/2000/svg">
<path d="M251.079 190.723L337.815 227L346.288 206.621L259.552 170.344L352.693 182.863L355.62 160.982L262.479 148.463L355.664 136.363L352.847 114.46L259.64 126.56L346.552 90.6808L338.167 70.2572L251.277 106.136L325.952 48.9283L312.593 31.3751L237.896 88.6053L295.272 13.9322L277.863 0.463671L212.74 85.205C195.309 107.881 161.195 107.815 143.853 85.0505L79.147 0L61.6501 13.4023L118.697 88.3403L44.2633 30.7568L30.838 48.2439L105.271 105.805L18.5131 69.5286L10.0398 89.908L96.776 126.185L3.63523 113.688L0.730089 135.569L93.8708 148.088L0.664062 160.165L3.48117 182.068L96.6659 169.969L9.77566 205.848L18.161 226.271L105.051 190.392L137.492 179.132C163.066 170.256 190.863 170.167 216.481 178.911L251.101 190.723H251.079Z" fill="#0E4946"/>
<path d="M347.653 377.273H334.661C334.593 376.622 334.558 376.143 334.558 375.835C334.25 371.898 333.377 369.433 331.939 368.44C330.501 367.413 327.112 366.899 321.772 366.899C315.472 366.899 311.347 367.481 309.396 368.645C307.479 369.809 306.52 372.257 306.52 375.989C306.52 380.405 307.308 383.058 308.882 383.948C310.457 384.838 315.661 385.523 324.493 386.002C334.935 386.584 341.679 388.074 344.726 390.47C347.807 392.866 349.348 397.848 349.348 405.413C349.348 414.725 347.55 420.751 343.956 423.489C340.361 426.194 332.436 427.546 320.18 427.546C309.156 427.546 301.83 426.211 298.201 423.541C294.606 420.87 292.809 415.461 292.809 407.313L292.758 404.746H305.698L305.75 406.235C305.75 411.131 306.606 414.126 308.317 415.222C310.029 416.317 314.702 416.865 322.337 416.865C328.293 416.865 332.093 416.232 333.737 414.965C335.38 413.698 336.202 410.771 336.202 406.184C336.202 402.794 335.568 400.552 334.302 399.457C333.069 398.327 330.382 397.642 326.239 397.402L318.896 396.94C307.804 396.29 300.717 394.749 297.636 392.319C294.555 389.888 293.015 384.667 293.015 376.656C293.015 368.474 294.863 363.031 298.561 360.326C302.292 357.588 309.721 356.218 320.847 356.218C331.392 356.218 338.495 357.468 342.158 359.967C345.821 362.466 347.653 367.345 347.653 374.602V377.273Z" fill="#0E4946"/>
<path d="M273.913 401.921H287.264V404.335C287.264 414.092 285.484 420.408 281.923 423.284C278.363 426.125 270.489 427.546 258.302 427.546C244.471 427.546 235.963 425.287 232.78 420.768C229.596 416.249 228.004 404.164 228.004 384.513C228.004 372.942 230.161 365.342 234.474 361.713C238.788 358.05 247.809 356.218 261.537 356.218C271.533 356.218 278.209 357.725 281.564 360.737C284.919 363.716 286.596 369.655 286.596 378.556L286.648 380.148H273.296V378.351C273.296 373.764 272.423 370.836 270.677 369.57C268.966 368.269 265.029 367.618 258.866 367.618C250.616 367.618 245.652 368.628 243.974 370.648C242.331 372.668 241.509 378.659 241.509 388.621C241.509 402.041 242.246 409.984 243.718 412.449C245.224 414.914 250.051 416.146 258.199 416.146C264.806 416.146 269.085 415.461 271.037 414.092C273.022 412.722 274.015 409.71 274.015 405.054L273.913 401.921Z" fill="#0E4946"/>
<path d="M218.144 356.833V426.929H204.844V356.833H218.144Z" fill="#0E4946"/>
<path d="M192.465 356.833V426.929H169.922L149.894 388.466C148.902 386.549 147.344 383.194 145.221 378.401L142.962 373.369L140.754 368.336H140.24L140.446 372.958L140.6 377.528L140.702 386.72V426.929H127.402V356.833H149.946L168.176 392.369C169.785 395.519 171.651 399.336 173.773 403.82L176.443 409.521L179.114 415.272H179.576L179.268 406.234L179.165 397.196V356.833H192.465Z" fill="#0E4946"/>
<path d="M82.5228 368.028V386.104H115.388V395.912H82.5228V415.734H117.493V426.929H69.2227V356.833H117.185V368.028H82.5228Z" fill="#0E4946"/>
<path d="M30.1949 389.648H61.0574L61.2628 403.565C61.2628 413.698 59.3457 420.237 55.5114 423.181C51.7114 426.091 43.2041 427.546 29.9895 427.546C17.8705 427.546 9.84245 425.595 5.90547 421.692C1.96849 417.789 0 409.83 0 397.813C0 382.476 0.787396 372.788 2.36219 368.748C4.31356 363.818 7.27485 360.498 11.2461 358.786C15.2173 357.074 21.9615 356.218 31.4787 356.218C43.9401 356.218 51.9853 357.553 55.6141 360.224C59.243 362.86 61.0574 368.731 61.0574 377.837H47.6032C47.3636 373.25 46.3537 370.409 44.5735 369.313C42.8275 368.183 38.4112 367.618 31.3247 367.618C23.6219 367.618 18.7263 368.577 16.638 370.494C14.5839 372.411 13.5569 376.913 13.5569 384L13.5056 391.035L13.6083 400.021C13.6083 406.971 14.6353 411.404 16.6894 413.322C18.7434 415.204 23.5021 416.146 30.9652 416.146C38.2229 416.146 42.8275 415.341 44.7789 413.732C46.7645 412.123 47.7573 408.323 47.7573 402.332L47.8086 399.457H30.1949V389.648Z" fill="#0E4946"/>
<path d="M325.572 270.512C338.307 270.512 346.506 272.634 350.169 276.879C353.833 281.09 355.664 290.539 355.664 305.226C355.664 321.282 353.815 331.398 350.118 335.575C346.455 339.751 337.554 341.84 323.415 341.84C310.68 341.84 302.446 339.785 298.715 335.677C294.983 331.535 293.117 322.446 293.117 308.409C293.117 291.703 294.949 281.21 298.612 276.931C302.275 272.651 311.262 270.512 325.572 270.512ZM324.545 281.912C315.61 281.912 310.389 283.059 308.882 285.352C307.376 287.646 306.623 295.589 306.623 309.18C306.623 319.245 307.496 325.304 309.242 327.358C311.022 329.412 316.226 330.439 324.853 330.439C333.103 330.439 338.05 329.293 339.694 326.999C341.337 324.671 342.159 317.653 342.159 305.945C342.159 294.202 341.371 287.27 339.796 285.147C338.256 282.99 333.172 281.912 324.545 281.912Z" fill="#0E4946"/>
<path d="M228.67 341.223V271.128H263.23C271.823 271.128 277.745 272.617 280.998 275.595C284.25 278.574 285.876 283.966 285.876 291.771C285.876 298.858 285.055 303.702 283.411 306.304C281.802 308.906 278.482 310.703 273.449 311.696V312.158C281.22 312.637 285.106 317.173 285.106 325.766V341.223H271.806V328.436C271.806 321.213 268.245 317.601 261.125 317.601H241.97V341.223H228.67ZM241.97 306.406H261.073C265.626 306.406 268.639 305.602 270.111 303.993C271.617 302.35 272.371 299.08 272.371 294.185C272.371 289.186 271.72 285.968 270.419 284.53C269.153 283.058 266.345 282.322 261.998 282.322H241.97V306.406Z" fill="#0E4946"/>
<path d="M206.949 316.215H220.3V318.628C220.3 328.385 218.52 334.702 214.96 337.577C211.399 340.419 203.525 341.84 191.338 341.84C177.507 341.84 169 339.58 165.816 335.061C162.632 330.542 161.04 318.457 161.04 298.807C161.04 287.235 163.197 279.635 167.511 276.006C171.824 272.343 180.845 270.512 194.573 270.512C204.57 270.512 211.245 272.018 214.6 275.031C217.955 278.009 219.633 283.949 219.633 292.85L219.684 294.442H206.333V292.644C206.333 288.057 205.46 285.13 203.714 283.863C202.002 282.562 198.065 281.912 191.903 281.912C183.652 281.912 178.688 282.922 177.011 284.942C175.367 286.961 174.546 292.953 174.546 302.915C174.546 316.335 175.282 324.277 176.754 326.742C178.26 329.207 183.087 330.439 191.235 330.439C197.842 330.439 202.122 329.755 204.073 328.385C206.059 327.016 207.052 324.003 207.052 319.347L206.949 316.215Z" fill="#0E4946"/>
<path d="M139.319 327.769H109.073L104.708 341.223H90.6372L113.951 271.128H133.927L157.6 341.223H143.786L139.319 327.769ZM136.238 317.961L124.119 281.449L112.205 317.961H136.238Z" fill="#0E4946"/>
<path d="M84.5778 271.128V341.223H71.2776V303.017C71.2776 299.97 71.3632 296.513 71.5344 292.644L72.0479 282.22H71.6371L70.0452 287.098L68.5046 291.977C67.0668 296.359 65.9542 299.594 65.1668 301.682L49.7612 341.223H37.6421L22.0825 301.99C21.2266 299.833 20.0969 296.598 18.6933 292.285L17.1014 287.406L15.5094 282.579H15.0986L15.6122 292.798C15.8176 296.769 15.9203 300.176 15.9203 303.017V341.223H2.62012V271.128H24.2906L36.8205 303.582C37.6764 305.842 38.8061 309.077 40.2097 313.288L41.7503 318.166L43.3422 322.993H43.8044L45.2936 318.166L46.8341 313.339C48.1008 309.265 49.1963 306.047 50.1206 303.685L62.4451 271.128H84.5778Z" fill="#0E4946"/>
</svg>
