<svg width="2251" height="709" viewBox="0 0 2251 709" fill="none" xmlns="http://www.w3.org/2000/svg">
<path d="M434.108 0L868.244 434.136C842.56 428.233 815.799 425.087 788.349 425.087C617.039 425.087 474.069 546.797 441.204 708.468H427.04C394.174 546.797 251.205 425.087 79.895 425.087C52.4445 425.087 25.6836 428.233 0 434.136L434.108 0Z" fill="white"/>
<path d="M2192 624.888C2181.16 624.888 2171.32 622.234 2162.47 616.927C2153.63 611.619 2146.55 604.432 2141.24 595.365C2136.16 586.077 2133.62 575.794 2133.62 564.516C2133.62 562.746 2134.17 561.309 2135.27 560.203C2136.6 558.876 2138.15 558.213 2139.92 558.213H2152.52C2154.29 558.213 2155.73 558.876 2156.84 560.203C2157.94 561.309 2158.49 562.746 2158.49 564.516C2158.49 575.13 2161.7 583.755 2168.11 590.389C2174.53 596.803 2182.49 600.009 2192 600.009C2200.84 600.009 2208.58 596.803 2215.22 590.389C2221.85 583.755 2225.17 575.683 2225.17 566.174C2225.17 559.982 2223.51 554.453 2220.19 549.588C2216.88 544.723 2211.13 538.642 2202.94 531.344L2165.79 498.504C2153.19 487.226 2144.67 478.269 2140.25 471.635C2135.83 464.779 2133.62 456.265 2133.62 446.093C2133.62 435.478 2136.27 425.747 2141.58 416.902C2146.88 407.835 2153.96 400.648 2162.81 395.34C2171.87 390.033 2181.6 387.379 2192 387.379C2202.83 387.379 2212.67 390.033 2221.52 395.34C2230.37 400.648 2237.33 407.945 2242.42 417.233C2247.5 426.3 2250.05 436.473 2250.05 447.751C2250.05 449.52 2249.49 451.068 2248.39 452.395C2247.28 453.501 2245.85 454.054 2244.08 454.054H2231.14C2229.37 454.054 2227.93 453.501 2226.83 452.395C2225.72 451.068 2225.17 449.52 2225.17 447.751C2225.17 437.358 2221.96 428.843 2215.55 422.209C2209.14 415.575 2201.29 412.258 2192 412.258C2182.93 412.258 2175.08 415.575 2168.45 422.209C2161.81 428.622 2158.49 436.584 2158.49 446.093C2158.49 451.621 2160.04 456.597 2163.14 461.02C2166.45 465.222 2172.32 471.082 2180.72 478.601L2215.55 509.451C2225.06 517.854 2232.02 524.488 2236.45 529.354C2240.87 534.219 2244.19 539.526 2246.4 545.276C2248.83 551.026 2250.05 557.992 2250.05 566.174C2250.05 576.789 2247.39 586.63 2242.09 595.697C2237 604.543 2230.03 611.619 2221.19 616.927C2212.34 622.234 2202.61 624.888 2192 624.888Z" fill="white"/>
<path d="M1951.24 622.234C1949.47 622.234 1947.92 621.681 1946.59 620.576C1945.49 619.249 1944.93 617.701 1944.93 615.932V396.335C1944.93 394.566 1945.49 393.129 1946.59 392.023C1947.92 390.696 1949.47 390.033 1951.24 390.033H1966.83C1969.92 390.033 1972.13 391.691 1973.46 395.008L2009.62 483.577L2045.78 395.008C2047.1 391.691 2049.31 390.033 2052.41 390.033H2068C2069.77 390.033 2071.21 390.696 2072.31 392.023C2073.64 393.129 2074.3 394.566 2074.3 396.335V615.932C2074.3 617.701 2073.64 619.249 2072.31 620.576C2071.21 621.681 2069.77 622.234 2068 622.234H2056.06C2054.29 622.234 2052.74 621.681 2051.41 620.576C2050.31 619.249 2049.76 617.701 2049.76 615.932V443.107L2015.92 521.392C2015.26 522.94 2014.26 524.267 2012.94 525.373C2011.83 526.258 2010.72 526.7 2009.62 526.7C2007.19 526.7 2005.08 524.931 2003.32 521.392L1969.48 443.107V615.932C1969.48 617.701 1968.82 619.249 1967.49 620.576C1966.38 621.681 1964.95 622.234 1963.18 622.234H1951.24Z" fill="white"/>
<path d="M1777.15 622.234C1775.38 622.234 1773.83 621.681 1772.51 620.576C1771.4 619.249 1770.85 617.701 1770.85 615.932V396.335C1770.85 394.566 1771.4 393.129 1772.51 392.023C1773.83 390.696 1775.38 390.033 1777.15 390.033H1880.65C1882.41 390.033 1883.85 390.696 1884.96 392.023C1886.28 393.129 1886.95 394.566 1886.95 396.335V408.609C1886.95 410.378 1886.28 411.926 1884.96 413.253C1883.85 414.358 1882.41 414.911 1880.65 414.911H1795.73V493.528H1864.72C1866.49 493.528 1867.93 494.192 1869.04 495.518C1870.36 496.624 1871.03 498.062 1871.03 499.831V512.104C1871.03 513.873 1870.36 515.421 1869.04 516.748C1867.93 517.854 1866.49 518.407 1864.72 518.407H1795.73V597.355H1880.65C1882.41 597.355 1883.85 598.019 1884.96 599.346C1886.28 600.451 1886.95 601.889 1886.95 603.658V615.932C1886.95 617.701 1886.28 619.249 1884.96 620.576C1883.85 621.681 1882.41 622.234 1880.65 622.234H1777.15Z" fill="white"/>
<path d="M1638.56 622.234C1636.79 622.234 1635.24 621.681 1633.91 620.576C1632.81 619.249 1632.25 617.701 1632.25 615.932V414.911H1593.11C1591.34 414.911 1589.79 414.358 1588.47 413.253C1587.36 411.926 1586.81 410.378 1586.81 408.609V396.335C1586.81 394.566 1587.36 393.129 1588.47 392.023C1589.79 390.696 1591.34 390.033 1593.11 390.033H1696.61C1698.38 390.033 1699.81 390.696 1700.92 392.023C1702.25 393.129 1702.91 394.566 1702.91 396.335V408.609C1702.91 410.378 1702.25 411.926 1700.92 413.253C1699.81 414.358 1698.38 414.911 1696.61 414.911H1657.13V615.932C1657.13 617.701 1656.47 619.249 1655.14 620.576C1654.04 621.681 1652.6 622.234 1650.83 622.234H1638.56Z" fill="white"/>
<path d="M1462.48 624.888C1451.64 624.888 1441.8 622.234 1432.96 616.927C1424.11 611.619 1417.04 604.432 1411.73 595.365C1406.64 586.077 1404.1 575.794 1404.1 564.516C1404.1 562.746 1404.65 561.309 1405.76 560.203C1407.08 558.876 1408.63 558.213 1410.4 558.213H1423.01C1424.78 558.213 1426.21 558.876 1427.32 560.203C1428.42 561.309 1428.98 562.746 1428.98 564.516C1428.98 575.13 1432.18 583.755 1438.6 590.389C1445.01 596.803 1452.97 600.009 1462.48 600.009C1471.33 600.009 1479.07 596.803 1485.7 590.389C1492.33 583.755 1495.65 575.683 1495.65 566.174C1495.65 559.982 1493.99 554.453 1490.68 549.588C1487.36 544.723 1481.61 538.642 1473.43 531.344L1436.27 498.504C1423.67 487.226 1415.16 478.269 1410.73 471.635C1406.31 464.779 1404.1 456.265 1404.1 446.093C1404.1 435.478 1406.75 425.747 1412.06 416.902C1417.37 407.835 1424.44 400.648 1433.29 395.34C1442.36 390.033 1452.09 387.379 1462.48 387.379C1473.32 387.379 1483.16 390.033 1492 395.34C1500.85 400.648 1507.81 407.945 1512.9 417.233C1517.99 426.3 1520.53 436.473 1520.53 447.751C1520.53 449.52 1519.98 451.068 1518.87 452.395C1517.77 453.501 1516.33 454.054 1514.56 454.054H1501.62C1499.85 454.054 1498.42 453.501 1497.31 452.395C1496.2 451.068 1495.65 449.52 1495.65 447.751C1495.65 437.358 1492.45 428.843 1486.03 422.209C1479.62 415.575 1471.77 412.258 1462.48 412.258C1453.41 412.258 1445.56 415.575 1438.93 422.209C1432.29 428.622 1428.98 436.584 1428.98 446.093C1428.98 451.621 1430.53 456.597 1433.62 461.02C1436.94 465.222 1442.8 471.082 1451.2 478.601L1486.03 509.451C1495.54 517.854 1502.51 524.488 1506.93 529.354C1511.35 534.219 1514.67 539.526 1516.88 545.276C1519.31 551.026 1520.53 557.992 1520.53 566.174C1520.53 576.789 1517.88 586.63 1512.57 595.697C1507.48 604.543 1500.52 611.619 1491.67 616.927C1482.83 622.234 1473.1 624.888 1462.48 624.888Z" fill="white"/>
<path d="M1274.13 622.234C1272.36 622.234 1270.81 621.681 1269.49 620.576C1268.38 619.249 1267.83 617.701 1267.83 615.932V509.782L1219.4 399.321C1218.95 397.994 1218.73 396.999 1218.73 396.335C1218.73 394.566 1219.29 393.129 1220.39 392.023C1221.5 390.696 1222.94 390.033 1224.7 390.033H1237.97C1240.41 390.033 1242.17 391.249 1243.28 393.682L1280.1 479.264L1316.92 393.682C1318.03 391.249 1319.8 390.033 1322.23 390.033H1335.5C1337.27 390.033 1338.7 390.696 1339.81 392.023C1340.92 393.129 1341.47 394.566 1341.47 396.335C1341.47 396.999 1341.25 397.994 1340.81 399.321L1292.71 509.782V615.932C1292.71 617.701 1292.04 619.249 1290.72 620.576C1289.61 621.681 1288.17 622.234 1286.4 622.234H1274.13Z" fill="white"/>
<path d="M1097.72 624.888C1086.89 624.888 1077.04 622.234 1068.2 616.927C1059.35 611.619 1052.28 604.432 1046.97 595.365C1041.88 586.077 1039.34 575.794 1039.34 564.516C1039.34 562.746 1039.89 561.309 1041 560.203C1042.33 558.876 1043.87 558.213 1045.64 558.213H1058.25C1060.02 558.213 1061.45 558.876 1062.56 560.203C1063.67 561.309 1064.22 562.746 1064.22 564.516C1064.22 575.13 1067.43 583.755 1073.84 590.389C1080.25 596.803 1088.21 600.009 1097.72 600.009C1106.57 600.009 1114.31 596.803 1120.94 590.389C1127.58 583.755 1130.89 575.683 1130.89 566.174C1130.89 559.982 1129.24 554.453 1125.92 549.588C1122.6 544.723 1116.85 538.642 1108.67 531.344L1071.52 498.504C1058.91 487.226 1050.4 478.269 1045.97 471.635C1041.55 464.779 1039.34 456.265 1039.34 446.093C1039.34 435.478 1041.99 425.747 1047.3 416.902C1052.61 407.835 1059.69 400.648 1068.53 395.34C1077.6 390.033 1087.33 387.379 1097.72 387.379C1108.56 387.379 1118.4 390.033 1127.24 395.34C1136.09 400.648 1143.06 407.945 1148.14 417.233C1153.23 426.3 1155.77 436.473 1155.77 447.751C1155.77 449.52 1155.22 451.068 1154.11 452.395C1153.01 453.501 1151.57 454.054 1149.8 454.054H1136.86C1135.1 454.054 1133.66 453.501 1132.55 452.395C1131.45 451.068 1130.89 449.52 1130.89 447.751C1130.89 437.358 1127.69 428.843 1121.27 422.209C1114.86 415.575 1107.01 412.258 1097.72 412.258C1088.66 412.258 1080.8 415.575 1074.17 422.209C1067.54 428.622 1064.22 436.584 1064.22 446.093C1064.22 451.621 1065.77 456.597 1068.86 461.02C1072.18 465.222 1078.04 471.082 1086.44 478.601L1121.27 509.451C1130.78 517.854 1137.75 524.488 1142.17 529.354C1146.59 534.219 1149.91 539.526 1152.12 545.276C1154.56 551.026 1155.77 557.992 1155.77 566.174C1155.77 576.789 1153.12 586.63 1147.81 595.697C1142.72 604.543 1135.76 611.619 1126.91 616.927C1118.07 622.234 1108.34 624.888 1097.72 624.888Z" fill="white"/>
<path d="M1775.49 318.234C1773.72 318.234 1772.17 317.681 1770.85 316.576C1769.74 315.249 1769.19 313.701 1769.19 311.932V92.3352C1769.19 90.5661 1769.74 89.1287 1770.85 88.0229C1772.17 86.6961 1773.72 86.0326 1775.49 86.0326H1787.76C1789.53 86.0326 1790.97 86.6961 1792.08 88.0229C1793.4 89.1287 1794.07 90.5661 1794.07 92.3352V189.196H1860.41V92.3352C1860.41 90.5661 1860.96 89.1287 1862.07 88.0229C1863.4 86.6961 1864.94 86.0326 1866.71 86.0326H1878.99C1880.76 86.0326 1882.19 86.6961 1883.3 88.0229C1884.63 89.1287 1885.29 90.5661 1885.29 92.3352V311.932C1885.29 313.701 1884.63 315.249 1883.3 316.576C1882.19 317.681 1880.76 318.234 1878.99 318.234H1866.71C1864.94 318.234 1863.4 317.681 1862.07 316.576C1860.96 315.249 1860.41 313.701 1860.41 311.932V214.075H1794.07V311.932C1794.07 313.701 1793.4 315.249 1792.08 316.576C1790.97 317.681 1789.53 318.234 1787.76 318.234H1775.49Z" fill="white"/>
<path d="M1638.56 318.234C1636.79 318.234 1635.24 317.681 1633.91 316.576C1632.81 315.249 1632.25 313.701 1632.25 311.932V110.911H1593.11C1591.34 110.911 1589.79 110.359 1588.47 109.253C1587.36 107.926 1586.81 106.378 1586.81 104.609V92.3352C1586.81 90.5661 1587.36 89.1287 1588.47 88.0229C1589.79 86.6961 1591.34 86.0326 1593.11 86.0326H1696.61C1698.38 86.0326 1699.81 86.6961 1700.92 88.0229C1702.25 89.1287 1702.91 90.5661 1702.91 92.3352V104.609C1702.91 106.378 1702.25 107.926 1700.92 109.253C1699.81 110.359 1698.38 110.911 1696.61 110.911H1657.13V311.932C1657.13 313.701 1656.47 315.249 1655.14 316.576C1654.04 317.681 1652.6 318.234 1650.83 318.234H1638.56Z" fill="white"/>
<path d="M1412.39 318.234C1410.62 318.234 1409.07 317.681 1407.75 316.576C1406.64 315.249 1406.09 313.701 1406.09 311.932V92.3352C1406.09 90.5661 1406.64 89.1287 1407.75 88.0229C1409.07 86.6961 1410.62 86.0326 1412.39 86.0326H1456.18C1468.78 86.0326 1480.17 89.0181 1490.34 94.989C1500.74 100.96 1508.92 109.142 1514.89 119.536C1520.86 129.709 1523.85 140.987 1523.85 153.371C1523.85 167.082 1519.98 179.577 1512.24 190.855C1504.5 202.133 1494.44 210.316 1482.05 215.402L1522.85 310.273C1523.52 311.821 1523.85 313.148 1523.85 314.254C1523.85 316.907 1522.19 318.234 1518.87 318.234H1503.28C1500.63 318.234 1498.64 316.797 1497.31 313.922L1459.16 220.71H1430.97V311.932C1430.97 313.701 1430.3 315.249 1428.98 316.576C1427.87 317.681 1426.43 318.234 1424.66 318.234H1412.39ZM1456.18 195.831C1468.34 195.831 1478.51 191.74 1486.7 183.557C1494.88 175.154 1498.97 165.092 1498.97 153.371C1498.97 141.429 1494.88 131.367 1486.7 123.185C1478.51 115.003 1468.34 110.911 1456.18 110.911H1430.97V195.831H1456.18Z" fill="white"/>
<path d="M1280.1 320.888C1269.27 320.888 1259.2 318.234 1249.91 312.927C1240.85 307.619 1233.66 300.432 1228.35 291.365C1223.05 282.077 1220.39 272.015 1220.39 261.179V143.088C1220.39 132.252 1223.05 122.3 1228.35 113.233C1233.66 103.945 1240.85 96.6476 1249.91 91.3401C1259.2 86.0326 1269.27 83.3789 1280.1 83.3789C1290.94 83.3789 1300.89 86.0326 1309.96 91.3401C1319.24 96.6476 1326.54 103.945 1331.85 113.233C1337.16 122.3 1339.81 132.252 1339.81 143.088V261.179C1339.81 272.015 1337.16 282.077 1331.85 291.365C1326.54 300.432 1319.24 307.619 1309.96 312.927C1300.89 318.234 1290.94 320.888 1280.1 320.888ZM1280.1 296.009C1289.83 296.009 1298.01 292.581 1304.65 285.726C1311.5 278.87 1314.93 270.688 1314.93 261.179V143.088C1314.93 133.358 1311.5 125.175 1304.65 118.541C1298.01 111.685 1289.83 108.258 1280.1 108.258C1270.59 108.258 1262.41 111.685 1255.55 118.541C1248.7 125.175 1245.27 133.358 1245.27 143.088V261.179C1245.27 270.688 1248.7 278.87 1255.55 285.726C1262.41 292.581 1270.59 296.009 1280.1 296.009Z" fill="white"/>
<path d="M1045.97 318.234C1041.77 318.234 1039.67 316.133 1039.67 311.932V92.3352C1039.67 88.1335 1041.77 86.0326 1045.97 86.0326H1060.24C1063.11 86.0326 1065.21 87.4701 1066.54 90.3449L1130.89 255.208V92.3352C1130.89 88.1335 1132.99 86.0326 1137.2 86.0326H1149.47C1153.67 86.0326 1155.77 88.1335 1155.77 92.3352V311.932C1155.77 316.133 1153.67 318.234 1149.47 318.234H1134.54C1132.11 318.234 1130.34 317.018 1129.23 314.585L1064.55 149.059V311.932C1064.55 316.133 1062.45 318.234 1058.25 318.234H1045.97Z" fill="white"/>
</svg>
