<svg width="838" height="310" viewBox="0 0 838 310" fill="none" xmlns="http://www.w3.org/2000/svg">
<g clip-path="url(#clip0_512_2069)">
<path d="M828.564 107V261.338C813.369 276.533 804.852 285.041 789.666 300.236H48.17C32.9841 285.041 24.4671 276.533 9.28125 261.338V107H828.564Z" fill="#074F39" stroke="#231F20" stroke-width="18.5759" stroke-miterlimit="10"/>
<path d="M48.1793 241.416H789.666L828.573 202.527V48.189L789.675 9.29102H48.1793L9.28125 48.189V202.518L48.1793 241.416Z" fill="#007956" stroke="#231F20" stroke-width="18.5759" stroke-miterlimit="10"/>
<path d="M97.3156 45.0137L61.7891 80.5402V204.767H107.43V90.6548H244.363V102.07H118.845V167.615L155.997 204.767H290.013V159.126H164.486V147.711H252.861L290.013 110.559V82.1656L252.861 45.0137H97.3156Z" fill="#F9F9F4"/>
<path d="M341.967 45.9453C327.46 60.4531 319.323 68.5894 304.816 83.0972V205.698H350.457V148.642H487.389V205.698H533.03V83.0972C518.523 68.5894 510.386 60.4531 495.878 45.9453H341.967ZM350.457 103.001V91.5864H487.389V103.001H350.457Z" fill="#F9F9F4"/>
<path d="M776.057 45.0137H589.341C573.133 61.2212 564.05 70.3049 547.842 86.5124V167.615C562.35 182.123 570.486 190.259 584.994 204.767H738.905C753.413 190.259 761.549 182.123 776.057 167.615V139.222C761.549 124.714 753.413 116.578 738.905 102.07H604.898V147.711H730.416V159.126H593.483V90.6641H776.057V45.0137Z" fill="#F9F9F4"/>
<path d="M621.564 270.901C619.68 270.496 618.118 269.709 616.878 268.54C615.639 267.348 615.019 265.786 615.019 263.855C615.019 261.685 615.829 259.956 617.451 258.668C619.096 257.381 621.123 256.737 623.531 256.737C625.725 256.737 627.645 257.357 629.29 258.597C630.935 259.813 631.889 261.625 632.151 264.034H628.789C628.598 262.603 627.978 261.554 626.929 260.886C625.904 260.218 624.712 259.885 623.352 259.885C622.041 259.885 620.908 260.218 619.955 260.886C619.001 261.53 618.524 262.484 618.524 263.747C618.524 265.75 619.776 267.038 622.279 267.61L624.855 268.183C627.287 268.731 629.195 269.59 630.578 270.758C631.984 271.903 632.688 273.608 632.688 275.873C632.688 278.233 631.865 280.117 630.22 281.524C628.575 282.907 626.476 283.599 623.925 283.599C621.278 283.599 619.084 282.824 617.343 281.274C615.627 279.7 614.697 277.625 614.554 275.05H617.916C618.083 276.767 618.715 278.102 619.811 279.056C620.932 279.986 622.339 280.451 624.032 280.451C625.439 280.451 626.655 280.082 627.68 279.342C628.73 278.579 629.254 277.506 629.254 276.123C629.254 273.834 627.633 272.32 624.39 271.581L621.564 270.901Z" fill="white"/>
<path d="M603.484 274.549C603.889 273.309 604.092 271.843 604.092 270.15C604.092 268.457 603.889 267.002 603.484 265.786C603.102 264.546 602.614 263.592 602.017 262.925C601.421 262.233 600.646 261.697 599.693 261.315C598.763 260.934 597.88 260.695 597.046 260.6C596.235 260.481 595.269 260.421 594.149 260.421H593.219V279.915H594.149C595.269 279.915 596.235 279.867 597.046 279.771C597.88 279.652 598.763 279.402 599.693 279.02C600.646 278.615 601.421 278.078 602.017 277.411C602.614 276.719 603.102 275.765 603.484 274.549ZM589.821 257.202H594.256C603.126 257.202 607.562 261.518 607.562 270.15C607.562 272.534 607.216 274.597 606.524 276.338C605.857 278.055 604.891 279.402 603.627 280.38C602.387 281.333 600.992 282.037 599.442 282.49C597.916 282.919 596.187 283.134 594.256 283.134H589.821V257.202Z" fill="white"/>
<path d="M565.159 260.421C566.828 257.965 569.237 256.737 572.384 256.737C575.532 256.737 577.928 257.965 579.574 260.421C581.243 262.853 582.077 266.096 582.077 270.15C582.077 274.204 581.243 277.459 579.574 279.915C577.928 282.371 575.532 283.599 572.384 283.599C569.237 283.599 566.828 282.371 565.159 279.915C563.514 277.459 562.691 274.204 562.691 270.15C562.691 266.096 563.514 262.853 565.159 260.421ZM578.572 270.15C578.572 263.306 576.51 259.885 572.384 259.885C568.259 259.885 566.196 263.306 566.196 270.15C566.196 277.017 568.259 280.451 572.384 280.451C576.51 280.451 578.572 277.017 578.572 270.15Z" fill="white"/>
<path d="M539.532 260.421C541.201 257.965 543.609 256.737 546.757 256.737C549.905 256.737 552.301 257.965 553.946 260.421C555.616 262.853 556.45 266.096 556.45 270.15C556.45 274.204 555.616 277.459 553.946 279.915C552.301 282.371 549.905 283.599 546.757 283.599C543.609 283.599 541.201 282.371 539.532 279.915C537.887 277.459 537.064 274.204 537.064 270.15C537.064 266.096 537.887 262.853 539.532 260.421ZM552.945 270.15C552.945 263.306 550.882 259.885 546.757 259.885C542.632 259.885 540.569 263.306 540.569 270.15C540.569 277.017 542.632 280.451 546.757 280.451C550.882 280.451 552.945 277.017 552.945 270.15Z" fill="white"/>
<path d="M521.201 259.885C519.151 259.885 517.589 260.767 516.516 262.531C515.467 264.272 514.942 266.8 514.942 270.114C514.942 273.405 515.455 275.956 516.48 277.769C517.529 279.557 519.103 280.451 521.201 280.451C525.231 280.451 527.246 278.21 527.246 273.727V272.904H521.273V269.685H530.358V283.134H527.783L527.64 279.879C526.877 281.19 525.97 282.144 524.921 282.74C523.896 283.313 522.608 283.599 521.058 283.599C517.839 283.599 515.431 282.383 513.833 279.95C512.236 277.518 511.437 274.239 511.437 270.114C511.437 265.989 512.283 262.734 513.976 260.35C515.693 257.941 518.161 256.737 521.38 256.737C523.789 256.737 525.768 257.488 527.318 258.99C528.892 260.493 529.881 262.567 530.286 265.214H526.781C526.28 261.661 524.421 259.885 521.201 259.885Z" fill="white"/>
<path d="M468.159 283.134V260.421H460.361V257.202H479.354V260.421H471.557V283.134H468.159Z" fill="white"/>
<path d="M449.971 275.086H453.369C452.94 277.828 451.926 279.938 450.329 281.417C448.731 282.871 446.74 283.599 444.356 283.599C441.303 283.599 438.99 282.383 437.417 279.95C435.843 277.494 435.056 274.216 435.056 270.114C435.056 266.013 435.891 262.758 437.56 260.35C439.229 257.917 441.578 256.701 444.606 256.701C446.824 256.701 448.719 257.5 450.293 259.098C451.867 260.671 452.868 262.782 453.298 265.429H449.828C449.59 263.807 449.029 262.484 448.147 261.458C447.265 260.409 446.049 259.885 444.499 259.885C442.615 259.885 441.148 260.767 440.099 262.531C439.074 264.296 438.561 266.824 438.561 270.114C438.561 273.357 439.074 275.897 440.099 277.733C441.125 279.545 442.615 280.451 444.57 280.451C446.144 280.451 447.372 279.974 448.254 279.02C449.16 278.043 449.733 276.731 449.971 275.086Z" fill="white"/>
<path d="M420.445 257.202L428.958 283.134H425.31L423.557 277.59H413.649L411.932 283.134H408.284L416.797 257.202H420.445ZM418.621 261.744L414.651 274.406H422.556L418.621 261.744Z" fill="white"/>
<path d="M398.645 283.134L393.566 272.189C393.161 272.213 392.529 272.224 391.671 272.224H388.738V283.134H385.34V257.202H391.671C393.22 257.202 394.544 257.309 395.641 257.524C396.761 257.715 397.799 258.072 398.753 258.597C399.73 259.098 400.457 259.849 400.934 260.85C401.435 261.852 401.686 263.104 401.686 264.606C401.686 268.254 400.124 270.567 397 271.545L402.508 283.134H398.645ZM392.064 260.421H388.738V269.005H392.064C393.065 269.005 393.876 268.97 394.496 268.898C395.116 268.803 395.736 268.624 396.356 268.362C397 268.075 397.465 267.634 397.751 267.038C398.037 266.418 398.18 265.631 398.18 264.677C398.18 263.891 398.073 263.235 397.858 262.71C397.644 262.162 397.37 261.744 397.036 261.458C396.726 261.148 396.273 260.922 395.677 260.779C395.104 260.612 394.556 260.516 394.031 260.493C393.53 260.445 392.875 260.421 392.064 260.421Z" fill="white"/>
<path d="M365.65 283.134V260.421H357.852V257.202H376.845V260.421H369.048V283.134H365.65Z" fill="white"/>
<path d="M333.763 283.134V257.202H341.418C347.093 257.202 349.93 259.336 349.93 263.604C349.93 264.844 349.704 265.977 349.251 267.002C348.798 268.028 348.166 268.791 347.355 269.291C349.716 270.388 350.896 272.439 350.896 275.444C350.896 278.043 350.073 279.974 348.428 281.238C346.807 282.502 344.732 283.134 342.205 283.134H333.763ZM337.161 271.259V279.915H342.491C345.757 279.915 347.391 278.436 347.391 275.479C347.391 273.977 346.974 272.904 346.139 272.26C345.328 271.593 344.029 271.259 342.24 271.259H337.161ZM337.161 260.421V268.218H342.133C345.066 268.218 346.532 266.847 346.532 264.105C346.532 261.649 345.066 260.421 342.133 260.421H337.161Z" fill="white"/>
<path d="M317.937 257.202L326.449 283.134H322.801L321.048 277.59H311.141L309.424 283.134H305.775L314.288 257.202H317.937ZM316.112 261.744L312.142 274.406H320.047L316.112 261.744Z" fill="white"/>
<path d="M266.682 265.107L269.544 278.198L271.475 257.202H274.873L272.262 283.134H267.862L264.858 269.613L261.853 283.134H257.418L254.843 257.202H258.241L260.137 278.198L262.998 265.107H266.682Z" fill="white"/>
<path d="M241.055 257.202L249.568 283.134H245.919L244.167 277.59H234.259L232.542 283.134H228.894L237.407 257.202H241.055ZM239.231 261.744L235.261 274.406H243.165L239.231 261.744Z" fill="white"/>
<path d="M219.255 283.134L214.176 272.189C213.77 272.213 213.139 272.224 212.28 272.224H209.347V283.134H205.949V257.202H212.28C213.83 257.202 215.154 257.309 216.25 257.524C217.371 257.715 218.408 258.072 219.362 258.597C220.34 259.098 221.067 259.849 221.544 260.85C222.045 261.852 222.295 263.104 222.295 264.606C222.295 268.254 220.733 270.567 217.61 271.545L223.118 283.134H219.255ZM212.674 260.421H209.347V269.005H212.674C213.675 269.005 214.486 268.97 215.106 268.898C215.726 268.803 216.346 268.624 216.966 268.362C217.61 268.075 218.075 267.634 218.361 267.038C218.647 266.418 218.79 265.631 218.79 264.677C218.79 263.891 218.683 263.235 218.468 262.71C218.253 262.162 217.979 261.744 217.645 261.458C217.335 261.148 216.882 260.922 216.286 260.779C215.714 260.612 215.165 260.516 214.641 260.493C214.14 260.445 213.484 260.421 212.674 260.421Z" fill="white"/>
</g>
<defs>
<clipPath id="clip0_512_2069">
<rect width="837.859" height="309.522" fill="white"/>
</clipPath>
</defs>
</svg>
