<svg width="167" height="82" viewBox="0 0 167 82" fill="none" xmlns="http://www.w3.org/2000/svg">
<g clip-path="url(#clip0_428_489)">
<path d="M79.4925 82.5986H19.7443C8.85632 82.5986 0 73.5333 0 62.388C0 51.2432 8.85632 42.1779 19.7443 42.1779H60.9497C61.4222 42.1779 61.8082 41.7825 61.8082 41.2992C61.8082 40.8159 61.4222 40.4205 60.9497 40.4205H19.7443C8.85632 40.4205 0 31.3552 0 20.2103C0 9.06532 8.85632 0 19.7443 0H79.4925V19.3315H19.7443C19.2722 19.3315 18.8858 19.727 18.8858 20.2103C18.8858 20.6935 19.2722 21.0889 19.7443 21.0889H60.9497C71.838 21.0889 80.6943 30.1543 80.6943 41.2992C80.6943 52.4443 71.838 61.5096 60.9497 61.5096H19.7443C19.2722 61.5096 18.8858 61.9048 18.8858 62.388C18.8858 62.8717 19.2722 63.2668 19.7443 63.2668H79.4925V82.5986Z" fill="#DE0000"/>
<path d="M124.82 82.5986C113.932 82.5986 105.075 73.5333 105.075 62.388V20.2103C105.075 19.727 104.689 19.3315 104.217 19.3315C103.745 19.3315 103.359 19.727 103.359 20.2103V82.5895H84.4727V20.2103C84.4727 9.06532 93.329 0 104.217 0C115.105 0 123.961 9.06532 123.961 20.2103V62.388C123.961 62.8717 124.348 63.2668 124.82 63.2668C125.292 63.2668 125.678 62.8717 125.678 62.388V20.2103C125.678 9.06532 134.534 0 145.422 0C156.311 0 165.167 9.06532 165.167 20.2103V82.5895H146.281V20.2103C146.281 19.727 145.895 19.3315 145.422 19.3315C144.95 19.3315 144.564 19.727 144.564 20.2103V62.388C144.564 73.5333 135.708 82.5986 124.82 82.5986Z" fill="#DE0000"/>
</g>
<defs>
<clipPath id="clip0_428_489">
<rect width="167" height="82" fill="white"/>
</clipPath>
</defs>
</svg>
