<svg width="947" height="733" viewBox="0 0 947 733" fill="none" xmlns="http://www.w3.org/2000/svg">
<path d="M750.756 237.332L691.762 135.154C688.971 130.32 682.788 128.664 677.955 131.455L561.809 198.514L555.8 188.112L671.946 121.053C676.779 118.262 678.435 112.08 675.645 107.246L616.651 5.05459C613.86 0.220772 607.677 -1.43501 602.843 1.35578L482.585 70.7919C476.47 74.3305 468.925 74.3305 462.81 70.7919L342.565 1.35578C337.731 -1.43501 331.549 0.220772 328.758 5.05459L269.764 107.232C266.973 112.066 268.629 118.249 273.463 121.04L389.608 188.099L383.599 198.501L267.454 131.455C262.62 128.664 256.437 130.32 253.647 135.154L194.653 237.332C191.862 242.166 193.518 248.348 198.351 251.139L318.609 320.575C324.725 324.113 328.491 330.63 328.491 337.707V463.587C328.491 469.168 333.017 473.695 338.599 473.695H456.587C462.169 473.695 466.695 469.168 466.695 463.587V329.481H478.713V463.587C478.713 469.168 483.24 473.695 488.821 473.695H606.809C612.391 473.695 616.918 469.168 616.918 463.587V337.707C616.918 330.643 620.683 324.113 626.799 320.575L747.057 251.139C751.891 248.348 753.546 242.166 750.756 237.332Z" fill="#F03C0B"/>
<path d="M890.271 598.089L901.949 665.75L915.111 598.089H946.439L923.453 697.819H887.861L874.514 624.226L861.167 697.819H825.761L802.775 598.089H834.103L847.264 665.75L858.758 598.089H890.271Z" fill="#F03C0B"/>
<path d="M783.267 608.655C793.401 617.553 798.468 630.529 798.468 647.583C798.468 664.637 793.401 677.675 783.267 686.697C773.134 695.718 760.59 700.229 745.637 700.229C730.683 700.229 718.14 695.718 708.006 686.697C697.872 677.675 692.806 664.637 692.806 647.583C692.806 630.529 697.872 617.553 708.006 608.655C718.14 599.633 730.683 595.123 745.637 595.123C760.59 595.123 773.134 599.633 783.267 608.655ZM729.88 625.709C725.926 630.282 723.948 637.573 723.948 647.583C723.948 657.593 725.864 664.946 729.695 669.642C733.649 674.215 738.963 676.501 745.637 676.501C752.31 676.501 757.562 674.215 761.393 669.642C765.348 664.946 767.325 657.593 767.325 647.583C767.325 637.573 765.348 630.282 761.393 625.709C757.439 621.136 752.187 618.85 745.637 618.85C739.087 618.85 733.835 621.136 729.88 625.709Z" fill="#F03C0B"/>
<path d="M676.826 697.819H646.239V563.424H676.826V697.819Z" fill="#F03C0B"/>
<path d="M536.567 563.424H635.556V591.23H568.266V614.772H631.478V642.763H568.266V697.819H536.567V563.424Z" fill="#F03C0B"/>
<path d="M518.749 666.491C514.548 677.613 507.874 686.017 498.729 691.702C489.708 697.386 479.821 700.229 469.069 700.229C452.633 700.229 439.41 695.533 429.4 686.14C419.39 676.625 414.385 663.71 414.385 647.398C414.385 631.826 419.513 619.221 429.77 609.582C440.151 599.942 452.818 595.123 467.772 595.123C484.208 595.123 497.123 600.807 506.515 612.177C515.907 623.423 520.109 637.944 519.12 655.739H445.156C445.651 662.413 448.061 667.541 452.386 671.125C456.835 674.709 462.087 676.501 468.143 676.501C479.141 676.501 486.618 673.164 490.573 666.491H518.749ZM445.527 637.202H488.719C488.595 631.27 486.556 626.698 482.602 623.485C478.771 620.148 473.827 618.479 467.772 618.479C461.964 618.479 456.958 620.086 452.757 623.299C448.678 626.389 446.269 631.023 445.527 637.202Z" fill="#F03C0B"/>
<path d="M367.969 598.089H398.37V684.472C398.37 701.65 393.674 713.946 384.282 721.361C374.89 728.9 362.531 732.669 347.207 732.669C333.119 732.669 321.688 729.394 312.913 722.844C304.263 716.294 299.072 708.138 297.342 698.375H326.075C328.423 706.902 335.343 711.166 346.837 711.166C360.925 711.166 367.969 704.245 367.969 690.404V678.54C364.879 683.731 360.431 687.685 354.622 690.404C348.937 692.999 343.129 694.297 337.197 694.297C324.097 694.297 313.469 689.972 305.313 681.321C297.28 672.547 293.264 660.435 293.264 644.988C293.264 629.54 297.28 617.491 305.313 608.84C313.469 600.189 324.097 595.864 337.197 595.864C343.129 595.864 348.937 597.223 354.622 599.942C360.431 602.537 364.879 606.43 367.969 611.621V598.089ZM331.08 626.08C327.002 630.282 324.963 636.584 324.963 644.988C324.963 653.391 327.002 659.756 331.08 664.081C335.282 668.407 340.657 670.569 347.207 670.569C361.914 670.569 369.267 662.042 369.267 644.988C369.267 628.057 361.914 619.592 347.207 619.592C340.657 619.592 335.282 621.754 331.08 626.08Z" fill="#F03C0B"/>
<path d="M286.708 627.377C283.371 627.007 280.59 626.821 278.366 626.821C270.827 626.821 265.205 628.428 261.497 631.641C257.79 634.854 255.936 640.23 255.936 647.768V697.819H225.349V598.089H254.824V616.997C259.767 604.391 268.85 597.841 282.073 597.347C284.174 597.347 285.719 597.409 286.708 597.532V627.377Z" fill="#F03C0B"/>
<path d="M194.202 608.655C204.336 617.553 209.403 630.529 209.403 647.583C209.403 664.637 204.336 677.675 194.202 686.697C184.069 695.718 171.525 700.229 156.572 700.229C141.618 700.229 129.075 695.718 118.941 686.697C108.807 677.675 103.741 664.637 103.741 647.583C103.741 630.529 108.807 617.553 118.941 608.655C129.075 599.633 141.618 595.123 156.572 595.123C171.525 595.123 184.069 599.633 194.202 608.655ZM140.815 625.709C136.861 630.282 134.883 637.573 134.883 647.583C134.883 657.593 136.799 664.946 140.63 669.642C144.584 674.215 149.898 676.501 156.572 676.501C163.245 676.501 168.497 674.215 172.328 669.642C176.283 664.946 178.26 657.593 178.26 647.583C178.26 637.573 176.283 630.282 172.328 625.709C168.374 621.136 163.122 618.85 156.572 618.85C150.022 618.85 144.77 621.136 140.815 625.709Z" fill="#F03C0B"/>
<path d="M0 563.424H98.989V591.23H31.6987V614.772H94.9108V642.763H31.6987V697.819H0V563.424Z" fill="#F03C0B"/>
</svg>
