<svg width="2498" height="535" viewBox="0 0 2498 535" fill="none" xmlns="http://www.w3.org/2000/svg">
<path d="M267.603 534.681C267.028 534.681 266.471 534.681 265.896 534.663C194.941 534.176 128.304 506.194 78.2437 455.855C-11.4472 365.625 0.532432 250.877 0.532432 250.877L126.162 250.877C130.515 110.325 190.048 2.21184 265.635 0.174597C265.635 0.174597 371.398 -7.50422 457.38 78.9828C547.036 169.196 535.108 283.961 535.108 283.961L409.461 283.961C406.466 380.199 377.631 461.253 335.441 503.443C316.044 522.84 293.808 534.002 269.971 534.629L269.971 534.663C269.327 534.681 268.682 534.681 267.864 534.698C267.846 534.698 267.829 534.698 267.812 534.698C267.812 534.698 267.777 534.698 267.759 534.698L267.603 534.698L267.603 534.681ZM341.657 97.5096C321.233 56.6428 294.313 33.2058 267.812 33.2058C252.715 33.2058 237.479 40.8151 223.393 54.9016C212.754 65.5406 202.759 79.9057 193.966 97.5096C184.128 117.151 176.24 139.717 170.425 164.234C196.874 139.23 231.281 125.491 267.812 125.509C304.343 125.509 338.749 139.23 365.199 164.234C359.383 139.717 351.495 117.168 341.657 97.5096ZM341.657 437.311C351.478 417.653 359.401 395.104 365.181 370.587C338.749 395.574 304.343 409.312 267.829 409.312C231.315 409.312 196.874 395.574 170.425 370.587C176.24 395.104 184.128 417.653 193.966 437.311C214.391 478.178 241.31 501.615 267.812 501.597C294.313 501.597 321.233 478.178 341.657 437.311Z" fill="white"/>
<path d="M2298.55 215.051L2300.97 207.791C2317.91 206.178 2340.09 196.095 2359.45 196.095L2359.05 245.705C2370.75 218.681 2392.93 192.465 2422.38 192.061C2458.68 191.658 2473.6 223.118 2475.62 254.982C2477.23 287.652 2473.6 412.686 2482.47 430.433C2484.49 434.87 2492.15 436.483 2497.4 436.483V442.937H2424.79V436.483C2430.04 436.483 2437.7 434.87 2439.72 430.433C2446.58 416.72 2445.77 360.253 2445.77 341.699C2445.77 321.936 2445.37 282.005 2444.96 268.292C2443.75 225.942 2425.6 214.245 2411.08 214.245C2392.93 215.051 2365.5 234.008 2358.65 280.392L2358.24 341.699C2357.84 360.253 2357.44 416.72 2363.89 430.433C2365.91 434.87 2373.57 436.483 2378.81 436.483V442.937H2306.62V436.483C2311.86 436.483 2319.52 434.87 2321.54 430.433C2327.99 416.72 2327.59 360.253 2327.59 341.699C2327.59 287.249 2328.8 236.025 2321.14 217.471C2319.52 214.648 2317.51 214.245 2314.68 214.245C2309.84 214.245 2303.39 217.068 2298.55 215.051Z" fill="white"/>
<path d="M2263.71 317.096C2263.71 261.032 2256.85 198.918 2214.1 198.918C2170.94 198.918 2164.49 262.242 2164.49 317.096C2164.49 373.159 2170.94 440.113 2214.1 440.113C2256.85 440.113 2263.71 372.353 2263.71 317.096ZM2214.1 188.431C2264.52 188.431 2300.01 240.058 2300.01 317.096C2300.01 392.923 2264.52 450.197 2214.1 450.197C2162.88 450.197 2127.78 392.923 2127.78 317.096C2127.78 240.865 2162.47 188.431 2214.1 188.431Z" fill="white"/>
<path d="M2034.65 215.051L2037.47 207.791C2054.41 205.775 2076.19 196.095 2095.55 196.095L2094.75 341.699C2094.75 360.253 2093.94 416.72 2100.39 430.433C2102.41 434.87 2110.07 436.483 2115.72 436.483L2115.32 442.937H2043.12V436.483C2048.36 436.483 2056.03 434.87 2058.04 430.433C2064.9 416.72 2064.09 360.253 2064.09 341.699C2064.09 287.249 2064.9 235.622 2057.24 217.471C2055.62 214.648 2053.61 214.245 2050.78 214.245C2045.94 214.245 2039.49 217.068 2034.65 215.051ZM2051.59 141.644C2051.59 129.947 2060.46 119.461 2072.97 119.461C2084.66 119.461 2094.75 129.947 2094.75 141.644C2094.75 154.148 2084.66 164.634 2072.97 164.634C2060.46 164.634 2051.59 154.148 2051.59 141.644Z" fill="white"/>
<path d="M2027.7 209.405H1990.19C1989.38 271.115 1988.58 326.776 1989.38 388.486C1989.79 417.123 1997.45 431.24 2009.15 431.24C2016 431.24 2024.47 426.4 2033.75 416.72L2035.36 428.82C2024.07 441.323 2009.15 448.18 1995.43 448.18C1976.88 448.18 1960.75 436.08 1959.54 411.476C1956.71 371.546 1960.34 239.252 1953.89 213.035C1949.05 208.195 1936.55 209.808 1926.87 209.405V198.515C1949.05 199.321 1978.49 181.171 1984.14 140.837L1991 140.434L1990.19 197.708V198.515H2028.1L2027.7 209.405Z" fill="white"/>
<path d="M1892.28 317.096C1892.28 261.032 1885.42 198.918 1842.67 198.918C1799.51 198.918 1793.06 262.242 1793.06 317.096C1793.06 373.159 1799.51 440.113 1842.67 440.113C1885.42 440.113 1892.28 372.353 1892.28 317.096ZM1842.67 188.431C1893.08 188.431 1928.58 240.058 1928.58 317.096C1928.58 392.923 1893.08 450.197 1842.67 450.197C1791.44 450.197 1756.35 392.923 1756.35 317.096C1756.35 240.865 1791.04 188.431 1842.67 188.431Z" fill="white"/>
<path d="M1611.44 282.812C1611.85 331.616 1610.64 415.913 1617.9 430.433C1619.91 434.87 1627.58 436.483 1632.82 436.483V442.937H1560.22V436.483C1565.46 436.483 1573.13 434.87 1575.14 430.433C1582 416.72 1581.19 360.253 1581.19 341.699C1581.19 321.936 1580.79 282.005 1580.39 268.292C1579.18 227.152 1561.03 214.245 1546.51 214.245C1528.36 215.051 1500.93 234.008 1494.07 280.392L1493.67 341.699C1493.27 360.253 1492.86 416.72 1499.32 430.433C1501.33 434.87 1509 436.483 1514.24 436.483V442.937H1442.04V436.483C1447.29 436.483 1454.95 434.87 1456.97 430.433C1463.42 416.72 1463.02 360.253 1463.02 341.699C1463.02 287.249 1464.23 236.025 1456.56 217.471C1454.95 214.648 1452.93 214.245 1450.11 214.245C1445.27 214.245 1438.82 217.068 1433.98 215.051L1436.4 207.791C1453.34 206.178 1475.52 196.095 1494.88 196.095L1494.48 245.705C1506.17 218.681 1528.36 192.465 1557.8 192.061C1591.68 191.658 1607.41 219.488 1610.64 249.738C1621.53 221.101 1644.52 192.465 1675.58 192.061C1711.88 191.658 1726.8 223.118 1728.82 254.982C1730.43 287.652 1726.8 412.686 1735.67 430.433C1737.69 434.87 1745.35 436.483 1750.6 436.483V442.937H1678V436.483C1683.24 436.483 1690.9 434.87 1692.92 430.433C1699.78 416.72 1698.97 360.253 1698.97 341.699C1698.97 321.936 1698.57 282.005 1698.16 268.292C1696.95 227.152 1678.8 214.245 1664.28 214.245C1645.73 215.051 1617.9 234.815 1611.44 282.812Z" fill="white"/>
<path d="M1242.94 215.051L1245.36 207.791C1262.3 206.178 1284.49 196.095 1303.85 196.095L1303.44 245.705C1315.14 218.681 1337.32 192.465 1366.77 192.061C1403.07 191.658 1417.99 223.118 1420.01 254.982C1421.62 287.652 1417.99 412.686 1426.86 430.433C1428.88 434.87 1436.54 436.483 1441.79 436.483V442.937H1369.19V436.483C1374.43 436.483 1382.09 434.87 1384.11 430.433C1390.97 416.72 1390.16 360.253 1390.16 341.699C1390.16 321.936 1389.76 282.005 1389.35 268.292C1388.14 225.942 1369.99 214.245 1355.47 214.245C1337.32 215.051 1309.9 234.008 1303.04 280.392L1302.64 341.699C1302.23 360.253 1301.83 416.72 1308.28 430.433C1310.3 434.87 1317.96 436.483 1323.21 436.483V442.937H1251.01V436.483C1256.25 436.483 1263.92 434.87 1265.93 430.433C1272.39 416.72 1271.98 360.253 1271.98 341.699C1271.98 287.249 1273.19 236.025 1265.53 217.471C1263.92 214.648 1261.9 214.245 1259.08 214.245C1254.24 214.245 1247.78 217.068 1242.94 215.051Z" fill="white"/>
<path d="M1188.03 377.596C1189.64 354.606 1188.43 329.599 1188.43 306.206C1188.43 304.592 1188.43 302.575 1188.43 300.559C1168.67 338.472 1106.15 344.119 1103.33 391.31C1101.72 415.51 1117.04 427.61 1137.61 427.61C1165.85 427.61 1184.8 404.216 1188.03 377.596ZM1187.63 410.266C1173.51 432.853 1152.54 448.583 1124.71 448.583C1095.67 448.583 1067.43 431.24 1068.64 392.923C1071.06 329.599 1163.02 336.052 1188.43 282.005C1188.03 244.898 1184.4 202.951 1147.29 202.951C1108.17 203.355 1103.73 242.478 1102.52 279.182C1098.49 286.442 1090.83 288.055 1083.97 288.055C1077.11 288.055 1070.66 282.812 1070.66 275.955C1070.66 224.328 1107.77 192.061 1150.92 192.061C1187.63 192.061 1216.26 217.471 1219.09 260.225C1219.49 269.502 1219.49 278.779 1219.49 288.055C1219.49 311.449 1216.67 409.863 1225.94 424.786C1227.56 427.206 1229.57 428.417 1232.4 428.417C1236.43 428.417 1240.46 426.4 1244.9 426.4C1246.11 426.4 1247.32 426.803 1248.53 427.206L1245.71 434.467C1227.96 436.483 1206.18 447.777 1187.63 447.777V410.266Z" fill="white"/>
<path d="M859.685 122.284L862.508 114.621C879.449 113.007 901.229 103.327 920.589 103.327L920.186 246.512C931.479 219.085 954.066 192.465 983.913 192.061C1020.21 191.658 1035.14 223.118 1036.75 254.982C1038.77 287.652 1035.14 412.686 1043.61 430.433C1045.62 434.87 1053.29 436.483 1058.93 436.483L1058.53 442.937H986.333V436.483C991.576 436.483 999.24 434.87 1001.26 430.433C1007.71 416.72 1007.31 360.253 1007.31 341.699C1007.31 321.936 1006.9 282.005 1006.5 268.292C1004.89 225.942 987.139 214.245 972.216 214.245C954.066 215.051 926.639 234.412 919.782 282.005L919.379 341.699C919.379 360.253 918.572 416.72 925.429 430.433C927.446 434.87 935.109 436.483 940.352 436.483V442.937H868.155L867.752 436.483C873.399 436.483 880.659 434.87 883.079 430.433C889.532 416.72 888.725 360.253 889.129 341.699C889.129 287.249 889.935 142.854 882.675 124.301C881.062 121.881 879.045 121.074 876.222 121.074C871.382 121.074 864.928 123.897 859.685 122.284Z" fill="white"/>
<path d="M755.996 112.604H750.349C744.703 112.604 742.283 115.831 742.283 121.881L741.476 314.272L709.612 312.256C710.016 194.481 707.596 129.544 702.756 118.654C699.932 113.007 693.882 109.377 682.992 110.184V103.327L742.283 102.924L757.206 103.327C821.74 103.731 856.83 129.544 856.83 190.448C856.83 247.722 823.353 288.055 769.71 288.862L735.023 289.265L735.426 278.779L762.45 278.375C797.943 278.375 821.337 243.285 820.933 190.851C820.127 132.771 797.943 111.797 755.996 112.604ZM709.612 312.256L741.476 314.272C741.073 372.756 739.459 416.316 747.526 430.433C749.543 433.66 755.189 435.677 763.256 436.483V442.937H686.219V436.483C695.496 435.677 701.546 433.66 703.562 430.433C711.226 417.123 710.016 371.546 709.612 312.256Z" fill="white"/>
</svg>
