<svg width="935" height="423" viewBox="0 0 935 423" fill="none" xmlns="http://www.w3.org/2000/svg">
<g clip-path="url(#clip0_512_1857)">
<path d="M931.89 179.802C926.794 193.185 913.728 202.192 899.414 202.192H861.631C853.152 232.343 847.38 255.896 843.532 274.27C848.712 274.46 853.892 275.792 858.523 278.181C862.963 280.443 866.684 283.551 869.665 287.167C869.983 287.526 870.278 287.907 870.574 288.266C870.892 288.626 871.188 289.006 871.505 289.387C871.822 289.746 872.118 290.106 872.414 290.486C872.731 290.846 873.027 291.226 873.344 291.586C873.661 291.945 873.957 292.326 874.253 292.685C874.571 293.045 874.867 293.425 875.184 293.806C875.501 294.144 875.797 294.525 876.093 294.905C876.41 295.265 876.706 295.624 877.002 296.005C877.34 296.364 877.636 296.745 877.932 297.104C878.25 297.464 878.545 297.844 878.841 298.204C879.18 298.563 879.455 298.944 879.772 299.324C880.089 299.684 880.385 300.043 880.681 300.424C880.998 300.783 881.294 301.164 881.611 301.523C881.928 301.883 882.224 302.263 882.52 302.623C882.838 302.982 883.134 303.363 883.451 303.743C883.768 304.103 884.064 304.462 884.36 304.843C884.677 305.202 884.973 305.583 885.29 305.942C885.607 306.302 885.903 306.682 886.199 307.042C886.517 307.401 886.812 307.782 887.13 308.141C887.447 308.5 887.743 308.881 888.039 309.262C888.356 309.621 888.652 309.98 888.948 310.361C889.286 310.72 889.561 311.101 889.878 311.46C890.195 311.82 890.491 312.201 890.787 312.56C891.105 312.919 891.401 313.3 891.718 313.681C892.035 314.04 892.331 314.399 892.627 314.78C892.944 315.139 893.24 315.52 893.557 315.879C893.874 316.239 894.17 316.619 894.466 316.979C894.783 317.338 895.079 317.719 895.397 318.099C895.714 318.438 896.01 318.818 896.306 319.199C896.623 319.558 896.919 319.918 897.215 320.298C905.926 330.003 908.801 344.042 903.769 356.897C887.743 397.767 861.441 419.354 827.675 419.354C805.644 419.354 788.37 412.377 776.339 398.592C776.064 398.296 775.832 397.978 775.578 397.682C775.536 397.619 775.472 397.556 775.409 397.492C775.155 397.196 774.923 396.879 774.669 396.562C774.606 396.498 774.542 396.435 774.5 396.372C774.225 396.076 773.992 395.758 773.739 395.462C773.696 395.399 773.633 395.336 773.569 395.272C773.316 394.976 773.083 394.659 772.829 394.363C772.766 394.3 772.703 394.236 772.66 394.173C772.407 393.877 772.174 393.56 771.92 393.264C771.857 393.2 771.793 393.137 771.73 393.073C771.476 392.777 771.244 392.46 770.99 392.143C770.927 392.08 770.884 392.037 770.821 391.953C770.567 391.678 770.335 391.339 770.081 391.043C770.017 390.98 769.954 390.917 769.891 390.853C769.637 390.557 769.404 390.24 769.151 389.944C769.087 389.881 769.045 389.817 768.981 389.754C768.728 389.458 768.495 389.141 768.241 388.845L768.051 388.654C767.797 388.358 767.565 388.041 767.311 387.745C767.269 387.661 767.205 387.618 767.142 387.555C766.888 387.259 766.656 386.921 766.402 386.625C766.339 386.561 766.275 386.498 766.233 386.434C765.958 386.138 765.725 385.821 765.472 385.525C765.429 385.462 765.366 385.398 765.302 385.335C765.049 385.039 764.816 384.722 764.562 384.426C764.499 384.362 764.436 384.299 764.393 384.235C764.118 383.939 763.886 383.622 763.632 383.326C763.59 383.263 763.526 383.199 763.463 383.136C763.209 382.84 762.977 382.523 762.723 382.206C762.66 382.142 762.596 382.079 762.554 382.015C762.3 381.719 762.046 381.402 761.814 381.106L761.624 380.916C761.37 380.62 761.137 380.303 760.884 380.007C760.82 379.943 760.778 379.88 760.714 379.816C760.461 379.52 760.228 379.203 759.974 378.907L759.784 378.717C759.53 378.421 759.298 378.104 759.044 377.787C758.981 377.723 758.938 377.681 758.875 377.618C758.621 377.322 758.389 376.983 758.135 376.687L757.945 376.497C757.691 376.201 757.458 375.884 757.205 375.588C757.162 375.524 757.099 375.461 757.035 375.398C756.782 375.102 756.549 374.784 756.296 374.488C756.232 374.425 756.169 374.362 756.126 374.298C755.851 374.002 755.619 373.685 755.365 373.389C755.323 373.304 755.259 373.262 755.196 373.199C755.111 373.093 755.048 373.008 754.985 372.924C726.547 402.609 692.781 419.354 658.931 419.354C634.13 419.354 610.006 408.571 594.465 390.473C594.148 390.134 593.852 389.754 593.556 389.394C593.26 389.056 592.964 388.675 592.668 388.316C592.647 388.316 592.647 388.316 592.647 388.316C592.351 387.978 592.034 387.597 591.738 387.238C591.738 387.238 591.738 387.238 591.717 387.238C591.421 386.878 591.125 386.519 590.829 386.159H590.808C590.512 385.779 590.216 385.419 589.899 385.039H589.877C589.581 384.679 589.285 384.299 588.989 383.939C588.693 383.601 588.397 383.221 588.08 382.861V382.84C587.784 382.481 587.488 382.121 587.192 381.762H587.171C586.875 381.402 586.579 381.043 586.283 380.683C586.283 380.683 586.269 380.669 586.241 380.641C585.945 380.303 585.649 379.922 585.353 379.563C585.353 379.563 585.332 379.563 585.332 379.542C585.036 379.203 584.74 378.823 584.444 378.463V378.442C584.148 378.104 583.83 377.723 583.534 377.364C583.238 376.983 582.942 376.624 582.646 376.264C582.646 376.264 582.646 376.25 582.646 376.222C582.35 375.884 582.033 375.503 581.737 375.144C581.441 374.784 581.145 374.404 580.849 374.044C580.828 374.044 580.828 374.044 580.828 374.044C580.532 373.706 580.215 373.325 579.919 372.966V372.945C579.623 372.585 579.327 372.226 579.031 371.867H579.01C578.714 371.507 578.418 371.148 578.101 370.767H578.079C577.783 370.408 577.487 370.027 577.191 369.668C576.895 369.329 576.599 368.949 576.303 368.589C576.303 368.589 576.303 368.589 576.261 368.589C575.965 368.251 575.669 367.871 575.373 367.511C575.077 367.152 574.781 366.792 574.485 366.433C574.485 366.433 574.478 366.419 574.464 366.391C574.147 366.052 573.851 365.672 573.555 365.312C573.555 365.312 573.555 365.312 573.555 365.291C573.259 364.953 572.963 364.572 572.667 364.213C572.646 364.213 572.646 364.192 572.646 364.192C572.35 363.853 572.033 363.473 571.737 363.113C571.737 363.113 571.729 363.106 571.715 363.092C571.419 362.733 571.123 362.373 570.827 362.014C570.531 361.633 570.235 361.274 569.918 360.914C569.918 360.914 569.911 360.9 569.897 360.872C569.601 360.534 569.305 360.153 569.009 359.794C568.713 359.434 568.417 359.054 568.1 358.694V358.673C567.804 358.314 567.508 357.954 567.212 357.595H567.191C566.895 357.236 566.599 356.876 566.303 356.517C566.303 356.517 566.289 356.503 566.26 356.474C565.732 355.861 565.182 355.206 564.654 354.529C544.06 390.071 520.972 411.468 496.34 417.684L481.117 419.608C466.147 419.608 447.964 415.083 433.502 397.788C433.185 397.429 432.889 397.048 432.572 396.689C432.276 396.329 431.98 395.949 431.663 395.589C431.346 395.23 431.05 394.849 430.754 394.469C430.437 394.13 430.141 393.729 429.823 393.369C429.506 393.01 429.21 392.629 428.914 392.27C428.597 391.91 428.301 391.53 427.984 391.17C427.984 391.17 427.977 391.17 427.963 391.17C420.732 400.431 412.803 407.535 404.409 412.335C396.015 417.134 387.156 419.608 378.001 419.608C359.607 419.608 342.312 410.728 329.161 395.103C310.618 413.434 288.608 422.716 263.49 422.716C238.372 422.716 215.96 412.25 199.13 392.27C198.813 391.91 198.517 391.53 198.221 391.17C197.904 390.811 197.608 390.43 197.29 390.071C196.994 389.711 196.677 389.331 196.381 388.971C196.064 388.612 195.768 388.231 195.451 387.851C195.155 387.513 194.838 387.132 194.542 386.751C194.225 386.392 193.929 386.011 193.612 385.652C193.316 385.293 193.02 384.912 192.702 384.553C192.385 384.193 192.089 383.813 191.793 383.453C191.476 383.094 191.18 382.713 190.863 382.332C190.546 381.973 190.25 381.592 189.954 381.233C189.637 380.874 189.341 380.493 189.023 380.134C188.706 379.774 188.41 379.394 188.114 379.034C187.797 378.675 187.501 378.294 187.184 377.914C186.888 377.554 186.571 377.174 186.275 376.814C185.958 376.455 185.662 376.074 185.345 375.715C185.049 375.355 184.731 374.975 184.435 374.615C184.118 374.256 183.822 373.875 183.505 373.495C183.209 373.135 182.913 372.776 182.596 372.395C182.279 372.036 181.983 371.655 181.687 371.296C181.37 370.936 181.074 370.556 180.756 370.196C180.439 369.837 180.143 369.456 179.847 369.097C179.53 368.737 179.234 368.357 178.917 367.976C178.6 367.617 178.304 367.236 178.008 366.877C177.691 366.517 177.395 366.137 177.078 365.777C176.782 365.418 176.464 365.037 176.168 364.678C175.851 364.318 175.555 363.938 175.238 363.557C174.942 363.198 174.625 362.838 174.329 362.458C174.012 362.098 173.716 361.718 173.399 361.358C173.103 360.999 172.807 360.618 172.489 360.259C172.172 359.9 171.876 359.519 171.58 359.16C170.608 358.039 169.677 356.876 168.747 355.692C145.638 393.306 112.845 418.382 81.9754 418.382C79.544 418.382 77.1125 418.213 74.7445 417.917C61.7625 416.119 51.2121 410.39 43.4737 401.129C43.1142 400.727 42.7548 400.304 42.4165 399.881C42.0994 399.522 41.8034 399.141 41.4862 398.782C41.1691 398.422 40.8731 398.042 40.577 397.661C40.2599 397.323 39.9639 396.942 39.6467 396.562C39.3507 396.202 39.0336 395.843 38.7376 395.462C38.4204 395.103 38.1244 394.722 37.8073 394.363C37.5113 394.004 37.1941 393.623 36.8981 393.264C36.581 392.904 36.285 392.524 35.989 392.143C35.6718 391.784 35.3758 391.424 35.0587 391.043C34.7415 390.684 34.4455 390.303 34.1495 389.944C33.8324 389.585 33.5364 389.204 33.2192 388.845C32.9021 388.485 32.6061 388.105 32.3101 387.724C31.9929 387.386 31.6969 387.005 31.3798 386.625C31.0626 386.265 30.7666 385.885 30.4706 385.525C30.1535 385.166 29.8574 384.785 29.5403 384.426C29.2232 384.066 28.9271 383.686 28.6311 383.326C28.314 382.967 28.018 382.586 27.7008 382.206C27.4048 381.846 27.0877 381.487 26.7917 381.106C26.4745 380.747 26.1785 380.366 25.8825 380.007C25.5654 379.647 25.2694 379.267 24.9522 378.907C24.6351 378.548 24.3391 378.167 24.0431 377.787C23.7259 377.427 23.4299 377.068 23.1128 376.687C22.7956 376.328 22.4996 375.947 22.2036 375.588C21.8865 375.228 21.5905 374.848 21.2733 374.488C20.9562 374.129 20.6602 373.748 20.3641 373.389C20.047 373.029 19.751 372.649 19.4338 372.268C19.1378 371.909 18.8207 371.528 18.5247 371.169C18.2075 370.809 17.9115 370.429 17.5944 370.069C17.2984 369.71 16.9812 369.329 16.6852 368.97C16.3258 368.547 15.9664 368.103 15.6069 367.659C12.1183 363.642 9.1794 358.948 6.8325 353.578C-15.7907 301.756 23.4299 194.116 75.6959 115.801C73.9622 114.3 72.3976 112.693 71.0233 110.96C70.7061 110.6 70.4101 110.241 70.093 109.86C69.797 109.501 69.4798 109.12 69.1838 108.761C68.8667 108.401 68.5706 108.021 68.2746 107.661C67.9575 107.281 67.6403 106.921 67.3443 106.541C67.0272 106.181 66.7312 105.822 66.4352 105.441C66.118 105.082 65.8009 104.722 65.5049 104.342C65.1877 103.982 64.8917 103.602 64.5957 103.242C64.2786 102.883 63.9614 102.502 63.6654 102.122C63.3483 101.762 63.0523 101.403 62.7563 101.022C62.4391 100.663 62.1431 100.303 61.826 99.9228C61.5088 99.5633 61.2128 99.1828 60.9168 98.8233C60.5997 98.4639 60.3037 98.0833 59.9865 97.7239C59.6905 97.3433 59.3734 96.9839 59.0773 96.6033C58.7602 96.2438 58.4642 95.8844 58.1682 95.5038C57.851 95.1444 57.5339 94.7638 57.2379 94.4044C56.9207 94.045 56.6247 93.6644 56.3287 93.3049C56.0116 92.9244 55.6944 92.5649 55.3984 92.1844C55.0813 91.8249 54.7853 91.4655 54.4893 91.0849C54.1721 90.7255 53.855 90.366 53.559 89.9855C53.2418 89.626 52.9458 89.2455 52.6498 88.886C52.3327 88.5266 52.0367 88.146 51.7195 87.7654C51.4024 87.406 51.1064 87.0466 50.8104 86.666C50.4932 86.3065 50.1972 85.9471 49.8801 85.5665C49.5841 85.2071 49.2669 84.8265 48.9709 84.4671C48.6537 84.1077 48.3577 83.7271 48.0617 83.3676C47.7446 82.9871 47.4274 82.6276 47.1314 82.2471C46.8143 81.8876 46.5183 81.5282 46.2223 81.1476C45.9051 80.7882 45.588 80.4076 45.292 80.0482C44.9748 79.6887 44.6788 79.3081 44.3828 78.9487C44.0657 78.5893 43.7485 78.2087 43.4525 77.8281C32.6695 65.4594 31.3375 47.3608 40.9153 33.3851C47.7234 23.4901 58.9716 17.57 70.981 17.57C78.9942 17.57 86.6058 20.1283 92.991 24.9913C103.457 32.9622 112.95 42.0538 121.407 52.1603C121.725 52.5197 122.021 52.9003 122.338 53.2597C122.655 53.6192 122.951 53.9997 123.247 54.3592C123.564 54.7186 123.86 55.0992 124.156 55.4586C159.571 19.0077 195.578 0 228.752 0C253.066 0 273.913 9.21843 289.073 26.6616C289.348 26.9787 289.581 27.2959 289.855 27.613L290.003 27.761C290.278 28.0782 290.511 28.3953 290.765 28.7125C290.828 28.7548 290.87 28.8182 290.913 28.8605C291.187 29.1776 291.42 29.4948 291.695 29.8119C291.737 29.8753 291.779 29.9176 291.843 29.9811C292.097 30.2771 292.35 30.6154 292.604 30.9114C292.667 30.9748 292.71 31.0171 292.752 31.0805C293.027 31.3765 293.259 31.7148 293.534 32.0319L293.682 32.18C293.936 32.4971 294.19 32.8142 294.443 33.1314C294.486 33.1737 294.549 33.2371 294.591 33.2794C294.866 33.5965 295.099 33.9137 295.374 34.2308C295.416 34.2943 295.458 34.3366 295.522 34.4C295.775 34.696 296.029 35.0131 296.283 35.3303C296.325 35.3937 296.389 35.436 296.431 35.4994C296.706 35.7954 296.938 36.1337 297.213 36.4297C297.256 36.4932 297.298 36.5354 297.34 36.5989C297.615 36.916 297.869 37.2332 298.122 37.5503L298.27 37.6983C298.545 38.0155 298.778 38.3326 299.032 38.6498C299.095 38.7132 299.137 38.7555 299.18 38.7978C299.454 39.1149 299.687 39.4321 299.962 39.7492C300.004 39.8126 300.068 39.8549 300.11 39.9184C300.385 40.2144 300.617 40.5527 300.871 40.8487C300.934 40.9121 300.977 40.9544 301.019 41.0178C301.294 41.335 301.526 41.6521 301.801 41.9693L301.949 42.1173C302.203 42.4344 302.457 42.7516 302.71 43.0687C302.774 43.111 302.816 43.1744 302.858 43.2167C303.133 43.5339 303.366 43.851 303.641 44.1681C303.683 44.2316 303.725 44.2739 303.789 44.3373C304.042 44.6333 304.296 44.9716 304.55 45.2676C304.592 45.331 304.656 45.3733 304.698 45.4367C304.973 45.7327 305.205 46.071 305.48 46.367C305.522 46.4305 305.565 46.4728 305.628 46.5362C305.882 46.8533 306.136 47.1705 306.389 47.4876C306.432 47.5299 306.495 47.5933 306.537 47.6356C306.812 47.9528 307.045 48.2699 307.32 48.5871C307.362 48.6505 307.404 48.6928 307.447 48.7562C307.721 49.0522 307.975 49.3694 308.229 49.6865C308.271 49.75 308.335 49.7922 308.377 49.8557C308.652 50.1517 308.884 50.49 309.138 50.786C309.201 50.8494 309.244 50.8917 309.286 50.9551C309.561 51.2723 309.793 51.5894 310.068 51.9066L310.216 52.0546C310.491 52.3717 310.724 52.6889 310.977 53.006L311.125 53.154C311.4 53.4712 311.633 53.7883 311.908 54.1055C311.95 54.1689 311.992 54.2112 312.056 54.2746C312.309 54.5706 312.563 54.9089 312.817 55.2049C312.88 55.2683 312.923 55.3106 312.965 55.374C313.24 55.67 313.472 56.0083 313.747 56.3255C313.789 56.3678 313.832 56.4312 313.895 56.4735C314.149 56.7906 314.403 57.1078 314.656 57.4249C314.72 57.4672 314.762 57.5306 314.804 57.5729C315.079 57.8901 315.312 58.2072 315.587 58.5244C315.629 58.5878 315.671 58.6301 315.735 58.6935C315.988 58.9895 316.242 59.3278 316.496 59.6238C316.538 59.6873 316.602 59.7295 316.644 59.793C316.919 60.089 317.151 60.4273 317.426 60.7233C317.468 60.7867 317.511 60.829 317.553 60.8924C325.545 70.0686 331.254 80.5767 335.144 91.5289C338.929 90.9581 342.946 90.6198 347.259 90.6198C357.471 90.6198 366.203 94.6793 372.25 102.016C372.568 102.375 372.864 102.756 373.181 103.115C373.498 103.475 373.794 103.855 374.09 104.236C374.407 104.574 374.703 104.955 375.02 105.335C375.337 105.674 375.633 106.054 375.929 106.435C376.247 106.794 376.543 107.175 376.839 107.534C377.177 107.894 377.473 108.274 377.769 108.655C378.086 108.993 378.382 109.374 378.678 109.754C378.995 110.093 379.291 110.473 379.608 110.854C379.925 111.213 380.221 111.594 380.517 111.953C380.835 112.313 381.131 112.693 381.448 113.053C381.765 113.412 382.061 113.793 382.357 114.173C382.674 114.512 382.97 114.892 383.287 115.273C383.604 115.632 383.9 116.013 384.196 116.372C384.514 116.732 384.809 117.112 385.127 117.472C385.444 117.831 385.74 118.212 386.036 118.592C386.353 118.931 386.649 119.311 386.945 119.692C387.283 120.03 387.579 120.411 387.875 120.791C388.192 121.151 388.488 121.531 388.784 121.891C389.102 122.25 389.398 122.631 389.715 122.99C390.032 123.349 390.328 123.73 390.624 124.111C390.941 124.449 391.237 124.829 391.554 125.21C391.871 125.569 392.167 125.95 392.463 126.309C392.78 126.669 393.076 127.049 393.394 127.409C393.711 127.768 394.007 128.149 394.303 128.53C394.62 128.868 394.916 129.248 395.233 129.629C395.55 129.988 395.846 130.369 396.142 130.728C396.459 131.088 396.755 131.468 397.073 131.828C397.39 132.187 397.686 132.568 397.982 132.927C398.299 133.287 398.595 133.667 398.891 134.048C399.208 134.386 399.504 134.767 399.821 135.147C400.773 136.204 401.703 137.346 402.528 138.551C405.678 143.182 407.686 148.742 408.49 154.641C411.873 153.669 415.425 153.14 419.104 153.14C429.718 153.14 439.951 157.58 447.182 165.34C448.112 166.334 448.979 167.37 449.783 168.427C450.079 168.807 450.396 169.146 450.692 169.547C450.988 169.907 451.326 170.266 451.622 170.647C451.918 171.006 452.235 171.366 452.531 171.746C452.827 172.127 453.165 172.465 453.44 172.846C453.757 173.226 454.075 173.565 454.371 173.945C454.667 174.326 455.005 174.685 455.28 175.066C455.597 175.425 455.914 175.785 456.21 176.165C456.506 176.525 456.844 176.884 457.119 177.265C457.415 177.645 457.754 177.983 458.05 178.364C458.346 178.745 458.684 179.104 458.959 179.485C459.255 179.844 459.593 180.204 459.889 180.584C460.185 180.944 460.502 181.303 460.798 181.684C461.094 182.064 461.432 182.402 461.707 182.783C462.024 183.164 462.342 183.502 462.638 183.904C462.934 184.263 463.272 184.622 463.547 185.003C463.864 185.362 464.181 185.722 464.477 186.102C464.773 186.483 465.111 186.821 465.386 187.202C465.703 187.582 466.021 187.921 466.317 188.301C466.613 188.682 466.951 189.041 467.226 189.422C467.522 189.781 467.86 190.141 468.156 190.521C468.452 190.881 468.79 191.24 469.065 191.621C469.361 192.001 469.699 192.34 469.995 192.72C470.291 193.101 470.609 193.46 470.905 193.841C471.201 194.2 471.539 194.56 471.814 194.94C472.131 195.3 472.448 195.659 472.744 196.04C473.04 196.42 473.378 196.759 473.653 197.139C473.97 197.52 474.288 197.858 474.584 198.26C474.88 198.619 475.218 198.979 475.493 199.359C475.81 199.719 476.127 200.078 476.423 200.459C476.719 200.818 477.057 201.178 477.332 201.558C483.464 209.085 486.593 218.748 485.895 228.473C484.923 242.661 484.457 256.15 484.394 268.667C494.543 243.464 504.776 211.728 511.161 181.937C514.734 165.234 529.725 153.14 546.809 153.14C558.099 153.14 568.544 158.215 575.521 167.074C575.627 167.2 575.711 167.348 575.796 167.475C576.007 167.708 576.24 167.94 576.43 168.173C576.536 168.3 576.621 168.448 576.726 168.575C576.938 168.807 577.149 169.04 577.361 169.294C577.445 169.42 577.551 169.547 577.635 169.674C577.847 169.928 578.079 170.139 578.27 170.393C578.375 170.52 578.46 170.647 578.566 170.774C578.756 171.027 578.989 171.239 579.2 171.492C579.285 171.619 579.39 171.746 579.475 171.873C579.686 172.127 579.919 172.338 580.109 172.592C580.215 172.719 580.3 172.867 580.405 172.994C580.596 173.226 580.828 173.459 581.04 173.713C581.124 173.839 581.23 173.966 581.314 174.093C581.526 174.347 581.758 174.558 581.949 174.812C582.054 174.939 582.139 175.066 582.245 175.193C582.435 175.446 582.668 175.658 582.858 175.911C582.964 176.038 583.048 176.165 583.154 176.292C583.365 176.546 583.598 176.757 583.788 177.011C583.894 177.138 583.978 177.286 584.084 177.413C584.274 177.645 584.507 177.878 584.697 178.131C584.803 178.258 584.888 178.385 584.993 178.512C585.205 178.766 585.416 178.977 585.628 179.231C585.733 179.358 585.818 179.485 585.902 179.611C586.114 179.865 586.346 180.077 586.537 180.33C586.642 180.457 586.727 180.584 586.833 180.711C587.044 180.965 587.256 181.176 587.467 181.43C587.552 181.557 587.657 181.705 587.742 181.832C587.953 182.064 588.186 182.297 588.376 182.529C588.482 182.656 588.567 182.804 588.672 182.931C588.863 183.164 589.095 183.396 589.307 183.65C589.391 183.777 589.497 183.904 589.581 184.03C589.793 184.284 590.025 184.496 590.216 184.749C590.321 184.876 590.406 185.003 590.512 185.13C590.702 185.384 590.935 185.595 591.146 185.849C591.231 185.976 591.336 186.102 591.421 186.229C591.632 186.483 591.865 186.694 592.055 186.948C592.161 187.075 592.245 187.223 592.351 187.35C592.541 187.582 592.774 187.815 592.964 188.069C593.07 188.174 593.155 188.322 593.26 188.428C601.802 178.766 611.147 170.52 621.338 163.86C646.731 147.241 671.723 143.753 688.214 143.753C711.514 143.753 725.215 152.823 732.615 160.435C733.567 161.407 734.455 162.422 735.3 163.458C735.617 163.818 735.913 164.198 736.231 164.558C736.527 164.917 736.844 165.298 737.14 165.657C737.457 166.038 737.753 166.397 738.049 166.778C738.366 167.137 738.662 167.496 738.979 167.877C739.296 168.236 739.592 168.617 739.888 168.976C740.206 169.336 740.502 169.716 740.819 170.076C741.136 170.435 741.432 170.816 741.728 171.196C742.045 171.556 742.341 171.915 742.658 172.296C742.975 172.655 743.271 173.036 743.567 173.395C743.884 173.755 744.18 174.135 744.498 174.495C744.815 174.854 745.111 175.235 745.407 175.594C745.724 175.975 746.02 176.334 746.337 176.715C746.654 177.074 746.95 177.455 747.246 177.814C747.563 178.174 747.859 178.554 748.155 178.914C748.473 179.273 748.79 179.654 749.086 180.013C749.403 180.373 749.699 180.753 749.995 181.134C750.312 181.493 750.608 181.853 750.925 182.233C751.242 182.593 751.538 182.973 751.834 183.333C751.982 183.481 752.088 183.65 752.236 183.798C753.695 177.835 755.154 172.085 756.676 166.439C756.38 166.122 756.147 165.784 755.873 165.446C755.555 165.107 755.259 164.727 754.963 164.346C754.625 163.987 754.35 163.606 754.033 163.247C753.716 162.887 753.42 162.507 753.124 162.147C752.786 161.788 752.511 161.407 752.194 161.027C751.877 160.688 751.581 160.308 751.285 159.927C750.967 159.589 750.671 159.187 750.354 158.828C750.037 158.468 749.741 158.088 749.445 157.728C749.128 157.369 748.832 156.988 748.515 156.629C747.606 155.614 746.718 154.557 745.914 153.415C739.402 144.323 737.668 132.589 741.284 121.996C746.083 107.915 759.298 98.4427 774.183 98.4427H777.756C779.955 91.9095 782.302 85.0168 784.839 77.6167C789.829 62.9644 803.572 53.1329 819.027 53.1329C830.17 53.1329 840.361 58.0592 847.254 66.6857C847.55 67.0662 847.867 67.4257 848.163 67.8062C848.48 68.1657 848.776 68.5251 849.072 68.9057C849.389 69.2651 849.706 69.6246 850.002 70.0051C850.319 70.3646 850.615 70.7452 850.911 71.1046C851.228 71.464 851.546 71.8446 851.842 72.2252C852.159 72.5846 852.455 72.944 852.751 73.3246C853.068 73.6841 853.385 74.0435 853.681 74.4241C853.977 74.7835 854.294 75.1641 854.59 75.5235C854.907 75.8829 855.203 76.2635 855.521 76.6441C855.817 77.0035 856.134 77.363 856.43 77.7435C856.747 78.103 857.043 78.4624 857.36 78.843C857.656 79.2024 857.973 79.5619 858.269 79.9424C858.586 80.3019 858.882 80.6825 859.199 81.0419C859.495 81.4225 859.813 81.7819 860.109 82.1625C860.426 82.5219 860.722 82.8813 861.018 83.2619C861.335 83.6214 861.652 83.9808 861.948 84.3614C862.265 84.7208 862.561 85.1014 862.857 85.4608C863.174 85.8202 863.492 86.2008 863.788 86.5814C864.084 86.9408 864.401 87.3003 864.697 87.6809C865.014 88.0403 865.31 88.3997 865.627 88.7803C865.923 89.1397 866.24 89.4992 866.536 89.8797C866.853 90.2392 867.149 90.6198 867.466 90.9792C867.762 91.3598 868.08 91.7192 868.376 92.0998C868.693 92.4592 868.989 92.8187 869.285 93.1992C869.602 93.5587 869.919 93.9181 870.215 94.2987C870.532 94.6581 870.828 95.0387 871.124 95.3981C871.441 95.7787 871.759 96.1381 872.055 96.5187C872.372 96.8781 872.668 97.2376 872.964 97.6182C873.239 97.9353 873.513 98.2524 873.767 98.5696C883.43 99.373 892.31 104.13 898.293 111.784C898.61 112.144 898.928 112.503 899.224 112.884C899.52 113.243 899.837 113.602 900.133 113.983C900.45 114.342 900.746 114.723 901.042 115.082C901.359 115.463 901.676 115.822 901.972 116.203C902.289 116.562 902.585 116.922 902.881 117.302C903.198 117.662 903.516 118.021 903.812 118.402C904.129 118.761 904.425 119.121 904.721 119.501C905.038 119.882 905.355 120.241 905.651 120.622C905.947 120.981 906.264 121.341 906.56 121.721C906.877 122.081 907.195 122.44 907.491 122.821C907.787 123.18 908.104 123.54 908.4 123.92C908.717 124.28 909.034 124.66 909.33 125.02C909.626 125.4 909.943 125.76 910.239 126.14C910.556 126.5 910.852 126.859 911.148 127.24C911.465 127.599 911.783 127.959 912.079 128.339C912.396 128.699 912.692 129.079 912.988 129.439C913.305 129.819 913.622 130.179 913.918 130.559C914.214 130.919 914.531 131.278 914.827 131.659C915.144 132.018 915.462 132.378 915.758 132.758C916.054 133.118 916.371 133.477 916.667 133.858C916.984 134.238 917.301 134.598 917.597 134.957C917.893 135.338 918.21 135.697 918.506 136.078C918.823 136.437 919.14 136.797 919.436 137.177C919.732 137.537 920.05 137.896 920.346 138.277C920.663 138.636 920.959 139.017 921.255 139.376C921.572 139.757 921.889 140.116 922.185 140.497C922.502 140.856 922.798 141.215 923.094 141.596C923.411 141.955 923.729 142.315 924.025 142.695C924.321 143.055 924.638 143.414 924.934 143.795C925.251 144.175 925.568 144.535 925.864 144.915C926.625 145.804 927.344 146.734 928.021 147.706C934.512 157.115 935.949 169.103 931.89 179.802Z" fill="black"/>
<path d="M328.192 152.718C343.373 155.847 357.877 152.718 363.205 137.093C368.089 124.597 364.474 105.843 347.284 105.843C330.095 105.843 318.508 110.516 313.392 124.597C308.508 137.093 314.576 149.61 328.192 152.718Z" fill="white"/>
<path d="M870.935 113.663H833.321C835.351 107.088 837.253 100.999 838.987 95.5649C843.258 82.0755 833.194 68.3324 819.049 68.3324C810.106 68.3324 802.135 74.0411 799.259 82.4984C795.369 93.9157 791.901 104.128 788.73 113.642H774.204C765.853 113.642 758.41 118.97 755.725 126.878C751.412 139.543 760.821 152.715 774.204 152.715H776.361C768.073 180.835 761.54 208.681 752.892 253.758C723.778 301.098 681.428 330.825 653.16 330.825C632.841 330.825 614.298 318.33 610.45 301.14C730.755 301.14 772.619 158.973 688.236 158.973C656.289 158.973 602.966 173.816 571.547 255.429C564.633 251.75 558.438 247.183 553.533 242.362C559.516 224.834 564.189 208.237 567.508 194.621C570.765 181.237 560.616 168.361 546.852 168.361C536.851 168.361 528.161 175.338 526.068 185.127C514.714 238.176 481.963 330.868 460.968 330.868C439.973 330.868 438.493 247.035 442.256 193.204C443.186 179.778 432.573 168.361 419.125 168.361C406.884 168.361 396.735 177.875 395.974 190.096C394.895 207.074 393.986 230.353 393.606 254.287C393.817 267.903 394.451 282.661 396.291 296.933C389.377 314.545 379.271 330.825 364.111 330.825C327.11 330.825 338.612 238.747 346.393 193.162C348.613 180.18 338.612 168.319 325.44 168.319C315.016 168.319 306.136 175.867 304.445 186.163C301.231 205.869 296.431 235.258 293.577 260.693C282.773 296.045 270.066 327.696 241.1 327.696C200.484 327.696 190.525 265.197 187.755 229.274C233.256 216.779 287.636 174.577 297.531 115.207C303.451 73.0262 285.035 15.2207 228.773 15.2207C193.274 15.2207 155.787 41.2691 122.317 79.2C112.422 63.6809 99.7363 49.219 83.4983 36.8502C73.8782 29.5135 60.0505 31.7758 53.2001 41.7554C46.9206 50.8893 48.8023 63.2581 57.3865 70.2565C73.6244 83.4921 85.2743 99.1169 93.6048 115.883C22.9442 217.054 -16.8685 359.326 47.8932 368.333C86.1412 373.196 132.889 324.081 149.529 260.08C156.738 311.67 177.395 373.006 234.714 373.006C264.992 373.006 286.452 356.81 301.971 335.308C312.648 356.81 330.007 369.898 349.226 369.898C371.744 369.898 390.011 347.782 401.598 323.594C409.188 349.918 423.883 369.898 452.341 369.898C493.232 369.898 524.884 316.786 545.562 264.097C550.234 273.168 556.197 280.652 562.709 286.446C554.484 341.016 593.451 369.877 630.452 369.877C669.968 369.877 714.707 342.454 747.056 285.05C740.587 332.94 752.681 369.877 799.196 369.877C833.596 369.877 851.8 340.868 861.124 317.082C864.909 307.399 860.828 296.446 851.588 291.689C840.594 286.023 827.105 291.478 823.193 303.212C818.626 316.913 812.918 330.804 806.257 330.804C795.326 330.804 792.599 305.792 792.789 293.296C792.134 263.125 807.167 203.12 821.692 152.673H870.956C879.053 152.673 886.327 147.662 889.202 140.092C894.065 127.301 884.635 113.621 870.956 113.621L870.935 113.663ZM688.321 202.719C706.187 208.977 667.262 263.653 619.732 268.347C626.583 241.791 663.308 191.788 688.321 202.719ZM59.8602 327.696C34.1289 324.081 62.038 233.461 107.982 157.81C111.767 175.148 113.374 192.591 114.05 208.935C116.883 277.671 78.1702 330.804 59.8602 327.675V327.696ZM155.195 193.986C153.926 169.08 149.719 140.494 139.126 112.902C165.915 79.5172 195.515 55.8368 223.043 55.8368C250.572 55.8368 261.059 85.5218 256.894 115.207C249.663 166.691 190.229 198.511 155.195 193.965V193.986Z" fill="white"/>
</g>
<defs>
<clipPath id="clip0_512_1857">
<rect width="934.17" height="422.462" fill="white"/>
</clipPath>
</defs>
</svg>
