<svg width="127" height="126" viewBox="0 0 127 126" fill="none" xmlns="http://www.w3.org/2000/svg">
<path d="M123.131 59.229H46.6579C48.4822 -1.7844 72.3669 -13.9782 79.1218 45.925H124.423C103.7 -25.9584 -2.92002 -9.01105 0.0613246 65.8823H79.8619C78.0377 126.896 54.153 139.09 47.3981 79.1863H2.09406C22.8202 151.07 129.437 134.12 126.459 59.229H123.133H123.131ZM85.0063 39.2717C83.5339 29.2149 81.363 19.0329 76.6278 9.96117C85.3399 15.2958 92.59 25.7175 96.5825 39.2717H85.0089H85.0063ZM114.804 39.2717H103.491C100.609 28.5685 95.8398 19.4707 89.8562 12.6767C100.705 18.4674 109.589 27.7294 114.804 39.2717ZM41.5109 85.8396C42.9834 95.8965 45.1542 106.078 49.8895 115.15C41.1774 109.816 33.9273 99.3938 29.9348 85.8396H41.5083H41.5109ZM11.7131 85.8396H23.0261C25.9084 96.5428 30.6775 105.641 36.6584 112.435C25.8093 106.644 16.9252 97.382 11.7105 85.8396H11.7131ZM6.80845 59.229C7.98379 39.0945 19.7424 21.7537 36.5881 12.7054C25.9605 25.2223 20.8734 41.0829 20.076 59.229H6.80845ZM26.7319 59.229C27.5815 36.7256 36.9842 17.7116 49.9781 9.86214C42.3319 25.0295 40.5806 42.4667 40.0046 59.229H26.7293H26.7319ZM99.7854 65.8823C98.9358 88.3858 89.5331 107.4 76.5392 115.249C84.1854 100.082 85.9367 82.6446 86.5126 65.8823H99.788H99.7854ZM89.9292 112.406C100.557 99.889 105.644 84.0284 106.441 65.8823H119.709C118.533 86.0169 106.775 103.358 89.9292 112.406Z" fill="#136646"/>
</svg>
