<svg width="184" height="90" viewBox="0 0 184 90" fill="none" xmlns="http://www.w3.org/2000/svg">
<path d="M166.218 10.6155C165.827 10.292 154.686 0 135.172 0H48.0384C33.4342 0 2.73383 10.6029 0.00808893 59.6036C-0.0721538 61.0603 0.436886 61.5066 1.88125 61.5016C10.402 61.4765 18.9203 61.5567 27.4411 61.5316C28.8227 61.5266 29.3092 61.9102 29.4822 63.3418C30.4978 71.9215 34.6729 78.6809 41.6365 83.763C47.5168 88.0553 54.2747 89.4819 61.3511 89.4819H145.882C177.565 87.5162 183.202 55.4467 183.526 48.607C183.526 48.607 185.038 26.0448 166.218 10.613V10.6155ZM58.9614 81.4238C52.5896 81.4238 46.8874 79.2575 42.612 74.213C32.4613 62.2362 38.8531 41.3211 43.3642 31.8514L34.4648 31.8214C34.1539 32.6186 33.8605 33.4209 33.5821 34.2358C31.4281 40.5013 30.0289 46.8846 29.2816 53.3933C23.0453 53.3757 16.8114 53.3757 10.5751 53.3933C9.11313 53.3933 8.57149 52.9269 8.81974 51.4577C10.6879 40.5138 13.9352 30.1465 21.2674 21.4917C25.5554 16.4272 30.9066 12.8745 37.1354 10.5729C42.4615 8.60721 51.7045 8.27626 52.1834 8.27125C52.1659 8.28378 101.788 8.23364 113.01 8.27125C103.531 13.0199 96.0962 23.9763 92.9768 32.0269C91.8258 34.9879 90.8855 38.0743 90.1081 41.261C89.2731 44.6883 88.6587 48.1808 88.1096 51.6708C87.9666 52.5784 87.7109 53.12 87.1893 53.3933C81.0357 53.3757 74.8796 53.3757 68.7259 53.3933C67.269 53.3933 66.7274 52.9269 66.9782 51.4577C68.1367 44.6432 69.8343 38.0492 72.723 31.9567L63.8437 31.9191C63.5127 32.7666 49.8789 65.5181 67.5148 81.4238H58.9639H58.9614ZM144.177 81.5541C136.167 81.697 128.737 78.2195 124.635 72.102C122.519 68.9479 121.435 65.3501 121.305 61.7473C121.3 61.7172 121.3 61.6796 121.3 61.642C121.207 58.874 121.674 56.0985 122.662 53.5211C126.102 44.5679 134.66 41.7499 136.441 40.8899C136.423 40.7595 136.398 40.6291 136.378 40.4988C130.403 40.4988 108.802 40.406 101.074 40.4436C99.6545 40.4486 99.1705 40.0575 99.6545 38.6133C106.362 18.6711 120.558 9.13121 135.867 8.47182C155.757 7.61436 166.304 22.116 166.845 22.8381C170.561 27.7898 174.225 34.3361 175.246 42.1034C176.572 52.2575 169.92 81.1053 144.174 81.5516L144.177 81.5541Z" fill="#3C2211"/>
</svg>
