<svg width="589" height="377" viewBox="0 0 589 377" fill="none" xmlns="http://www.w3.org/2000/svg">
<path d="M565.606 376.666C550.258 376.666 540.541 369.57 540.155 357.153H553.42C554.114 363.4 558.202 366.177 565.606 366.177C570.696 366.177 575.478 364.172 575.478 359.467C575.478 354.454 570.619 353.374 562.289 351.446C551.107 348.901 542.006 346.125 542.006 334.171C542.006 322.294 551.724 316.895 564.372 316.895C577.02 316.895 585.966 322.756 586.815 334.016H573.935C573.241 329.543 569.693 326.921 563.986 326.921C558.588 326.921 554.963 329.235 554.963 332.86C554.963 337.333 559.899 338.335 568.922 340.341C579.257 342.654 588.743 346.048 588.743 358.156C588.743 370.033 578.717 376.666 565.606 376.666Z" fill="white"/>
<path d="M492.19 375.277V317.898H535.225V328.849H505.301V340.263H531.215V350.675H505.301V364.017H535.765V375.277H492.19Z" fill="white"/>
<path d="M440.09 375.277V317.898H465.618C472.405 317.898 477.495 319.749 480.965 323.219C484.436 326.69 486.441 331.317 486.441 336.947C486.441 347.821 479.037 355.38 467.16 355.38H453.432V375.277H440.09ZM453.432 329.081V344.968H464.615C470.168 344.968 473.176 341.806 473.176 336.947C473.176 331.934 470.091 329.081 464.692 329.081H453.432Z" fill="white"/>
<path d="M379.986 375.277L400.655 317.898H414.306L435.052 375.277H421.17L417.545 364.326H396.721L393.174 375.277H379.986ZM403.354 344.197L399.806 354.917H414.537L411.066 344.197C408.598 336.33 407.364 328.926 407.364 328.926H407.21C407.21 328.926 405.205 338.567 403.354 344.197Z" fill="white"/>
<path d="M354.795 376.588C338.059 376.588 326.645 363.94 326.645 346.819C326.645 329.698 337.673 316.895 354.795 316.895C361.119 316.895 366.595 318.438 370.528 321.368C375.695 325.147 378.703 330.777 379.397 337.256H366.286C365.515 331.857 361.196 327.847 354.718 327.847C344.923 327.847 340.064 335.944 340.064 346.819C340.064 357.77 345.771 365.714 354.795 365.714C361.813 365.714 366.132 361.164 366.749 355.225H379.937C379.551 360.932 376.929 366.254 372.996 370.11C368.677 374.352 362.816 376.588 354.795 376.588Z" fill="white"/>
<path d="M299.079 376.666C283.731 376.666 274.013 369.57 273.628 357.153H286.893C287.587 363.4 291.675 366.177 299.079 366.177C304.169 366.177 308.95 364.172 308.95 359.467C308.95 354.454 304.092 353.374 295.762 351.446C284.579 348.901 275.479 346.125 275.479 334.171C275.479 322.294 285.196 316.895 297.845 316.895C310.493 316.895 319.439 322.756 320.287 334.016H307.408C306.714 329.543 303.166 326.921 297.459 326.921C292.06 326.921 288.436 329.235 288.436 332.86C288.436 337.333 293.371 338.335 302.395 340.341C312.729 342.654 322.216 346.048 322.216 358.156C322.216 370.033 312.19 376.666 299.079 376.666Z" fill="white"/>
<path d="M219.261 375.277V317.898H232.681L247.797 342.808C251.19 348.593 255.664 357.925 255.664 357.925H255.818C255.818 357.925 255.124 347.667 255.124 341.112V317.898H267.695V375.277H254.198L239.236 350.675C235.766 344.891 231.293 335.328 231.293 335.328H231.138C231.138 335.328 231.833 345.662 231.833 352.218V375.277H219.261Z" fill="white"/>
<path d="M159.157 375.277L179.826 317.898H193.477L214.223 375.277H200.341L196.716 364.326H175.893L172.345 375.277H159.157ZM182.525 344.197L178.978 354.917H193.708L190.238 344.197C187.77 336.33 186.536 328.926 186.536 328.926H186.382C186.382 328.926 184.376 338.567 182.525 344.197Z" fill="white"/>
<path d="M110.015 375.277V317.898H137.162C143.1 317.898 147.651 319.286 150.581 321.831C153.743 324.607 155.44 328.232 155.44 332.782C155.44 338.49 152.355 342.346 146.185 344.274V344.582C153.589 346.356 157.677 351.523 157.677 358.542C157.677 364.017 155.671 368.182 152.047 371.036C148.653 373.812 143.949 375.277 137.856 375.277H110.015ZM123.048 340.958H135.311C139.784 340.958 142.792 338.798 142.792 334.556C142.792 330.392 139.938 328.078 135.465 328.078H123.048V340.958ZM123.048 364.943H136.468C139.09 364.943 141.172 364.172 142.561 362.861C143.872 361.627 144.643 359.776 144.643 357.616C144.643 352.603 141.018 350.135 136.236 350.135H123.048V364.943Z" fill="white"/>
<path d="M55.6547 375.277V317.898H82.9563C94.1392 317.898 102.546 323.836 102.546 334.325C102.546 341.035 99.2293 345.893 91.9026 348.284V348.516C97.6097 350.289 100.155 353.451 100.926 359.621C102.006 367.411 101.543 373.889 103.394 374.66V375.277H90.4373C88.8948 374.429 89.049 368.336 88.3549 362.012C87.6608 356.305 84.8073 353.374 78.4832 353.374H68.7656V375.277H55.6547ZM68.7656 328.309V343.657H80.4112C86.2726 343.657 89.4347 340.649 89.4347 336.099C89.4347 331.394 86.5811 328.309 80.7969 328.309H68.7656Z" fill="white"/>
<path d="M23.8311 376.357C8.25219 376.357 0 368.799 0 355.302V317.898H13.111V355.611C13.111 361.858 16.4273 365.714 23.8311 365.714C30.6951 365.714 34.2427 361.627 34.2427 355.38V317.898H47.4308V355.302C47.4308 368.645 39.1786 376.357 23.8311 376.357Z" fill="white"/>
<path d="M234.266 114.356C234.266 174.178 213.58 194.891 175.938 194.891C135.294 194.891 121.72 178.781 120.146 114.096H12.983C8.05516 227.851 72.7147 282.33 175.002 282.33C285.624 282.33 338.53 217.853 338.53 153.973C338.53 131.701 339.271 26.0844 339.271 0.184221H234.266V114.356Z" fill="white"/>
<path d="M433.056 137.432L575.611 274.865H434.902L331.769 180.989H287.25V93.8753H334.084L434.902 0H575.611L433.056 137.432Z" fill="white"/>
</svg>
