<svg width="122" height="114" viewBox="0 0 122 114" fill="none" xmlns="http://www.w3.org/2000/svg">
<path d="M101.024 16.4508L113.341 0H49.4548L36.7522 16.4508H62.9496C58.1927 22.2131 52.1655 29.5264 49.2616 33.0958C39.8329 28.2587 28.4792 27.2906 14.4312 31.3539L0 45.6776C15.78 41.42 28.8655 43.3528 38.2942 49.1613C24.053 70.0639 17.4267 113.812 38.1011 114C57.659 114.174 88.5184 57.0969 53.3016 35.2262C57.1974 29.2202 61.6204 23.4776 66.0925 18.0576L100.835 113.032H122L86.8618 16.4508H101.024ZM50.9542 103.463C45.2413 102.254 41.3716 87.0942 40.7954 80.1267C39.8329 70.8377 40.9886 61.934 45.2217 53.2246C56.5754 63.8702 58.8442 95.1385 50.9542 103.463Z" fill="#C70204"/>
</svg>
