<svg width="201" height="94" viewBox="0 0 201 94" fill="none" xmlns="http://www.w3.org/2000/svg">
<g clip-path="url(#clip0_428_599)">
<path d="M52.8837 24.0254H20.0503V43.3251H44.5711V51.2652H19.2997V-0.000488281H0V59.5778C0 65.6329 4.9264 70.5593 10.9871 70.5593H52.8837C58.9389 70.5593 63.8708 65.6329 63.8708 59.5778V35.0125C63.8708 28.9574 58.9444 24.031 52.8837 24.031V24.0254ZM17.8874 57.2036H45.9834C48.48 57.2036 50.515 55.1741 50.515 52.6719V41.9073C50.515 39.4107 48.4855 37.3756 45.9834 37.3756H25.9887V36.6417H49.264C50.3538 36.6417 51.2434 37.5313 51.2434 38.6211V55.9525C51.2434 57.0423 50.3538 57.932 49.264 57.932H14.6013C13.5115 57.932 12.6218 57.0423 12.6218 55.9525V5.94344H13.3558V52.6775C13.3558 55.1741 15.3853 57.2091 17.8874 57.2091V57.2036ZM57.9269 59.5778C57.9269 62.3579 55.6639 64.621 52.8837 64.621H10.9871C8.20696 64.621 5.94393 62.3579 5.94393 59.5778V5.94344H6.67788V55.9636C6.67788 60.334 10.2309 63.887 14.6013 63.887H49.2695C53.6399 63.887 57.1929 60.334 57.1929 55.9636V38.6323C57.1929 34.2619 53.6399 30.7089 49.2695 30.7089H25.9943V29.9749H52.8837C55.6639 29.9749 57.9269 32.238 57.9269 35.0181V59.5834V59.5778Z" fill="#000098"/>
<path d="M121.587 22.79H79.6902C73.6351 22.79 68.7031 27.7164 68.7031 33.7716V93.3499H88.0028V42.0842H113.274V50.0242H88.7535V69.3239H121.587C127.642 69.3239 132.574 64.3975 132.574 58.3424V33.7771C132.574 27.722 127.648 22.7956 121.587 22.7956V22.79ZM114.687 55.9682C117.183 55.9682 119.218 53.9387 119.218 51.4366V40.6719C119.218 38.1753 117.189 36.1402 114.687 36.1402H86.5905C84.094 36.1402 82.0589 38.1697 82.0589 40.6719V87.4059H81.3249V37.3857C81.3249 36.2959 82.2146 35.4063 83.3044 35.4063H117.973C119.062 35.4063 119.952 36.2959 119.952 37.3857V54.7171C119.952 55.8069 119.062 56.6966 117.973 56.6966H94.6974V55.9626H114.692L114.687 55.9682ZM126.63 58.3368C126.63 61.117 124.367 63.38 121.587 63.38H94.6974V62.6461H117.973C122.343 62.6461 125.896 59.093 125.896 54.7227V37.3913C125.896 33.0209 122.343 29.4679 117.973 29.4679H83.3044C78.934 29.4679 75.381 33.0209 75.381 37.3913V87.4115H74.6471V33.7716C74.6471 30.9914 76.9101 28.7284 79.6902 28.7284H121.587C124.367 28.7284 126.63 30.9914 126.63 33.7716V58.3368Z" fill="#000098"/>
<path d="M200.385 47.562H156.704V39.6219H200.38V20.3222H148.391C142.336 20.3222 137.404 25.2486 137.404 31.3038V55.869C137.404 61.9242 142.331 66.8506 148.391 66.8506H200.497L200.391 47.5509L200.385 47.562ZM155.286 33.6836C152.79 33.6836 150.755 35.7131 150.755 38.2152V48.9799C150.755 51.4764 152.784 53.5115 155.286 53.5115H194.469V54.2454H152C150.91 54.2454 150.021 53.3558 150.021 52.266V34.9346C150.021 33.8448 150.91 32.9552 152 32.9552H194.43V33.6891H155.286V33.6836ZM148.386 60.9178C145.606 60.9178 143.343 58.6547 143.343 55.8746V31.3093C143.343 28.5292 145.606 26.2662 148.386 26.2662H194.43V27.0001H152C147.63 27.0001 144.077 30.5531 144.077 34.9235V52.2549C144.077 56.6252 147.63 60.1782 152 60.1782H194.508V60.9122H148.386V60.9178Z" fill="#000098"/>
</g>
<defs>
<clipPath id="clip0_428_599">
<rect width="200.492" height="93.3514" fill="white"/>
</clipPath>
</defs>
</svg>
