<svg width="150" height="127" viewBox="0 0 150 127" fill="none" xmlns="http://www.w3.org/2000/svg">
<g clip-path="url(#clip0_428_578)">
<path d="M149.633 63.6305L133.798 36.2357C133.049 34.9397 131.389 34.4957 130.092 35.244L98.9159 53.2232L97.303 50.4343L128.479 32.4551C129.776 31.7069 130.221 30.0493 129.471 28.7533L113.636 1.35488C112.887 0.0588858 111.228 -0.385045 109.93 0.363193L77.6507 18.9796C76.0091 19.9284 73.984 19.9284 72.3424 18.9796L40.0664 0.363193C38.7689 -0.385045 37.1094 0.0588858 36.3603 1.35488L20.5252 28.7497C19.7761 30.0457 20.2206 31.7033 21.518 32.4515L52.6937 50.4307L51.0808 53.2196L19.9051 35.244C18.6076 34.4957 16.9482 34.9397 16.199 36.2357L0.363919 63.6305C-0.385185 64.9265 0.0592595 66.5841 1.35675 67.3323L33.6363 85.9487C35.2779 86.8975 36.2887 88.6445 36.2887 90.542V124.291C36.2887 125.788 37.5037 127.002 39.0019 127.002H70.6722C72.1704 127.002 73.3854 125.788 73.3854 124.291V88.3367H76.6112V124.291C76.6112 125.788 77.8263 127.002 79.3245 127.002H110.995C112.493 127.002 113.708 125.788 113.708 124.291V90.542C113.708 88.6481 114.719 86.8975 116.36 85.9487L148.64 67.3323C149.937 66.5841 150.382 64.9265 149.633 63.6305Z" fill="#F03C0B"/>
</g>
<defs>
<clipPath id="clip0_428_578">
<rect width="150" height="127" fill="white"/>
</clipPath>
</defs>
</svg>
