<svg width="435" height="213" viewBox="0 0 435 213" fill="none" xmlns="http://www.w3.org/2000/svg">
<path d="M208.986 212.146H51.908C23.2834 212.146 0 188.862 0 160.238C0 131.613 23.2834 108.33 51.908 108.33H160.238C161.479 108.33 162.495 107.314 162.495 106.073C162.495 104.832 161.479 103.816 160.238 103.816H51.908C23.2834 103.816 0 80.5327 0 51.908C0 23.2834 23.2834 0 51.908 0H208.986V49.6511H51.908C50.6667 49.6511 49.6511 50.6667 49.6511 51.908C49.6511 53.1493 50.6667 54.1649 51.908 54.1649H160.238C188.862 54.1649 212.146 77.4483 212.146 106.073C212.146 134.698 188.862 157.981 160.238 157.981H51.908C50.6667 157.981 49.6511 158.997 49.6511 160.238C49.6511 161.479 50.6667 162.495 51.908 162.495H208.986V212.146Z" fill="white"/>
<path d="M328.151 212.146C299.527 212.146 276.243 188.862 276.243 160.238V51.908C276.243 50.6667 275.228 49.6511 273.986 49.6511C272.745 49.6511 271.73 50.6667 271.73 51.908V212.123H222.078V51.908C222.078 23.2834 245.362 0 273.986 0C302.611 0 325.894 23.2834 325.894 51.908V160.238C325.894 161.479 326.91 162.495 328.151 162.495C329.393 162.495 330.408 161.479 330.408 160.238V51.908C330.408 23.2834 353.692 0 382.316 0C410.941 0 434.224 23.2834 434.224 51.908V212.123H384.573V51.908C384.573 50.6667 383.557 49.6511 382.316 49.6511C381.075 49.6511 380.059 50.6667 380.059 51.908V160.238C380.059 188.862 356.776 212.146 328.151 212.146Z" fill="white"/>
</svg>
