<svg width="715" height="161" viewBox="0 0 715 161" fill="none" xmlns="http://www.w3.org/2000/svg">
<path d="M35.5265 0L0 35.5265V159.753H45.6411V45.6411H182.574V57.056H57.056V122.601L94.2079 159.753H228.224V114.112H102.697V102.697H191.072L228.224 65.5452V37.1519L191.072 0H35.5265Z" fill="#F9F9F4"/>
<path d="M425.6 0.931641H280.178C265.671 15.4395 257.534 23.5757 243.027 38.0835V160.685H288.668V103.629H425.6V160.685H471.241V38.0835C456.734 23.5757 448.597 15.4395 434.089 0.931641H425.6ZM288.668 57.9876V46.5727H425.6V57.9876H288.668Z" fill="#F9F9F4"/>
<path d="M714.268 45.6411V0H527.552C511.344 16.2075 502.261 25.2911 486.053 41.4987V122.601C500.561 137.109 508.697 145.245 523.205 159.753H531.694H668.627H677.116C691.624 145.245 699.76 137.109 714.268 122.601V94.2079C699.76 79.7001 691.624 71.5638 677.116 57.056H668.627H543.109V102.697H668.627V114.112H531.694V45.6504H714.268V45.6411Z" fill="#F9F9F4"/>
</svg>
