<svg width="168" height="106" viewBox="0 0 168 106" fill="none" xmlns="http://www.w3.org/2000/svg">
<path d="M118.506 89.0602L159.553 106L163.563 96.4836L122.516 79.5438L166.594 85.3898L167.979 75.1723L123.901 69.3263L168 63.6763L166.667 53.4485L122.558 59.0985L163.688 42.3443L159.72 32.8073L118.6 49.5615L153.939 22.8476L147.617 14.6509L112.267 41.3752L139.42 6.50579L131.182 0.216516L100.363 39.7874C92.1136 50.376 75.9697 50.3451 67.7624 39.7152L37.1412 0L28.861 6.25834L55.8577 41.2514L20.6329 14.3622L14.2795 22.528L49.5043 49.4069L8.44687 32.4671L4.43695 41.9835L45.4839 58.9233L1.40608 53.0876L0.0312461 63.3051L44.1091 69.1511L0 74.7908L1.33317 85.0186L45.4319 79.3686L4.31197 96.1228L8.28022 105.66L49.4001 88.9056L64.7524 83.6473C76.8551 79.5026 90.0097 79.4613 102.133 83.5442L118.517 89.0602H118.506Z" fill="#0E4946"/>
</svg>
