<svg width="1126" height="355" viewBox="0 0 1126 355" fill="none" xmlns="http://www.w3.org/2000/svg">
<path d="M217.054 0L434.122 217.068C421.28 214.116 407.9 212.543 394.174 212.543C308.519 212.543 237.035 273.398 220.602 354.234H213.52C197.087 273.398 125.603 212.543 39.9475 212.543C26.2223 212.543 12.8418 214.116 0 217.068L217.054 0Z" fill="white"/>
<path d="M1096 312.444C1090.58 312.444 1085.66 311.117 1081.24 308.463C1076.81 305.81 1073.28 302.216 1070.62 297.682C1068.08 293.038 1066.81 287.897 1066.81 282.258C1066.81 281.373 1067.08 280.654 1067.64 280.101C1068.3 279.438 1069.07 279.106 1069.96 279.106H1076.26C1077.15 279.106 1077.86 279.438 1078.42 280.101C1078.97 280.654 1079.25 281.373 1079.25 282.258C1079.25 287.565 1080.85 291.877 1084.06 295.195C1087.26 298.401 1091.24 300.004 1096 300.004C1100.42 300.004 1104.29 298.401 1107.61 295.195C1110.93 291.877 1112.58 287.842 1112.58 283.087C1112.58 279.991 1111.76 277.227 1110.1 274.794C1108.44 272.361 1105.56 269.321 1101.47 265.672L1082.9 249.252C1076.59 243.613 1072.34 239.134 1070.12 235.817C1067.91 232.39 1066.81 228.133 1066.81 223.046C1066.81 217.739 1068.13 212.874 1070.79 208.451C1073.44 203.917 1076.98 200.324 1081.4 197.67C1085.94 195.016 1090.8 193.689 1096 193.689C1101.42 193.689 1106.34 195.016 1110.76 197.67C1115.18 200.324 1118.67 203.973 1121.21 208.617C1123.75 213.15 1125.02 218.236 1125.02 223.876C1125.02 224.76 1124.75 225.534 1124.19 226.198C1123.64 226.75 1122.92 227.027 1122.04 227.027H1115.57C1114.69 227.027 1113.97 226.75 1113.41 226.198C1112.86 225.534 1112.58 224.76 1112.58 223.876C1112.58 218.679 1110.98 214.422 1107.77 211.104C1104.57 207.787 1100.64 206.129 1096 206.129C1091.47 206.129 1087.54 207.787 1084.22 211.104C1080.91 214.311 1079.25 218.292 1079.25 223.046C1079.25 225.811 1080.02 228.298 1081.57 230.51C1083.23 232.611 1086.16 235.541 1090.36 239.3L1107.77 254.725C1112.53 258.927 1116.01 262.244 1118.22 264.677C1120.44 267.109 1122.09 269.763 1123.2 272.638C1124.42 275.513 1125.02 278.996 1125.02 283.087C1125.02 288.394 1123.7 293.315 1121.04 297.848C1118.5 302.271 1115.02 305.81 1110.59 308.463C1106.17 311.117 1101.31 312.444 1096 312.444Z" fill="white"/>
<path d="M975.618 311.117C974.734 311.117 973.96 310.841 973.296 310.288C972.743 309.624 972.467 308.85 972.467 307.966V198.168C972.467 197.283 972.743 196.564 973.296 196.011C973.96 195.348 974.734 195.016 975.618 195.016H983.413C984.961 195.016 986.067 195.845 986.731 197.504L1004.81 241.788L1022.89 197.504C1023.55 195.845 1024.66 195.016 1026.2 195.016H1034C1034.88 195.016 1035.6 195.348 1036.16 196.011C1036.82 196.564 1037.15 197.283 1037.15 198.168V307.966C1037.15 308.85 1036.82 309.624 1036.16 310.288C1035.6 310.841 1034.88 311.117 1034 311.117H1028.03C1027.14 311.117 1026.37 310.841 1025.71 310.288C1025.15 309.624 1024.88 308.85 1024.88 307.966V221.554L1007.96 260.696C1007.63 261.47 1007.13 262.133 1006.47 262.686C1005.91 263.129 1005.36 263.35 1004.81 263.35C1003.59 263.35 1002.54 262.465 1001.66 260.696L984.74 221.554V307.966C984.74 308.85 984.409 309.624 983.745 310.288C983.192 310.841 982.474 311.117 981.589 311.117H975.618Z" fill="white"/>
<path d="M888.575 311.117C887.69 311.117 886.916 310.841 886.253 310.288C885.7 309.624 885.424 308.85 885.424 307.966V198.168C885.424 197.283 885.7 196.564 886.253 196.011C886.916 195.348 887.69 195.016 888.575 195.016H940.323C941.207 195.016 941.926 195.348 942.479 196.011C943.142 196.564 943.474 197.283 943.474 198.168V204.304C943.474 205.189 943.142 205.963 942.479 206.626C941.926 207.179 941.207 207.456 940.323 207.456H897.863V246.764H932.362C933.246 246.764 933.965 247.096 934.518 247.759C935.181 248.312 935.513 249.031 935.513 249.915V256.052C935.513 256.937 935.181 257.711 934.518 258.374C933.965 258.927 933.246 259.203 932.362 259.203H897.863V298.678H940.323C941.207 298.678 941.926 299.009 942.479 299.673C943.142 300.226 943.474 300.944 943.474 301.829V307.966C943.474 308.85 943.142 309.624 942.479 310.288C941.926 310.841 941.207 311.117 940.323 311.117H888.575Z" fill="white"/>
<path d="M819.279 311.117C818.394 311.117 817.62 310.841 816.957 310.288C816.404 309.624 816.127 308.85 816.127 307.966V207.456H796.556C795.671 207.456 794.897 207.179 794.234 206.626C793.681 205.963 793.405 205.189 793.405 204.304V198.168C793.405 197.283 793.681 196.564 794.234 196.011C794.897 195.348 795.671 195.016 796.556 195.016H848.304C849.188 195.016 849.907 195.348 850.46 196.011C851.123 196.564 851.455 197.283 851.455 198.168V204.304C851.455 205.189 851.123 205.963 850.46 206.626C849.907 207.179 849.188 207.456 848.304 207.456H828.567V307.966C828.567 308.85 828.235 309.624 827.572 310.288C827.019 310.841 826.3 311.117 825.415 311.117H819.279Z" fill="white"/>
<path d="M731.24 312.444C725.822 312.444 720.902 311.117 716.479 308.463C712.056 305.81 708.518 302.216 705.864 297.682C703.321 293.038 702.049 287.897 702.049 282.258C702.049 281.373 702.326 280.654 702.879 280.101C703.542 279.438 704.316 279.106 705.201 279.106H711.503C712.388 279.106 713.106 279.438 713.659 280.101C714.212 280.654 714.489 281.373 714.489 282.258C714.489 287.565 716.092 291.877 719.298 295.195C722.505 298.401 726.486 300.004 731.24 300.004C735.663 300.004 739.533 298.401 742.85 295.195C746.168 291.877 747.826 287.842 747.826 283.087C747.826 279.991 746.997 277.227 745.338 274.794C743.68 272.361 740.805 269.321 736.714 265.672L718.137 249.252C711.835 243.613 707.578 239.134 705.366 235.817C703.155 232.39 702.049 228.133 702.049 223.046C702.049 217.739 703.376 212.874 706.03 208.451C708.684 203.917 712.222 200.324 716.645 197.67C721.178 195.016 726.043 193.689 731.24 193.689C736.658 193.689 741.579 195.016 746.002 197.67C750.425 200.324 753.908 203.973 756.451 208.617C758.994 213.15 760.265 218.236 760.265 223.876C760.265 224.76 759.989 225.534 759.436 226.198C758.883 226.75 758.165 227.027 757.28 227.027H750.812C749.927 227.027 749.208 226.75 748.655 226.198C748.103 225.534 747.826 224.76 747.826 223.876C747.826 218.679 746.223 214.422 743.016 211.104C739.81 207.787 735.884 206.129 731.24 206.129C726.707 206.129 722.782 207.787 719.464 211.104C716.147 214.311 714.489 218.292 714.489 223.046C714.489 225.811 715.263 228.298 716.811 230.51C718.469 232.611 721.399 235.541 725.601 239.3L743.016 254.725C747.771 258.927 751.254 262.244 753.465 264.677C755.677 267.109 757.335 269.763 758.441 272.638C759.657 275.513 760.265 278.996 760.265 283.087C760.265 288.394 758.939 293.315 756.285 297.848C753.742 302.271 750.259 305.81 745.836 308.463C741.413 311.117 736.548 312.444 731.24 312.444Z" fill="white"/>
<path d="M637.065 311.117C636.181 311.117 635.407 310.841 634.743 310.288C634.19 309.624 633.914 308.85 633.914 307.966V254.891L609.699 199.66C609.477 198.997 609.367 198.499 609.367 198.168C609.367 197.283 609.643 196.564 610.196 196.011C610.749 195.348 611.468 195.016 612.352 195.016H618.987C620.203 195.016 621.088 195.624 621.64 196.841L640.051 239.632L658.461 196.841C659.014 195.624 659.898 195.016 661.115 195.016H667.749C668.634 195.016 669.352 195.348 669.905 196.011C670.458 196.564 670.734 197.283 670.734 198.168C670.734 198.499 670.624 198.997 670.403 199.66L646.353 254.891V307.966C646.353 308.85 646.022 309.624 645.358 310.288C644.805 310.841 644.087 311.117 643.202 311.117H637.065Z" fill="white"/>
<path d="M548.861 312.444C543.443 312.444 538.523 311.117 534.1 308.463C529.677 305.81 526.138 302.216 523.485 297.682C520.942 293.038 519.67 287.897 519.67 282.258C519.67 281.373 519.946 280.654 520.499 280.101C521.163 279.438 521.937 279.106 522.821 279.106H529.124C530.008 279.106 530.727 279.438 531.28 280.101C531.833 280.654 532.109 281.373 532.109 282.258C532.109 287.565 533.713 291.877 536.919 295.195C540.126 298.401 544.106 300.004 548.861 300.004C553.284 300.004 557.154 298.401 560.471 295.195C563.788 291.877 565.447 287.842 565.447 283.087C565.447 279.991 564.618 277.227 562.959 274.794C561.3 272.361 558.426 269.321 554.334 265.672L535.758 249.252C529.456 243.613 525.199 239.134 522.987 235.817C520.776 232.39 519.67 228.133 519.67 223.046C519.67 217.739 520.997 212.874 523.651 208.451C526.304 203.917 529.843 200.324 534.266 197.67C538.799 195.016 543.664 193.689 548.861 193.689C554.279 193.689 559.2 195.016 563.622 197.67C568.045 200.324 571.528 203.973 574.071 208.617C576.615 213.15 577.886 218.236 577.886 223.876C577.886 224.76 577.61 225.534 577.057 226.198C576.504 226.75 575.785 227.027 574.901 227.027H568.432C567.548 227.027 566.829 226.75 566.276 226.198C565.723 225.534 565.447 224.76 565.447 223.876C565.447 218.679 563.844 214.422 560.637 211.104C557.43 207.787 553.505 206.129 548.861 206.129C544.328 206.129 540.402 207.787 537.085 211.104C533.768 214.311 532.109 218.292 532.109 223.046C532.109 225.811 532.883 228.298 534.431 230.51C536.09 232.611 539.02 235.541 543.222 239.3L560.637 254.725C565.392 258.927 568.875 262.244 571.086 264.677C573.298 267.109 574.956 269.763 576.062 272.638C577.278 275.513 577.886 278.996 577.886 283.087C577.886 288.394 576.559 293.315 573.906 297.848C571.362 302.271 567.879 305.81 563.457 308.463C559.034 311.117 554.168 312.444 548.861 312.444Z" fill="white"/>
<path d="M887.746 159.117C886.861 159.117 886.087 158.841 885.424 158.288C884.871 157.624 884.594 156.85 884.594 155.966V46.1675C884.594 45.2829 884.871 44.5642 885.424 44.0114C886.087 43.3479 886.861 43.0162 887.746 43.0162H893.882C894.767 43.0162 895.486 43.3479 896.039 44.0114C896.702 44.5642 897.034 45.2829 897.034 46.1675V94.5981H930.205V46.1675C930.205 45.2829 930.482 44.5642 931.035 44.0114C931.698 43.3479 932.472 43.0162 933.357 43.0162H939.493C940.378 43.0162 941.097 43.3479 941.65 44.0114C942.313 44.5642 942.645 45.2829 942.645 46.1675V155.966C942.645 156.85 942.313 157.624 941.65 158.288C941.097 158.841 940.378 159.117 939.493 159.117H933.357C932.472 159.117 931.698 158.841 931.035 158.288C930.482 157.624 930.205 156.85 930.205 155.966V107.037H897.034V155.966C897.034 156.85 896.702 157.624 896.039 158.288C895.486 158.841 894.767 159.117 893.882 159.117H887.746Z" fill="white"/>
<path d="M819.279 159.117C818.394 159.117 817.62 158.841 816.957 158.288C816.404 157.624 816.127 156.85 816.127 155.966V55.4556H796.556C795.671 55.4556 794.897 55.1791 794.234 54.6263C793.681 53.9628 793.405 53.1888 793.405 52.3043V46.1675C793.405 45.2829 793.681 44.5642 794.234 44.0114C794.897 43.3479 795.671 43.0162 796.556 43.0162H848.304C849.188 43.0162 849.907 43.3479 850.46 44.0114C851.123 44.5642 851.455 45.2829 851.455 46.1675V52.3043C851.455 53.1888 851.123 53.9628 850.46 54.6263C849.907 55.1791 849.188 55.4556 848.304 55.4556H828.567V155.966C828.567 156.85 828.235 157.624 827.572 158.288C827.019 158.841 826.3 159.117 825.415 159.117H819.279Z" fill="white"/>
<path d="M706.196 159.117C705.311 159.117 704.537 158.841 703.874 158.288C703.321 157.624 703.044 156.85 703.044 155.966V46.1675C703.044 45.2829 703.321 44.5642 703.874 44.0114C704.537 43.3479 705.311 43.0162 706.196 43.0162H728.089C734.392 43.0162 740.086 44.5089 745.172 47.4944C750.369 50.4798 754.46 54.571 757.446 59.7679C760.431 64.8542 761.924 70.4934 761.924 76.6854C761.924 83.5409 759.989 89.7882 756.119 95.4274C752.249 101.067 747.218 105.158 741.026 107.701L761.426 155.136C761.758 155.91 761.924 156.574 761.924 157.127C761.924 158.454 761.095 159.117 759.436 159.117H751.641C750.314 159.117 749.319 158.398 748.655 156.961L729.582 110.355H715.484V155.966C715.484 156.85 715.152 157.624 714.489 158.288C713.936 158.841 713.217 159.117 712.332 159.117H706.196ZM728.089 97.9153C734.17 97.9153 739.257 95.8697 743.348 91.7785C747.439 87.5768 749.485 82.5457 749.485 76.6854C749.485 70.7145 747.439 65.6835 743.348 61.5923C739.257 57.5012 734.17 55.4556 728.089 55.4556H715.484V97.9153H728.089Z" fill="white"/>
<path d="M640.051 160.444C634.633 160.444 629.602 159.117 624.958 156.463C620.424 153.809 616.83 150.216 614.177 145.682C611.523 141.038 610.196 136.007 610.196 130.589V71.5438C610.196 66.1258 611.523 61.15 614.177 56.6166C616.83 51.9726 620.424 48.3237 624.958 45.6699C629.602 43.0162 634.633 41.6893 640.051 41.6893C645.469 41.6893 650.444 43.0162 654.978 45.6699C659.622 48.3237 663.271 51.9726 665.925 56.6166C668.578 61.15 669.905 66.1258 669.905 71.5438V130.589C669.905 136.007 668.578 141.038 665.925 145.682C663.271 150.216 659.622 153.809 654.978 156.463C650.444 159.117 645.469 160.444 640.051 160.444ZM640.051 148.004C644.916 148.004 649.007 146.291 652.324 142.863C655.752 139.435 657.466 135.344 657.466 130.589V71.5438C657.466 66.6786 655.752 62.5875 652.324 59.2703C649.007 55.8426 644.916 54.1287 640.051 54.1287C635.296 54.1287 631.205 55.8426 627.777 59.2703C624.349 62.5875 622.636 66.6786 622.636 71.5438V130.589C622.636 135.344 624.349 139.435 627.777 142.863C631.205 146.291 635.296 148.004 640.051 148.004Z" fill="white"/>
<path d="M522.987 159.117C520.886 159.117 519.836 158.067 519.836 155.966V46.1675C519.836 44.0666 520.886 43.0162 522.987 43.0162H530.119C531.557 43.0162 532.607 43.7349 533.27 45.1724L565.447 127.604V46.1675C565.447 44.0666 566.497 43.0162 568.598 43.0162H574.735C576.836 43.0162 577.886 44.0666 577.886 46.1675V155.966C577.886 158.067 576.836 159.117 574.735 159.117H567.271C566.055 159.117 565.17 158.509 564.618 157.293L532.275 74.5293V155.966C532.275 158.067 531.225 159.117 529.124 159.117H522.987Z" fill="white"/>
</svg>
