<svg width="148" height="105" viewBox="0 0 148 105" fill="none" xmlns="http://www.w3.org/2000/svg">
<g clip-path="url(#clip0_428_509)">
<path d="M131.518 74.9961C135.647 74.7702 145.293 74.657 147.603 78.8205C150.055 83.2192 142.889 88.5504 139.749 90.6418C127.661 98.7045 102.374 106.522 88.0333 103.857C78.4159 102.067 79.6513 96.4439 85.9118 91.1595C96.4154 82.2961 117.893 75.7401 131.518 75.0054V74.9961ZM118.233 82.9274C109.719 83.0495 97.1882 86.7986 90.0888 91.527C85.7232 94.4283 80.8581 99.8161 89.4095 101.276C98.5368 102.83 120.1 96.8208 125.927 89.2384C130.132 83.7748 121.872 82.8708 118.223 82.9274H118.233Z" fill="#062B2B"/>
<path d="M15.9162 77.2311C29.5311 77.1273 50.1327 82.0348 61.4844 89.7019C68.537 94.4682 72.0165 100.977 60.9849 103.482C46.3234 106.817 17.9433 100.204 5.70501 91.2938C2.96132 89.297 -1.96981 85.0114 0.839911 81.3189C3.48935 77.8433 11.8431 77.2592 15.9162 77.2311ZM28.3337 84.4839C21.2622 85.0774 18.6033 88.6002 25.1374 93.2626C32.8499 98.7631 50.5853 102.945 59.7782 100.902C66.2554 99.4604 65.1619 95.787 60.6929 92.5654C52.961 86.9989 37.7434 83.6927 28.3337 84.4839Z" fill="#062B2B"/>
<path d="M20.3825 41.0325C22.0325 40.797 23.6731 41.1455 25.2571 41.5882C37.1748 44.9603 55.8057 62.169 60.5388 73.576C63.2164 80.0188 61.359 83.6828 54.0709 81.7612C42.1154 78.5967 23.0885 61.02 18.4402 49.6038C17.2805 46.7688 16.0076 41.6636 20.3825 41.0325ZM32.6302 53.786C29.9997 54.3135 31.3102 58.0907 32.008 59.6732C35.0534 66.5304 46.9051 77.4851 54.2029 79.3874C58.5587 80.5178 60.0295 78.606 58.408 74.4898C55.6358 67.4348 44.3123 57.0548 37.1937 54.4832C35.77 53.9651 34.1576 53.4754 32.6208 53.786H32.6302Z" fill="#062B2B"/>
<path d="M123.41 39.1409C129.576 38.4533 128.869 43.8788 127.417 47.9762C123.438 59.2037 104.269 79.8323 92.4177 82.3094C80.566 84.7865 87.9674 71.1475 90.7583 66.6922C96.3021 57.8195 112.68 40.3372 123.41 39.1409ZM114.764 53.1098C113.123 51.5273 109.135 53.4676 107.456 54.4C101.149 57.9042 92.6911 66.6922 89.8248 73.3329C87.7314 78.1838 88.5235 81.5275 94.454 79.1635C101.45 76.366 111.35 66.0894 114.339 59.2037C115.008 57.6497 116.187 54.4753 114.773 53.1098H114.764Z" fill="#062B2B"/>
<path d="M72.8428 0.00226359C81.4608 -0.186121 85.7693 11.4278 86.1752 18.4829C86.618 26.1595 83.3183 40.2224 73.8329 40.9949C64.0273 41.7955 59.7656 28.2789 59.7656 20.5645C59.7656 12.8501 63.6407 0.209487 72.8428 0.00226359ZM72.5035 10.8626C62.3491 11.8517 61.3399 33.742 70.2972 37.9618C77.0952 41.1644 81.4889 32.282 81.8662 26.7624C82.2435 21.2427 79.9708 10.128 72.5035 10.8532V10.8626Z" fill="#062B2B"/>
<path d="M42.2937 20.5083C44.0945 20.2257 46.3763 21.8364 47.6869 22.9668C55.173 29.3907 62.8575 45.507 64.055 55.2277C64.9224 62.2546 62.9708 67.9435 55.7956 61.7551C47.932 54.9826 38.4845 35.2212 39.4085 24.86C39.5594 23.1174 40.3137 20.8097 42.2937 20.4989V20.5083ZM48.1677 34.3075C47.1777 34.5619 46.744 36.2196 46.6591 37.1145C46.084 43.4725 52.2599 56.3201 57.1812 60.3896C59.9346 62.6596 62.2448 62.5744 62.3669 58.4961C62.5275 53.2589 58.8598 45.0831 55.9842 40.722C54.6548 38.7157 50.9113 33.6011 48.1677 34.3075Z" fill="#062B2B"/>
<path d="M101.315 19.9988C104.426 19.622 105.199 23.5404 105.331 25.8952C105.907 36.0774 97.9019 56.1971 90.0572 62.8845C87.1816 65.3336 83.976 66.2001 82.7687 61.7074C80.9398 54.8783 85.1074 42.5861 88.0397 36.2093C90.0572 31.8199 96.1385 20.611 101.315 19.9893V19.9988ZM95.9597 34.1371C93.5175 34.5515 90.3306 39.5814 89.1898 41.6725C86.7949 46.0524 83.1179 55.7729 84.57 60.6052C85.2488 62.8751 86.8516 62.7245 88.5485 61.5376C93.8382 57.8264 100.127 42.3224 98.524 36.1434C98.1659 34.7588 97.5059 33.8639 95.969 34.1277L95.9597 34.1371Z" fill="#062B2B"/>
</g>
<defs>
<clipPath id="clip0_428_509">
<rect width="148" height="105" fill="white"/>
</clipPath>
</defs>
</svg>
