<svg width="1249" height="268" viewBox="0 0 1249 268" fill="none" xmlns="http://www.w3.org/2000/svg">
<path d="M133.801 267.34C133.514 267.34 133.235 267.34 132.948 267.332C97.4705 267.088 64.152 253.097 39.1218 227.928C-5.72363 182.812 0.26621 125.439 0.26621 125.439H63.0812C65.2577 55.1625 95.0241 1.10593 132.818 0.0873045C132.818 0.0873045 185.699 -3.7521 228.69 39.4914C273.518 84.598 267.554 141.98 267.554 141.98H204.73C203.233 190.099 188.816 230.627 167.721 251.722C158.022 261.42 146.904 267.001 134.985 267.314V267.332C134.663 267.34 134.341 267.34 133.932 267.349C133.923 267.349 133.915 267.349 133.906 267.349C133.906 267.349 133.888 267.349 133.88 267.349H133.801V267.34ZM170.829 48.7548C160.616 28.3214 147.157 16.6029 133.906 16.6029C126.358 16.6029 118.74 20.4075 111.696 27.4508C106.377 32.7703 101.38 39.9529 96.983 48.7548C92.064 58.5753 88.1201 69.8585 85.2122 82.1168C98.4369 69.6148 115.64 62.7456 133.906 62.7543C152.171 62.7543 169.375 69.6148 182.599 82.1168C179.692 69.8585 175.748 58.584 170.829 48.7548ZM170.829 218.656C175.739 208.826 179.7 197.552 182.591 185.294C169.375 197.787 152.171 204.656 133.915 204.656C115.658 204.656 98.4369 197.787 85.2122 185.294C88.1201 197.552 92.064 208.826 96.983 218.656C107.195 239.089 120.655 250.807 133.906 250.799C147.157 250.799 160.616 239.089 170.829 218.656Z" fill="white"/>
<path d="M1149.27 107.026L1150.48 103.396C1158.96 102.589 1170.05 97.5477 1179.73 97.5477L1179.53 122.353C1185.37 108.841 1196.47 95.7327 1211.19 95.5311C1229.34 95.3294 1236.8 111.06 1237.81 126.991C1238.61 143.326 1236.8 205.844 1241.24 214.717C1242.24 216.935 1246.08 217.742 1248.7 217.742V220.969H1212.4V217.742C1215.02 217.742 1218.85 216.935 1219.86 214.717C1223.29 207.86 1222.88 179.627 1222.88 170.35C1222.88 160.468 1222.68 140.503 1222.48 133.646C1221.88 112.471 1212.8 106.623 1205.54 106.623C1196.47 107.026 1182.75 116.505 1179.32 139.696L1179.12 170.35C1178.92 179.627 1178.72 207.86 1181.95 214.717C1182.95 216.935 1186.79 217.742 1189.41 217.742V220.969H1153.31V217.742C1155.93 217.742 1159.76 216.935 1160.77 214.717C1164 207.86 1163.8 179.627 1163.8 170.35C1163.8 143.125 1164.4 117.513 1160.57 108.236C1159.76 106.824 1158.75 106.623 1157.34 106.623C1154.92 106.623 1151.69 108.035 1149.27 107.026Z" fill="white"/>
<path d="M1131.85 158.048C1131.85 130.016 1128.43 98.9594 1107.05 98.9594C1085.47 98.9594 1082.24 130.621 1082.24 158.048C1082.24 186.08 1085.47 219.557 1107.05 219.557C1128.43 219.557 1131.85 185.677 1131.85 158.048ZM1107.05 93.716C1132.26 93.716 1150 119.53 1150 158.048C1150 195.962 1132.26 224.599 1107.05 224.599C1081.44 224.599 1063.89 195.962 1063.89 158.048C1063.89 119.933 1081.24 93.716 1107.05 93.716Z" fill="white"/>
<path d="M1017.32 107.026L1018.74 103.396C1027.21 102.388 1038.1 97.5477 1047.78 97.5477L1047.37 170.35C1047.37 179.627 1046.97 207.86 1050.2 214.717C1051.2 216.935 1055.04 217.742 1057.86 217.742L1057.66 220.969H1021.56V217.742C1024.18 217.742 1028.01 216.935 1029.02 214.717C1032.45 207.86 1032.05 179.627 1032.05 170.35C1032.05 143.125 1032.45 117.311 1028.62 108.236C1027.81 106.824 1026.8 106.623 1025.39 106.623C1022.97 106.623 1019.74 108.035 1017.32 107.026ZM1025.79 70.3225C1025.79 64.4741 1030.23 59.2308 1036.48 59.2308C1042.33 59.2308 1047.37 64.4741 1047.37 70.3225C1047.37 76.5742 1042.33 81.8176 1036.48 81.8176C1030.23 81.8176 1025.79 76.5742 1025.79 70.3225Z" fill="white"/>
<path d="M1013.85 104.203H995.095C994.691 135.058 994.288 162.888 994.691 193.744C994.893 208.062 998.725 215.12 1004.57 215.12C1008 215.12 1012.24 212.7 1016.87 207.86L1017.68 213.91C1012.03 220.162 1004.57 223.59 997.716 223.59C988.44 223.59 980.373 217.54 979.768 205.239C978.356 185.273 980.171 119.126 976.945 106.018C974.525 103.598 968.273 104.404 963.433 104.203V98.7578C974.525 99.1611 989.246 90.086 992.07 69.9192L995.498 69.7175L995.095 98.3544V98.7578H1014.05L1013.85 104.203Z" fill="white"/>
<path d="M946.138 158.048C946.138 130.016 942.71 98.9594 921.333 98.9594C899.755 98.9594 896.528 130.621 896.528 158.048C896.528 186.08 899.755 219.557 921.333 219.557C942.71 219.557 946.138 185.677 946.138 158.048ZM921.333 93.716C946.542 93.716 964.288 119.53 964.288 158.048C964.288 195.962 946.542 224.599 921.333 224.599C895.721 224.599 878.176 195.962 878.176 158.048C878.176 119.933 895.52 93.716 921.333 93.716Z" fill="white"/>
<path d="M805.722 140.906C805.924 165.308 805.319 207.457 808.949 214.717C809.957 216.935 813.789 217.742 816.41 217.742V220.969H780.11V217.742C782.732 217.742 786.563 216.935 787.572 214.717C791 207.86 790.597 179.627 790.597 170.35C790.597 160.468 790.395 140.503 790.193 133.646C789.588 113.076 780.513 106.623 773.253 106.623C764.178 107.026 750.465 116.505 747.036 139.696L746.835 170.35C746.633 179.627 746.431 207.86 749.658 214.717C750.666 216.935 754.498 217.742 757.12 217.742V220.969H721.021V217.742C723.643 217.742 727.475 216.935 728.483 214.717C731.71 207.86 731.508 179.627 731.508 170.35C731.508 143.125 732.113 117.513 728.281 108.236C727.475 106.824 726.466 106.623 725.055 106.623C722.635 106.623 719.408 108.035 716.988 107.026L718.198 103.396C726.668 102.589 737.76 97.5477 747.44 97.5477L747.238 122.353C753.087 108.841 764.178 95.7327 778.9 95.5311C795.84 95.3294 803.705 109.245 805.319 124.37C810.764 110.051 822.259 95.7327 837.787 95.5311C855.937 95.3294 863.399 111.06 864.407 126.991C865.214 143.326 863.399 205.844 867.836 214.717C868.844 216.935 872.676 217.742 875.297 217.742V220.969H838.997V217.742C841.619 217.742 845.451 216.935 846.459 214.717C849.887 207.86 849.484 179.627 849.484 170.35C849.484 160.468 849.282 140.503 849.081 133.646C848.476 113.076 839.401 106.623 832.141 106.623C822.864 107.026 808.949 116.908 805.722 140.906Z" fill="white"/>
<path d="M621.471 107.026L622.681 103.396C631.151 102.589 642.243 97.5477 651.923 97.5477L651.721 122.353C657.57 108.841 668.662 95.7327 683.383 95.5311C701.534 95.3294 708.995 111.06 710.004 126.991C710.81 143.326 708.995 205.844 713.432 214.717C714.44 216.935 718.272 217.742 720.894 217.742V220.969H684.593V217.742C687.215 217.742 691.047 216.935 692.055 214.717C695.483 207.86 695.08 179.627 695.08 170.35C695.08 160.468 694.878 140.503 694.677 133.646C694.072 112.471 684.997 106.623 677.737 106.623C668.662 107.026 654.948 116.505 651.52 139.696L651.318 170.35C651.116 179.627 650.915 207.86 654.141 214.717C655.15 216.935 658.981 217.742 661.603 217.742V220.969H625.505V217.742C628.126 217.742 631.958 216.935 632.966 214.717C636.193 207.86 635.991 179.627 635.991 170.35C635.991 143.125 636.596 117.513 632.765 108.236C631.958 106.824 630.95 106.623 629.538 106.623C627.118 106.623 623.891 108.035 621.471 107.026Z" fill="white"/>
<path d="M594.014 188.299C594.821 176.803 594.216 164.3 594.216 152.603C594.216 151.797 594.216 150.788 594.216 149.78C584.334 168.737 553.076 171.56 551.664 195.155C550.857 207.255 558.521 213.305 568.806 213.305C582.923 213.305 592.401 201.609 594.014 188.299ZM593.813 204.634C586.754 215.927 576.268 223.792 562.352 223.792C547.832 223.792 533.715 215.12 534.32 195.962C535.531 164.3 581.511 167.527 594.216 140.503C594.014 121.95 592.199 100.976 573.646 100.976C554.084 101.178 551.866 120.74 551.261 139.091C549.244 142.721 545.412 143.528 541.984 143.528C538.556 143.528 535.329 140.906 535.329 137.478C535.329 111.665 553.882 95.5311 575.461 95.5311C593.813 95.5311 608.131 108.236 609.543 129.613C609.744 134.251 609.745 138.89 609.745 143.528C609.745 155.225 608.333 204.432 612.971 211.894C613.778 213.104 614.786 213.709 616.198 213.709C618.215 213.709 620.231 212.7 622.45 212.7C623.055 212.7 623.66 212.902 624.265 213.104L622.853 216.734C613.979 217.742 603.089 223.389 593.813 223.389V204.634Z" fill="white"/>
<path d="M429.842 60.6424L431.254 56.8107C439.724 56.0041 450.614 51.164 460.294 51.164L460.092 122.756C465.739 109.043 477.033 95.7327 491.956 95.5311C510.106 95.3294 517.568 111.06 518.375 126.991C519.383 143.326 517.568 205.844 521.803 214.717C522.811 216.935 526.643 217.742 529.466 217.742L529.265 220.969H493.166V217.742C495.788 217.742 499.619 216.935 500.628 214.717C503.854 207.86 503.653 179.627 503.653 170.35C503.653 160.468 503.451 140.503 503.249 133.646C502.443 112.471 493.569 106.623 486.108 106.623C477.033 107.026 463.319 116.706 459.891 140.503L459.689 170.35C459.689 179.627 459.286 207.86 462.714 214.717C463.722 216.935 467.554 217.742 470.176 217.742V220.969H434.077L433.876 217.742C436.699 217.742 440.329 216.935 441.539 214.717C444.766 207.86 444.362 179.627 444.564 170.35C444.564 143.125 444.967 70.9275 441.337 61.6508C440.531 60.4408 439.522 60.0374 438.111 60.0374C435.691 60.0374 432.464 61.4491 429.842 60.6424Z" fill="white"/>
<path d="M377.998 55.8024H375.174C372.351 55.8024 371.141 57.4157 371.141 60.4408L370.738 156.637L354.806 155.628C355.007 96.7411 353.797 64.2725 351.377 58.8274C349.966 56.0041 346.941 54.1891 341.496 54.5924V51.164L371.141 50.9624L378.603 51.164C410.87 51.3657 428.415 64.2725 428.415 94.7244C428.415 123.361 411.676 143.528 384.854 143.931L367.511 144.133L367.713 138.89L381.224 138.688C398.971 138.688 410.668 121.143 410.466 94.9261C410.063 65.8858 398.971 55.3991 377.998 55.8024ZM354.806 155.628L370.738 156.637C370.536 185.878 369.729 207.659 373.763 214.717C374.771 216.33 377.594 217.339 381.628 217.742V220.969H343.109V217.742C347.747 217.339 350.772 216.33 351.781 214.717C355.612 208.062 355.007 185.273 354.806 155.628Z" fill="white"/>
</svg>
