<svg width="215" height="80" viewBox="0 0 215 80" fill="none" xmlns="http://www.w3.org/2000/svg">
<g clip-path="url(#clip0_428_590)">
<path d="M211.802 27.3521V66.8052C207.918 70.6895 205.741 72.8643 201.859 76.7486H12.3121C8.43021 72.8643 6.25301 70.6895 2.37109 66.8052V27.3521H211.802Z" fill="#074F39" stroke="#231F20" stroke-width="4.74852" stroke-miterlimit="10"/>
<path d="M12.3145 61.7125H201.859L211.805 51.7714V12.3183L201.861 2.37494H12.3145L2.37109 12.3183V51.7691L12.3145 61.7125Z" fill="#007956" stroke="#231F20" stroke-width="4.74852" stroke-miterlimit="10"/>
<path d="M24.8784 11.5068L15.7969 20.5883V52.3441H27.464V23.1739H62.4677V26.0919H30.382V42.847L39.879 52.3441H74.1372V40.6769H42.0491V37.759H64.6402L74.1372 28.2619V21.0038L64.6402 11.5068H24.8784Z" fill="#F9F9F4"/>
<path d="M124.591 11.7449H87.417C83.7084 15.4535 81.6285 17.5334 77.9199 21.242V52.5822H89.587V37.9971H124.591V52.5822H136.258V21.242C132.549 17.5334 130.469 15.4535 126.761 11.7449H124.591ZM89.587 26.33V23.4121H124.591V26.33H89.587Z" fill="#F9F9F4"/>
<path d="M198.383 23.174V11.5068H150.653C146.51 15.6499 144.188 17.9719 140.045 22.115V42.8471C143.754 46.5557 145.833 48.6355 149.542 52.3441H151.712H186.716H188.886C192.594 48.6355 194.674 46.5557 198.383 42.8471V35.589C194.674 31.8804 192.594 29.8005 188.886 26.0919H186.716H154.63V37.759H186.716V40.677H151.712V23.1763H198.383V23.174Z" fill="#F9F9F4"/>
<path d="M56.0464 72.4748L54.748 69.6769C54.6444 69.683 54.4829 69.6861 54.2634 69.6861H53.5137V72.4748H52.6451V65.8459H54.2634C54.6596 65.8459 54.9979 65.8733 55.2783 65.9282C55.5648 65.977 55.83 66.0684 56.0738 66.2025C56.3237 66.3305 56.5096 66.5225 56.6315 66.7785C56.7595 67.0345 56.8235 67.3546 56.8235 67.7386C56.8235 68.6712 56.4243 69.2625 55.6258 69.5124L57.0338 72.4748H56.0464ZM54.364 66.6688H53.5137V68.8632H54.364C54.62 68.8632 54.8273 68.8541 54.9857 68.8358C55.1442 68.8114 55.3027 68.7657 55.4612 68.6986C55.6258 68.6255 55.7446 68.5127 55.8178 68.3603C55.8909 68.2018 55.9275 68.0007 55.9275 67.7569C55.9275 67.5557 55.9001 67.3881 55.8452 67.254C55.7903 67.1138 55.7202 67.0071 55.6349 66.934C55.5557 66.8547 55.4398 66.7968 55.2875 66.7602C55.1412 66.7176 55.001 66.6932 54.8669 66.6871C54.7389 66.6749 54.5712 66.6688 54.364 66.6688ZM61.619 65.8459L63.7951 72.4748H62.8625L62.4145 71.0576H59.8818L59.4429 72.4748H58.5103L60.6864 65.8459H61.619ZM61.1527 67.0071L60.1378 70.2438H62.1585L61.1527 67.0071ZM68.1701 67.8666L68.9015 71.213L69.3953 65.8459H70.2639L69.5964 72.4748H68.4718L67.7037 69.0186L66.9357 72.4748H65.8019L65.1436 65.8459H66.0122L66.4968 71.213L67.2283 67.8666H68.1701ZM81.2721 65.8459L83.4482 72.4748H82.5156L82.0676 71.0576H79.5349L79.096 72.4748H78.1634L80.3395 65.8459H81.2721ZM80.8058 67.0071L79.7909 70.2438H81.8115L80.8058 67.0071ZM85.3178 72.4748V65.8459H87.2745C88.7252 65.8459 89.4506 66.3915 89.4506 67.4826C89.4506 67.7995 89.3927 68.0891 89.2769 68.3512C89.1611 68.6133 88.9995 68.8083 88.7923 68.9363C89.3957 69.2167 89.6975 69.741 89.6975 70.509C89.6975 71.1734 89.4872 71.6671 89.0666 71.9902C88.6521 72.3133 88.1218 72.4748 87.4757 72.4748H85.3178ZM86.1865 69.4392V71.6519H87.5488C88.3839 71.6519 88.8014 71.274 88.8014 70.5181C88.8014 70.1341 88.6948 69.8598 88.4814 69.6952C88.2742 69.5246 87.942 69.4392 87.4848 69.4392H86.1865ZM86.1865 66.6688V68.662H87.4574C88.2071 68.662 88.582 68.3116 88.582 67.6106C88.582 66.9827 88.2071 66.6688 87.4574 66.6688H86.1865ZM93.4689 72.4748V66.6688H91.4757V65.8459H96.3308V66.6688H94.3375V72.4748H93.4689ZM101.903 72.4748L100.605 69.6769C100.501 69.683 100.34 69.6861 100.121 69.6861H99.3708V72.4748H98.5022V65.8459H100.121C100.517 65.8459 100.855 65.8733 101.135 65.9282C101.422 65.977 101.687 66.0684 101.931 66.2025C102.181 66.3305 102.367 66.5225 102.489 66.7785C102.617 67.0345 102.681 67.3546 102.681 67.7386C102.681 68.6712 102.281 69.2625 101.483 69.5124L102.891 72.4748H101.903ZM100.221 66.6688H99.3708V68.8632H100.221C100.477 68.8632 100.684 68.8541 100.843 68.8358C101.001 68.8114 101.16 68.7657 101.318 68.6986C101.483 68.6255 101.602 68.5127 101.675 68.3603C101.748 68.2018 101.785 68.0007 101.785 67.7569C101.785 67.5557 101.757 67.3881 101.702 67.254C101.647 67.1138 101.577 67.0071 101.492 66.934C101.413 66.8547 101.297 66.7968 101.145 66.7602C100.998 66.7176 100.858 66.6932 100.724 66.6871C100.596 66.6749 100.428 66.6688 100.221 66.6688ZM107.476 65.8459L109.652 72.4748H108.72L108.272 71.0576H105.739L105.3 72.4748H104.367L106.544 65.8459H107.476ZM107.01 67.0071L105.995 70.2438H108.016L107.01 67.0071ZM115.024 70.4176H115.892C115.783 71.1185 115.524 71.658 115.115 72.0359C114.707 72.4077 114.198 72.5937 113.588 72.5937C112.808 72.5937 112.217 72.2828 111.814 71.661C111.412 71.0332 111.211 70.1951 111.211 69.1466C111.211 68.0982 111.424 67.2662 111.851 66.6505C112.278 66.0288 112.878 65.7179 113.652 65.7179C114.219 65.7179 114.704 65.9221 115.106 66.3305C115.508 66.7328 115.764 67.2723 115.874 67.9489H114.987C114.926 67.5344 114.783 67.1961 114.557 66.934C114.332 66.6658 114.021 66.5317 113.625 66.5317C113.143 66.5317 112.768 66.7572 112.5 67.2083C112.238 67.6593 112.107 68.3055 112.107 69.1466C112.107 69.9756 112.238 70.6248 112.5 71.0942C112.762 71.5574 113.143 71.789 113.643 71.789C114.045 71.789 114.359 71.6671 114.585 71.4233C114.817 71.1734 114.963 70.8381 115.024 70.4176ZM119.673 72.4748V66.6688H117.68V65.8459H122.535V66.6688H120.542V72.4748H119.673ZM133.232 66.5317C132.708 66.5317 132.309 66.7572 132.034 67.2083C131.766 67.6532 131.632 68.2994 131.632 69.1466C131.632 69.9878 131.763 70.64 132.025 71.1033C132.293 71.5605 132.696 71.789 133.232 71.789C134.262 71.789 134.777 71.2161 134.777 70.0701V69.8598H133.25V69.0369H135.573V72.4748H134.915L134.878 71.6428C134.683 71.978 134.451 72.2218 134.183 72.3742C133.921 72.5205 133.592 72.5937 133.196 72.5937C132.373 72.5937 131.757 72.2828 131.349 71.661C130.94 71.0393 130.736 70.2012 130.736 69.1466C130.736 68.0921 130.952 67.2601 131.385 66.6505C131.824 66.0349 132.455 65.7271 133.278 65.7271C133.894 65.7271 134.399 65.9191 134.796 66.3031C135.198 66.6871 135.451 67.2174 135.555 67.894H134.659C134.531 66.9858 134.055 66.5317 133.232 66.5317ZM137.918 66.6688C138.345 66.041 138.96 65.7271 139.765 65.7271C140.57 65.7271 141.182 66.041 141.603 66.6688C142.029 67.2906 142.243 68.1195 142.243 69.1558C142.243 70.192 142.029 71.0241 141.603 71.6519C141.182 72.2797 140.57 72.5937 139.765 72.5937C138.96 72.5937 138.345 72.2797 137.918 71.6519C137.497 71.0241 137.287 70.192 137.287 69.1558C137.287 68.1195 137.497 67.2906 137.918 66.6688ZM141.347 69.1558C141.347 67.4064 140.819 66.5317 139.765 66.5317C138.71 66.5317 138.183 67.4064 138.183 69.1558C138.183 70.9113 138.71 71.789 139.765 71.789C140.819 71.789 141.347 70.9113 141.347 69.1558ZM144.469 66.6688C144.896 66.041 145.511 65.7271 146.316 65.7271C147.121 65.7271 147.733 66.041 148.154 66.6688C148.58 67.2906 148.794 68.1195 148.794 69.1558C148.794 70.192 148.58 71.0241 148.154 71.6519C147.733 72.2797 147.121 72.5937 146.316 72.5937C145.511 72.5937 144.896 72.2797 144.469 71.6519C144.048 71.0241 143.838 70.192 143.838 69.1558C143.838 68.1195 144.048 67.2906 144.469 66.6688ZM147.898 69.1558C147.898 67.4064 147.37 66.5317 146.316 66.5317C145.261 66.5317 144.734 67.4064 144.734 69.1558C144.734 70.9113 145.261 71.789 146.316 71.789C147.37 71.789 147.898 70.9113 147.898 69.1558ZM154.266 70.2804C154.369 69.9634 154.421 69.5886 154.421 69.1558C154.421 68.723 154.369 68.3512 154.266 68.0403C154.168 67.7233 154.043 67.4795 153.891 67.3088C153.739 67.1321 153.54 66.9949 153.297 66.8974C153.059 66.7999 152.833 66.7389 152.62 66.7145C152.413 66.684 152.166 66.6688 151.879 66.6688H151.642V71.6519H151.879C152.166 71.6519 152.413 71.6397 152.62 71.6153C152.833 71.5848 153.059 71.5208 153.297 71.4233C153.54 71.3197 153.739 71.1825 153.891 71.0119C154.043 70.8351 154.168 70.5913 154.266 70.2804ZM150.773 65.8459H151.907C154.174 65.8459 155.308 66.9492 155.308 69.1558C155.308 69.7653 155.22 70.2926 155.043 70.7376C154.872 71.1764 154.626 71.5208 154.302 71.7708C153.985 72.0146 153.629 72.1944 153.233 72.3102C152.843 72.4199 152.401 72.4748 151.907 72.4748H150.773V65.8459ZM158.888 69.3478C158.406 69.2442 158.007 69.043 157.69 68.7443C157.373 68.4396 157.214 68.0403 157.214 67.5466C157.214 66.9919 157.422 66.5499 157.836 66.2208C158.257 65.8916 158.775 65.7271 159.391 65.7271C159.951 65.7271 160.442 65.8855 160.863 66.2025C161.283 66.5134 161.527 66.9766 161.594 67.5923H160.735C160.686 67.2266 160.527 66.9583 160.259 66.7877C159.997 66.617 159.692 66.5317 159.345 66.5317C159.01 66.5317 158.72 66.617 158.476 66.7877C158.232 66.9523 158.11 67.1961 158.11 67.5191C158.11 68.0312 158.43 68.3603 159.071 68.5066L159.729 68.6529C160.351 68.7931 160.838 69.0125 161.192 69.3112C161.551 69.6038 161.731 70.0396 161.731 70.6187C161.731 71.2222 161.521 71.7037 161.1 72.0633C160.68 72.4169 160.143 72.5937 159.491 72.5937C158.815 72.5937 158.254 72.3956 157.809 71.9993C157.37 71.597 157.132 71.0667 157.096 70.4084H157.955C157.998 70.8473 158.159 71.1886 158.44 71.4325C158.726 71.6702 159.086 71.789 159.519 71.789C159.878 71.789 160.189 71.6946 160.451 71.5056C160.719 71.3105 160.853 71.0363 160.853 70.6827C160.853 70.0975 160.439 69.7105 159.61 69.5215L158.888 69.3478Z" fill="white"/>
</g>
<defs>
<clipPath id="clip0_428_590">
<rect width="214.18" height="79.1222" fill="white"/>
</clipPath>
</defs>
</svg>
