<svg width="876" height="358" viewBox="0 0 876 358" fill="none" xmlns="http://www.w3.org/2000/svg">
<path d="M313.032 137.497C328.213 140.626 342.717 137.497 348.045 121.872C352.929 109.377 349.313 90.6226 332.124 90.6226C314.935 90.6226 303.348 95.2952 298.232 109.377C293.347 121.872 299.416 134.389 313.032 137.497Z" fill="black"/>
<path d="M855.774 98.4427H818.161C820.19 91.8672 822.093 85.778 823.827 80.3442C828.098 66.8548 818.034 53.1117 803.889 53.1117C794.945 53.1117 786.974 58.8204 784.099 67.2777C780.209 78.695 776.741 88.9072 773.57 98.4216H759.044C750.693 98.4216 743.25 103.75 740.565 111.657C736.252 124.322 745.661 137.494 759.044 137.494H761.201C752.913 165.615 746.379 193.46 737.732 238.538C708.618 285.877 666.268 315.605 637.999 315.605C617.681 315.605 599.138 303.109 595.29 285.919C715.595 285.919 757.459 143.753 673.076 143.753C641.129 143.753 587.805 158.595 556.387 240.208C549.473 236.529 543.278 231.962 538.373 227.141C544.356 209.614 549.029 193.016 552.348 179.4C555.604 166.016 545.456 153.14 531.691 153.14C521.691 153.14 513.001 160.117 510.908 169.907C499.554 222.955 466.803 315.647 445.808 315.647C424.813 315.647 423.332 231.814 427.096 177.983C428.026 164.558 417.412 153.14 403.965 153.14C391.723 153.14 381.575 162.655 380.814 174.875C379.735 191.853 378.826 215.132 378.445 239.066C378.657 252.682 379.291 267.44 381.131 281.712C374.217 299.324 364.11 315.605 348.951 315.605C311.95 315.605 323.452 223.526 331.233 177.941C333.453 164.959 323.452 153.098 310.28 153.098C299.856 153.098 290.976 160.646 289.285 170.943C286.071 190.648 281.271 220.037 278.417 245.473C267.613 280.824 254.906 312.475 225.94 312.475C185.323 312.475 175.365 249.976 172.595 214.054C218.095 201.558 272.476 159.356 282.371 99.9862C288.291 57.8055 269.875 0 213.613 0C178.114 0 140.627 26.0484 107.157 63.9793C97.262 48.4602 84.5761 33.9983 68.3382 21.6295C58.718 14.2928 44.8903 16.5551 38.0399 26.5347C31.7604 35.6686 33.6422 48.0373 42.2263 55.0357C58.4643 68.2714 70.1142 83.8962 78.4446 100.663C7.78404 201.833 -32.0286 344.106 32.733 353.113C70.9811 357.976 117.729 308.86 134.368 244.859C141.578 296.449 162.235 357.785 219.554 357.785C249.831 357.785 271.292 341.59 286.811 320.087C297.488 341.59 314.847 354.677 334.066 354.677C356.583 354.677 374.851 332.561 386.438 308.374C394.028 334.697 408.723 354.677 437.181 354.677C478.072 354.677 509.724 301.565 530.402 248.877C535.074 257.947 541.037 265.432 547.549 271.225C539.324 325.796 578.291 354.656 615.292 354.656C654.808 354.656 699.547 327.233 731.896 269.83C725.426 317.719 737.52 354.656 784.035 354.656C818.435 354.656 836.64 325.648 845.964 301.861C849.749 292.178 845.668 281.226 836.428 276.469C825.434 270.802 811.945 276.257 808.033 287.992C803.466 301.692 797.757 315.583 791.097 315.583C780.166 315.583 777.439 290.571 777.629 278.075C776.974 247.904 792.006 187.9 806.532 137.452H855.795C863.893 137.452 871.167 132.441 874.042 124.872C878.905 112.08 869.475 98.4005 855.795 98.4005L855.774 98.4427ZM673.161 187.498C691.027 193.756 652.102 248.433 604.572 253.126C611.422 226.571 648.148 176.567 673.161 187.498ZM44.7001 312.475C18.9688 308.86 46.8778 218.24 92.822 142.59C96.6066 159.927 98.2135 177.37 98.8901 193.714C101.723 262.451 63.0101 315.583 44.7001 312.454V312.475ZM140.035 178.766C138.766 153.859 134.559 125.273 123.966 97.6816C150.754 64.2965 180.355 40.6161 207.883 40.6161C235.412 40.6161 245.899 70.3011 241.734 99.9862C234.503 151.47 175.069 183.29 140.035 178.745V178.766Z" fill="black"/>
</svg>
