<svg width="935" height="423" viewBox="0 0 935 423" fill="none" xmlns="http://www.w3.org/2000/svg">
<g clip-path="url(#clip0_11_59)">
<path d="M931.892 179.802C926.796 193.185 913.73 202.192 899.416 202.192H861.633C853.154 232.343 847.382 255.896 843.534 274.27C848.714 274.46 853.894 275.792 858.525 278.181C862.965 280.443 866.686 283.551 869.667 287.167C869.984 287.526 870.28 287.907 870.576 288.266C870.894 288.626 871.19 289.006 871.507 289.387C871.824 289.746 872.12 290.106 872.416 290.486C872.733 290.846 873.029 291.226 873.346 291.586C873.663 291.945 873.959 292.326 874.255 292.685C874.572 293.045 874.868 293.425 875.186 293.806C875.503 294.144 875.799 294.525 876.095 294.905C876.412 295.265 876.708 295.624 877.004 296.005C877.342 296.364 877.638 296.745 877.934 297.104C878.251 297.464 878.547 297.844 878.843 298.204C879.182 298.563 879.457 298.944 879.774 299.324C880.091 299.684 880.387 300.043 880.683 300.424C881 300.783 881.296 301.164 881.613 301.523C881.93 301.883 882.226 302.263 882.522 302.623C882.839 302.982 883.135 303.363 883.453 303.743C883.77 304.103 884.066 304.462 884.362 304.843C884.679 305.202 884.975 305.583 885.292 305.942C885.609 306.302 885.905 306.682 886.201 307.042C886.518 307.401 886.814 307.782 887.131 308.141C887.449 308.5 887.745 308.881 888.041 309.262C888.358 309.621 888.654 309.98 888.95 310.361C889.288 310.72 889.563 311.101 889.88 311.46C890.197 311.82 890.493 312.201 890.789 312.56C891.106 312.919 891.402 313.3 891.72 313.681C892.037 314.04 892.333 314.399 892.629 314.78C892.946 315.139 893.242 315.52 893.559 315.879C893.876 316.239 894.172 316.619 894.468 316.979C894.785 317.338 895.081 317.719 895.398 318.099C895.716 318.438 896.012 318.818 896.308 319.199C896.625 319.558 896.921 319.918 897.217 320.298C905.928 330.003 908.803 344.042 903.771 356.897C887.745 397.767 861.442 419.354 827.677 419.354C805.646 419.354 788.372 412.377 776.341 398.592C776.066 398.296 775.834 397.978 775.58 397.682C775.538 397.619 775.474 397.556 775.411 397.492C775.157 397.196 774.925 396.879 774.671 396.562C774.607 396.498 774.544 396.435 774.502 396.372C774.227 396.076 773.994 395.758 773.741 395.462C773.698 395.399 773.635 395.336 773.571 395.272C773.318 394.976 773.085 394.659 772.831 394.363C772.768 394.3 772.704 394.236 772.662 394.173C772.408 393.877 772.176 393.56 771.922 393.264C771.859 393.2 771.795 393.137 771.732 393.073C771.478 392.777 771.246 392.46 770.992 392.143C770.928 392.08 770.886 392.037 770.823 391.953C770.569 391.678 770.336 391.339 770.083 391.043C770.019 390.98 769.956 390.917 769.892 390.853C769.639 390.557 769.406 390.24 769.152 389.944C769.089 389.881 769.047 389.817 768.983 389.754C768.73 389.458 768.497 389.141 768.243 388.845L768.053 388.654C767.799 388.358 767.567 388.041 767.313 387.745C767.271 387.661 767.207 387.618 767.144 387.555C766.89 387.259 766.658 386.921 766.404 386.625C766.34 386.561 766.277 386.498 766.235 386.434C765.96 386.138 765.727 385.821 765.474 385.525C765.431 385.462 765.368 385.398 765.304 385.335C765.051 385.039 764.818 384.722 764.564 384.426C764.501 384.362 764.437 384.299 764.395 384.235C764.12 383.939 763.888 383.622 763.634 383.326C763.592 383.263 763.528 383.199 763.465 383.136C763.211 382.84 762.979 382.523 762.725 382.206C762.661 382.142 762.598 382.079 762.556 382.015C762.302 381.719 762.048 381.402 761.816 381.106L761.625 380.916C761.372 380.62 761.139 380.303 760.885 380.007C760.822 379.943 760.78 379.88 760.716 379.816C760.463 379.52 760.23 379.203 759.976 378.907L759.786 378.717C759.532 378.421 759.3 378.104 759.046 377.787C758.983 377.723 758.94 377.681 758.877 377.618C758.623 377.322 758.391 376.983 758.137 376.687L757.947 376.497C757.693 376.201 757.46 375.884 757.207 375.588C757.164 375.524 757.101 375.461 757.037 375.398C756.784 375.102 756.551 374.784 756.297 374.488C756.234 374.425 756.17 374.362 756.128 374.298C755.853 374.002 755.621 373.685 755.367 373.389C755.325 373.304 755.261 373.262 755.198 373.199C755.113 373.093 755.05 373.008 754.986 372.924C726.549 402.609 692.783 419.354 658.933 419.354C634.132 419.354 610.008 408.571 594.467 390.473C594.15 390.134 593.854 389.754 593.558 389.394C593.262 389.056 592.966 388.675 592.67 388.316C592.649 388.316 592.649 388.316 592.649 388.316C592.353 387.978 592.036 387.597 591.74 387.238C591.74 387.238 591.74 387.238 591.719 387.238C591.423 386.878 591.127 386.519 590.831 386.159H590.81C590.514 385.779 590.218 385.419 589.9 385.039H589.879C589.583 384.679 589.287 384.299 588.991 383.939C588.695 383.601 588.399 383.221 588.082 382.861V382.84C587.786 382.481 587.49 382.121 587.194 381.762H587.173C586.877 381.402 586.581 381.043 586.285 380.683C586.285 380.683 586.271 380.669 586.243 380.641C585.947 380.303 585.651 379.922 585.355 379.563C585.355 379.563 585.333 379.563 585.333 379.542C585.037 379.203 584.741 378.823 584.445 378.463V378.442C584.149 378.104 583.832 377.723 583.536 377.364C583.24 376.983 582.944 376.624 582.648 376.264C582.648 376.264 582.648 376.25 582.648 376.222C582.352 375.884 582.035 375.503 581.739 375.144C581.443 374.784 581.147 374.404 580.851 374.044C580.83 374.044 580.83 374.044 580.83 374.044C580.534 373.706 580.217 373.325 579.921 372.966V372.945C579.625 372.585 579.329 372.226 579.033 371.867H579.012C578.716 371.507 578.42 371.148 578.102 370.767H578.081C577.785 370.408 577.489 370.027 577.193 369.668C576.897 369.329 576.601 368.949 576.305 368.589C576.305 368.589 576.305 368.589 576.263 368.589C575.967 368.251 575.671 367.871 575.375 367.511C575.079 367.152 574.783 366.792 574.487 366.433C574.487 366.433 574.48 366.419 574.466 366.391C574.149 366.052 573.853 365.672 573.557 365.312C573.557 365.312 573.557 365.312 573.557 365.291C573.261 364.953 572.965 364.572 572.669 364.213C572.648 364.213 572.648 364.192 572.648 364.192C572.352 363.853 572.034 363.473 571.738 363.113C571.738 363.113 571.731 363.106 571.717 363.092C571.421 362.733 571.125 362.373 570.829 362.014C570.533 361.633 570.237 361.274 569.92 360.914C569.92 360.914 569.913 360.9 569.899 360.872C569.603 360.534 569.307 360.153 569.011 359.794C568.715 359.434 568.419 359.054 568.102 358.694V358.673C567.806 358.314 567.51 357.954 567.214 357.595H567.193C566.897 357.236 566.601 356.876 566.305 356.517C566.305 356.517 566.29 356.503 566.262 356.474C565.734 355.861 565.184 355.206 564.655 354.529C544.062 390.071 520.974 411.468 496.342 417.684L481.119 419.608C466.149 419.608 447.966 415.083 433.504 397.788C433.187 397.429 432.891 397.048 432.574 396.689C432.278 396.329 431.982 395.949 431.665 395.589C431.348 395.23 431.052 394.849 430.756 394.469C430.438 394.13 430.142 393.729 429.825 393.369C429.508 393.01 429.212 392.629 428.916 392.27C428.599 391.91 428.303 391.53 427.986 391.17C427.986 391.17 427.979 391.17 427.965 391.17C420.734 400.431 412.805 407.535 404.411 412.335C396.017 417.134 387.158 419.608 378.003 419.608C359.609 419.608 342.314 410.728 329.162 395.103C310.62 413.434 288.61 422.716 263.492 422.716C238.374 422.716 215.962 412.25 199.132 392.27C198.815 391.91 198.519 391.53 198.223 391.17C197.905 390.811 197.609 390.43 197.292 390.071C196.996 389.711 196.679 389.331 196.383 388.971C196.066 388.612 195.77 388.231 195.453 387.851C195.157 387.513 194.84 387.132 194.544 386.751C194.227 386.392 193.931 386.011 193.613 385.652C193.317 385.293 193.021 384.912 192.704 384.553C192.387 384.193 192.091 383.813 191.795 383.453C191.478 383.094 191.182 382.713 190.865 382.332C190.548 381.973 190.252 381.592 189.956 381.233C189.638 380.874 189.342 380.493 189.025 380.134C188.708 379.774 188.412 379.394 188.116 379.034C187.799 378.675 187.503 378.294 187.186 377.914C186.89 377.554 186.573 377.174 186.277 376.814C185.96 376.455 185.664 376.074 185.346 375.715C185.05 375.355 184.733 374.975 184.437 374.615C184.12 374.256 183.824 373.875 183.507 373.495C183.211 373.135 182.915 372.776 182.598 372.395C182.281 372.036 181.985 371.655 181.689 371.296C181.371 370.936 181.075 370.556 180.758 370.196C180.441 369.837 180.145 369.456 179.849 369.097C179.532 368.737 179.236 368.357 178.919 367.976C178.602 367.617 178.306 367.236 178.01 366.877C177.693 366.517 177.397 366.137 177.079 365.777C176.783 365.418 176.466 365.037 176.17 364.678C175.853 364.318 175.557 363.938 175.24 363.557C174.944 363.198 174.627 362.838 174.331 362.458C174.014 362.098 173.718 361.718 173.401 361.358C173.105 360.999 172.808 360.618 172.491 360.259C172.174 359.9 171.878 359.519 171.582 359.16C170.61 358.039 169.679 356.876 168.749 355.692C145.639 393.306 112.846 418.382 81.9773 418.382C79.5458 418.382 77.1144 418.213 74.7463 417.917C61.7644 416.119 51.2139 410.39 43.4755 401.129C43.1161 400.727 42.7567 400.304 42.4184 399.881C42.1012 399.522 41.8052 399.141 41.4881 398.782C41.1709 398.422 40.8749 398.042 40.5789 397.661C40.2618 397.323 39.9658 396.942 39.6486 396.562C39.3526 396.202 39.0355 395.843 38.7394 395.462C38.4223 395.103 38.1263 394.722 37.8091 394.363C37.5131 394.004 37.196 393.623 36.9 393.264C36.5828 392.904 36.2868 392.524 35.9908 392.143C35.6737 391.784 35.3777 391.424 35.0605 391.043C34.7434 390.684 34.4474 390.303 34.1514 389.944C33.8342 389.585 33.5382 389.204 33.2211 388.845C32.9039 388.485 32.6079 388.105 32.3119 387.724C31.9948 387.386 31.6988 387.005 31.3816 386.625C31.0645 386.265 30.7685 385.885 30.4725 385.525C30.1553 385.166 29.8593 384.785 29.5422 384.426C29.225 384.066 28.929 383.686 28.633 383.326C28.3159 382.967 28.0199 382.586 27.7027 382.206C27.4067 381.846 27.0895 381.487 26.7935 381.106C26.4764 380.747 26.1804 380.366 25.8844 380.007C25.5672 379.647 25.2712 379.267 24.9541 378.907C24.6369 378.548 24.3409 378.167 24.0449 377.787C23.7278 377.427 23.4318 377.068 23.1146 376.687C22.7975 376.328 22.5015 375.947 22.2055 375.588C21.8883 375.228 21.5923 374.848 21.2752 374.488C20.958 374.129 20.662 373.748 20.366 373.389C20.0489 373.029 19.7529 372.649 19.4357 372.268C19.1397 371.909 18.8226 371.528 18.5266 371.169C18.2094 370.809 17.9134 370.429 17.5963 370.069C17.3002 369.71 16.9831 369.329 16.6871 368.97C16.3277 368.547 15.9682 368.103 15.6088 367.659C12.1202 363.642 9.18126 358.948 6.83436 353.578C-15.7889 301.756 23.4318 194.116 75.6978 115.801C73.964 114.3 72.3994 112.693 71.0251 110.96C70.708 110.6 70.412 110.241 70.0948 109.86C69.7988 109.501 69.4817 109.12 69.1857 108.761C68.8685 108.401 68.5725 108.021 68.2765 107.661C67.9594 107.281 67.6422 106.921 67.3462 106.541C67.0291 106.181 66.733 105.822 66.437 105.441C66.1199 105.082 65.8027 104.722 65.5067 104.342C65.1896 103.982 64.8936 103.602 64.5976 103.242C64.2804 102.883 63.9633 102.502 63.6673 102.122C63.3501 101.762 63.0541 101.403 62.7581 101.022C62.441 100.663 62.145 100.303 61.8278 99.9228C61.5107 99.5633 61.2147 99.1828 60.9187 98.8233C60.6015 98.4639 60.3055 98.0833 59.9884 97.7239C59.6924 97.3433 59.3752 96.9839 59.0792 96.6033C58.7621 96.2438 58.4661 95.8844 58.1701 95.5038C57.8529 95.1444 57.5358 94.7638 57.2398 94.4044C56.9226 94.045 56.6266 93.6644 56.3306 93.3049C56.0134 92.9244 55.6963 92.5649 55.4003 92.1844C55.0831 91.8249 54.7871 91.4655 54.4911 91.0849C54.174 90.7255 53.8568 90.366 53.5608 89.9855C53.2437 89.626 52.9477 89.2455 52.6517 88.886C52.3345 88.5266 52.0385 88.146 51.7214 87.7654C51.4042 87.406 51.1082 87.0466 50.8122 86.666C50.4951 86.3065 50.1991 85.9471 49.8819 85.5665C49.5859 85.2071 49.2688 84.8265 48.9728 84.4671C48.6556 84.1077 48.3596 83.7271 48.0636 83.3676C47.7465 82.9871 47.4293 82.6276 47.1333 82.2471C46.8162 81.8876 46.5201 81.5282 46.2241 81.1476C45.907 80.7882 45.5898 80.4076 45.2938 80.0482C44.9767 79.6887 44.6807 79.3081 44.3847 78.9487C44.0675 78.5893 43.7504 78.2087 43.4544 77.8281C32.6714 65.4594 31.3393 47.3608 40.9172 33.3851C47.7253 23.4901 58.9735 17.57 70.9828 17.57C78.9961 17.57 86.6077 20.1283 92.9929 24.9913C103.459 32.9622 112.952 42.0538 121.409 52.1603C121.727 52.5197 122.023 52.9003 122.34 53.2597C122.657 53.6192 122.953 53.9997 123.249 54.3592C123.566 54.7186 123.862 55.0992 124.158 55.4586C159.573 19.0077 195.58 0 228.753 0C253.068 0 273.915 9.21843 289.075 26.6616C289.35 26.9787 289.582 27.2959 289.857 27.613L290.005 27.761C290.28 28.0782 290.513 28.3953 290.766 28.7125C290.83 28.7548 290.872 28.8182 290.914 28.8605C291.189 29.1776 291.422 29.4948 291.697 29.8119C291.739 29.8753 291.781 29.9176 291.845 29.9811C292.098 30.2771 292.352 30.6154 292.606 30.9114C292.669 30.9748 292.712 31.0171 292.754 31.0805C293.029 31.3765 293.261 31.7148 293.536 32.0319L293.684 32.18C293.938 32.4971 294.192 32.8142 294.445 33.1314C294.488 33.1737 294.551 33.2371 294.593 33.2794C294.868 33.5965 295.101 33.9137 295.376 34.2308C295.418 34.2943 295.46 34.3366 295.524 34.4C295.777 34.696 296.031 35.0131 296.285 35.3303C296.327 35.3937 296.39 35.436 296.433 35.4994C296.708 35.7954 296.94 36.1337 297.215 36.4297C297.257 36.4932 297.3 36.5354 297.342 36.5989C297.617 36.916 297.871 37.2332 298.124 37.5503L298.272 37.6983C298.547 38.0155 298.78 38.3326 299.033 38.6498C299.097 38.7132 299.139 38.7555 299.181 38.7978C299.456 39.1149 299.689 39.4321 299.964 39.7492C300.006 39.8126 300.069 39.8549 300.112 39.9184C300.387 40.2144 300.619 40.5527 300.873 40.8487C300.936 40.9121 300.979 40.9544 301.021 41.0178C301.296 41.335 301.528 41.6521 301.803 41.9693L301.951 42.1173C302.205 42.4344 302.459 42.7516 302.712 43.0687C302.776 43.111 302.818 43.1744 302.86 43.2167C303.135 43.5339 303.368 43.851 303.643 44.1681C303.685 44.2316 303.727 44.2739 303.791 44.3373C304.044 44.6333 304.298 44.9716 304.552 45.2676C304.594 45.331 304.657 45.3733 304.7 45.4367C304.975 45.7327 305.207 46.071 305.482 46.367C305.524 46.4305 305.567 46.4728 305.63 46.5362C305.884 46.8533 306.138 47.1705 306.391 47.4876C306.434 47.5299 306.497 47.5933 306.539 47.6356C306.814 47.9528 307.047 48.2699 307.322 48.5871C307.364 48.6505 307.406 48.6928 307.448 48.7562C307.723 49.0522 307.977 49.3694 308.231 49.6865C308.273 49.75 308.336 49.7922 308.379 49.8557C308.654 50.1517 308.886 50.49 309.14 50.786C309.203 50.8494 309.246 50.8917 309.288 50.9551C309.563 51.2723 309.795 51.5894 310.07 51.9066L310.218 52.0546C310.493 52.3717 310.726 52.6889 310.979 53.006L311.127 53.154C311.402 53.4712 311.635 53.7883 311.91 54.1055C311.952 54.1689 311.994 54.2112 312.058 54.2746C312.311 54.5706 312.565 54.9089 312.819 55.2049C312.882 55.2683 312.924 55.3106 312.967 55.374C313.242 55.67 313.474 56.0083 313.749 56.3255C313.791 56.3678 313.834 56.4312 313.897 56.4735C314.151 56.7906 314.405 57.1078 314.658 57.4249C314.722 57.4672 314.764 57.5306 314.806 57.5729C315.081 57.8901 315.314 58.2072 315.589 58.5244C315.631 58.5878 315.673 58.6301 315.737 58.6935C315.99 58.9895 316.244 59.3278 316.498 59.6238C316.54 59.6873 316.603 59.7295 316.646 59.793C316.921 60.089 317.153 60.4273 317.428 60.7233C317.47 60.7867 317.513 60.829 317.555 60.8924C325.547 70.0686 331.256 80.5767 335.146 91.5289C338.931 90.9581 342.948 90.6198 347.261 90.6198C357.473 90.6198 366.205 94.6793 372.252 102.016C372.569 102.375 372.865 102.756 373.183 103.115C373.5 103.475 373.796 103.855 374.092 104.236C374.409 104.574 374.705 104.955 375.022 105.335C375.339 105.674 375.635 106.054 375.931 106.435C376.248 106.794 376.544 107.175 376.84 107.534C377.179 107.894 377.475 108.274 377.771 108.655C378.088 108.993 378.384 109.374 378.68 109.754C378.997 110.093 379.293 110.473 379.61 110.854C379.927 111.213 380.223 111.594 380.519 111.953C380.836 112.313 381.132 112.693 381.45 113.053C381.767 113.412 382.063 113.793 382.359 114.173C382.676 114.512 382.972 114.892 383.289 115.273C383.606 115.632 383.902 116.013 384.198 116.372C384.515 116.732 384.811 117.112 385.128 117.472C385.446 117.831 385.742 118.212 386.038 118.592C386.355 118.931 386.651 119.311 386.947 119.692C387.285 120.03 387.581 120.411 387.877 120.791C388.194 121.151 388.49 121.531 388.786 121.891C389.103 122.25 389.399 122.631 389.717 122.99C390.034 123.349 390.33 123.73 390.626 124.111C390.943 124.449 391.239 124.829 391.556 125.21C391.873 125.569 392.169 125.95 392.465 126.309C392.782 126.669 393.078 127.049 393.395 127.409C393.713 127.768 394.009 128.149 394.305 128.53C394.622 128.868 394.918 129.248 395.235 129.629C395.552 129.988 395.848 130.369 396.144 130.728C396.461 131.088 396.757 131.468 397.074 131.828C397.392 132.187 397.688 132.568 397.984 132.927C398.301 133.287 398.597 133.667 398.893 134.048C399.21 134.386 399.506 134.767 399.823 135.147C400.774 136.204 401.705 137.346 402.529 138.551C405.68 143.182 407.688 148.742 408.492 154.641C411.875 153.669 415.427 153.14 419.106 153.14C429.72 153.14 439.953 157.58 447.184 165.34C448.114 166.334 448.981 167.37 449.784 168.427C450.08 168.807 450.398 169.146 450.694 169.547C450.99 169.907 451.328 170.266 451.624 170.647C451.92 171.006 452.237 171.366 452.533 171.746C452.829 172.127 453.167 172.465 453.442 172.846C453.759 173.226 454.076 173.565 454.372 173.945C454.668 174.326 455.007 174.685 455.282 175.066C455.599 175.425 455.916 175.785 456.212 176.165C456.508 176.525 456.846 176.884 457.121 177.265C457.417 177.645 457.755 177.983 458.051 178.364C458.347 178.745 458.686 179.104 458.961 179.485C459.257 179.844 459.595 180.204 459.891 180.584C460.187 180.944 460.504 181.303 460.8 181.684C461.096 182.064 461.434 182.402 461.709 182.783C462.026 183.164 462.343 183.502 462.639 183.904C462.935 184.263 463.274 184.622 463.549 185.003C463.866 185.362 464.183 185.722 464.479 186.102C464.775 186.483 465.113 186.821 465.388 187.202C465.705 187.582 466.022 187.921 466.318 188.301C466.614 188.682 466.953 189.041 467.228 189.422C467.524 189.781 467.862 190.141 468.158 190.521C468.454 190.881 468.792 191.24 469.067 191.621C469.363 192.001 469.701 192.34 469.997 192.72C470.293 193.101 470.61 193.46 470.906 193.841C471.202 194.2 471.541 194.56 471.816 194.94C472.133 195.3 472.45 195.659 472.746 196.04C473.042 196.42 473.38 196.759 473.655 197.139C473.972 197.52 474.289 197.858 474.585 198.26C474.881 198.619 475.22 198.979 475.495 199.359C475.812 199.719 476.129 200.078 476.425 200.459C476.721 200.818 477.059 201.178 477.334 201.558C483.466 209.085 486.595 218.748 485.897 228.473C484.924 242.661 484.459 256.15 484.396 268.667C494.545 243.464 504.778 211.728 511.163 181.937C514.736 165.234 529.727 153.14 546.811 153.14C558.101 153.14 568.546 158.215 575.523 167.074C575.629 167.2 575.713 167.348 575.798 167.475C576.009 167.708 576.242 167.94 576.432 168.173C576.538 168.3 576.622 168.448 576.728 168.575C576.94 168.807 577.151 169.04 577.362 169.294C577.447 169.42 577.553 169.547 577.637 169.674C577.849 169.928 578.081 170.139 578.272 170.393C578.377 170.52 578.462 170.647 578.568 170.774C578.758 171.027 578.99 171.239 579.202 171.492C579.286 171.619 579.392 171.746 579.477 171.873C579.688 172.127 579.921 172.338 580.111 172.592C580.217 172.719 580.301 172.867 580.407 172.994C580.597 173.226 580.83 173.459 581.041 173.713C581.126 173.839 581.232 173.966 581.316 174.093C581.528 174.347 581.76 174.558 581.951 174.812C582.056 174.939 582.141 175.066 582.247 175.193C582.437 175.446 582.669 175.658 582.86 175.911C582.965 176.038 583.05 176.165 583.156 176.292C583.367 176.546 583.6 176.757 583.79 177.011C583.896 177.138 583.98 177.286 584.086 177.413C584.276 177.645 584.509 177.878 584.699 178.131C584.805 178.258 584.889 178.385 584.995 178.512C585.207 178.766 585.418 178.977 585.629 179.231C585.735 179.358 585.82 179.485 585.904 179.611C586.116 179.865 586.348 180.077 586.539 180.33C586.644 180.457 586.729 180.584 586.835 180.711C587.046 180.965 587.257 181.176 587.469 181.43C587.553 181.557 587.659 181.705 587.744 181.832C587.955 182.064 588.188 182.297 588.378 182.529C588.484 182.656 588.568 182.804 588.674 182.931C588.864 183.164 589.097 183.396 589.308 183.65C589.393 183.777 589.499 183.904 589.583 184.03C589.795 184.284 590.027 184.496 590.218 184.749C590.323 184.876 590.408 185.003 590.514 185.13C590.704 185.384 590.936 185.595 591.148 185.849C591.232 185.976 591.338 186.102 591.423 186.229C591.634 186.483 591.867 186.694 592.057 186.948C592.163 187.075 592.247 187.223 592.353 187.35C592.543 187.582 592.776 187.815 592.966 188.069C593.072 188.174 593.156 188.322 593.262 188.428C601.804 178.766 611.149 170.52 621.34 163.86C646.733 147.241 671.725 143.753 688.216 143.753C711.516 143.753 725.217 152.823 732.617 160.435C733.568 161.407 734.456 162.422 735.302 163.458C735.619 163.818 735.915 164.198 736.232 164.558C736.528 164.917 736.846 165.298 737.142 165.657C737.459 166.038 737.755 166.397 738.051 166.778C738.368 167.137 738.664 167.496 738.981 167.877C739.298 168.236 739.594 168.617 739.89 168.976C740.207 169.336 740.503 169.716 740.821 170.076C741.138 170.435 741.434 170.816 741.73 171.196C742.047 171.556 742.343 171.915 742.66 172.296C742.977 172.655 743.273 173.036 743.569 173.395C743.886 173.755 744.182 174.135 744.499 174.495C744.817 174.854 745.113 175.235 745.409 175.594C745.726 175.975 746.022 176.334 746.339 176.715C746.656 177.074 746.952 177.455 747.248 177.814C747.565 178.174 747.861 178.554 748.157 178.914C748.474 179.273 748.792 179.654 749.088 180.013C749.405 180.373 749.701 180.753 749.997 181.134C750.314 181.493 750.61 181.853 750.927 182.233C751.244 182.593 751.54 182.973 751.836 183.333C751.984 183.481 752.09 183.65 752.238 183.798C753.697 177.835 755.156 172.085 756.678 166.439C756.382 166.122 756.149 165.784 755.874 165.446C755.557 165.107 755.261 164.727 754.965 164.346C754.627 163.987 754.352 163.606 754.035 163.247C753.718 162.887 753.422 162.507 753.126 162.147C752.788 161.788 752.513 161.407 752.196 161.027C751.878 160.688 751.582 160.308 751.286 159.927C750.969 159.589 750.673 159.187 750.356 158.828C750.039 158.468 749.743 158.088 749.447 157.728C749.13 157.369 748.834 156.988 748.517 156.629C747.607 155.614 746.72 154.557 745.916 153.415C739.404 144.323 737.67 132.589 741.286 121.996C746.085 107.915 759.3 98.4427 774.185 98.4427H777.758C779.957 91.9095 782.304 85.0168 784.841 77.6167C789.831 62.9644 803.574 53.1329 819.029 53.1329C830.172 53.1329 840.363 58.0592 847.255 66.6857C847.551 67.0662 847.869 67.4257 848.165 67.8062C848.482 68.1657 848.778 68.5251 849.074 68.9057C849.391 69.2651 849.708 69.6246 850.004 70.0051C850.321 70.3646 850.617 70.7452 850.913 71.1046C851.23 71.464 851.548 71.8446 851.844 72.2252C852.161 72.5846 852.457 72.944 852.753 73.3246C853.07 73.6841 853.387 74.0435 853.683 74.4241C853.979 74.7835 854.296 75.1641 854.592 75.5235C854.909 75.8829 855.205 76.2635 855.522 76.6441C855.818 77.0035 856.136 77.363 856.432 77.7435C856.749 78.103 857.045 78.4624 857.362 78.843C857.658 79.2024 857.975 79.5619 858.271 79.9424C858.588 80.3019 858.884 80.6825 859.201 81.0419C859.497 81.4225 859.814 81.7819 860.11 82.1625C860.428 82.5219 860.724 82.8813 861.02 83.2619C861.337 83.6214 861.654 83.9808 861.95 84.3614C862.267 84.7208 862.563 85.1014 862.859 85.4608C863.176 85.8202 863.493 86.2008 863.789 86.5814C864.085 86.9408 864.403 87.3003 864.699 87.6809C865.016 88.0403 865.312 88.3997 865.629 88.7803C865.925 89.1397 866.242 89.4992 866.538 89.8797C866.855 90.2392 867.151 90.6198 867.468 90.9792C867.764 91.3598 868.081 91.7192 868.377 92.0998C868.695 92.4592 868.991 92.8187 869.287 93.1992C869.604 93.5587 869.921 93.9181 870.217 94.2987C870.534 94.6581 870.83 95.0387 871.126 95.3981C871.443 95.7787 871.76 96.1381 872.056 96.5187C872.374 96.8781 872.67 97.2376 872.966 97.6182C873.24 97.9353 873.515 98.2524 873.769 98.5696C883.431 99.373 892.312 104.13 898.295 111.784C898.612 112.144 898.929 112.503 899.225 112.884C899.521 113.243 899.839 113.602 900.135 113.983C900.452 114.342 900.748 114.723 901.044 115.082C901.361 115.463 901.678 115.822 901.974 116.203C902.291 116.562 902.587 116.922 902.883 117.302C903.2 117.662 903.517 118.021 903.813 118.402C904.131 118.761 904.427 119.121 904.723 119.501C905.04 119.882 905.357 120.241 905.653 120.622C905.949 120.981 906.266 121.341 906.562 121.721C906.879 122.081 907.196 122.44 907.492 122.821C907.788 123.18 908.106 123.54 908.402 123.92C908.719 124.28 909.036 124.66 909.332 125.02C909.628 125.4 909.945 125.76 910.241 126.14C910.558 126.5 910.854 126.859 911.15 127.24C911.467 127.599 911.784 127.959 912.08 128.339C912.398 128.699 912.694 129.079 912.99 129.439C913.307 129.819 913.624 130.179 913.92 130.559C914.216 130.919 914.533 131.278 914.829 131.659C915.146 132.018 915.463 132.378 915.759 132.758C916.055 133.118 916.373 133.477 916.669 133.858C916.986 134.238 917.303 134.598 917.599 134.957C917.895 135.338 918.212 135.697 918.508 136.078C918.825 136.437 919.142 136.797 919.438 137.177C919.734 137.537 920.051 137.896 920.347 138.277C920.665 138.636 920.961 139.017 921.257 139.376C921.574 139.757 921.891 140.116 922.187 140.497C922.504 140.856 922.8 141.215 923.096 141.596C923.413 141.955 923.73 142.315 924.026 142.695C924.322 143.055 924.64 143.414 924.936 143.795C925.253 144.175 925.57 144.535 925.866 144.915C926.627 145.804 927.346 146.734 928.022 147.706C934.513 157.115 935.951 169.103 931.892 179.802Z" fill="white"/>
<path d="M328.193 152.719C343.374 155.848 357.878 152.719 363.206 137.094C368.09 124.598 364.474 105.844 347.285 105.844C330.096 105.844 318.509 110.517 313.393 124.598C308.508 137.094 314.577 149.611 328.193 152.719Z" fill="black"/>
<path d="M870.935 113.664H833.322C835.351 107.089 837.254 101 838.988 95.5658C843.259 82.0765 833.195 68.3334 819.05 68.3334C810.106 68.3334 802.135 74.0421 799.26 82.4993C795.37 93.9167 791.902 104.129 788.731 113.643H774.205C765.854 113.643 758.411 118.971 755.726 126.879C751.413 139.544 760.822 152.716 774.205 152.716H776.362C768.074 180.836 761.54 208.682 752.893 253.759C723.779 301.099 681.429 330.826 653.16 330.826C632.842 330.826 614.299 318.331 610.451 301.141C730.756 301.141 772.619 158.974 688.237 158.974C656.29 158.974 602.966 173.817 571.548 255.43C564.634 251.751 558.439 247.184 553.534 242.363C559.517 224.835 564.19 208.238 567.509 194.622C570.765 181.238 560.617 168.362 546.852 168.362C536.852 168.362 528.162 175.339 526.069 185.128C514.715 238.177 481.964 330.869 460.969 330.869C439.973 330.869 438.493 247.036 442.257 193.205C443.187 179.779 432.573 168.362 419.126 168.362C406.884 168.362 396.736 177.876 395.974 190.097C394.896 207.075 393.987 230.354 393.606 254.288C393.818 267.904 394.452 282.662 396.292 296.934C389.378 314.546 379.271 330.826 364.112 330.826C327.111 330.826 338.613 238.748 346.394 193.163C348.614 180.181 338.613 168.32 325.441 168.32C315.017 168.32 306.137 175.868 304.446 186.164C301.232 205.87 296.432 235.259 293.578 260.694C282.774 296.046 270.067 327.697 241.101 327.697C200.484 327.697 190.526 265.198 187.756 229.275C233.256 216.78 287.637 174.578 297.532 115.208C303.452 73.0272 285.036 15.2217 228.774 15.2217C193.275 15.2217 155.788 41.2701 122.318 79.201C112.423 63.6819 99.7371 49.2199 83.4991 36.8512C73.879 29.5145 60.0513 31.7768 53.2009 41.7564C46.9214 50.8903 48.8031 63.259 57.3873 70.2574C73.6252 83.4931 85.2752 99.1179 93.6056 115.884C22.945 217.055 -16.8676 359.327 47.894 368.334C86.142 373.197 132.89 324.082 149.529 260.081C156.739 311.671 177.396 373.007 234.715 373.007C264.992 373.007 286.453 356.811 301.972 335.309C312.649 356.811 330.008 369.899 349.227 369.899C371.744 369.899 390.012 347.783 401.599 323.595C409.189 349.919 423.884 369.899 452.342 369.899C493.233 369.899 524.885 316.787 545.563 264.098C550.235 273.169 556.198 280.653 562.71 286.447C554.485 341.017 593.452 369.878 630.453 369.878C669.969 369.878 714.708 342.455 747.057 285.051C740.587 332.941 752.681 369.878 799.196 369.878C833.596 369.878 851.801 340.869 861.125 317.083C864.91 307.4 860.829 296.447 851.589 291.69C840.595 286.024 827.105 291.479 823.194 303.213C818.627 316.914 812.918 330.805 806.258 330.805C795.327 330.805 792.6 305.793 792.79 293.297C792.135 263.126 807.167 203.121 821.693 152.674H870.956C879.054 152.674 886.328 147.663 889.203 140.093C894.066 127.302 884.636 113.622 870.956 113.622L870.935 113.664ZM688.321 202.72C706.187 208.978 667.263 263.654 619.733 268.348C626.583 241.792 663.309 191.789 688.321 202.72ZM59.861 327.697C34.1297 324.082 62.0388 233.462 107.983 157.811C111.768 175.149 113.374 192.592 114.051 208.936C116.884 277.672 78.171 330.805 59.861 327.676V327.697ZM155.196 193.987C153.927 169.081 149.72 140.495 139.127 112.903C165.915 79.5182 195.516 55.8378 223.044 55.8378C250.573 55.8378 261.06 85.5228 256.895 115.208C249.664 166.692 190.23 198.512 155.196 193.966V193.987Z" fill="black"/>
<path d="M328.193 152.719C343.374 155.848 357.878 152.719 363.206 137.094C368.09 124.598 364.474 105.844 347.285 105.844C330.096 105.844 318.509 110.517 313.393 124.598C308.508 137.094 314.577 149.611 328.193 152.719Z" fill="black"/>
<path d="M870.935 113.664H833.322C835.351 107.089 837.254 101 838.988 95.5658C843.259 82.0765 833.195 68.3334 819.05 68.3334C810.106 68.3334 802.135 74.0421 799.26 82.4993C795.37 93.9167 791.902 104.129 788.731 113.643H774.205C765.854 113.643 758.411 118.971 755.726 126.879C751.413 139.544 760.822 152.716 774.205 152.716H776.362C768.074 180.836 761.54 208.682 752.893 253.759C723.779 301.099 681.429 330.826 653.16 330.826C632.842 330.826 614.299 318.331 610.451 301.141C730.756 301.141 772.619 158.974 688.237 158.974C656.29 158.974 602.966 173.817 571.548 255.43C564.634 251.751 558.439 247.184 553.534 242.363C559.517 224.835 564.19 208.238 567.509 194.622C570.765 181.238 560.617 168.362 546.852 168.362C536.852 168.362 528.162 175.339 526.069 185.128C514.715 238.177 481.964 330.869 460.969 330.869C439.973 330.869 438.493 247.036 442.257 193.205C443.187 179.779 432.573 168.362 419.126 168.362C406.884 168.362 396.736 177.876 395.974 190.097C394.896 207.075 393.987 230.354 393.606 254.288C393.818 267.904 394.452 282.662 396.292 296.934C389.378 314.546 379.271 330.826 364.112 330.826C327.111 330.826 338.613 238.748 346.394 193.163C348.614 180.181 338.613 168.32 325.441 168.32C315.017 168.32 306.137 175.868 304.446 186.164C301.232 205.87 296.432 235.259 293.578 260.694C282.774 296.046 270.067 327.697 241.101 327.697C200.484 327.697 190.526 265.198 187.756 229.275C233.256 216.78 287.637 174.578 297.532 115.208C303.452 73.0272 285.036 15.2217 228.774 15.2217C193.275 15.2217 155.788 41.2701 122.318 79.201C112.423 63.6819 99.7371 49.2199 83.4991 36.8512C73.879 29.5145 60.0513 31.7768 53.2009 41.7564C46.9214 50.8903 48.8031 63.259 57.3873 70.2574C73.6252 83.4931 85.2752 99.1179 93.6056 115.884C22.945 217.055 -16.8676 359.327 47.894 368.334C86.142 373.197 132.89 324.082 149.529 260.081C156.739 311.671 177.396 373.007 234.715 373.007C264.992 373.007 286.453 356.811 301.972 335.309C312.649 356.811 330.008 369.899 349.227 369.899C371.744 369.899 390.012 347.783 401.599 323.595C409.189 349.919 423.884 369.899 452.342 369.899C493.233 369.899 524.885 316.787 545.563 264.098C550.235 273.169 556.198 280.653 562.71 286.447C554.485 341.017 593.452 369.878 630.453 369.878C669.969 369.878 714.708 342.455 747.057 285.051C740.587 332.941 752.681 369.878 799.196 369.878C833.596 369.878 851.801 340.869 861.125 317.083C864.91 307.4 860.829 296.447 851.589 291.69C840.595 286.024 827.105 291.479 823.194 303.213C818.627 316.914 812.918 330.805 806.258 330.805C795.327 330.805 792.6 305.793 792.79 293.297C792.135 263.126 807.167 203.121 821.693 152.674H870.956C879.054 152.674 886.328 147.663 889.203 140.093C894.066 127.302 884.636 113.622 870.956 113.622L870.935 113.664ZM688.321 202.72C706.187 208.978 667.263 263.654 619.733 268.348C626.583 241.792 663.309 191.789 688.321 202.72ZM59.861 327.697C34.1297 324.082 62.0388 233.462 107.983 157.811C111.768 175.149 113.374 192.592 114.051 208.936C116.884 277.672 78.171 330.805 59.861 327.676V327.697ZM155.196 193.987C153.927 169.081 149.72 140.495 139.127 112.903C165.915 79.5182 195.516 55.8378 223.044 55.8378C250.573 55.8378 261.06 85.5228 256.895 115.208C249.664 166.692 190.23 198.512 155.196 193.966V193.987Z" fill="black"/>
</g>
<defs>
<clipPath id="clip0_11_59">
<rect width="934.17" height="422.462" fill="white"/>
</clipPath>
</defs>
</svg>
