<svg viewBox="0 0 94.2223 60.0558" fill="none" xmlns="http://www.w3.org/2000/svg">
<path id="Vector"  d="M66.4638 50.4583L89.4849 60.0558L91.7339 54.6641L68.7128 45.0667L93.4337 48.3788L94.2106 42.5899L69.4897 39.2778L94.2223 36.0767L93.4746 30.282L68.7362 33.4831L91.804 23.9908L89.5784 18.5874L66.5164 28.0798L86.3364 12.9446L82.7906 8.30068L62.9648 23.4417L78.1934 3.68594L73.5729 0.12267L56.2881 22.5421C51.6616 28.5412 42.6074 28.5237 38.0044 22.5012L20.8306 0L16.1866 3.54575L31.3276 23.3716L11.5719 8.13712L8.00861 12.7635L27.7643 27.9922L4.7374 18.3947L2.48845 23.7863L25.5095 33.3838L0.788594 30.0775L0.0175243 35.8664L24.7385 39.1785L0 42.3738L0.747704 48.1685L25.4803 44.9674L2.41835 54.4597L4.64394 59.863L27.7059 50.3707L36.3162 47.3916C43.1039 45.0433 50.4817 45.0199 57.2811 47.3331L66.4697 50.4583H66.4638Z" fill="#111111"/>
</svg>
