<svg viewBox="0 0 71.0429 70.312" fill="none" xmlns="http://www.w3.org/2000/svg">
<g id="SolarSphere" clip-path="url(#clip0_0_4)">
<path id="Vector"  d="M69.4437 33.0409H26.3141C27.343 -0.995428 40.8136 -7.79776 44.6233 25.6193H70.1728C58.485 -14.4809 -1.64719 -5.02682 0.0342558 36.7525H45.0408C44.0119 70.7888 30.5412 77.5912 26.7315 44.1741H1.18069C12.87 84.2743 73.0006 74.8188 71.3207 33.0409H69.4452H69.4437ZM47.9421 21.9077C47.1117 16.2975 45.8874 10.6175 43.2167 5.55684C48.1303 8.53277 52.2192 14.3465 54.471 21.9077H47.9436H47.9421ZM64.7477 21.9077H58.3674C56.7418 15.937 54.0521 10.8618 50.6774 7.0717C56.7962 10.302 61.8067 15.4689 64.7477 21.9077ZM23.4113 47.8857C24.2417 53.4959 25.466 59.1759 28.1367 64.2366C23.2231 61.2606 19.1342 55.4469 16.8825 47.8857H23.4098H23.4113ZM6.6057 47.8857H12.9861C14.6117 53.8564 17.3013 58.9317 20.6745 62.7217C14.5558 59.4914 9.54529 54.3246 6.60423 47.8857H6.6057ZM3.83955 33.0409C4.50243 21.8089 11.1341 12.1353 20.6348 7.0877C14.6411 14.0703 11.772 22.9181 11.3223 33.0409H3.83955ZM15.0761 33.0409C15.5552 20.4874 20.8582 9.88044 28.1866 5.5016C23.8743 13.9627 22.8866 23.6901 22.5617 33.0409H15.0746H15.0761ZM56.2773 36.7525C55.7982 49.3061 50.4952 59.913 43.1668 64.2918C47.4791 55.8307 48.4668 46.1033 48.7917 36.7525H56.2788H56.2773ZM50.7186 62.7057C56.7124 55.7231 59.5814 46.8753 60.0312 36.7525H67.5139C66.851 47.9845 60.2193 57.6581 50.7186 62.7057Z" fill="#111111"/>
</g>
<defs>
<clipPath id="clip0_0_4">
<rect width="71.0429" height="70.312" fill="white"/>
</clipPath>
</defs>
</svg>
