<svg viewBox="0 0 81.3758 66.9018" fill="none" xmlns="http://www.w3.org/2000/svg">
<g id="AK" clip-path="url(#clip0_0_4)">
<path id="Vector" d="M36.0967 56.4108C36.6211 53.484 36.5337 50.2913 36.5337 47.1871V29.4491C28.1434 39.0277 23.8608 45.1472 13.7226 45.4132L8.30382 52.7744C13.373 48.8721 17.1311 50.1139 22.0254 53.5725C27.7938 57.6522 37.6699 69.0046 42.302 57.5637C41.6027 61.9096 38.1943 66.344 34.2612 67.1421C25.0844 68.9161 18.1799 55.169 10.0518 55.169C6.64326 55.169 2.6229 59.1602 0.263134 61.7322L0.000937364 61.0226L11.4502 45.4132C-7.60275 41.6883 9.7896 14.8154 27.7938 21.8218L35.6597 11.2678C30.3283 12.6868 24.8222 11.3565 19.7531 9.93743C15.9075 8.87318 6.64326 5.41427 6.20625 9.49398C6.20625 11.1791 9.35262 13.0416 12.1494 12.1547L7.95424 19.782C4.54569 16.2344 3.32208 9.31662 7.08024 6.38986C17.0437 -1.41481 32.688 10.3809 44.6618 3.72919C43.4382 5.32558 43.0012 7.45414 43.0012 9.93743V19.9594C46.3222 15.7023 54.1007 5.85772 59.2575 2.31015C69.3081 -4.51893 76.1252 5.76902 68.6963 7.80889C66.599 8.42973 65.8123 5.59166 64.8509 4.08394C64.3265 3.37444 63.7147 3.01966 62.9281 3.01966C58.296 3.01966 52.2656 11.0904 50.4301 13.3963C54.7999 22.2653 59.7819 30.8681 64.5887 39.471C66.162 41.8657 67.9971 45.3246 70.2696 47.1871C75.426 51.6215 79.4465 44.0829 75.1638 40.0032C74.0279 38.8503 72.8042 38.4955 73.7657 36.6331C74.9016 34.4159 77.6985 34.5929 79.0969 36.2783C82.9423 41.1561 78.2229 49.8476 72.542 51.5327C66.9486 53.2177 61.7044 50.2913 57.1598 42.2204C52.6152 34.1496 47.4584 24.3051 45.2737 19.6046L43.0012 22.7087V45.2358C43.0012 49.3155 43.613 50.1139 45.4485 50.7346C43.7004 51.0894 38.2818 53.2177 36.0967 56.4108ZM29.8039 22.3539L36.3589 25.5468L36.5337 13.1302L29.8039 22.3539ZM16.0823 25.3694C3.49689 25.5468 3.8465 40.8902 14.6839 40.7128L24.56 26.9658C22.0254 25.7242 19.0539 25.3694 16.0823 25.3694ZM16.8689 40.8902C23.5986 40.8902 28.7551 36.5442 32.6006 31.2229C30.7653 29.8039 28.2308 28.4735 26.3954 27.5866L16.8689 40.8902Z" fill="#111111"/>
</g>
<defs>
<clipPath id="clip0_0_4">
</clipPath>
</defs>
</svg>
