<svg viewBox="0 0 104.675 51.2639" fill="none" xmlns="http://www.w3.org/2000/svg">
<g id="Group 1"  clip-path="url(#clip0_0_4)">
<path id="Vector" d="M49.8254 51.6381H12.3755C5.55093 51.6381 -0.000180656 45.9707 -0.000180656 39.0031C-0.000180656 32.0357 5.55093 26.3684 12.3755 26.3684H38.2028C38.499 26.3684 38.741 26.1211 38.741 25.819C38.741 25.5169 38.499 25.2697 38.2028 25.2697H12.3755C5.55093 25.2697 -0.000180656 19.6023 -0.000180656 12.6348C-0.000180656 5.66736 5.55093 2.10374e-06 12.3755 2.10374e-06H49.8254V12.0855H12.3755C12.0795 12.0855 11.8374 12.3327 11.8374 12.6348C11.8374 12.937 12.0795 13.1842 12.3755 13.1842H38.2028C45.0276 13.1842 50.5787 18.8515 50.5787 25.819C50.5787 32.7866 45.0276 38.4539 38.2028 38.4539H12.3755C12.0795 38.4539 11.8374 38.701 11.8374 39.0031C11.8374 39.3054 12.0795 39.5525 12.3755 39.5525H49.8254V51.6381Z" fill="#111111"/>
<path id="Vector_2" d="M78.2358 51.6381C71.4113 51.6381 65.8602 45.9707 65.8602 39.0031V12.6348C65.8602 12.3327 65.618 12.0855 65.3221 12.0855C65.0262 12.0855 64.7842 12.3327 64.7842 12.6348V51.6324H52.9465V12.6348C52.9465 5.66736 58.4976 -2.26352e-06 65.3221 -2.26352e-06C72.1468 -2.26352e-06 77.6979 5.66736 77.6979 12.6348V39.0031C77.6979 39.3054 77.9399 39.5525 78.2358 39.5525C78.532 39.5525 78.774 39.3054 78.774 39.0031V12.6348C78.774 5.66736 84.3251 -2.26352e-06 91.1495 -2.26352e-06C97.9743 -2.26352e-06 103.525 5.66736 103.525 12.6348V51.6324H91.6877V12.6348C91.6877 12.3327 91.4457 12.0855 91.1495 12.0855C90.8536 12.0855 90.6117 12.3327 90.6117 12.6348V39.0031C90.6117 45.9707 85.0606 51.6381 78.2358 51.6381Z" fill="#111111"/>
</g>
<defs>
<clipPath id="clip0_0_4">
<rect width="104.675" height="51.2639" fill="white"/>
</clipPath>
</defs>
</svg>
