<svg viewBox="0 0 69.1887 68.3203" fill="none" xmlns="http://www.w3.org/2000/svg">
<path id="Vector"  d="M44.0693 1.86185C26.8702 -3.29057 9.90664 2.61705 6.17531 15.0657C4.65679 20.1328 5.56626 25.5004 8.33938 30.4336C0.490988 38.96 -2.33897 49.6709 2.10696 57.9212C8.27037 69.3548 26.0785 71.726 41.8849 63.2076C50.4438 58.5952 56.66 51.7335 59.5834 44.5956C63.9075 42.0092 67.0826 38.3104 68.459 33.7223C72.1863 21.2778 61.2683 7.01427 44.0693 1.85779V1.86185ZM38.1698 56.3053C23.5571 64.178 8.38 64.381 4.27106 56.76C1.31117 51.2665 4.90445 43.207 12.6148 36.1869C17.0161 40.8643 23.216 44.7296 30.565 46.9343C37.1425 48.9035 43.6836 49.2567 49.4653 48.2417C46.3592 51.1772 42.5386 53.9503 38.1698 56.3053ZM55.515 40.9008C49.3516 42.3219 41.2271 41.9362 32.8184 39.4148C26.9433 37.6526 21.7543 35.0947 17.6698 32.1551C19.4197 30.9289 21.2996 29.7677 23.2932 28.6958C37.9059 20.823 53.0789 20.62 57.1878 28.2411C59.0718 31.7328 58.3044 36.264 55.515 40.9008ZM66.1122 33.0199C65.4057 35.387 63.6842 37.3075 61.2237 38.7408C61.8286 34.644 61.2643 30.6325 59.3479 27.0798C53.1845 15.6463 35.3764 13.2792 19.5699 21.7934C16.7725 23.2998 14.2267 25.0497 11.9652 26.9662C8.83473 23.2348 7.47457 19.2964 8.53023 15.7681C11.0151 7.47306 25.9201 4.60655 41.824 9.37324C57.7238 14.1399 68.597 24.7249 66.1122 33.0199Z" fill="#111111"/>
</svg>
