<svg width="27" height="27" viewBox="0 0 27 27" fill="none" xmlns="http://www.w3.org/2000/svg">
<path d="M2.20703 6.62836L9.84412 10.9556C12.6596 12.5509 13.8492 12.5509 16.6648 10.9556L24.3018 6.62836" stroke="#1D1D1F" stroke-width="2.14976" stroke-linejoin="round"/>
<path d="M2.22445 14.8869C2.29667 18.2736 2.33278 19.9668 3.58239 21.2213C4.83198 22.4756 6.57112 22.5192 10.0494 22.6066C12.1931 22.6605 14.3157 22.6605 16.4595 22.6066C19.9378 22.5192 21.6768 22.4756 22.9265 21.2213C24.1761 19.9668 24.2122 18.2736 24.2844 14.8869C24.3077 13.798 24.3077 12.7155 24.2844 11.6266C24.2122 8.23997 24.1761 6.54666 22.9265 5.29231C21.6768 4.03795 19.9378 3.99426 16.4595 3.90686C14.3157 3.853 12.1931 3.853 10.0494 3.90685C6.57112 3.99424 4.83198 4.03793 3.58238 5.2923C2.33277 6.54665 2.29667 8.23996 2.22444 11.6266C2.20122 12.7155 2.20123 13.798 2.22445 14.8869Z" stroke="#1D1D1F" stroke-width="2.14976" stroke-linejoin="round"/>
</svg>
