<svg width="24" height="23" viewBox="0 0 24 23" fill="none" xmlns="http://www.w3.org/2000/svg">
<g clip-path="url(#clip0_428_559)">
<path d="M11.8237 2.06467C14.9828 2.06467 15.357 2.0781 16.5994 2.13185C17.754 2.18111 18.3775 2.36922 18.7932 2.52597C19.3428 2.73199 19.74 2.9828 20.1511 3.3814C20.5668 3.78448 20.8208 4.16517 21.0332 4.69813C21.1949 5.10121 21.3889 5.71031 21.4397 6.8255C21.4951 8.03474 21.509 8.39751 21.509 11.4564C21.509 14.5199 21.4951 14.8826 21.4397 16.0874C21.3889 17.2071 21.1949 17.8117 21.0332 18.2148C20.8208 18.7477 20.5621 19.1329 20.1511 19.5315C19.7354 19.9346 19.3428 20.1809 18.7932 20.3869C18.3775 20.5437 17.7494 20.7318 16.5994 20.781C15.3523 20.8348 14.9782 20.8482 11.8237 20.8482C8.66455 20.8482 8.29044 20.8348 7.04803 20.781C5.89337 20.7318 5.26986 20.5437 4.85418 20.3869C4.30456 20.1809 3.90736 19.9301 3.4963 19.5315C3.08063 19.1284 2.8266 18.7477 2.61415 18.2148C2.45249 17.8117 2.25851 17.2026 2.20771 16.0874C2.15228 14.8782 2.13843 14.5154 2.13843 11.4564C2.13843 8.39303 2.15228 8.03026 2.20771 6.8255C2.25851 5.70583 2.45249 5.10121 2.61415 4.69813C2.8266 4.16517 3.08525 3.78 3.4963 3.3814C3.91198 2.97832 4.30456 2.73199 4.85418 2.52597C5.26986 2.36922 5.89799 2.18111 7.04803 2.13185C8.29044 2.0781 8.66455 2.06467 11.8237 2.06467ZM11.8237 0C8.61375 0 8.21193 0.013436 6.95104 0.0671801C5.69477 0.120924 4.83109 0.317986 4.08287 0.600142C3.30232 0.895735 2.64186 1.28538 1.98601 1.92583C1.32555 2.5618 0.923726 3.20225 0.618897 3.95467C0.327923 4.68469 0.124703 5.51773 0.0692795 6.73592C0.0138559 7.96308 0 8.35273 0 11.4654C0 14.5781 0.0138559 14.9677 0.0692795 16.1904C0.124703 17.4086 0.327923 18.2461 0.618897 18.9717C0.923726 19.7286 1.32555 20.369 1.98601 21.005C2.64186 21.641 3.30232 22.0351 4.07825 22.3262C4.83109 22.6083 5.69015 22.8054 6.94642 22.8591C8.20731 22.9129 8.60913 22.9263 11.8191 22.9263C15.029 22.9263 15.4308 22.9129 16.6917 22.8591C17.948 22.8054 18.8117 22.6083 19.5599 22.3262C20.3358 22.0351 20.9963 21.641 21.6521 21.005C22.308 20.369 22.7144 19.7286 23.0146 18.9761C23.3056 18.2461 23.5088 17.4131 23.5643 16.1949C23.6197 14.9722 23.6335 14.5826 23.6335 11.4699C23.6335 8.35721 23.6197 7.96756 23.5643 6.74488C23.5088 5.52668 23.3056 4.68917 23.0146 3.96363C22.7237 3.20225 22.3218 2.5618 21.6614 1.92583C21.0055 1.28986 20.3451 0.895735 19.5691 0.604621C18.8163 0.322464 17.9572 0.125403 16.701 0.0716588C15.4355 0.013436 15.0336 0 11.8237 0Z" fill="#1D1D1F"/>
<path d="M11.8235 5.57595C8.47037 5.57595 5.75 8.21389 5.75 11.4654C5.75 14.7169 8.47037 17.3549 11.8235 17.3549C15.1766 17.3549 17.897 14.7169 17.897 11.4654C17.897 8.21389 15.1766 5.57595 11.8235 5.57595ZM11.8235 15.2857C9.64813 15.2857 7.88381 13.5749 7.88381 11.4654C7.88381 9.35595 9.64813 7.6451 11.8235 7.6451C13.9989 7.6451 15.7632 9.35595 15.7632 11.4654C15.7632 13.5749 13.9989 15.2857 11.8235 15.2857Z" fill="#1D1D1F"/>
<path d="M19.5546 5.34302C19.5546 6.10439 18.9172 6.71797 18.1367 6.71797C17.3515 6.71797 16.7188 6.09991 16.7188 5.34302C16.7188 4.58164 17.3561 3.96806 18.1367 3.96806C18.9172 3.96806 19.5546 4.58612 19.5546 5.34302Z" fill="#1D1D1F"/>
</g>
<defs>
<clipPath id="clip0_428_559">
<rect width="23.6474" height="22.9308" fill="white"/>
</clipPath>
</defs>
</svg>
