<svg width="24" height="23" viewBox="0 0 24 23" fill="none" xmlns="http://www.w3.org/2000/svg">
<g clip-path="url(#clip0_428_560)">
<path d="M21.8969 0H1.74584C0.780549 0 0 0.738981 0 1.65263V21.2737C0 22.1873 0.780549 22.9308 1.74584 22.9308H21.8969C22.8622 22.9308 23.6474 22.1873 23.6474 21.2782V1.65263C23.6474 0.738981 22.8622 0 21.8969 0ZM7.0157 19.5404H3.50554V8.59457H7.0157V19.5404ZM5.26062 7.10318C4.13368 7.10318 3.22381 6.22088 3.22381 5.13256C3.22381 4.04424 4.13368 3.16194 5.26062 3.16194C6.38295 3.16194 7.29282 4.04424 7.29282 5.13256C7.29282 6.2164 6.38295 7.10318 5.26062 7.10318ZM20.1511 19.5404H16.6455V14.2198C16.6455 12.9523 16.6225 11.3176 14.8212 11.3176C12.9968 11.3176 12.7197 12.7015 12.7197 14.1302V19.5404H9.21879V8.59457H12.5812V10.0905H12.6273C13.0938 9.23055 14.2392 8.32137 15.9435 8.32137C19.4952 8.32137 20.1511 10.5876 20.1511 13.5346V19.5404Z" fill="#1D1D1F"/>
</g>
<defs>
<clipPath id="clip0_428_560">
<rect width="23.6474" height="22.9308" fill="white"/>
</clipPath>
</defs>
</svg>
